<?xml version="1.0" encoding="utf-8" standalone="yes"?>
<!DOCTYPE svg PUBLIC "-//W3C//DTD SVG 1.1//EN" "http://www.w3.org/Graphics/SVG/1.1/DTD/svg11.dtd">
<svg width="806" height="602" viewBox="0 0 806 602" style="fill:none;stroke:none;fill-rule:evenodd;clip-rule:evenodd;stroke-linecap:round;stroke-linejoin:round;stroke-miterlimit:1.5;" version="1.1" xmlns="http://www.w3.org/2000/svg" xmlns:xlink="http://www.w3.org/1999/xlink"><style id="fontImports">@import url("https://fonts.googleapis.com/css2?family=Roboto:wght@400;700&amp;display=block");</style><g id="items" style="isolation: isolate"><g id="blend" style="mix-blend-mode:normal"><g id="g-root-5.cu_sy_1qf3ympz029kz-fill" data-item-order="-256848" transform="translate(243.732421875, 471)"><g id="5.cu_sy_1qf3ympz029kz-fill" stroke="none" fill="#e3cd09"><g><path d="M 10 82L 51.5692 10L 494.974 10L 536.543 82L 10 82Z"></path></g></g></g><g id="g-root-5.line_sy_1hjgydtz02ado-fill" data-item-order="-256843" transform="translate(207, 506.99609375)"></g><g id="g-root-4.cu_sy_1hjgydtz02adp-fill" data-item-order="-256840" transform="translate(292.2294921875, 387)"><g id="4.cu_sy_1hjgydtz02adp-fill" stroke="none" fill="#dd8433"><g><path d="M 10 82L 51.5692 10L 397.979 10L 439.549 82L 10 82Z"></path></g></g></g><g id="g-root-4.line_sy_1cuabypz03mkm-fill" data-item-order="-256835" transform="translate(207, 422.99609375)"></g><g id="g-root-3.cu_sy_1cuabypz03mkn-fill" data-item-order="-256832" transform="translate(340.7265625, 303)"><g id="3.cu_sy_1cuabypz03mkn-fill" stroke="none" fill="#3bc482"><g><path d="M 10 82L 51.569201 10L 300.985 10L 342.554001 82L 10 82Z"></path></g></g></g><g id="g-root-3.line_sy_1cuabypz03mko-fill" data-item-order="-256827" transform="translate(207, 338.99609375)"></g><g id="g-root-2.cu_sy_18egtu9z03ncx-fill" data-item-order="-256824" transform="translate(389.2246398925781, 219)"><g id="2.cu_sy_18egtu9z03ncx-fill" stroke="none" fill="#93c131"><g><path d="M 10 82L 51.5692 10L 203.99 10L 245.559 82L 10 82Z"></path></g></g></g><g id="g-root-2.line_sy_18egtu9z03ncy-fill" data-item-order="-256819" transform="translate(207, 254.99609375)"></g><g id="g-root-1.cu_sy_18egtu9z03ncz-fill" data-item-order="-256816" transform="translate(437.7217102050781, 87)"><g id="1.cu_sy_18egtu9z03ncz-fill" stroke="none" fill="#e15e5a"><g><path d="M 10 130L 79.282 10L 148.564 130L 10 130Z"></path></g></g></g><g id="g-root-1.line_sy_zittldz03o5o-fill" data-item-order="-256811" transform="translate(207, 170.99609375)"></g><g id="g-root-tx_stakehol_zittldz03o5p-fill" data-item-order="0" transform="translate(374.9999694824219, 39)"><g id="tx_stakehol_zittldz03o5p-fill" stroke="none" fill="#484848"><g><text style="font: 20px Roboto, sans-serif; white-space: pre;" font-size="20px" font-family="Roboto, sans-serif"></text></g></g></g><g id="g-root-tx_allergys_hs6a6pz03nd6-fill" data-item-order="0" transform="translate(39, 159)"><g id="tx_allergys_hs6a6pz03nd6-fill" stroke="none" fill="#484848"><g><text style="font: 20px Roboto, sans-serif; white-space: pre;" font-size="20px" font-family="Roboto, sans-serif"><tspan x="17.03" y="33.5" dominant-baseline="ideographic">Allergy Sufferers</tspan></text></g></g></g><g id="g-root-1_18lc1shz0c2rr-fill" data-item-order="0" transform="translate(483.0000305175781, 147)"></g><g id="g-root-tx_parents_qntaflz03mkh-fill" data-item-order="0" transform="translate(123, 243)"><g id="tx_parents_qntaflz03mkh-fill" stroke="none" fill="#484848"><g><text style="font: 20px Roboto, sans-serif; white-space: pre;" font-size="20px" font-family="Roboto, sans-serif"><tspan x="11.55" y="33.5" dominant-baseline="ideographic">Parents</tspan></text></g></g></g><g id="g-root-heal_hu1pg1z0c3d2-fill" data-item-order="0" transform="translate(483.0000305175781, 231)"></g><g id="g-root-tx_healthco_qntaflz03mkg-fill" data-item-order="0" transform="translate(27, 315)"><g id="tx_healthco_qntaflz03mkg-fill" stroke="none" fill="#484848"><g><text style="font: 20px Roboto, sans-serif; white-space: pre;" font-size="20px" font-family="Roboto, sans-serif"><tspan x="21.05" y="33.5" dominant-baseline="ideographic">Health-conscious </tspan><tspan x="73.99" y="57.5" dominant-baseline="ideographic">Consumers</tspan></text></g></g></g><g id="g-root-4_hu1pg1z099ft-fill" data-item-order="0" transform="translate(483.0000305175781, 315)"></g><g id="g-root-tx_retailer_v30bgxz03oxz-fill" data-item-order="0" transform="translate(111, 411)"><g id="tx_retailer_v30bgxz03oxz-fill" stroke="none" fill="#484848"><g><text style="font: 20px Roboto, sans-serif; white-space: pre;" font-size="20px" font-family="Roboto, sans-serif"><tspan x="14.29" y="33.5" dominant-baseline="ideographic">Retailers</tspan></text></g></g></g><g id="g-root-bask_18lc1shz06fpk-fill" data-item-order="0" transform="translate(483.0000305175781, 399)"></g><g id="g-root-tx_regularc_v30bgxz03oxy-fill" data-item-order="0" transform="translate(15, 495)"><g id="tx_regularc_v30bgxz03oxy-fill" stroke="none" fill="#484848"><g><text style="font: 20px Roboto, sans-serif; white-space: pre;" font-size="20px" font-family="Roboto, sans-serif"><tspan x="13.39" y="33.5" dominant-baseline="ideographic">Regular Consumers</tspan></text></g></g></g><g id="g-root-man_1umtampz06gaq-fill" data-item-order="0" transform="translate(483.0000305175781, 483)"></g><g id="g-root-5.cu_sy_1qf3ympz029kz-stroke" data-item-order="-256848" transform="translate(243.732421875, 471)"><g id="5.cu_sy_1qf3ympz029kz-stroke" fill="none" stroke-linecap="round" stroke-linejoin="round" stroke-miterlimit="4" stroke="#2c2c2c" stroke-width="2"><g><path d="M 10 82L 51.5692 10L 494.9742 10L 536.5435 82L 10 82Z"></path></g></g></g><g id="g-root-5.line_sy_1hjgydtz02ado-stroke" data-item-order="-256843" transform="translate(207, 506.99609375)"><g id="5.line_sy_1hjgydtz02ado-stroke" fill="none" stroke-linecap="round" stroke-linejoin="round" stroke-miterlimit="4" stroke="#484848" stroke-width="2"><g><path d="M 10 10.003906L 53.53 10.003906"></path><path d="M 47.5 16.503906L 54 10.003906L 47.5 3.503906" stroke-dasharray="none"></path></g></g></g><g id="g-root-4.cu_sy_1hjgydtz02adp-stroke" data-item-order="-256840" transform="translate(292.2294921875, 387)"><g id="4.cu_sy_1hjgydtz02adp-stroke" fill="none" stroke-linecap="round" stroke-linejoin="round" stroke-miterlimit="4" stroke="#2c2c2c" stroke-width="2"><g><path d="M 10 82L 51.5692 10L 397.9794 10L 439.5486 82L 10 82Z"></path></g></g></g><g id="g-root-4.line_sy_1cuabypz03mkm-stroke" data-item-order="-256835" transform="translate(207, 422.99609375)"><g id="4.line_sy_1cuabypz03mkm-stroke" fill="none" stroke-linecap="round" stroke-linejoin="round" stroke-miterlimit="4" stroke="#484848" stroke-width="2"><g><path d="M 10 10.003906L 101.99 10.003906"></path><path d="M 96 16.503906L 102.5 10.003906L 96 3.503906" stroke-dasharray="none"></path></g></g></g><g id="g-root-3.cu_sy_1cuabypz03mkn-stroke" data-item-order="-256832" transform="translate(340.7265625, 303)"><g id="3.cu_sy_1cuabypz03mkn-stroke" fill="none" stroke-linecap="round" stroke-linejoin="round" stroke-miterlimit="4" stroke="#2c2c2c" stroke-width="2"><g><path d="M 10 82L 51.569201 10L 300.984601 10L 342.5538 82L 10 82Z"></path></g></g></g><g id="g-root-3.line_sy_1cuabypz03mko-stroke" data-item-order="-256827" transform="translate(207, 338.99609375)"><g id="3.line_sy_1cuabypz03mko-stroke" fill="none" stroke-linecap="round" stroke-linejoin="round" stroke-miterlimit="4" stroke="#484848" stroke-width="2"><g><path d="M 10 10.003906L 150.55 10.003906"></path><path d="M 144.5 16.503906L 151 10.003906L 144.5 3.503906" stroke-dasharray="none"></path></g></g></g><g id="g-root-2.cu_sy_18egtu9z03ncx-stroke" data-item-order="-256824" transform="translate(389.2246398925781, 219)"><g id="2.cu_sy_18egtu9z03ncx-stroke" fill="none" stroke-linecap="round" stroke-linejoin="round" stroke-miterlimit="4" stroke="#2c2c2c" stroke-width="2"><g><path d="M 10 82L 51.5692 10L 203.9897 10L 245.5589 82L 10 82Z"></path></g></g></g><g id="g-root-2.line_sy_18egtu9z03ncy-stroke" data-item-order="-256819" transform="translate(207, 254.99609375)"><g id="2.line_sy_18egtu9z03ncy-stroke" fill="none" stroke-linecap="round" stroke-linejoin="round" stroke-miterlimit="4" stroke="#484848" stroke-width="2"><g><path d="M 10 10.003906L 199.01 10.003906"></path><path d="M 193 16.503906L 199.5 10.003906L 193 3.503906" stroke-dasharray="none"></path></g></g></g><g id="g-root-1.cu_sy_18egtu9z03ncz-stroke" data-item-order="-256816" transform="translate(437.7217102050781, 87)"><g id="1.cu_sy_18egtu9z03ncz-stroke" fill="none" stroke-linecap="round" stroke-linejoin="round" stroke-miterlimit="4" stroke="#2c2c2c" stroke-width="2"><g><path d="M 10 130L 79.282 10L 148.5641 130L 10 130Z"></path></g></g></g><g id="g-root-1.line_sy_zittldz03o5o-stroke" data-item-order="-256811" transform="translate(207, 170.99609375)"><g id="1.line_sy_zittldz03o5o-stroke" fill="none" stroke-linecap="round" stroke-linejoin="round" stroke-miterlimit="4" stroke="#484848" stroke-width="2"><g><path d="M 10 10.003906L 247.51 10.003906"></path><path d="M 241.5 16.503906L 248 10.003906L 241.5 3.503906" stroke-dasharray="none"></path></g></g></g><g id="g-root-tx_stakehol_zittldz03o5p-stroke" data-item-order="0" transform="translate(374.9999694824219, 39)"></g><g id="g-root-tx_allergys_hs6a6pz03nd6-stroke" data-item-order="0" transform="translate(39, 159)"></g><g id="g-root-1_18lc1shz0c2rr-stroke" data-item-order="0" transform="translate(483.0000305175781, 147)"><g id="1_18lc1shz0c2rr-stroke" fill="none" stroke-linecap="round" stroke-linejoin="round" stroke-miterlimit="4" stroke="#2c2c2c" stroke-width="2"><g><path d="M 29.351999 29.351999C 30.996 27.462 31.288 25.004 32.606003 23.482C 32.886002 23.158001 33.139999 22.807999 33.452 22.496C 36.779888 19.166893 42.176601 19.166401 45.5051 22.494898C 48.833599 25.823395 48.833107 31.22011 45.503998 34.548C 45.055214 34.955765 44.58308 35.337078 44.09 35.690002C 42.970001 36.580002 40.386002 37.101997 38.704002 38.704002M 24.610001 33.309998C 19.534 36.084 19.966 41.98 21.096001 44.888C 21.498234 45.980957 22.404346 46.81181 23.528 47.118C 27.794868 48.499805 32.476166 47.325794 35.585999 44.094002M 37.66 28.870001C 38.029392 28.28459 38.464188 27.743109 38.956001 27.256001C 41.13155 25.431776 43.761948 24.233063 46.566002 23.788002M 22.478001 45.75C 22.478001 45.75 24.292 38.704002 29.351999 37.188M 18.09 18.09L 49.91 49.91M 11.5 34C 11.500001 46.426407 21.573593 56.5 34 56.5C 46.426407 56.5 56.5 46.426407 56.5 34C 56.5 21.573593 46.426407 11.500001 34 11.500001C 21.573593 11.500001 11.500001 21.573593 11.500001 34"></path></g></g></g><g id="g-root-tx_parents_qntaflz03mkh-stroke" data-item-order="0" transform="translate(123, 243)"></g><g id="g-root-heal_hu1pg1z0c3d2-stroke" data-item-order="0" transform="translate(483.0000305175781, 231)"><g id="heal_hu1pg1z0c3d2-stroke" fill="none" stroke-linecap="round" stroke-linejoin="round" stroke-miterlimit="4" stroke="#2c2c2c" stroke-width="2"><g><path d="M 11 19C 11 23.418278 13.686292 27 17 27C 20.313709 27 23 23.418278 23 19C 23 14.581722 20.313709 11 17 11C 13.686292 11 11 14.581722 11 19ZM 17 27L 17 57M 41 11.126L 41 19.125999C 41 23.544277 44.581722 27.125999 49 27.125999C 53.418278 27.125999 57 23.544277 57 19.125999L 57 11.126M 49 11L 49 57M 43 36C 43 35.447716 42.552284 35 42 35L 37 35L 37 30C 37 29.447716 36.552284 29 36 29L 30 29C 29.447716 29 29 29.447716 29 30L 29 35L 24 35C 23.447716 35 23 35.447716 23 36L 23 42C 23 42.552284 23.447716 43 24 43L 29 43L 29 48C 29 48.552284 29.447716 49 30 49L 36 49C 36.552284 49 37 48.552284 37 48L 37 43L 42 43C 42.552284 43 43 42.552284 43 42Z"></path></g></g></g><g id="g-root-tx_healthco_qntaflz03mkg-stroke" data-item-order="0" transform="translate(27, 315)"></g><g id="g-root-4_hu1pg1z099ft-stroke" data-item-order="0" transform="translate(483.0000305175781, 315)"><g id="4_hu1pg1z099ft-stroke" fill="none" stroke-linecap="round" stroke-linejoin="round" stroke-miterlimit="4" stroke="#2c2c2c" stroke-width="2"><g><path d="M 30.5 47.709999C 30.5 48.262283 30.947716 48.709999 31.5 48.709999C 32.052284 48.709999 32.5 48.262283 32.5 47.709999C 32.5 47.157715 32.052284 46.709999 31.5 46.709999C 30.947716 46.709999 30.5 47.157715 30.5 47.709999M 21.5 40.709999C 21.5 41.262283 21.947716 41.709999 22.5 41.709999C 23.052284 41.709999 23.5 41.262283 23.5 40.709999C 23.5 40.157715 23.052284 39.709999 22.5 39.709999C 21.947716 39.709999 21.5 40.157715 21.5 40.709999M 13.5 43.709999C 13.5 44.262283 13.947716 44.709999 14.5 44.709999C 15.052284 44.709999 15.5 44.262283 15.5 43.709999C 15.5 43.157715 15.052284 42.709999 14.5 42.709999C 13.947716 42.709999 13.5 43.157715 13.5 43.709999M 41.5 44.209999L 49.5 44.209999C 51.156857 44.210003 52.5 45.553146 52.5 47.210003C 52.5 48.866856 51.156857 50.210003 49.5 50.210003L 46.5 50.209999C 48.156857 50.210003 49.5 51.553146 49.5 53.210003C 49.5 54.866856 48.156857 56.210003 46.5 56.210003L 31.200001 56.209999C 27.088572 56.210888 23.32983 53.887806 21.492001 50.210003L 11.492 50.209999M 11.5 34.209999L 21.5 34.209999C 22.970253 32.006363 25.057121 30.284697 27.500002 29.26M 52.5 36.43C 52.5 37.534569 51.604568 38.43 50.5 38.43L 36.5 38.43C 35.395432 38.43 34.5 37.534569 34.5 36.43L 34.5 22.43L 38.5 17.43L 48.5 17.43L 52.5 22.43ZM 34.5 22.43L 30.5 18.43M 56.5 18.43L 52.5 22.43M 37 11.79L 50 11.79M 38.5 17.43L 38.5 11.79M 48.5 17.43L 48.5 11.79"></path></g></g></g><g id="g-root-tx_retailer_v30bgxz03oxz-stroke" data-item-order="0" transform="translate(111, 411)"></g><g id="g-root-bask_18lc1shz06fpk-stroke" data-item-order="0" transform="translate(483.0000305175781, 399)"><g id="bask_18lc1shz06fpk-stroke" fill="none" stroke-linecap="round" stroke-linejoin="round" stroke-miterlimit="4" stroke="#2c2c2c" stroke-width="2"><g><path d="M 19 39.006001L 19 26.441999M 49 26.445999L 49 39.006001M 53.551998 12.112C 53.215153 11.432209 52.522671 11.001538 51.764 11L 16.236 11C 15.478668 11.000404 14.786528 11.428541 14.448 12.106L 11 19L 57 19ZM 57 21C 57.083736 23.411758 55.645897 25.616974 53.405285 26.513218C 51.164677 27.409462 48.602646 26.804195 47 25C 45.68671 27.221724 43.392635 28.683964 40.824165 28.936464C 38.255699 29.188965 35.720791 28.20145 34 26.278C 32.278778 28.200628 29.744114 29.187553 27.175968 28.935085C 24.607822 28.682617 22.313873 27.221001 21 25C 19.396399 26.801754 16.835665 27.405405 14.596159 26.509604C 12.356651 25.6138 10.918639 23.410648 11 21L 11 19L 57 19ZM 21 25.006001L 21 19.006001L 23 11.006001M 34 26.296L 34 19.006001L 34 11.006001M 47 25.006001L 47 19.006001L 45 11.006001M 54.754002 41.225998C 54.816563 40.66069 54.635483 40.095486 54.256058 39.671783C 53.876633 39.248077 53.334759 39.005959 52.765999 39.006001L 15.234 39.006001C 14.665241 39.005959 14.123366 39.248077 13.743942 39.671783C 13.364518 40.095486 13.183436 40.66069 13.246 41.225998L 14.802 55.226002C 14.917388 56.240723 15.778751 57.00552 16.799999 57L 51.220001 57C 52.2388 57.000183 53.094913 56.234505 53.208 55.222ZM 38.954002 47C 39.29081 46.997936 39.608551 47.156063 39.809998 47.425999C 40.005562 47.689739 40.053776 48.034756 39.938 48.341999L 37.655998 52.341999C 37.49678 52.743744 37.10611 53.00552 36.674004 53.000004L 31.284 53C 30.874069 53.005409 30.498768 52.770847 30.323999 52.399998L 28.084 48.400002C 27.94628 48.091587 27.979649 47.733643 28.172001 47.456001C 28.372194 47.172077 28.698601 47.004017 29.046 47.006001ZM 30 46.993999L 32 43.993999M 38 46.993999L 36 43.993999"></path></g></g></g><g id="g-root-tx_regularc_v30bgxz03oxy-stroke" data-item-order="0" transform="translate(15, 495)"></g><g id="g-root-man_1umtampz06gaq-stroke" data-item-order="0" transform="translate(483.0000305175781, 483)"><g id="man_1umtampz06gaq-stroke" fill="none" stroke-linecap="round" stroke-linejoin="round" stroke-miterlimit="4" stroke="#2c2c2c" stroke-width="2"><g><path d="M 40 45L 42 45L 43 57L 51 57L 52 45L 57 45L 57 38C 57 32.477154 52.522846 28 47 28C 41.477154 28 37 32.477154 37 38L 37 39M 40.959999 14.440001C 43.150082 16.721088 46.177757 18.007309 49.34 18C 50.940964 18.005489 52.526356 17.68569 54 17.059999M 40 18C 40 21.865993 43.134007 25 47 25C 50.865993 25 54 21.865993 54 18C 54 14.134007 50.865993 11 47 11C 43.134007 11 40 14.134007 40 18M 32.32 55.400002C 32.127052 56.346245 31.285522 57.01947 30.32 57L 17.639999 57C 16.674479 57.01947 15.832947 56.346245 15.639999 55.400002L 14 43L 34 43ZM 29 43L 32 37M 19 43L 16 37M 19 47L 20 53M 24 47L 24 53M 29 47L 28 53M 34 43L 37 43M 11 43L 14 43"></path></g></g></g></g></g></svg>