<?xml version="1.0" encoding="utf-8" standalone="yes"?>
<!DOCTYPE svg PUBLIC "-//W3C//DTD SVG 1.1//EN" "http://www.w3.org/Graphics/SVG/1.1/DTD/svg11.dtd">
<svg width="1022" height="516" viewBox="0 0 1022 516" style="fill:none;stroke:none;fill-rule:evenodd;clip-rule:evenodd;stroke-linecap:round;stroke-linejoin:round;stroke-miterlimit:1.5;" version="1.1" xmlns="http://www.w3.org/2000/svg" xmlns:xlink="http://www.w3.org/1999/xlink"><style id="fontImports">@import url("https://fonts.googleapis.com/css2?family=Roboto:wght@400;700&amp;display=block");</style><rect id="" x="0" y="0" width="1022" height="516" style="fill: #ffffff;"></rect><g id="items" style="isolation: isolate"><g id="blend" style="mix-blend-mode:normal"><g id="g-root-8.cu_sy_dhyyig9h0t8p-fill" data-item-order="999677302" data-item-id="8.cu_sy_dhyyig9h0t8p" data-item-class="Part Indexed Fill Stroke" data-item-index="8" data-renderer-id="0" transform="translate(843, 194)"><g id="8.cu_sy_dhyyig9h0t8p-fill" stroke="none" fill="url(#gradient-f783c9-143094716)"><g><path d="M 34 202C 34 228.51 55.4904 250 82 250C 108.5096 250 130 228.51 130 202L 130 46L 118 46L 142 10L 166 46L 154 46L 154 202C 154 241.764 121.765 274 82 274C 42.2355 274 10 241.764 10 202L 34 202Z"></path></g></g></g><g id="g-root-7.cu_sy_dhyyig9h0t8q-fill" data-item-order="999677306" data-item-id="7.cu_sy_dhyyig9h0t8q" data-item-class="Part Indexed Fill Stroke" data-item-index="7" data-renderer-id="0" transform="translate(723, 134)"><g id="7.cu_sy_dhyyig9h0t8q-fill" stroke="none" fill="url(#gradient-44d0ff-453494305)"><g><path d="M 10 82C 10 42.2355 42.2355 10 82 10C 121.765 10 154 42.2355 154 82L 154 262L 130 262L 130 82C 130 55.4903 108.5096 34 82 34C 55.4904 34 34 55.4903 34 82L 10 82Z"></path></g></g></g><g id="g-root-6.cu_sy_925ge09h0u0z-fill" data-item-order="999677310" data-item-id="6.cu_sy_925ge09h0u0z" data-item-class="Part Indexed Fill Stroke" data-item-index="6" data-renderer-id="0" transform="translate(603, 206)"><g id="6.cu_sy_925ge09h0u0z-fill" stroke="none" fill="url(#gradient-b8e45c-154771520)"><g><path d="M 34 130C 34 156.51 55.4904 178 82 178C 108.5096 178 130 156.51 130 130L 130 70L 130 10L 154 10L 154 70L 154 130C 154 169.764 121.765 202 82 202C 42.2355 202 10 169.764 10 130L 34 130Z"></path></g></g></g><g id="g-root-5.cu_sy_925ge09h0u10-fill" data-item-order="999677314" data-item-id="5.cu_sy_925ge09h0u10" data-item-class="Part Indexed Fill Stroke" data-item-index="5" data-renderer-id="0" transform="translate(483, 194)"><g id="5.cu_sy_925ge09h0u10-fill" stroke="none" fill="url(#gradient-65e5a8-188701211)"><g><path d="M 10 82C 10 42.2355 42.2355 10 82 10C 121.765 10 154 42.2355 154 82L 154 142L 130 142L 130 82C 130 55.4903 108.5096 34 82 34C 55.4904 34 34 55.4903 34 82L 34 202L 10 202L 10 82Z"></path></g></g></g><g id="g-root-4.cu_sy_925ge09h0u11-fill" data-item-order="999677318" data-item-id="4.cu_sy_925ge09h0u11" data-item-class="Part Indexed Fill Stroke" data-item-index="4" data-renderer-id="0" transform="translate(363, 266)"><g id="4.cu_sy_925ge09h0u11-fill" stroke="none" fill="url(#gradient-ffeb38-392015901)"><g><path d="M 34 130C 34 156.51 55.4903 178 82 178C 108.5097 178 130 156.51 130 130L 154 130C 154 169.764 121.764 202 82 202C 42.2355 202 10 169.764 10 130L 10 70L 10 10L 34 10L 34 70L 34 130Z"></path></g></g></g><g id="g-root-3.cu_sy_74x889h0rny-fill" data-item-order="999677322" data-item-id="3.cu_sy_74x889h0rny" data-item-class="Part Indexed Fill Stroke" data-item-index="3" data-renderer-id="0" transform="translate(243, 134)"><g id="3.cu_sy_74x889h0rny-fill" stroke="none" fill="url(#gradient-fba659-170788768)"><g><path d="M 10 82C 10 42.2355 42.2355 10 82 10C 121.764 10 154 42.2355 154 82L 154 142L 130 142L 130 82C 130 55.4903 108.5097 34 82 34C 55.4903 34 34 55.4903 34 82L 10 82Z"></path></g></g></g><g id="g-root-2.cu_sy_74x889h0rnz-fill" data-item-order="999677326" data-item-id="2.cu_sy_74x889h0rnz" data-item-class="Part Indexed Fill Stroke" data-item-index="2" data-renderer-id="0" transform="translate(123, 206)"><g id="2.cu_sy_74x889h0rnz-fill" stroke="none" fill="url(#gradient-fd8480-377457365)"><g><path d="M 34 130C 34 156.51 55.4903 178 82 178C 108.5097 178 130 156.51 130 130L 130 70L 130 10L 154 10L 154 70L 154 130C 154 169.764 121.764 202 82 202C 42.2355 202 10 169.764 10 130L 10 70L 34 70L 34 130Z"></path></g></g></g><g id="g-root-1.cu_sy_1usfh2w9h0s94-fill" data-item-order="999677330" data-item-id="1.cu_sy_1usfh2w9h0s94" data-item-class="Part Indexed Indexed_1 Fill Stroke" data-item-index="1" data-renderer-id="0" transform="translate(3, 194)"><defs><linearGradient id="gradient-f783c9-143094716" x2="0" y2="1"><stop offset="0" stop-color="#f89cd3"></stop><stop offset="1" stop-color="#F669BE"></stop></linearGradient><linearGradient id="gradient-44d0ff-453494305" x2="0" y2="1"><stop offset="0" stop-color="#6ddafe"></stop><stop offset="1" stop-color="#1AC6FF"></stop></linearGradient><linearGradient id="gradient-b8e45c-154771520" x2="0" y2="1"><stop offset="0" stop-color="#c8ea80"></stop><stop offset="1" stop-color="#A8DD38"></stop></linearGradient><linearGradient id="gradient-65e5a8-188701211" x2="0" y2="1"><stop offset="0" stop-color="#85eaba"></stop><stop offset="1" stop-color="#44E095"></stop></linearGradient><linearGradient id="gradient-ffeb38-392015901" x2="0" y2="1"><stop offset="0" stop-color="#fff066"></stop><stop offset="1" stop-color="#FFE60A"></stop></linearGradient><linearGradient id="gradient-fba659-170788768" x2="0" y2="1"><stop offset="0" stop-color="#fcb778"></stop><stop offset="1" stop-color="#F99539"></stop></linearGradient><linearGradient id="gradient-fd8480-377457365" x2="0" y2="1"><stop offset="0" stop-color="#fd9e9a"></stop><stop offset="1" stop-color="#FD6A65"></stop></linearGradient><linearGradient id="gradient-67a1ff-352354018" x2="0" y2="1"><stop offset="0" stop-color="#7fb0ff"></stop><stop offset="1" stop-color="#4F92FF"></stop></linearGradient></defs><g id="1.cu_sy_1usfh2w9h0s94-fill" stroke="none" fill="url(#gradient-67a1ff-352354018)"><g><path d="M 82 34C 55.4903 34 34 55.4903 34 82L 34 142L 34 202L 10 202L 10 142L 10 82C 10 42.2355 42.2355 10 82 10C 121.765 10 154 42.2355 154 82L 130 82C 130 55.4903 108.5097 34 82 34Z"></path></g></g></g><g id="g-root-net_1upxkqg9h7v9g-fill" data-item-order="1000000000" data-item-id="net_1upxkqg9h7v9g" data-item-class="Icon Stroke Indexed InsideFill InsideColorFill" data-item-index="3" data-renderer-id="0" transform="translate(291, 182)"></g><g id="g-root-tx_introduc_1cy135k9hc16o-fill" data-item-order="1000000000" data-item-id="tx_introduc_1cy135k9hc16o" data-item-class="Label Stroke Indexed Indexed_1 ColorStrokeBlack" data-item-index="1" data-renderer-id="0" transform="translate(15, 158)"><g id="tx_introduc_1cy135k9hc16o-fill" stroke="none" fill="#484848"><g><text style="font: 20px Roboto, sans-serif; white-space: pre;" font-size="20px" font-family="Roboto, sans-serif"><tspan x="16.2" y="33.5" dominant-baseline="ideographic">Introduction</tspan></text></g></g></g><g id="g-root-tx_userjour_1lt1mbc9hc2rw-fill" data-item-order="1000000000" data-item-id="tx_userjour_1lt1mbc9hc2rw" data-item-class="Label Stroke Indexed ColorStrokeBlack" data-item-index="5" data-renderer-id="0" transform="translate(489, 134)"><g id="tx_userjour_1lt1mbc9hc2rw-fill" stroke="none" fill="#484848"><g><text style="font: 20px Roboto, sans-serif; white-space: pre;" font-size="20px" font-family="Roboto, sans-serif"><tspan x="15.13" y="33.5" dominant-baseline="ideographic">User Journey </tspan><tspan x="34.58" y="57.5" dominant-baseline="ideographic">Mapping</tspan></text></g></g></g><g id="g-root-wire_1ha3qrc9h3myw-fill" data-item-order="1000000000" data-item-id="wire_1ha3qrc9h3myw" data-item-class="Icon Stroke Indexed InsideFill InsideColorFill" data-item-index="7" data-renderer-id="0" transform="translate(771, 182)"></g><g id="g-root-tx_usabilit_1uoomk89hc1z5-fill" data-item-order="1000000000" data-item-id="tx_usabilit_1uoomk89hc1z5" data-item-class="Label Stroke Indexed ColorStrokeBlack" data-item-index="8" data-renderer-id="0" transform="translate(837, 470)"><g id="tx_usabilit_1uoomk89hc1z5-fill" stroke="none" fill="#484848"><g><text style="font: 20px Roboto, sans-serif; white-space: pre;" font-size="20px" font-family="Roboto, sans-serif"><tspan x="14.99" y="33.5" dominant-baseline="ideographic">Usability Testing</tspan></text></g></g></g><g id="g-root-pres_3e2pk9hc1e0-fill" data-item-order="1000000000" data-item-id="pres_3e2pk9hc1e0" data-item-class="Icon Stroke Indexed Indexed_1 InsideFill InsideColorFill" data-item-index="1" data-renderer-id="0" transform="translate(51, 242)"></g><g id="g-root-pin_1utof949h3lz8-fill" data-item-order="1000000000" data-item-id="pin_1utof949h3lz8" data-item-class="Icon Stroke Indexed InsideFill InsideColorFill" data-item-index="5" data-renderer-id="0" transform="translate(531, 242)"></g><g id="g-root-tx_wirefram_1lt1mbc9hc2ru-fill" data-item-order="1000000000" data-item-id="tx_wirefram_1lt1mbc9hc2ru" data-item-class="Label Stroke Indexed ColorStrokeBlack" data-item-index="7" data-renderer-id="0" transform="translate(717, 74)"><g id="tx_wirefram_1lt1mbc9hc2ru-fill" stroke="none" fill="#484848"><g><text style="font: 20px Roboto, sans-serif; white-space: pre;" font-size="20px" font-family="Roboto, sans-serif"><tspan x="15.24" y="33.5" dominant-baseline="ideographic">Wireframes and </tspan><tspan x="37.29" y="57.5" dominant-baseline="ideographic">Prototypes</tspan></text></g></g></g><g id="g-root-ques_147dvlk9h9893-fill" data-item-order="1000000000" data-item-id="ques_147dvlk9h9893" data-item-class="Icon Stroke Indexed InsideFill InsideColorFill" data-item-index="2" data-renderer-id="0" transform="translate(171, 302)"></g><g id="g-root-assi_18i7l149h3ls5-fill" data-item-order="1000000000" data-item-id="assi_18i7l149h3ls5" data-item-class="Icon Stroke Indexed InsideFill InsideColorFill" data-item-index="6" data-renderer-id="0" transform="translate(651, 302)"></g><g id="g-root-1_1lrso549h4zcy-fill" data-item-order="1000000000" data-item-id="1_1lrso549h4zcy" data-item-class="Icon Stroke Indexed InsideFill InsideColorFill" data-item-index="4" data-renderer-id="0" transform="translate(411, 362)"></g><g id="g-root-add_1q7m69k9h270n-fill" data-item-order="1000000000" data-item-id="add_1q7m69k9h270n" data-item-class="Icon Stroke Indexed InsideFill InsideColorFill" data-item-index="8" data-renderer-id="0" transform="translate(891, 362)"></g><g id="g-root-tx_problems_1hdula09hc0ef-fill" data-item-order="1000000000" data-item-id="tx_problems_1hdula09hc0ef" data-item-class="Label Stroke Indexed ColorStrokeBlack" data-item-index="2" data-renderer-id="0" transform="translate(105, 410)"><g id="tx_problems_1hdula09hc0ef-fill" stroke="none" fill="#484848"><g><text style="font: 20px Roboto, sans-serif; white-space: pre;" font-size="20px" font-family="Roboto, sans-serif"><tspan x="14.07" y="33.5" dominant-baseline="ideographic">Problem Statement</tspan></text></g></g></g><g id="g-root-tx_uxcasest_1cy135k9hc16p-fill" data-item-order="1000000000" data-item-id="tx_uxcasest_1cy135k9hc16p" data-item-class="Label Stroke Title ColorStrokeBlack" data-item-index="none" data-renderer-id="0" transform="translate(321, 2)"><g id="tx_uxcasest_1cy135k9hc16p-fill" stroke="none" fill="#484848"><g><text style="font: 20px Roboto, sans-serif; white-space: pre;" font-size="20px" font-family="Roboto, sans-serif"><tspan x="13.59" y="33.5" dominant-baseline="ideographic">UX Case Study Presentation Sequence</tspan></text></g></g></g><g id="g-root-tx_userpers_1hdula09hc0ed-fill" data-item-order="1000000000" data-item-id="tx_userpers_1hdula09hc0ed" data-item-class="Label Stroke Indexed ColorStrokeBlack" data-item-index="4" data-renderer-id="0" transform="translate(363, 470)"><g id="tx_userpers_1hdula09hc0ed-fill" stroke="none" fill="#484848"><g><text style="font: 20px Roboto, sans-serif; white-space: pre;" font-size="20px" font-family="Roboto, sans-serif"><tspan x="17.3" y="33.5" dominant-baseline="ideographic">User Personas</tspan></text></g></g></g><g id="g-root-tx_research_1hdula09hc0ee-fill" data-item-order="1000000000" data-item-id="tx_research_1hdula09hc0ee" data-item-class="Label Stroke Indexed ColorStrokeBlack" data-item-index="3" data-renderer-id="0" transform="translate(249, 74)"><g id="tx_research_1hdula09hc0ee-fill" stroke="none" fill="#484848"><g><text style="font: 20px Roboto, sans-serif; white-space: pre;" font-size="20px" font-family="Roboto, sans-serif"><tspan x="34.62" y="33.5" dominant-baseline="ideographic">Research </tspan><tspan x="17.68" y="57.5" dominant-baseline="ideographic">Methodology</tspan></text></g></g></g><g id="g-root-tx_ideation_1lt1mbc9hc2rv-fill" data-item-order="1000000000" data-item-id="tx_ideation_1lt1mbc9hc2rv" data-item-class="Label Stroke Indexed ColorStrokeBlack" data-item-index="6" data-renderer-id="0" transform="translate(609, 410)"><g id="tx_ideation_1lt1mbc9hc2rv-fill" stroke="none" fill="#484848"><g><text style="font: 20px Roboto, sans-serif; white-space: pre;" font-size="20px" font-family="Roboto, sans-serif"><tspan x="20.13" y="33.5" dominant-baseline="ideographic">Ideation and </tspan><tspan x="38.07" y="57.5" dominant-baseline="ideographic">Concept </tspan><tspan x="16.75" y="81.5" dominant-baseline="ideographic">Development</tspan></text></g></g></g><g id="g-root-8.cu_sy_dhyyig9h0t8p-stroke" data-item-order="999677302" data-item-id="8.cu_sy_dhyyig9h0t8p" data-item-class="Part Indexed Fill Stroke" data-item-index="8" data-renderer-id="0" transform="translate(843, 194)"><g id="8.cu_sy_dhyyig9h0t8p-stroke" fill="none" stroke-linecap="round" stroke-linejoin="round" stroke-miterlimit="4" stroke="#484848" stroke-width="2"><g><path d="M 34 202C 34 228.5097 55.4904 250 82 250C 108.5096 250 130 228.5097 130 202L 130 46L 118 46L 142 10L 166 46L 154 46L 154 202C 154 241.7645 121.7645 274 82 274C 42.2355 274 10 241.7645 10 202L 34 202Z"></path></g></g></g><g id="g-root-7.cu_sy_dhyyig9h0t8q-stroke" data-item-order="999677306" data-item-id="7.cu_sy_dhyyig9h0t8q" data-item-class="Part Indexed Fill Stroke" data-item-index="7" data-renderer-id="0" transform="translate(723, 134)"><g id="7.cu_sy_dhyyig9h0t8q-stroke" fill="none" stroke-linecap="round" stroke-linejoin="round" stroke-miterlimit="4" stroke="#484848" stroke-width="2"><g><path d="M 10 82C 10 42.2355 42.2355 10 82 10C 121.7645 10 154 42.2355 154 82L 154 262L 130 262L 130 82C 130 55.4903 108.5096 34 82 34C 55.4904 34 34 55.4903 34 82L 10 82Z"></path></g></g></g><g id="g-root-6.cu_sy_925ge09h0u0z-stroke" data-item-order="999677310" data-item-id="6.cu_sy_925ge09h0u0z" data-item-class="Part Indexed Fill Stroke" data-item-index="6" data-renderer-id="0" transform="translate(603, 206)"><g id="6.cu_sy_925ge09h0u0z-stroke" fill="none" stroke-linecap="round" stroke-linejoin="round" stroke-miterlimit="4" stroke="#484848" stroke-width="2"><g><path d="M 34 130C 34 156.5097 55.4904 178 82 178C 108.5096 178 130 156.5097 130 130L 130 70L 130 10L 154 10L 154 70L 154 130C 154 169.7645 121.7645 202 82 202C 42.2355 202 10 169.7645 10 130L 34 130Z"></path></g></g></g><g id="g-root-5.cu_sy_925ge09h0u10-stroke" data-item-order="999677314" data-item-id="5.cu_sy_925ge09h0u10" data-item-class="Part Indexed Fill Stroke" data-item-index="5" data-renderer-id="0" transform="translate(483, 194)"><g id="5.cu_sy_925ge09h0u10-stroke" fill="none" stroke-linecap="round" stroke-linejoin="round" stroke-miterlimit="4" stroke="#484848" stroke-width="2"><g><path d="M 10 202L 10 82C 10 42.2355 42.2355 10 82 10C 121.7645 10 154 42.2355 154 82L 154 142L 130 142L 130 82C 130 55.4903 108.5096 34 82 34C 55.4904 34 34 55.4903 34 82L 34 202L 10 202Z"></path></g></g></g><g id="g-root-4.cu_sy_925ge09h0u11-stroke" data-item-order="999677318" data-item-id="4.cu_sy_925ge09h0u11" data-item-class="Part Indexed Fill Stroke" data-item-index="4" data-renderer-id="0" transform="translate(363, 266)"><g id="4.cu_sy_925ge09h0u11-stroke" fill="none" stroke-linecap="round" stroke-linejoin="round" stroke-miterlimit="4" stroke="#484848" stroke-width="2"><g><path d="M 34 130C 34 156.5097 55.4903 178 82 178C 108.5097 178 130 156.5097 130 130L 154 130C 154 169.7645 121.7645 202 82 202C 42.2355 202 10 169.7645 10 130L 10 70L 10 10L 34 10L 34 70L 34 130Z"></path></g></g></g><g id="g-root-3.cu_sy_74x889h0rny-stroke" data-item-order="999677322" data-item-id="3.cu_sy_74x889h0rny" data-item-class="Part Indexed Fill Stroke" data-item-index="3" data-renderer-id="0" transform="translate(243, 134)"><g id="3.cu_sy_74x889h0rny-stroke" fill="none" stroke-linecap="round" stroke-linejoin="round" stroke-miterlimit="4" stroke="#484848" stroke-width="2"><g><path d="M 10 82C 10 42.2355 42.2355 10 82 10C 121.7645 10 154 42.2355 154 82L 154 142L 130 142L 130 82C 130 55.4903 108.5097 34 82 34C 55.4903 34 34 55.4903 34 82L 10 82Z"></path></g></g></g><g id="g-root-2.cu_sy_74x889h0rnz-stroke" data-item-order="999677326" data-item-id="2.cu_sy_74x889h0rnz" data-item-class="Part Indexed Fill Stroke" data-item-index="2" data-renderer-id="0" transform="translate(123, 206)"><g id="2.cu_sy_74x889h0rnz-stroke" fill="none" stroke-linecap="round" stroke-linejoin="round" stroke-miterlimit="4" stroke="#484848" stroke-width="2"><g><path d="M 34 70L 34 130C 34 156.5097 55.4903 178 82 178C 108.5097 178 130 156.5097 130 130L 130 70L 130 10L 154 10L 154 70L 154 130C 154 169.7645 121.7645 202 82 202C 42.2355 202 10 169.7645 10 130L 10 70L 34 70Z"></path></g></g></g><g id="g-root-1.cu_sy_1usfh2w9h0s94-stroke" data-item-order="999677330" data-item-id="1.cu_sy_1usfh2w9h0s94" data-item-class="Part Indexed Indexed_1 Fill Stroke" data-item-index="1" data-renderer-id="0" transform="translate(3, 194)"><g id="1.cu_sy_1usfh2w9h0s94-stroke" fill="none" stroke-linecap="round" stroke-linejoin="round" stroke-miterlimit="4" stroke="#484848" stroke-width="2"><g><path d="M 34 82C 34 55.4903 55.4903 34 82 34C 108.5097 34 130 55.4903 130 82L 154 82C 154 42.2355 121.7645 10 82 10C 42.2355 10 10 42.2355 10 82L 10 142L 10 202L 34 202L 34 142L 34 82Z"></path></g></g></g><g id="g-root-net_1upxkqg9h7v9g-stroke" data-item-order="1000000000" data-item-id="net_1upxkqg9h7v9g" data-item-class="Icon Stroke Indexed InsideFill InsideColorFill" data-item-index="3" data-renderer-id="0" transform="translate(291, 182)"><g id="net_1upxkqg9h7v9g-stroke" fill="none" stroke-linecap="round" stroke-linejoin="round" stroke-miterlimit="4" stroke="#484848" stroke-width="2"><g><path d="M 18.007999 13L 50.007999 13C 50.007999 13 54.007999 13 54.007999 17L 54.007999 51C 54.007999 51 54.007999 55 50.007999 55L 18.007999 55C 18.007999 55 14.007999 55 14.007999 51L 14.007999 17C 14.007999 17 14.007999 13 18.007999 13M 14 39L 21.310001 30.959999C 22.959269 29.298944 25.454391 28.810856 27.608 29.728001L 30.392 31.062C 32.6185 31.984388 35.16328 31.693317 37.124001 30.292L 40.875999 27.292C 42.987286 25.71822 45.348209 24.510715 47.859997 23.719999L 54 22M 24.007999 29.436001L 24.007999 55M 34.007999 31.532L 34.007999 55M 44.007999 25.326L 44.007999 55M 14.007999 39L 54.007999 39M 35.944 31L 54.007999 31M 14.007999 47L 54.007999 47"></path></g></g></g><g id="g-root-tx_introduc_1cy135k9hc16o-stroke" data-item-order="1000000000" data-item-id="tx_introduc_1cy135k9hc16o" data-item-class="Label Stroke Indexed Indexed_1 ColorStrokeBlack" data-item-index="1" data-renderer-id="0" transform="translate(15, 158)"></g><g id="g-root-tx_userjour_1lt1mbc9hc2rw-stroke" data-item-order="1000000000" data-item-id="tx_userjour_1lt1mbc9hc2rw" data-item-class="Label Stroke Indexed ColorStrokeBlack" data-item-index="5" data-renderer-id="0" transform="translate(489, 134)"></g><g id="g-root-wire_1ha3qrc9h3myw-stroke" data-item-order="1000000000" data-item-id="wire_1ha3qrc9h3myw" data-item-class="Icon Stroke Indexed InsideFill InsideColorFill" data-item-index="7" data-renderer-id="0" transform="translate(771, 182)"><g id="wire_1ha3qrc9h3myw-stroke" fill="none" stroke-linecap="round" stroke-linejoin="round" stroke-miterlimit="4" stroke="#484848" stroke-width="2"><g><path d="M 32 47L 13 47C 11.895431 47 11 46.104568 11 45L 11 13C 11 11.895431 11.895431 11 13 11L 43 11C 44.104568 11 45 11.895431 45 13L 45 32.93M 16 15L 40 15C 40 15 41 15 41 16L 41 24C 41 24 41 25 40 25L 16 25C 16 25 15 25 15 24L 15 16C 15 16 15 15 16 15M 15 30L 15 42C 15 42.552284 15.447716 43 16 43L 28.674 43C 28.987707 43.000084 29.283272 42.852955 29.472311 42.602604C 29.661352 42.352253 29.721956 42.027702 29.636 41.725998L 26.208 29.726C 26.08556 29.296244 25.69286 28.99988 25.246 29L 16 29C 15.447716 29 15 29.447716 15 30ZM 41 37L 41 30C 41 29.447716 40.552284 29 40 29L 32.326 29C 32.012291 28.999916 31.716728 29.147047 31.527689 29.397398C 31.338648 29.647747 31.278044 29.9723 31.364 30.274L 35 43L 35.916 43M 41.400002 54.599998L 33 57L 35.400002 48.599998L 49.757999 34.242001C 51.414852 32.585144 54.101143 32.585144 55.757999 34.241997C 57.414852 35.898853 57.414852 38.585144 55.757999 40.241997ZM 47.958 36.042L 53.958 42.042M 35.400002 48.599998L 41.400002 54.599998"></path></g></g></g><g id="g-root-tx_usabilit_1uoomk89hc1z5-stroke" data-item-order="1000000000" data-item-id="tx_usabilit_1uoomk89hc1z5" data-item-class="Label Stroke Indexed ColorStrokeBlack" data-item-index="8" data-renderer-id="0" transform="translate(837, 470)"></g><g id="g-root-pres_3e2pk9hc1e0-stroke" data-item-order="1000000000" data-item-id="pres_3e2pk9hc1e0" data-item-class="Icon Stroke Indexed Indexed_1 InsideFill InsideColorFill" data-item-index="1" data-renderer-id="0" transform="translate(51, 242)"><g id="pres_3e2pk9hc1e0-stroke" fill="none" stroke-linecap="round" stroke-linejoin="round" stroke-miterlimit="4" stroke="#484848" stroke-width="2"><g><path d="M 14.5 35.5C 14.5 37.432999 16.067003 39 18 39C 19.932997 39 21.5 37.432999 21.5 35.5C 21.5 33.567005 19.932997 32 18 32C 16.067003 32 14.5 33.567005 14.5 35.5ZM 24.246 44.223999C 22.79771 41.663864 19.937777 40.242119 17.022465 40.632999C 14.107151 41.02388 11.722743 43.148777 11 46M 46.5 35.5C 46.5 37.432999 48.067005 39 50 39C 51.932999 39 53.5 37.432999 53.5 35.5C 53.5 33.567005 51.932999 32 50 32C 48.067005 32 46.5 33.567005 46.5 35.5ZM 43.754002 44.223999C 45.20229 41.663864 48.062225 40.242119 50.977539 40.632999C 53.892849 41.02388 56.277256 43.148777 57 46M 30.5 16.5C 30.500002 18.432997 32.067005 20 34 20C 35.932999 20 37.5 18.432997 37.5 16.5C 37.5 14.567003 35.932999 13 34 13C 32.067005 13 30.500002 14.567003 30.500002 16.5ZM 41 27C 40.184052 23.800182 37.302212 21.560986 34 21.560986C 30.697788 21.560986 27.815947 23.800182 27 27M 45.498001 52.599998C 45.618061 53.188168 45.467579 53.799156 45.088104 54.264294C 44.70863 54.729431 44.140297 54.999523 43.540001 55L 24.459999 55C 23.859705 54.999523 23.29137 54.729431 22.911896 54.264294C 22.532421 53.799156 22.381941 53.188168 22.501999 52.599998L 26.667999 32.599998C 26.857958 31.669403 27.676214 31.000755 28.625999 31L 39.374001 31C 40.323784 31.000755 41.142044 31.669403 41.332001 32.599998ZM 38.835999 49.858002C 38.877182 50.145077 38.791702 50.435894 38.601734 50.655033C 38.411766 50.874168 38.136017 51.000038 37.846001 51L 30.153999 51C 29.863983 51.000038 29.588234 50.874168 29.398266 50.655033C 29.208296 50.435894 29.122818 50.145077 29.164 49.858002L 29.878 44.858002C 29.948643 44.365562 30.370522 43.999935 30.868 44L 37.132 44C 37.629478 43.999935 38.051357 44.365562 38.122002 44.858002Z"></path></g></g></g><g id="g-root-pin_1utof949h3lz8-stroke" data-item-order="1000000000" data-item-id="pin_1utof949h3lz8" data-item-class="Icon Stroke Indexed InsideFill InsideColorFill" data-item-index="5" data-renderer-id="0" transform="translate(531, 242)"><g id="pin_1utof949h3lz8-stroke" fill="none" stroke-linecap="round" stroke-linejoin="round" stroke-miterlimit="4" stroke="#484848" stroke-width="2"><g><path d="M 25 57L 26 45L 31 45L 31 38C 31 32.477154 26.522848 28 21 28C 15.477153 28 11 32.477154 11 38L 11 45L 16 45L 17 57ZM 14 18C 14 21.865993 17.134007 25 21 25C 24.865993 25 28 21.865993 28 18C 28 14.134007 24.865993 11 21 11C 17.134007 11 14 14.134007 14 18M 36 11L 40.5 11C 44.642136 11 48.000004 14.357864 48.000004 18.5L 48 24M 53 19L 48 24L 43 19M 57 39.18C 57 43.84 49.98 53.040001 47.599998 56.02C 47.413288 56.261131 47.124966 56.4016 46.82 56.400002C 46.498943 56.403156 46.195145 56.254959 46 56C 43.619999 53.02 36.599998 43.82 36.599998 39.16C 36.600002 33.537743 41.157745 28.980001 46.780003 28.980001C 52.40226 28.980001 56.960003 33.537743 56.960003 39.160004ZM 50.639999 39.18C 50.639999 41.289726 48.929729 43 46.82 43C 44.710274 43 43 41.289726 43 39.18C 43 37.070274 44.710274 35.360001 46.82 35.360001C 48.925179 35.370934 50.629063 37.074818 50.639999 39.18Z"></path></g></g></g><g id="g-root-tx_wirefram_1lt1mbc9hc2ru-stroke" data-item-order="1000000000" data-item-id="tx_wirefram_1lt1mbc9hc2ru" data-item-class="Label Stroke Indexed ColorStrokeBlack" data-item-index="7" data-renderer-id="0" transform="translate(717, 74)"></g><g id="g-root-ques_147dvlk9h9893-stroke" data-item-order="1000000000" data-item-id="ques_147dvlk9h9893" data-item-class="Icon Stroke Indexed InsideFill InsideColorFill" data-item-index="2" data-renderer-id="0" transform="translate(171, 302)"><g id="ques_147dvlk9h9893-stroke" fill="none" stroke-linecap="round" stroke-linejoin="round" stroke-miterlimit="4" stroke="#484848" stroke-width="2"><g><path d="M 33 45C 33 51.627419 38.372581 57 45 57C 51.627419 57 57 51.627419 57 45C 57 38.372581 51.627419 33 45 33C 38.372581 33 33 38.372581 33 45ZM 41.25 42.084C 41.25 40.012932 42.928932 38.334 45 38.334C 47.071068 38.334 48.75 40.012932 48.75 42.084003C 48.75 44.155071 47.071068 45.834003 45 45.834003L 45 47.834M 45 51.834C 45.276142 51.834 45.5 52.057858 45.5 52.334C 45.5 52.610142 45.276142 52.834 45 52.834C 44.723858 52.834 44.5 52.610142 44.5 52.334C 44.5 52.057858 44.723858 51.834 45 51.834M 16.5 19.5C 16.5 24.19442 20.30558 28 25 28C 29.69442 28 33.5 24.19442 33.5 19.5C 33.5 14.80558 29.69442 11 25 11C 20.30558 11 16.5 14.80558 16.5 19.5ZM 27 45L 11 45C 10.999802 39.879585 13.795003 35.167534 18.288727 32.712929C 22.782452 30.258322 28.257736 30.452782 32.566002 33.220001"></path></g></g></g><g id="g-root-assi_18i7l149h3ls5-stroke" data-item-order="1000000000" data-item-id="assi_18i7l149h3ls5" data-item-class="Icon Stroke Indexed InsideFill InsideColorFill" data-item-index="6" data-renderer-id="0" transform="translate(651, 302)"><g id="assi_18i7l149h3ls5-stroke" fill="none" stroke-linecap="round" stroke-linejoin="round" stroke-miterlimit="4" stroke="#484848" stroke-width="2"><g><path d="M 28.632 45.396C 28.631388 48.361095 31.034903 50.76511 34 50.76511C 36.965096 50.76511 39.368614 48.361095 39.368 45.396C 39.368614 42.430901 36.965096 40.02689 34 40.02689C 31.034903 40.02689 28.631388 42.430901 28.632 45.396M 41.669998 56.900002C 40.158646 54.068169 37.2099 52.2995 34 52.2995C 30.7901 52.2995 27.841356 54.068169 26.33 56.900002M 44.212002 45.396C 44.211388 48.361095 46.614902 50.76511 49.579998 50.76511C 52.545097 50.76511 54.948612 48.361095 54.947998 45.396C 54.948612 42.430901 52.545097 40.02689 49.579998 40.02689C 46.614902 40.02689 44.211388 42.430901 44.211998 45.396M 57 56.138C 55.202232 53.59993 52.232258 52.156391 49.125824 52.310799C 46.01939 52.46521 43.207211 54.196159 41.669998 56.899998M 13.052 45.396C 13.051388 48.361095 15.454903 50.76511 18.42 50.76511C 21.385098 50.76511 23.788612 48.361095 23.788 45.396C 23.788612 42.430901 21.385098 40.02689 18.42 40.02689C 15.454903 40.02689 13.051388 42.430901 13.052 45.396M 11 56.138C 12.797768 53.59993 15.767741 52.156391 18.874174 52.310799C 21.980608 52.46521 24.792789 54.196159 26.33 56.899998M 55.743999 24.726L 45.344002 35.125999L 40.23 36.148003L 41.251999 31.035999L 51.652 20.636C 52.778206 19.510122 54.603798 19.510122 55.73 20.636L 55.742001 20.647999C 56.28392 21.188044 56.588692 21.92152 56.589069 22.686584C 56.589443 23.451651 56.285389 24.185425 55.743999 24.726ZM 47.414001 15.596001L 42.273998 11.1L 17.732 11.1L 17.732 34.108002M 23.868 21.836L 25.911999 23.882L 30.002001 19.792M 23.868 32.062L 25.911999 34.108002L 30.002001 30.016001M 35.115997 22.858L 38.183998 22.858M 42.273998 30.016001L 46.363998 34.108002M 14.268 42C 16.776192 44.495247 20.266575 45.74181 23.788 45.400002M 29.848 42C 32.356342 44.494999 35.846611 45.741524 39.367996 45.399998M 45.428001 42C 47.936962 44.495327 51.427975 45.741856 54.950001 45.400002"></path></g></g></g><g id="g-root-1_1lrso549h4zcy-stroke" data-item-order="1000000000" data-item-id="1_1lrso549h4zcy" data-item-class="Icon Stroke Indexed InsideFill InsideColorFill" data-item-index="4" data-renderer-id="0" transform="translate(411, 362)"><g id="1_1lrso549h4zcy-stroke" fill="none" stroke-linecap="round" stroke-linejoin="round" stroke-miterlimit="4" stroke="#484848" stroke-width="2"><g><path d="M 55 57C 53.019978 53.95364 49.633297 52.115681 46 52.115681C 42.366707 52.115681 38.980026 53.95364 37 57.000004M 31 57C 29.019974 53.95364 25.633293 52.115681 22 52.115681C 18.366707 52.115681 14.980026 53.95364 13 57.000004M 43 32C 41.019974 28.95364 37.633293 27.115681 34 27.115681C 30.366707 27.115681 26.980028 28.95364 25 32M 28.497999 14.2C 30.532549 16.308092 33.33625 17.499159 36.265999 17.5C 37.736374 17.500805 39.191429 17.201355 40.542 16.619999M 27.6 17.5C 27.6 21.089851 30.510151 24 34.099998 24C 37.68985 24 40.599998 21.089851 40.599998 17.5C 40.599998 13.91015 37.68985 11 34.099998 11C 30.510151 11 27.6 13.91015 27.6 17.5ZM 16.498001 39.200001C 19.618252 42.433754 24.414831 43.39753 28.542 41.619999M 15.6 42.5C 15.6 46.089851 18.510151 49 22.1 49C 25.689852 49 28.6 46.089851 28.6 42.5C 28.6 38.910149 25.689852 36 22.1 36C 18.510151 36 15.6 38.910149 15.6 42.5ZM 40.498001 39.200001C 43.618252 42.433754 48.414829 43.39753 52.542 41.619999M 39.599998 42.5C 39.600002 46.089851 42.510151 49 46.100002 49C 49.689854 49 52.600002 46.089851 52.600002 42.5C 52.600002 38.910149 49.689854 36 46.100002 36C 42.510151 36 39.600002 38.910149 39.600002 42.5Z"></path></g></g></g><g id="g-root-add_1q7m69k9h270n-stroke" data-item-order="1000000000" data-item-id="add_1q7m69k9h270n" data-item-class="Icon Stroke Indexed InsideFill InsideColorFill" data-item-index="8" data-renderer-id="0" transform="translate(891, 362)"><g id="add_1q7m69k9h270n-stroke" fill="none" stroke-linecap="round" stroke-linejoin="round" stroke-miterlimit="4" stroke="#484848" stroke-width="2"><g><path d="M 37 47C 37 52.522846 41.477154 57 47 57C 52.522846 57 57 52.522846 57 47C 57 41.477154 52.522846 37 47 37C 41.477154 37 37 41.477154 37 47ZM 47 43L 47 51M 43 47L 51 47M 11 37C 11.019445 35.143372 11.403379 33.308643 12.13 31.6C 12.93 30 16.256001 28.9 20.436001 27.351999C 21.566 26.934 21.380001 23.984001 20.880001 23.431999C 19.268551 21.685833 18.479071 19.334854 18.709999 16.969999C 18.565205 15.46426 19.052738 13.966075 20.055944 12.833911C 21.059151 11.701747 22.487778 11.037463 24 11C 25.512222 11.037463 26.940847 11.701747 27.944054 12.833911C 28.947262 13.966075 29.434793 15.46426 29.289999 16.969999C 29.521515 19.335524 28.731993 21.687351 27.119999 23.433998C 26.620001 23.986 26.434 26.936001 27.563999 27.354C 31.743999 28.902 35.071999 30.007999 35.870003 31.601999C 36.596619 33.310646 36.980553 35.14537 37 37.001999ZM 31.823999 11.474C 32.506039 11.159061 33.248764 10.997273 34 11C 35.512222 11.037463 36.940849 11.701747 37.944054 12.833911C 38.947262 13.966075 39.434792 15.46426 39.290001 16.969999C 39.521515 19.335524 38.731995 21.687351 37.119999 23.433998C 36.620003 23.986 36.433998 26.936001 37.563999 27.354C 41.743999 28.902 45.071999 30.007999 45.869999 31.601999C 45.917999 31.700001 45.966 31.802 46.009998 31.902"></path></g></g></g><g id="g-root-tx_problems_1hdula09hc0ef-stroke" data-item-order="1000000000" data-item-id="tx_problems_1hdula09hc0ef" data-item-class="Label Stroke Indexed ColorStrokeBlack" data-item-index="2" data-renderer-id="0" transform="translate(105, 410)"></g><g id="g-root-tx_uxcasest_1cy135k9hc16p-stroke" data-item-order="1000000000" data-item-id="tx_uxcasest_1cy135k9hc16p" data-item-class="Label Stroke Title ColorStrokeBlack" data-item-index="none" data-renderer-id="0" transform="translate(321, 2)"></g><g id="g-root-tx_userpers_1hdula09hc0ed-stroke" data-item-order="1000000000" data-item-id="tx_userpers_1hdula09hc0ed" data-item-class="Label Stroke Indexed ColorStrokeBlack" data-item-index="4" data-renderer-id="0" transform="translate(363, 470)"></g><g id="g-root-tx_research_1hdula09hc0ee-stroke" data-item-order="1000000000" data-item-id="tx_research_1hdula09hc0ee" data-item-class="Label Stroke Indexed ColorStrokeBlack" data-item-index="3" data-renderer-id="0" transform="translate(249, 74)"></g><g id="g-root-tx_ideation_1lt1mbc9hc2rv-stroke" data-item-order="1000000000" data-item-id="tx_ideation_1lt1mbc9hc2rv" data-item-class="Label Stroke Indexed ColorStrokeBlack" data-item-index="6" data-renderer-id="0" transform="translate(609, 410)"></g></g></g></svg>