<?xml version="1.0" encoding="utf-8" standalone="yes"?>
<!DOCTYPE svg PUBLIC "-//W3C//DTD SVG 1.1//EN" "http://www.w3.org/Graphics/SVG/1.1/DTD/svg11.dtd">
<svg width="194" height="555" viewBox="0 0 194 555" style="fill:none;stroke:none;fill-rule:evenodd;clip-rule:evenodd;stroke-linecap:round;stroke-linejoin:round;stroke-miterlimit:1.5;" version="1.1" xmlns="http://www.w3.org/2000/svg" xmlns:xlink="http://www.w3.org/1999/xlink"><style id="fontImports">@import url("https://fonts.googleapis.com/css2?family=Roboto:wght@400;700&amp;display=block");</style><g id="items" style="isolation: isolate"><g id="blend" style="mix-blend-mode:normal"><g id="g-root-ro_1uqjyn6lyebd6-fill" data-item-order="999985024" data-item-id="ro_1uqjyn6lyebd6" data-item-class="Shape Stroke Fill" data-item-index="none" data-renderer-id="0" transform="translate(9, 283)"><g id="ro_1uqjyn6lyebd6-fill" stroke="none" fill="#e6f9ff"><g><path d="M 22 10L 154 10C 154 10 166 10 166 22L 166 94C 166 94 166 106 154 106L 22 106C 22 106 10 106 10 94L 10 22C 10 22 10 10 22 10"></path></g></g></g><g id="g-root-ro_1lpx5pelyjy8a-fill" data-item-order="999985024" data-item-id="ro_1lpx5pelyjy8a" data-item-class="Shape Stroke Fill" data-item-index="none" data-renderer-id="0" transform="translate(9, 435)"><g id="ro_1lpx5pelyjy8a-fill" stroke="none" fill="#e6f9ff"><g><path d="M 22 10L 154 10C 154 10 166 10 166 22L 166 94C 166 94 166 106 154 106L 22 106C 22 106 10 106 10 94L 10 22C 10 22 10 10 22 10"></path></g></g></g><g id="g-root-ro_qs6cdelyo5q9-fill" data-item-order="999986176" data-item-id="ro_qs6cdelyo5q9" data-item-class="Shape Stroke Fill" data-item-index="none" data-renderer-id="0" transform="translate(15, 3)"><g id="ro_qs6cdelyo5q9-fill" stroke="none" fill="#f0f0f0"><g><path d="M 22 10L 142 10C 142 10 154 10 154 22L 154 94C 154 94 154 106 142 106L 22 106C 22 106 10 106 10 94L 10 22C 10 22 10 10 22 10"></path></g></g></g><g id="g-root-ro_1hjgopulyqxhj-fill" data-item-order="999987904" data-item-id="ro_1hjgopulyqxhj" data-item-class="Shape Stroke Fill" data-item-index="none" data-renderer-id="0" transform="translate(3, 155)"><g id="ro_1hjgopulyqxhj-fill" stroke="none" fill="#e6f9ff"><g><path d="M 22 10L 166 10C 166 10 178 10 178 22L 178 70C 178 70 178 82 166 82L 22 82C 22 82 10 82 10 70L 10 22C 10 22 10 10 22 10"></path></g></g></g><g id="g-root-tx_readingp_v7zuhulyo4xz-fill" data-item-order="1000000000" data-item-id="tx_readingp_v7zuhulyo4xz" data-item-class="Label Stroke" data-item-index="none" data-renderer-id="0" transform="translate(63, 15)"><g id="tx_readingp_v7zuhulyo4xz-fill" stroke="none" fill="#484848"><g><text style="font: 20px Roboto, sans-serif; white-space: pre;" font-size="20px" font-family="Roboto, sans-serif"><tspan x="12" y="33.5" dominant-baseline="ideographic">Reading </tspan><tspan x="12" y="57.5" dominant-baseline="ideographic">Product </tspan><tspan x="12" y="81.5" dominant-baseline="ideographic">Labels</tspan></text></g></g></g><g id="g-root-sear_v7zuhulyo4y0-fill" data-item-order="1000000000" data-item-id="sear_v7zuhulyo4y0" data-item-class="Icon Stroke" data-item-index="none" data-renderer-id="0" transform="translate(27, 36)"></g><g id="g-root-awar_1lynpr6lyqzv2-fill" data-item-order="1000000000" data-item-id="awar_1lynpr6lyqzv2" data-item-class="Icon Stroke" data-item-index="none" data-renderer-id="0" transform="translate(15, 176)"></g><g id="g-root-tx_comparin_1uuaq02lyqz2d-fill" data-item-order="1000000000" data-item-id="tx_comparin_1uuaq02lyqz2d" data-item-class="Label Stroke" data-item-index="none" data-renderer-id="0" transform="translate(51, 167)"><g id="tx_comparin_1uuaq02lyqz2d-fill" stroke="none" fill="#17b0e3"><g><text style="font: 20px Roboto, sans-serif; white-space: pre;" font-size="20px" font-family="Roboto, sans-serif"><tspan x="12" y="33.5" dominant-baseline="ideographic">Comparing </tspan><tspan x="12" y="57.5" dominant-baseline="ideographic">Products</tspan></text></g></g></g><g id="g-root-tx_makingpu_90wf1elye9zc-fill" data-item-order="1000000000" data-item-id="tx_makingpu_90wf1elye9zc" data-item-class="Label Stroke" data-item-index="none" data-renderer-id="0" transform="translate(57, 295)"><g id="tx_makingpu_90wf1elye9zc-fill" stroke="none" fill="#17b0e3"><g><text style="font: 20px Roboto, sans-serif; white-space: pre;" font-size="20px" font-family="Roboto, sans-serif"><tspan x="12" y="33.5" dominant-baseline="ideographic">Making </tspan><tspan x="12" y="57.5" dominant-baseline="ideographic">Purchase </tspan><tspan x="12" y="81.5" dominant-baseline="ideographic">Decisions</tspan></text></g></g></g><g id="g-root-carr_1uqjyn6lyebd5-fill" data-item-order="1000000000" data-item-id="carr_1uqjyn6lyebd5" data-item-class="Icon Stroke" data-item-index="none" data-renderer-id="0" transform="translate(21, 316)"></g><g id="g-root-tx_timepres_9m3mlyjwug-fill" data-item-order="1000000000" data-item-id="tx_timepres_9m3mlyjwug" data-item-class="Label Stroke" data-item-index="none" data-renderer-id="0" transform="translate(57, 447)"><g id="tx_timepres_9m3mlyjwug-fill" stroke="none" fill="#17b0e3"><g><text style="font: 20px Roboto, sans-serif; white-space: pre;" font-size="20px" font-family="Roboto, sans-serif"><tspan x="12" y="33.5" dominant-baseline="ideographic">Time </tspan><tspan x="12" y="57.5" dominant-baseline="ideographic">Pressure </tspan><tspan x="12" y="81.5" dominant-baseline="ideographic">Situations</tspan></text></g></g></g><g id="g-root-fire_1ulk5yalyjxfl-fill" data-item-order="1000000000" data-item-id="fire_1ulk5yalyjxfl" data-item-class="Icon Stroke" data-item-index="none" data-renderer-id="0" transform="translate(21, 468)"></g><g id="g-root-cu_18f34f6lyjwnf-fill" data-item-order="1000000002" data-item-id="cu_18f34f6lyjwnf" data-item-class="Curve Stroke" data-item-index="none" data-renderer-id="0" transform="translate(87, 99)"></g><g id="g-root-cu_18f34f6lyjwni-fill" data-item-order="1000000002" data-item-id="cu_18f34f6lyjwni" data-item-class="Curve Stroke" data-item-index="none" data-renderer-id="0" transform="translate(87, 227)"></g><g id="g-root-cu_13z9maqlyjxft-fill" data-item-order="1000000002" data-item-id="cu_13z9maqlyjxft" data-item-class="Curve Stroke" data-item-index="none" data-renderer-id="0" transform="translate(87, 379)"></g><g id="g-root-ro_1uqjyn6lyebd6-stroke" data-item-order="999985024" data-item-id="ro_1uqjyn6lyebd6" data-item-class="Shape Stroke Fill" data-item-index="none" data-renderer-id="0" transform="translate(9, 283)"><g id="ro_1uqjyn6lyebd6-stroke" fill="none" stroke-linecap="round" stroke-linejoin="round" stroke-miterlimit="4" stroke="#17b0e3" stroke-width="2"><g><path d="M 22 10L 154 10C 154 10 166 10 166 22L 166 94C 166 94 166 106 154 106L 22 106C 22 106 10 106 10 94L 10 22C 10 22 10 10 22 10"></path></g></g></g><g id="g-root-ro_1lpx5pelyjy8a-stroke" data-item-order="999985024" data-item-id="ro_1lpx5pelyjy8a" data-item-class="Shape Stroke Fill" data-item-index="none" data-renderer-id="0" transform="translate(9, 435)"><g id="ro_1lpx5pelyjy8a-stroke" fill="none" stroke-linecap="round" stroke-linejoin="round" stroke-miterlimit="4" stroke="#17b0e3" stroke-width="2"><g><path d="M 22 10L 154 10C 154 10 166 10 166 22L 166 94C 166 94 166 106 154 106L 22 106C 22 106 10 106 10 94L 10 22C 10 22 10 10 22 10"></path></g></g></g><g id="g-root-ro_qs6cdelyo5q9-stroke" data-item-order="999986176" data-item-id="ro_qs6cdelyo5q9" data-item-class="Shape Stroke Fill" data-item-index="none" data-renderer-id="0" transform="translate(15, 3)"><g id="ro_qs6cdelyo5q9-stroke" fill="none" stroke-linecap="round" stroke-linejoin="round" stroke-miterlimit="4" stroke="#484848" stroke-width="2"><g><path d="M 22 10L 142 10C 142 10 154 10 154 22L 154 94C 154 94 154 106 142 106L 22 106C 22 106 10 106 10 94L 10 22C 10 22 10 10 22 10"></path></g></g></g><g id="g-root-ro_1hjgopulyqxhj-stroke" data-item-order="999987904" data-item-id="ro_1hjgopulyqxhj" data-item-class="Shape Stroke Fill" data-item-index="none" data-renderer-id="0" transform="translate(3, 155)"><g id="ro_1hjgopulyqxhj-stroke" fill="none" stroke-linecap="round" stroke-linejoin="round" stroke-miterlimit="4" stroke="#17b0e3" stroke-width="2"><g><path d="M 22 10L 166 10C 166 10 178 10 178 22L 178 70C 178 70 178 82 166 82L 22 82C 22 82 10 82 10 70L 10 22C 10 22 10 10 22 10"></path></g></g></g><g id="g-root-tx_readingp_v7zuhulyo4xz-stroke" data-item-order="1000000000" data-item-id="tx_readingp_v7zuhulyo4xz" data-item-class="Label Stroke" data-item-index="none" data-renderer-id="0" transform="translate(63, 15)"></g><g id="g-root-sear_v7zuhulyo4y0-stroke" data-item-order="1000000000" data-item-id="sear_v7zuhulyo4y0" data-item-class="Icon Stroke" data-item-index="none" data-renderer-id="0" transform="translate(27, 36)"><g id="sear_v7zuhulyo4y0-stroke" fill="none" stroke-linecap="round" stroke-linejoin="round" stroke-miterlimit="4" stroke="#484848" stroke-width="2"><g><path d="M 11.071428 22.685715C 11.070206 29.100971 16.270456 34.302216 22.685715 34.302216C 29.100971 34.302216 34.30122 29.100971 34.299999 22.685715C 34.30122 16.270456 29.100971 11.069214 22.685715 11.069214C 16.270456 11.069214 11.070206 16.270456 11.071428 22.685715M 38.92857 38.92857L 30.892857 30.892857"></path></g></g></g><g id="g-root-awar_1lynpr6lyqzv2-stroke" data-item-order="1000000000" data-item-id="awar_1lynpr6lyqzv2" data-item-class="Icon Stroke" data-item-index="none" data-renderer-id="0" transform="translate(15, 176)"><g id="awar_1lynpr6lyqzv2-stroke" fill="none" stroke-linecap="round" stroke-linejoin="round" stroke-miterlimit="4" stroke="#17b0e3" stroke-width="2"><g><path d="M 10.625 15.625L 23.125 15.625M 31.875 15.625L 35.625 15.625M 14.0625 12.8125C 13.889911 12.8125 13.75 12.952411 13.75 13.125C 13.75 13.297589 13.889911 13.4375 14.0625 13.4375C 14.235089 13.4375 14.375 13.297589 14.375 13.125C 14.375 12.952411 14.235089 12.8125 14.0625 12.8125L 14.0625 12.8125M 17.1875 12.8125C 17.014912 12.8125 16.875 12.952411 16.875 13.125C 16.875 13.297589 17.014912 13.4375 17.1875 13.4375C 17.360088 13.4375 17.5 13.297589 17.5 13.125C 17.5 12.952411 17.360088 12.8125 17.1875 12.8125L 17.1875 12.8125M 20.3125 12.8125C 20.139912 12.8125 20 12.952411 20 13.125C 20 13.297589 20.139912 13.4375 20.3125 13.4375C 20.485088 13.4375 20.625 13.297589 20.625 13.125C 20.625 12.952411 20.485088 12.8125 20.3125 12.8125L 20.3125 12.8125M 20 29.375L 13.125 29.375C 11.744288 29.375 10.625 28.255713 10.625 26.875L 10.625 13.125C 10.625 11.744288 11.744288 10.625 13.125 10.625L 33.125 10.625C 34.505714 10.625 35.625 11.744288 35.625 13.125L 35.625 28.125M 26.875 31.875L 27.5 31.875C 27.845177 31.875 28.125 32.154823 28.125 32.5L 28.125 36.875M 26.875 36.875L 29.375 36.875M 24.375 28.125L 31.875 28.125C 32.565353 28.125 33.125 28.684643 33.125 29.375L 33.125 39.375L 33.125 39.375L 23.125 39.375L 23.125 39.375L 23.125 29.375C 23.125 28.684643 23.684643 28.125 24.375 28.125ZM 33.125 34.375L 38.125 34.375C 38.815353 34.375 39.375 34.934647 39.375 35.625L 39.375 39.375L 39.375 39.375L 33.125 39.375L 33.125 39.375L 33.125 34.375L 33.125 34.375ZM 18.125 34.375L 23.125 34.375L 23.125 34.375L 23.125 39.375L 23.125 39.375L 16.875 39.375L 16.875 39.375L 16.875 35.625C 16.875 34.934647 17.434645 34.375 18.125 34.375ZM 31.84 20.475C 32.038883 20.304924 32.110752 20.028952 32.020092 19.783472C 31.929432 19.537991 31.695438 19.374979 31.43375 19.375L 29.139999 19.375L 28.401249 17.28875C 28.312546 17.03977 28.076809 16.873508 27.8125 16.873508C 27.548191 16.873508 27.312454 17.03977 27.223751 17.28875L 26.483749 19.375L 24.19125 19.375C 23.929562 19.374979 23.695568 19.537991 23.604908 19.783472C 23.514248 20.028952 23.586119 20.304924 23.785 20.475L 25.51125 21.952499L 24.5 24.529999C 24.402048 24.779621 24.474241 25.063908 24.679428 25.236547C 24.884613 25.409185 25.177057 25.431698 25.40625 25.2925L 27.811249 23.834999L 30.216251 25.2925C 30.445396 25.430714 30.737112 25.407707 30.941761 25.235283C 31.14641 25.062857 31.218578 24.779278 31.12125 24.529999L 30.112499 21.952499Z"></path></g></g></g><g id="g-root-tx_comparin_1uuaq02lyqz2d-stroke" data-item-order="1000000000" data-item-id="tx_comparin_1uuaq02lyqz2d" data-item-class="Label Stroke" data-item-index="none" data-renderer-id="0" transform="translate(51, 167)"></g><g id="g-root-tx_makingpu_90wf1elye9zc-stroke" data-item-order="1000000000" data-item-id="tx_makingpu_90wf1elye9zc" data-item-class="Label Stroke" data-item-index="none" data-renderer-id="0" transform="translate(57, 295)"></g><g id="g-root-carr_1uqjyn6lyebd5-stroke" data-item-order="1000000000" data-item-id="carr_1uqjyn6lyebd5" data-item-class="Icon Stroke" data-item-index="none" data-renderer-id="0" transform="translate(21, 316)"><g id="carr_1uqjyn6lyebd5-stroke" fill="none" stroke-linecap="round" stroke-linejoin="round" stroke-miterlimit="4" stroke="#17b0e3" stroke-width="2"><g><path d="M 31.25 28.74L 31.25 27.49C 31.25 24.038221 28.45178 21.240002 25 21.240002C 21.548222 21.240002 18.75 24.038221 18.75 27.490002L 18.75 28.74M 29.375 31.865002L 28.125 31.865002L 27.5 39.365002L 22.5 39.365002L 21.875 31.865002L 20.625 31.865002M 20.625 14.99C 20.625002 17.406246 22.583755 19.365 25.000002 19.365C 27.416246 19.365 29.375002 17.406246 29.375002 14.99C 29.375002 12.573754 27.416246 10.615 25.000002 10.615C 22.583755 10.615 20.625002 12.573754 20.625002 14.99ZM 31.098749 33.741249C 31.187687 33.384956 31.507774 33.134968 31.875 33.134998L 36.875 33.134998C 37.242016 33.134377 37.562225 33.383945 37.651249 33.740002L 38.716248 38.001247C 38.738682 38.089497 38.750023 38.180199 38.75 38.271252C 38.75 38.885872 38.252117 39.384312 37.637501 39.384998L 31.112499 39.384998C 30.497879 39.384312 30 38.885872 30 38.271252C 29.999981 38.180199 30.011318 38.089497 30.033751 38.001251ZM 32.5 33.134998L 32.920002 30.6175C 33.038361 29.906082 33.653801 29.384573 34.375 29.384573C 35.096199 29.384573 35.711639 29.906082 35.829998 30.6175L 36.25 33.134998M 12.34875 33.741249C 12.437688 33.384956 12.757774 33.134968 13.125 33.134998L 18.125 33.134998C 18.492016 33.134377 18.812223 33.383945 18.901249 33.740002L 19.966249 38C 19.988787 38.088654 20.000124 38.179779 20 38.271252C 20 38.885872 19.502119 39.384312 18.887501 39.384998L 12.3625 39.384998C 11.747881 39.384312 11.25 38.885872 11.25 38.271252C 11.249981 38.180199 11.261318 38.089497 11.283751 38.001251ZM 13.75 33.134998L 14.17 30.6175C 14.288362 29.906082 14.903804 29.384573 15.625 29.384573C 16.346197 29.384573 16.961637 29.906082 17.08 30.6175L 17.5 33.134998"></path></g></g></g><g id="g-root-tx_timepres_9m3mlyjwug-stroke" data-item-order="1000000000" data-item-id="tx_timepres_9m3mlyjwug" data-item-class="Label Stroke" data-item-index="none" data-renderer-id="0" transform="translate(57, 447)"></g><g id="g-root-fire_1ulk5yalyjxfl-stroke" data-item-order="1000000000" data-item-id="fire_1ulk5yalyjxfl" data-item-class="Icon Stroke" data-item-index="none" data-renderer-id="0" transform="translate(21, 468)"><g id="fire_1ulk5yalyjxfl-stroke" fill="none" stroke-linecap="round" stroke-linejoin="round" stroke-miterlimit="4" stroke="#17b0e3" stroke-width="2"><g><path d="M 16.25 30.626249C 16.25 35.458744 20.167509 39.376251 25.000002 39.376251C 29.832493 39.376251 33.75 35.458744 33.75 30.626251C 33.75 25.79376 29.832493 21.876251 25.000002 21.876251C 20.167509 21.876251 16.25 25.79376 16.25 30.626251ZM 33.1875 27.533751C 35.162594 26.398197 36.363331 24.277874 36.321251 22C 36.281395 19.693508 35.338982 17.494543 33.696251 15.875C 33.597496 16.695206 33.167858 17.439432 32.506958 17.935108C 31.846054 18.430786 31.011295 18.634857 30.196249 18.5C 27.902428 16.57082 27.185381 13.344112 28.446251 10.625C 22.977501 10.625 19.477499 13.85125 18.821251 18.5C 17.147659 18.674839 15.622009 17.530602 15.32125 15.875C 11.45 19.1675 11.25 25.827499 16.563749 28.296249M 29.375 30.626249L 25 30.626249L 25 25.001251"></path></g></g></g><g id="g-root-cu_18f34f6lyjwnf-stroke" data-item-order="1000000002" data-item-id="cu_18f34f6lyjwnf" data-item-class="Curve Stroke" data-item-index="none" data-renderer-id="0" transform="translate(87, 99)"><g id="cu_18f34f6lyjwnf-stroke" fill="none" stroke-linecap="round" stroke-linejoin="round" stroke-miterlimit="4" stroke="#484848" stroke-width="2"><g><path d="M 10 10L 10 38L 10 64"></path><path d="M 3.5 58L 10 64.5L 16.5 58" stroke-dasharray="none"></path></g></g></g><g id="g-root-cu_18f34f6lyjwni-stroke" data-item-order="1000000002" data-item-id="cu_18f34f6lyjwni" data-item-class="Curve Stroke" data-item-index="none" data-renderer-id="0" transform="translate(87, 227)"><g id="cu_18f34f6lyjwni-stroke" fill="none" stroke-linecap="round" stroke-linejoin="round" stroke-miterlimit="4" stroke="#484848" stroke-width="2"><g><path d="M 10 10L 10 38L 10 64"></path><path d="M 3.5 58L 10 64.5L 16.5 58" stroke-dasharray="none"></path></g></g></g><g id="g-root-cu_13z9maqlyjxft-stroke" data-item-order="1000000002" data-item-id="cu_13z9maqlyjxft" data-item-class="Curve Stroke" data-item-index="none" data-renderer-id="0" transform="translate(87, 379)"><g id="cu_13z9maqlyjxft-stroke" fill="none" stroke-linecap="round" stroke-linejoin="round" stroke-miterlimit="4" stroke="#484848" stroke-width="2"><g><path d="M 10 10L 10 38L 10 64"></path><path d="M 3.5 58L 10 64.5L 16.5 58" stroke-dasharray="none"></path></g></g></g></g></g></svg>