<?xml version="1.0" encoding="utf-8" standalone="yes"?>
<!DOCTYPE svg PUBLIC "-//W3C//DTD SVG 1.1//EN" "http://www.w3.org/Graphics/SVG/1.1/DTD/svg11.dtd">
<svg width="900" height="468" viewBox="0 0 900 468" style="fill:none;stroke:none;fill-rule:evenodd;clip-rule:evenodd;stroke-linecap:round;stroke-linejoin:round;stroke-miterlimit:1.5;" version="1.1" xmlns="http://www.w3.org/2000/svg" xmlns:xlink="http://www.w3.org/1999/xlink"><style id="fontImports">@import url("https://fonts.googleapis.com/css2?family=Roboto:wght@400;700&amp;display=block");</style><g id="items" style="isolation: isolate"><g id="blend" style="mix-blend-mode:normal"><g id="g-root-5.cu_sy_v2zixq9h515a-fill" data-item-order="999739126" data-item-id="5.cu_sy_v2zixq9h515a" data-item-class="Part Indexed Fill Stroke" data-item-index="5" data-renderer-id="0" transform="translate(711.466064453125, 65.173828125)"></g><g id="g-root-5.cu_1_sy_qn60ta9h51xj-fill" data-item-order="999739128" data-item-id="5.cu_1_sy_qn60ta9h51xj" data-item-class="Part Indexed Fill Stroke ColorFillGray ColorStrokeGray" data-item-index="5" data-renderer-id="0" transform="translate(752.1494140625, 302)"></g><g id="g-root-4.cu_sy_m7yzry9h4zk0-fill" data-item-order="999739132" data-item-id="4.cu_sy_m7yzry9h4zk0" data-item-class="Part Indexed Fill Stroke" data-item-index="4" data-renderer-id="0" transform="translate(531.309814453125, 117.2998046875)"></g><g id="g-root-4.cu_1_sy_dcbzj29h50cp-fill" data-item-order="999739134" data-item-id="4.cu_1_sy_dcbzj29h50cp" data-item-class="Part Indexed Fill Stroke ColorFillGray ColorStrokeGray" data-item-index="4" data-renderer-id="0" transform="translate(572.1494140625, 302)"></g><g id="g-root-3.cu_sy_dcbzj29h50cq-fill" data-item-order="999739138" data-item-id="3.cu_sy_dcbzj29h50cq" data-item-class="Part Indexed Fill Stroke" data-item-index="3" data-renderer-id="0" transform="translate(376.8690490722656, 162.5341796875)"></g><g id="g-root-3.cu_1_sy_8wihem9h514z-fill" data-item-order="999739140" data-item-id="3.cu_1_sy_8wihem9h514z" data-item-class="Part Indexed Fill Stroke ColorFillGray ColorStrokeGray" data-item-index="3" data-renderer-id="0" transform="translate(392.1484375, 302)"></g><g id="g-root-2.cu_sy_8wihem9h5150-fill" data-item-order="999739144" data-item-id="2.cu_sy_8wihem9h5150" data-item-class="Part Indexed Fill Stroke" data-item-index="2" data-renderer-id="0" transform="translate(221.16775512695312, 210.896728515625)"></g><g id="g-root-2.cu_1_sy_vh5q9h51xp-fill" data-item-order="999739146" data-item-id="2.cu_1_sy_vh5q9h51xp" data-item-class="Part Indexed Fill Stroke ColorFillGray ColorStrokeGray" data-item-index="2" data-renderer-id="0" transform="translate(212.1494140625, 302)"></g><g id="g-root-1.cu_sy_1umsi3i9h4zd2-fill" data-item-order="999739150" data-item-id="1.cu_sy_1umsi3i9h4zd2" data-item-class="Part Indexed Indexed_1 Fill Stroke" data-item-index="1" data-renderer-id="0" transform="translate(39.18135070800781, 262.7939453125)"></g><g id="g-root-1.cu_1_sy_1umsi3i9h4zd3-fill" data-item-order="999739152" data-item-id="1.cu_1_sy_1umsi3i9h4zd3" data-item-class="Part Indexed Indexed_1 Fill Stroke ColorFillGray ColorStrokeGray" data-item-index="1" data-renderer-id="0" transform="translate(32.1494140625, 302)"></g><g id="g-root-tx_journeyt_1cvihlq9h51qd-fill" data-item-order="1000000000" data-item-id="tx_journeyt_1cvihlq9h51qd" data-item-class="Label Stroke Title ColorStrokeBlack" data-item-index="none" data-renderer-id="0" transform="translate(308, 2)"><g id="tx_journeyt_1cvihlq9h51qd-fill" stroke="none" fill="#484848"><g><text style="font: 20px Roboto, sans-serif; white-space: pre;" font-size="20px" font-family="Roboto, sans-serif"><tspan x="17.72" y="33.5" dominant-baseline="ideographic">Journey to Healthier Living</tspan></text></g></g></g><g id="g-root-nine_909f329hant9-fill" data-item-order="1000000000" data-item-id="nine_909f329hant9" data-item-class="Icon Stroke Indexed Indexed_1 InsideFill InsideGrayFill" data-item-index="1" data-renderer-id="0" transform="translate(56, 326)"></g><g id="g-root-1_meuavy9h6g3s-fill" data-item-order="1000000000" data-item-id="1_meuavy9h6g3s" data-item-class="Icon Stroke Indexed InsideFill InsideGrayFill" data-item-index="2" data-renderer-id="0" transform="translate(236, 326)"></g><g id="g-root-sear_hu102m9h3nk6-fill" data-item-order="1000000000" data-item-id="sear_hu102m9h3nk6" data-item-class="Icon Stroke Indexed InsideFill InsideGrayFill" data-item-index="3" data-renderer-id="0" transform="translate(416, 326)"></g><g id="g-root-heal_18lxqce9hew3k-fill" data-item-order="1000000000" data-item-id="heal_18lxqce9hew3k" data-item-class="Icon Stroke Indexed InsideFill InsideGrayFill" data-item-index="4" data-renderer-id="0" transform="translate(596, 326)"></g><g id="g-root-coin_hv9v329h7uo0-fill" data-item-order="1000000000" data-item-id="coin_hv9v329h7uo0" data-item-class="Icon Stroke Indexed InsideFill InsideGrayFill" data-item-index="5" data-renderer-id="0" transform="translate(776, 326)"></g><g id="g-root-tx_reduceds_1cvihlq9h51qc-fill" data-item-order="1000000000" data-item-id="tx_reduceds_1cvihlq9h51qc" data-item-class="Label Stroke Indexed Indexed_1 ColorStrokeBlack" data-item-index="1" data-renderer-id="0" transform="translate(2, 398)"><g id="tx_reduceds_1cvihlq9h51qc-fill" stroke="none" fill="#484848"><g><text style="font: 20px Roboto, sans-serif; white-space: pre;" font-size="20px" font-family="Roboto, sans-serif"><tspan x="43.22" y="33.5" dominant-baseline="ideographic">Reduced </tspan><tspan x="15.34" y="57.5" dominant-baseline="ideographic">Shopping Time</tspan></text></g></g></g><g id="g-root-tx_confiden_1hbbzq69h50y3-fill" data-item-order="1000000000" data-item-id="tx_confiden_1hbbzq69h50y3" data-item-class="Label Stroke Indexed ColorStrokeBlack" data-item-index="2" data-renderer-id="0" transform="translate(206, 398)"><g id="tx_confiden_1hbbzq69h50y3-fill" stroke="none" fill="#484848"><g><text style="font: 20px Roboto, sans-serif; white-space: pre;" font-size="20px" font-family="Roboto, sans-serif"><tspan x="12.78" y="33.5" dominant-baseline="ideographic">Confident </tspan><tspan x="12.29" y="57.5" dominant-baseline="ideographic">Decisions</tspan></text></g></g></g><g id="g-root-tx_understa_1hbbzq69h50y2-fill" data-item-order="1000000000" data-item-id="tx_understa_1hbbzq69h50y2" data-item-class="Label Stroke Indexed ColorStrokeBlack" data-item-index="3" data-renderer-id="0" transform="translate(362, 398)"><g id="tx_understa_1hbbzq69h50y2-fill" stroke="none" fill="#484848"><g><text style="font: 20px Roboto, sans-serif; white-space: pre;" font-size="20px" font-family="Roboto, sans-serif"><tspan x="14.63" y="33.5" dominant-baseline="ideographic">Understanding </tspan><tspan x="29.78" y="57.5" dominant-baseline="ideographic">Ingredients</tspan></text></g></g></g><g id="g-root-tx_healthie_1hbbzq69h50y1-fill" data-item-order="1000000000" data-item-id="tx_healthie_1hbbzq69h50y1" data-item-class="Label Stroke Indexed ColorStrokeBlack" data-item-index="4" data-renderer-id="0" transform="translate(530, 398)"><g id="tx_healthie_1hbbzq69h50y1-fill" stroke="none" fill="#484848"><g><text style="font: 20px Roboto, sans-serif; white-space: pre;" font-size="20px" font-family="Roboto, sans-serif"><tspan x="15.51" y="33.5" dominant-baseline="ideographic">Healthier Choices</tspan></text></g></g></g><g id="g-root-tx_moneysav_1q6yzz29h505c-fill" data-item-order="1000000000" data-item-id="tx_moneysav_1q6yzz29h505c" data-item-class="Label Stroke Indexed ColorStrokeBlack" data-item-index="5" data-renderer-id="0" transform="translate(728, 398)"><g id="tx_moneysav_1q6yzz29h505c-fill" stroke="none" fill="#484848"><g><text style="font: 20px Roboto, sans-serif; white-space: pre;" font-size="20px" font-family="Roboto, sans-serif"><tspan x="16.59" y="33.5" dominant-baseline="ideographic">Money Saved</tspan></text></g></g></g><g id="g-root-5.cu_sy_v2zixq9h515a-stroke" data-item-order="999739126" data-item-id="5.cu_sy_v2zixq9h515a" data-item-class="Part Indexed Fill Stroke" data-item-index="5" data-renderer-id="0" transform="translate(711.466064453125, 65.173828125)"><g id="5.cu_sy_v2zixq9h515a-stroke" fill="none" stroke-linecap="round" stroke-linejoin="round" stroke-miterlimit="4" stroke="#dd8433" stroke-width="2"><g><path d="M 107.451539 105.279946C 100.610901 96.987679 100.574646 84.927453 109.203309 77.809288C 122.153077 67.126473 147.099854 69.989327 149.809388 70.337197C 149.635865 73.0635 147.704041 98.099541 134.754273 108.782372C 126.125611 115.900521 114.292176 113.572213 107.451539 105.279946ZM 107.451172 105.279641L 145.002686 74.301827M 141.446412 85.066445C 139.267457 84.100258 133.443055 84.298714 130.201905 86.51191C 132.990845 83.750481 134.292969 78.070107 133.758545 75.747139M 137.258973 94.509392C 133.890259 92.411141 125.67688 91.058037 121.704407 93.522149C 124.878846 90.09063 125.111695 81.769738 123.692139 78.063546M 130.845582 103.485146C 126.594727 100.813912 116.261475 99.041863 111.289246 102.113961C 115.250611 97.816506 115.475281 87.334771 113.660828 82.653679M 77.615357 86.093422C 84.455994 77.801156 84.492249 65.740929 75.863587 58.622765C 62.913819 47.939949 37.967041 50.802811 35.257508 51.150673C 35.431031 53.876976 37.362854 78.913018 50.312623 89.595849C 58.941285 96.713997 70.77472 94.385689 77.615357 86.093422ZM 77.615723 86.093117L 40.064209 55.115304M 43.620484 65.879921C 45.799439 64.913735 51.623841 65.112191 54.864991 67.325387C 52.07605 64.563958 50.773926 58.883584 51.30835 56.560616M 47.807923 75.322869C 51.176636 73.224617 59.390015 71.871514 63.362488 74.335625C 60.18805 70.904107 59.955201 62.583214 61.374756 58.877022M 54.221253 84.298638C 58.472107 81.627404 68.805359 79.855355 73.777588 82.927453C 69.816224 78.629998 69.591553 68.148262 71.406006 63.467171M 76.560486 184.564492C 68.95929 176.963326 56.957642 175.775597 49.048096 183.685158C 37.177491 195.555703 37.645203 220.661812 37.732728 223.39222C 40.463135 223.479775 65.569275 223.947457 77.43982 212.076912C 85.349366 204.167336 84.161683 192.165688 76.560486 184.564492ZM 76.561341 184.564431L 42.139405 218.986397M 53.193787 216.474221C 52.440125 214.21296 53.193787 208.434121 55.70636 205.419106C 52.691285 207.931588 46.912537 208.685372 44.651185 207.931588M 62.992005 213.20823C 61.224976 209.654519 60.662354 201.349495 63.494507 197.630471C 59.775574 200.462716 51.470459 199.900002 47.916749 198.133004M 72.540101 207.680306C 70.286988 203.193856 69.509705 192.738595 73.042603 188.082436C 68.386475 191.615334 57.931214 190.838082 53.444764 188.584969M 108.956299 192.462777C 113.877137 188.515328 120.954285 188.59092 125.061829 193.711281C 131.226441 201.396035 129.346192 216.011635 129.12024 217.598824C 127.521851 217.475106 112.846375 216.140419 106.681702 208.455666C 102.574219 203.335305 104.035462 196.410256 108.956299 192.462777ZM 108.956238 192.462838L 125.053467 212.529366M 116.50354 211.009194C 117.653565 209.217843 118.439637 204.82267 117.147156 202.673989C 118.964356 204.401741 123.425415 204.587685 125.423584 203.853585M 110.472901 205.816964C 111.922852 203.578072 112.939515 198.101326 111.343567 195.437508C 113.59784 197.57322 119.164612 197.768776 121.664734 196.838936M 104.395874 53.863533C 99.565125 49.806359 98.26001 42.85019 102.48169 37.823517C 108.817688 30.279419 123.519471 29.275231 125.12024 29.1875C 125.310425 30.779381 126.86139 45.433579 120.525391 52.977684C 116.303711 58.004342 109.226685 57.920708 104.395874 53.863533ZM 104.395386 53.863564L 120.940003 34.164277M 121.116944 42.844796C 119.135804 42.065918 114.671692 42.151467 112.816102 43.837944C 114.156556 41.718842 113.469544 37.307091 112.360108 35.490304M 117.199585 49.773507C 114.72107 48.787652 109.151185 48.857872 106.849488 50.94233C 108.504883 48.315072 107.611817 42.816918 106.212586 40.545968M 80.669068 34.676033C 85.499817 30.618859 86.804932 23.66269 82.583252 18.636017C 76.247254 11.091919 61.545472 10.087731 59.944703 10C 59.754517 11.591881 58.203553 26.246079 64.539551 33.790177C 68.761231 38.816849 75.838257 38.733208 80.669068 34.676033ZM 80.669434 34.676049L 64.124817 14.976754M 63.948975 23.657296C 65.930115 22.878418 70.394227 22.963967 72.249817 24.650444C 70.909363 22.531342 71.596375 18.119591 72.705811 16.302804M 67.865296 30.586007C 70.343811 29.600152 75.913697 29.670372 78.215394 31.75483C 76.559998 29.127572 77.453064 23.629418 78.852295 21.358468M 111.402283 161.804314C 105.854432 149.34124 109.906556 134.582192 122.875245 128.809288C 142.338379 120.145379 171.869935 132.119606 175.064942 133.465294C 173.926697 136.739998 163.060486 166.696923 143.597352 175.360817C 130.628724 181.133736 116.950196 174.267388 111.402283 161.804314ZM 111.402588 161.804177L 167.84137 136.680794M 159.836304 148.634652C 157.500123 146.713021 150.310853 144.977395 145.595887 146.58268C 149.944092 144.15345 153.465699 137.64991 153.601319 134.627999M 151.508484 158.758751C 148.102051 155.048821 138.518677 150.604393 132.824219 152.268151C 137.871399 149.150353 140.982544 139.055047 140.505555 134.041085M 140.616394 167.555947C 136.32605 162.845833 124.292786 157.169106 117.169495 159.236748C 123.472962 155.327431 127.307984 142.587044 126.679383 136.246926M 73.662659 142.616814C 79.210511 130.15374 75.158387 115.394692 62.189698 109.621788C 42.726563 100.957879 13.195008 112.932106 10 114.277794C 11.138245 117.552498 22.004456 147.509423 41.467591 156.173317C 54.436219 161.946236 68.114747 155.079888 73.662659 142.616814ZM 73.662171 142.616616L 17.223389 117.493233M 25.228638 129.447152C 27.56482 127.525521 34.75409 125.789895 39.469056 127.39518C 35.12085 124.96595 31.599244 118.46241 31.463624 115.440499M 33.556397 139.571251C 36.96283 135.861321 46.546204 131.416893 52.240662 133.080651C 47.193482 129.962853 44.082337 119.867547 44.559327 114.853585M 44.448487 148.36866C 48.738831 143.658547 60.772095 137.98182 67.895386 140.049462C 61.591919 136.140145 57.756897 123.399758 58.385499 117.059639M 90.978209 60.499389C 90.978209 50.957689 88.247409 41.544489 80.790609 34.715889C 91.004909 42.859689 93.987709 55.169589 94.163009 67.807289C 95.154909 64.641689 96.603209 60.019889 104.274509 53.903589C 98.251909 61.779989 94.297709 71.047089 94.297709 77.303889L 94.913809 118.503489C 96.402409 115.010389 100.713009 108.815489 107.826909 105.202189C 100.760809 110.787989 96.539409 122.048489 95.063809 128.533789L 95.755309 174.774389C 97.818809 171.163489 102.900009 165.189589 111.751909 161.747089C 102.908209 167.099889 95.755309 178.805389 95.888609 183.686789L 95.980709 189.846289C 97.969709 187.022189 103.065009 184.832789 109.506109 193.234689C 101.597309 184.677189 96.110009 192.618589 96.110009 198.495289L 96.832709 246.825589L 88.258409 246.825589L 89.095009 189.512089C 89.095009 184.659589 83.481509 176.899989 75.928409 185.072489C 82.124909 176.989889 87.075809 178.708989 89.213909 181.365589L 89.446809 165.412189C 89.583009 159.269589 82.589009 148.173189 73.314209 142.559489C 82.584009 146.164389 87.718709 152.545489 89.583009 156.081889L 90.248209 110.510689C 89.046509 104.299889 84.749709 91.951689 77.239209 86.014489C 84.806209 89.857889 89.201409 96.622289 90.402309 99.948989L 90.978209 60.499389Z"></path></g></g></g><g id="g-root-5.cu_1_sy_qn60ta9h51xj-stroke" data-item-order="999739128" data-item-id="5.cu_1_sy_qn60ta9h51xj" data-item-class="Part Indexed Fill Stroke ColorFillGray ColorStrokeGray" data-item-index="5" data-renderer-id="0" transform="translate(752.1494140625, 302)"><g id="5.cu_1_sy_qn60ta9h51xj-stroke" fill="none" stroke-linecap="round" stroke-linejoin="round" stroke-miterlimit="4" stroke="#888888" stroke-width="2"><g><path d="M 10.0865 13.3142C 9.6373 11.631 10.9943 10 12.844 10L 90.8563 10C 92.706 10 94.063 11.631 93.6139 13.3142L 91.8349 19.9809C 91.5182 21.1676 90.3814 22 89.0774 22L 14.623 22C 13.3189 22 12.1821 21.1676 11.8655 19.9809L 10.0865 13.3142ZM 15.735352 22L 87.369352 22L 77.592952 79.7212C 77.327152 81.0462 76.160552 82 74.805552 82L 28.299152 82C 26.944152 82 25.777452 81.0462 25.511752 79.7212L 15.735352 22Z"></path></g></g></g><g id="g-root-4.cu_sy_m7yzry9h4zk0-stroke" data-item-order="999739132" data-item-id="4.cu_sy_m7yzry9h4zk0" data-item-class="Part Indexed Fill Stroke" data-item-index="4" data-renderer-id="0" transform="translate(531.309814453125, 117.2998046875)"><g id="4.cu_sy_m7yzry9h4zk0-stroke" fill="none" stroke-linecap="round" stroke-linejoin="round" stroke-miterlimit="4" stroke="#e3cd09" stroke-width="2"><g><path d="M 77.928833 80.160813C 84.769471 71.868546 84.805726 59.808319 76.177063 52.690155C 63.227295 42.00734 38.280518 44.870194 35.570984 45.218064C 35.744507 47.944367 37.676331 72.980408 50.626099 83.663239C 59.254761 90.781388 71.088196 88.45308 77.928833 80.160813ZM 77.9292 80.160508L 40.377686 49.182694M 43.93396 59.947312C 46.112915 58.981125 51.937317 59.179581 55.178467 61.392777C 52.389527 58.631348 51.087403 52.950974 51.621827 50.628006M 48.121399 69.390259C 51.490113 67.292008 59.703492 65.938904 63.675965 68.403016C 60.501526 64.971497 60.268677 56.650605 61.688233 52.944413M 54.53479 78.366028C 58.785645 75.694794 69.118897 73.922745 74.091126 76.994843C 70.129761 72.697388 69.905091 62.215653 71.719544 57.534562M 109.270752 140.337784C 114.19159 136.390335 121.268738 136.465928 125.376282 141.586289C 131.540894 149.271042 129.660645 163.886643 129.434693 165.473832C 127.836304 165.350113 113.160828 164.015427 106.996155 156.330674C 102.888672 151.210312 104.349915 144.285263 109.270752 140.337784ZM 109.270691 140.336869L 125.36792 160.403397M 116.817994 158.884201C 117.968018 157.09285 118.75409 152.697678 117.461609 150.548996C 119.278809 152.276749 123.739869 152.462693 125.738038 151.728592M 110.787415 153.691971C 112.237366 151.45308 113.254029 145.976334 111.658082 143.312516C 113.912354 145.448227 119.479126 145.643784 121.979249 144.713944M 104.710328 48.219986C 99.879578 44.162812 98.574463 37.206635 102.796143 32.179978C 109.132142 24.63588 123.833924 23.631684 125.434693 23.543946C 125.624878 25.135834 127.175843 39.790024 120.839844 47.334137C 116.618165 52.360794 109.541138 52.277161 104.710328 48.219986ZM 104.709961 48.220002L 121.254578 28.520707M 121.431397 37.201249C 119.450257 36.422364 114.986145 36.50792 113.130555 38.194397C 114.471009 36.075287 113.783997 31.663544 112.674561 29.846756M 117.5141 44.12996C 115.035584 43.144104 109.465699 43.214325 107.164002 45.298783C 108.819397 42.671524 107.926331 37.173371 106.5271 34.90242M 80.983521 34.676041C 85.81427 30.618866 87.119385 23.66269 82.897706 18.636032C 76.561707 11.091935 61.859925 10.087738 60.259156 10C 60.06897 11.591889 58.518006 26.246079 64.854004 33.790192C 69.075684 38.816849 76.15271 38.733216 80.983521 34.676041ZM 80.983887 34.676056L 64.43927 14.976761M 64.262452 23.657303C 66.243592 22.878418 70.707703 22.963974 72.563294 24.650452C 71.22284 22.531342 71.909852 18.119599 73.019288 16.302811M 68.179749 30.586014C 70.658265 29.600159 76.22815 29.67038 78.529847 31.754837C 76.874451 29.127579 77.767518 23.629425 79.166749 21.358475M 111.716736 109.679322C 106.168885 97.216248 110.221009 82.457199 123.189698 76.684296C 142.652832 68.020386 172.184388 79.994614 175.379395 81.340302C 174.24115 84.615006 163.374939 114.57193 143.911805 123.235825C 130.943177 129.008744 117.264649 122.142395 111.716736 109.679322ZM 111.717041 109.679184L 168.155823 84.555802M 160.150757 96.509659C 157.814576 94.588028 150.625306 92.852402 145.91034 94.457688C 150.258545 92.028458 153.780152 85.524918 153.915772 82.503006M 151.822999 106.633759C 148.416565 102.923829 138.833191 98.479401 133.138733 100.143158C 138.185914 97.025361 141.297059 86.930054 140.820069 81.916092M 140.930909 115.430954C 136.640564 110.720841 124.6073 105.044114 117.484009 107.111756C 123.787476 103.202439 127.622498 90.462052 126.993897 84.121933M 73.662659 133.218369C 79.210511 120.75531 75.158387 105.996262 62.189698 100.223359C 42.726563 91.559449 13.195008 103.533677 10 104.879364C 11.138245 108.154068 22.004456 138.110978 41.467591 146.774887C 54.436219 152.547806 68.114747 145.681443 73.662659 133.218369ZM 73.976624 133.130295L 17.537842 108.006913M 25.544068 119.960831C 27.880249 118.0392 35.069519 116.303574 39.784485 117.90886C 35.43628 115.47963 31.914673 108.97609 31.779053 105.954178M 33.87085 130.083939C 37.277283 126.374024 46.860657 121.929596 52.555115 123.593354C 47.507935 120.475556 44.39679 110.380249 44.87378 105.366288M 44.76294 138.88234C 49.053284 134.172226 61.086548 128.495499 68.209839 130.563126C 61.906373 126.653824 58.071351 113.913437 58.699952 107.573319M 91.322963 58.441997C 91.322963 52.183697 88.717463 41.685597 81.106663 34.715897C 89.274763 41.228297 93.999263 51.797397 94.450663 62.249797C 95.442563 59.084097 96.917663 54.376997 104.588963 48.260697C 98.547063 56.162297 94.602163 65.849997 94.602163 71.716997L 95.382063 124.005197C 96.793263 120.748297 101.983763 113.542997 112.066363 109.621997C 101.952663 115.743397 95.602963 128.719297 95.532263 134.076697L 95.602963 138.815997C 96.924663 135.632797 102.562863 131.641997 109.820763 141.109297C 100.443563 130.962897 95.761163 143.584897 95.761163 149.419197L 96.436563 194.700397L 89.283463 194.700397L 89.858563 156.281497C 89.858563 150.228397 83.079063 138.793497 73.628663 133.073597C 83.075263 136.747197 88.227463 143.303997 90.000563 146.795197L 90.627263 104.922597C 90.627263 98.856597 85.205763 86.130997 77.553663 80.081897C 85.277763 84.005097 89.697063 90.971797 90.787463 94.219097L 91.322963 58.441997Z"></path></g></g></g><g id="g-root-4.cu_1_sy_dcbzj29h50cp-stroke" data-item-order="999739134" data-item-id="4.cu_1_sy_dcbzj29h50cp" data-item-class="Part Indexed Fill Stroke ColorFillGray ColorStrokeGray" data-item-index="4" data-renderer-id="0" transform="translate(572.1494140625, 302)"><g id="4.cu_1_sy_dcbzj29h50cp-stroke" fill="none" stroke-linecap="round" stroke-linejoin="round" stroke-miterlimit="4" stroke="#888888" stroke-width="2"><g><path d="M 10.0865 13.3142C 9.6373 11.631 10.9943 10 12.844 10L 90.8563 10C 92.706 10 94.063 11.631 93.6139 13.3142L 91.8349 19.9809C 91.5182 21.1676 90.3814 22 89.0774 22L 14.623 22C 13.3189 22 12.1821 21.1676 11.8655 19.9809L 10.0865 13.3142ZM 15.735352 22L 87.369352 22L 77.592952 79.7212C 77.327152 81.0462 76.160552 82 74.805552 82L 28.299152 82C 26.944152 82 25.777452 81.0462 25.511752 79.7212L 15.735352 22Z"></path></g></g></g><g id="g-root-3.cu_sy_dcbzj29h50cq-stroke" data-item-order="999739138" data-item-id="3.cu_sy_dcbzj29h50cq" data-item-class="Part Indexed Fill Stroke" data-item-index="3" data-renderer-id="0" transform="translate(376.8690490722656, 162.5341796875)"><g id="3.cu_sy_dcbzj29h50cq-stroke" fill="none" stroke-linecap="round" stroke-linejoin="round" stroke-miterlimit="4" stroke="#93c131" stroke-width="2"><g><path d="M 81.902069 78.986985C 75.061432 70.694718 75.025147 58.634491 83.653839 51.516327C 96.603638 40.833512 121.550354 43.696366 124.259918 44.044236C 124.086395 46.770539 122.154602 71.80658 109.204804 82.489396C 100.576111 89.60756 88.742706 87.279251 81.902069 78.986985ZM 81.901672 78.986679L 119.453217 48.008866M 115.896942 58.773484C 113.717987 57.807297 107.893616 58.005753 104.652435 60.218949C 107.441345 57.45752 108.743469 51.777146 108.209076 49.454178M 111.709534 68.216431C 108.34079 66.11818 100.127411 64.765076 96.154938 67.229187C 99.329346 63.797669 99.562256 55.476777 98.14267 51.770585M 105.296112 77.192185C 101.045319 74.520951 90.712036 72.748902 85.739807 75.821C 89.701172 71.523545 89.925812 61.041809 88.111389 56.360718M 52.35788 59.798508C 59.198517 51.506241 59.234802 39.446015 50.60611 32.327851C 37.656311 21.645035 12.709595 24.507889 10 24.855759C 10.173584 27.582062 12.105347 52.618103 25.055145 63.300934C 33.683838 70.419083 45.517243 68.090775 52.35788 59.798508ZM 52.358276 59.798203L 14.806732 28.820389M 18.248749 39.585007C 20.427704 38.618821 26.252075 38.817276 29.493256 41.030472C 26.704346 38.269043 25.402222 32.588669 25.936615 30.265702M 22.436157 49.027954C 25.804901 46.929703 34.01828 45.5766 37.990753 48.040711C 34.816345 44.609192 34.583435 36.2883 36.003021 32.582108M 28.850525 58.003724C 33.101318 55.332489 43.434601 53.56044 48.40683 56.632538C 44.445465 52.335083 44.220825 41.853348 46.035248 37.172257M 51.387299 95.102433C 46.466461 91.154984 39.389313 91.230576 35.281799 96.350937C 29.117157 104.035691 30.997406 118.651291 31.223328 120.23848C 32.821747 120.114762 47.497223 118.780075 53.661865 111.095322C 57.769409 105.974961 56.308136 99.049912 51.387299 95.102433ZM 51.387421 95.102646L 35.290192 115.169175M 43.840088 113.64885C 42.690033 111.857499 41.903961 107.462326 43.196472 105.313645C 41.379242 107.041397 36.918182 107.227341 34.920014 106.493241M 49.870636 108.45662C 48.420654 106.217728 47.404022 100.740982 48.999939 98.077164C 46.745697 100.212876 41.178894 100.408432 38.678803 99.478592M 78.847412 34.676041C 74.016602 30.618866 72.711517 23.66269 76.933197 18.636032C 83.269165 11.091935 97.970947 10.087738 99.571747 10C 99.761902 11.591889 101.312897 26.246079 94.976929 33.790192C 90.755249 38.816849 83.678192 38.733216 78.847412 34.676041ZM 78.846985 34.676056L 95.391602 14.976761M 95.568451 23.65828C 93.587311 22.879395 89.1232 22.964951 87.267639 24.651429C 88.608063 22.532319 87.921082 18.120575 86.811615 16.303788M 91.651184 30.586014C 89.172638 29.600159 83.602783 29.67038 81.301056 31.754837C 82.956482 29.127579 82.063416 23.629425 80.664154 21.358475M 68.670382 60.242416C 68.670382 50.042516 72.089782 42.089316 78.723482 34.727616C 69.362682 42.788616 65.372582 50.855016 65.372582 63.304816L 65.220282 73.870216C 64.137182 70.628516 59.716482 63.648616 51.982182 59.720216C 59.656582 65.787016 65.065382 78.325516 65.065382 84.614116L 64.937282 93.501816C 63.564482 90.331016 58.043282 86.476316 50.837982 95.874916C 59.899682 86.070016 64.791782 97.715616 64.791782 103.595616L 64.130482 149.465816L 69.862182 149.465816L 69.208982 103.721816C 69.208982 97.476216 74.636782 84.948116 82.277682 78.907916C 74.581782 82.816816 70.166682 89.746916 69.055982 93.009316L 68.670382 60.242416Z"></path></g></g></g><g id="g-root-3.cu_1_sy_8wihem9h514z-stroke" data-item-order="999739140" data-item-id="3.cu_1_sy_8wihem9h514z" data-item-class="Part Indexed Fill Stroke ColorFillGray ColorStrokeGray" data-item-index="3" data-renderer-id="0" transform="translate(392.1484375, 302)"><g id="3.cu_1_sy_8wihem9h514z-stroke" fill="none" stroke-linecap="round" stroke-linejoin="round" stroke-miterlimit="4" stroke="#888888" stroke-width="2"><g><path d="M 10.086501 13.3142C 9.6373 11.631 10.994301 10 12.844 10L 90.8563 10C 92.706001 10 94.063 11.631 93.613901 13.3142L 91.834901 19.9809C 91.5182 21.1676 90.3814 22 89.077401 22L 14.623 22C 13.3189 22 12.1821 21.1676 11.8655 19.9809L 10.086501 13.3142ZM 15.836914 22L 87.470914 22L 77.694515 79.7212C 77.428715 81.0462 76.262115 82 74.907114 82L 28.400714 82C 27.045714 82 25.879014 81.0462 25.613315 79.7212L 15.836914 22Z"></path></g></g></g><g id="g-root-2.cu_sy_8wihem9h5150-stroke" data-item-order="999739144" data-item-id="2.cu_sy_8wihem9h5150" data-item-class="Part Indexed Fill Stroke" data-item-index="2" data-renderer-id="0" transform="translate(221.16775512695312, 210.896728515625)"><g id="2.cu_sy_8wihem9h5150-stroke" fill="none" stroke-linecap="round" stroke-linejoin="round" stroke-miterlimit="4" stroke="#3bc482" stroke-width="2"><g><path d="M 57.099457 45.548294C 50.25882 37.256027 50.222534 25.1958 58.851227 18.077636C 71.801026 7.394821 96.747742 10.257675 99.457337 10.605545C 99.283753 13.331848 97.35199 38.367904 84.402191 49.050705C 75.773499 56.168869 63.940094 53.840561 57.099457 45.548294ZM 57.09906 45.547989L 94.650604 14.570175M 91.09433 25.334793C 88.915375 24.368606 83.091004 24.567062 79.849823 26.780258C 82.638733 24.018829 83.940857 18.338455 83.406464 16.015487M 86.906922 34.777725C 83.538178 32.679489 75.324799 31.326385 71.352326 33.790512C 74.526734 30.358978 74.759644 22.038086 73.340058 18.331894M 80.4935 43.753494C 76.242706 41.08226 65.909424 39.310196 60.937195 42.382309C 64.89856 38.084854 65.1232 27.603119 63.308777 22.922027M 31.027649 57.824264C 35.85846 53.767074 37.163544 46.810928 32.941864 41.784256C 26.605896 34.240158 11.904099 33.235977 10.303299 33.148239C 10.113144 34.740127 8.562164 49.394302 14.898148 56.9384C 19.119827 61.965072 26.196869 61.881424 31.027649 57.824264ZM 31.028046 57.824264L 14.483444 38.124984M 14.30661 46.806503C 16.287766 46.027633 20.751862 46.113174 22.607437 47.799637C 21.266983 45.680557 21.953995 41.268783 23.063446 39.452011M 18.223877 53.734237C 20.702423 52.748398 26.272278 52.818618 28.574005 54.903061C 26.918579 52.275802 27.811646 46.777633 29.210907 44.506698M 57.47496 45.469589C 50.02096 51.362089 44.49366 61.969489 44.49366 69.824589L 45.05946 101.103789L 40.74906 101.103789L 40.91526 78.435689C 41.01466 72.047789 36.67036 64.001889 31.15036 57.876189C 38.49966 64.205089 40.41016 67.978789 41.45666 70.046289C 43.37256 59.271689 47.10786 50.735189 57.47496 45.469589Z"></path></g></g></g><g id="g-root-2.cu_1_sy_vh5q9h51xp-stroke" data-item-order="999739146" data-item-id="2.cu_1_sy_vh5q9h51xp" data-item-class="Part Indexed Fill Stroke ColorFillGray ColorStrokeGray" data-item-index="2" data-renderer-id="0" transform="translate(212.1494140625, 302)"><g id="2.cu_1_sy_vh5q9h51xp-stroke" fill="none" stroke-linecap="round" stroke-linejoin="round" stroke-miterlimit="4" stroke="#888888" stroke-width="2"><g><path d="M 10.0865 13.3142C 9.6373 11.631 10.9943 10 12.844 10L 90.8563 10C 92.706 10 94.063 11.631 93.6139 13.3142L 91.8349 19.9809C 91.5182 21.1676 90.3814 22 89.0774 22L 14.623 22C 13.3189 22 12.1821 21.1676 11.8655 19.9809L 10.0865 13.3142ZM 15.836914 22L 87.470914 22L 77.694514 79.7212C 77.428714 81.0462 76.262114 82 74.907114 82L 28.400714 82C 27.045714 82 25.879014 81.0462 25.613314 79.7212L 15.836914 22Z"></path></g></g></g><g id="g-root-1.cu_sy_1umsi3i9h4zd2-stroke" data-item-order="999739150" data-item-id="1.cu_sy_1umsi3i9h4zd2" data-item-class="Part Indexed Indexed_1 Fill Stroke" data-item-index="1" data-renderer-id="0" transform="translate(39.18135070800781, 262.7939453125)"><g id="1.cu_sy_1umsi3i9h4zd2-stroke" fill="none" stroke-linecap="round" stroke-linejoin="round" stroke-miterlimit="4" stroke="#4682e3" stroke-width="2"><g><path d="M 58.517131 16.041932C 59.625003 11.907288 63.527233 9.108155 67.829563 10.260987C 74.286579 11.99112 79.123912 20.742005 79.637294 21.70105C 78.713192 22.274842 70.148479 27.434723 63.691455 25.70459C 59.389125 24.551789 57.409252 20.176575 58.517131 16.041932ZM 58.517597 16.041535L 75.378215 20.559327M 69.802387 21.92157C 69.738597 20.896943 68.790485 18.963562 67.674999 18.496766C 68.874446 18.650238 70.66222 17.449952 71.22977 16.594483M 64.32423 21.050873C 64.252056 19.812592 63.126873 17.479462 61.795703 16.919648C 63.228458 17.100342 65.369426 15.642487 66.051067 14.606202M 31.120159 16.041932C 30.012287 11.907288 26.110057 9.108155 21.807727 10.260987C 15.350711 11.99112 10.513374 20.742005 10 21.70105C 10.924095 22.274842 19.488811 27.434723 25.945835 25.70459C 30.248165 24.551789 32.228038 20.176575 31.120159 16.041932ZM 31.119693 16.041535L 14.259075 20.559327M 19.834903 21.92157C 19.898693 20.896943 20.846805 18.963562 21.962291 18.496766C 20.762844 18.650238 18.97507 17.449952 18.40752 16.594483M 25.31306 21.050873C 25.385234 19.812592 26.510417 17.479462 27.841587 16.919648C 26.408832 17.100342 24.267864 15.642487 23.586223 14.606202M 44.819115 21.55758C 43.418515 18.37408 38.784015 13.70878 30.753215 16.20768C 38.990515 14.50788 43.462715 22.59158 43.462715 26.87328L 43.310015 48.45248L 46.199215 48.45248L 46.175615 26.87328C 46.199215 22.13448 50.647815 14.50788 58.885115 16.20768C 50.854315 13.70878 46.219815 18.37408 44.819115 21.55758Z"></path></g></g></g><g id="g-root-1.cu_1_sy_1umsi3i9h4zd3-stroke" data-item-order="999739152" data-item-id="1.cu_1_sy_1umsi3i9h4zd3" data-item-class="Part Indexed Indexed_1 Fill Stroke ColorFillGray ColorStrokeGray" data-item-index="1" data-renderer-id="0" transform="translate(32.1494140625, 302)"><g id="1.cu_1_sy_1umsi3i9h4zd3-stroke" fill="none" stroke-linecap="round" stroke-linejoin="round" stroke-miterlimit="4" stroke="#888888" stroke-width="2"><g><path d="M 10.086504 13.3142C 9.637304 11.631 10.994304 10 12.844004 10L 90.856304 10C 92.706004 10 94.063004 11.631 93.613904 13.3142L 91.834904 19.9809C 91.518204 21.1676 90.381404 22 89.077404 22L 14.623004 22C 13.318904 22 12.182104 21.1676 11.865504 19.9809L 10.086504 13.3142ZM 15.836918 22L 87.470918 22L 77.694518 79.7212C 77.428718 81.0462 76.262118 82 74.907118 82L 28.400718 82C 27.045718 82 25.879018 81.0462 25.613318 79.7212L 15.836918 22Z"></path></g></g></g><g id="g-root-tx_journeyt_1cvihlq9h51qd-stroke" data-item-order="1000000000" data-item-id="tx_journeyt_1cvihlq9h51qd" data-item-class="Label Stroke Title ColorStrokeBlack" data-item-index="none" data-renderer-id="0" transform="translate(308, 2)"></g><g id="g-root-nine_909f329hant9-stroke" data-item-order="1000000000" data-item-id="nine_909f329hant9" data-item-class="Icon Stroke Indexed Indexed_1 InsideFill InsideGrayFill" data-item-index="1" data-renderer-id="0" transform="translate(56, 326)"><g id="nine_909f329hant9-stroke" fill="none" stroke-linecap="round" stroke-linejoin="round" stroke-miterlimit="4" stroke="#4682e3" stroke-width="2"><g><path d="M 11.285714 28C 11.285715 37.231045 18.768955 44.714287 28 44.714287C 37.231045 44.714287 44.714287 37.231045 44.714287 28C 44.714287 18.768955 37.231045 11.285715 28.000002 11.285714L 28 28ZM 18.897142 18.897142L 16.171429 16.171429"></path></g></g></g><g id="g-root-1_meuavy9h6g3s-stroke" data-item-order="1000000000" data-item-id="1_meuavy9h6g3s" data-item-class="Icon Stroke Indexed InsideFill InsideGrayFill" data-item-index="2" data-renderer-id="0" transform="translate(236, 326)"><g id="1_meuavy9h6g3s-stroke" fill="none" stroke-linecap="round" stroke-linejoin="round" stroke-miterlimit="4" stroke="#3bc482" stroke-width="2"><g><path d="M 27.25 36.254501C 27.250002 41.225063 31.279438 45.254501 36.25 45.254501C 41.220566 45.254501 45.25 41.225063 45.25 36.254501C 45.25 31.283937 41.220566 27.254501 36.25 27.254501C 31.279438 27.254501 27.250002 31.283937 27.250002 36.254501ZM 10 10M 40.261002 33.6385L 35.9035 39.449501C 35.707451 39.710236 35.408005 39.873184 35.082603 39.896198C 34.757198 39.919216 34.437794 39.800041 34.206997 39.5695L 31.956999 37.3195M 28.900002 23.650002C 28.061413 22.272871 27.644262 20.680399 27.700001 19.069L 27.700001 17.200001C 27.700001 13.637764 24.812239 10.75 21.25 10.75C 17.687763 10.75 14.8 13.637764 14.8 17.200001L 14.8 19.072001C 14.855148 20.682386 14.43802 22.273733 13.599999 23.65M 14.8 18.2635C 17.276884 18.260887 19.630516 17.182596 21.25 15.3085C 22.869484 17.182596 25.223116 18.260887 27.700001 18.2635M 26.9305 18.229C 26.790934 21.264816 24.289024 23.654348 21.25 23.654348C 18.210976 23.654348 15.709066 21.264816 15.5695 18.229M 22.75 36.25L 10.75 36.25C 10.749851 32.409691 12.846252 28.875652 16.216545 27.034697C 19.586838 25.193741 23.693302 25.339586 26.924501 27.415001"></path></g></g></g><g id="g-root-sear_hu102m9h3nk6-stroke" data-item-order="1000000000" data-item-id="sear_hu102m9h3nk6" data-item-class="Icon Stroke Indexed InsideFill InsideGrayFill" data-item-index="3" data-renderer-id="0" transform="translate(416, 326)"><g id="sear_hu102m9h3nk6-stroke" fill="none" stroke-linecap="round" stroke-linejoin="round" stroke-miterlimit="4" stroke="#93c131" stroke-width="2"><g><path d="M 11.285714 25.222857C 11.284246 32.921165 17.524548 39.162659 25.222857 39.162659C 32.921165 39.162659 39.161465 32.921165 39.16 25.222857C 39.161465 17.524548 32.921165 11.283056 25.222857 11.283056C 17.524548 11.283056 11.284246 17.524548 11.285714 25.222857M 44.714287 44.714287L 35.071426 35.071426"></path></g></g></g><g id="g-root-heal_18lxqce9hew3k-stroke" data-item-order="1000000000" data-item-id="heal_18lxqce9hew3k" data-item-class="Icon Stroke Indexed InsideFill InsideGrayFill" data-item-index="4" data-renderer-id="0" transform="translate(596, 326)"><g id="heal_18lxqce9hew3k-stroke" fill="none" stroke-linecap="round" stroke-linejoin="round" stroke-miterlimit="4" stroke="#e3cd09" stroke-width="2"><g><path d="M 10.75 16.75C 10.75 20.063709 12.764719 22.75 15.25 22.75C 17.735281 22.75 19.75 20.063709 19.75 16.75C 19.75 13.436292 17.735281 10.75 15.25 10.75C 12.764719 10.75 10.75 13.436292 10.75 16.75ZM 15.25 22.75L 15.25 45.25M 33.25 10.8445L 33.25 16.8445C 33.25 20.158209 35.936291 22.8445 39.25 22.8445C 42.563709 22.8445 45.25 20.158209 45.25 16.8445L 45.25 10.8445M 39.25 10.75L 39.25 45.25M 34.75 29.5C 34.75 29.085787 34.414215 28.75 34 28.75L 30.25 28.75L 30.25 25C 30.25 24.585787 29.914213 24.25 29.5 24.25L 25 24.25C 24.585787 24.25 24.25 24.585787 24.25 25L 24.25 28.75L 20.5 28.75C 20.085787 28.75 19.75 29.085787 19.75 29.5L 19.75 34C 19.75 34.414215 20.085787 34.75 20.5 34.75L 24.25 34.75L 24.25 38.5C 24.25 38.914215 24.585787 39.25 25 39.25L 29.5 39.25C 29.914213 39.25 30.25 38.914215 30.25 38.5L 30.25 34.75L 34 34.75C 34.414215 34.75 34.75 34.414215 34.75 34Z"></path></g></g></g><g id="g-root-coin_hv9v329h7uo0-stroke" data-item-order="1000000000" data-item-id="coin_hv9v329h7uo0" data-item-class="Icon Stroke Indexed InsideFill InsideGrayFill" data-item-index="5" data-renderer-id="0" transform="translate(776, 326)"><g id="coin_hv9v329h7uo0-stroke" fill="none" stroke-linecap="round" stroke-linejoin="round" stroke-miterlimit="4" stroke="#dd8433" stroke-width="2"><g><path d="M 10.756 25.682499C 10.756001 26.510927 14.113865 27.182499 18.256001 27.182499C 22.398136 27.182499 25.756001 26.510927 25.756001 25.682499C 25.756001 24.854073 22.398136 24.182499 18.256001 24.182499C 14.113865 24.182499 10.756001 24.854073 10.756001 25.682499ZM 25.75 25.682499L 25.75 30.182499C 25.75 31.012001 22.393 31.682499 18.25 31.682499C 14.107 31.682499 10.75 31.012001 10.75 30.182499L 10.75 25.682499M 25.75 30.182499L 25.75 34.682499C 25.75 35.512001 22.393 36.182499 18.25 36.182499C 14.107 36.182499 10.75 35.512001 10.75 34.682499L 10.75 30.182499M 25.75 34.682499L 25.75 39.182499C 25.75 40.012001 22.393 40.682499 18.25 40.682499C 14.107 40.682499 10.75 40.012001 10.75 39.182499L 10.75 34.682499M 25.75 39.182499L 25.75 43.682499C 25.75 44.512001 22.393 45.182499 18.25 45.182499C 14.107 45.182499 10.75 44.512001 10.75 43.682499L 10.75 39.182499M 16.571501 20.431C 18.586 16.087 23.650002 13 29.5735 13C 31.095469 13.000131 32.610008 13.212166 34.073502 13.63C 35.00811 12.301909 36.35799 11.322481 37.9105 10.846C 38.136623 10.782591 38.379395 10.828762 38.566456 10.970752C 38.753517 11.112741 38.863266 11.334154 38.862999 11.569L 38.862999 16.0075C 40.453476 17.400961 41.655575 19.182917 42.351997 21.179501L 43.7575 21.179501C 44.58593 21.179501 45.2575 21.851072 45.2575 22.679501L 45.2575 27.179501C 45.2575 28.007927 44.58593 28.679501 43.7575 28.679501L 42.3535 28.679501C 41.563633 30.645819 40.202576 32.330284 38.445999 33.515499L 39.657997 36.802002C 40.10199 38.00539 39.486191 39.340828 38.282692 39.784523C 37.079197 40.228226 35.743908 39.612103 35.300499 38.408501L 34.239998 35.535999C 32.726555 35.990231 31.15514 36.222153 29.575001 36.224499M 35.881001 20.432499C 35.673893 20.432499 35.506001 20.600393 35.506001 20.807499C 35.506001 21.014606 35.673893 21.182499 35.881001 21.182499C 36.088104 21.182499 36.256001 21.014606 36.256001 20.807499C 36.256001 20.600393 36.088104 20.432499 35.881001 20.432499M 22 18.932499C 23.554644 17.2176 25.695293 16.147276 28 15.9325"></path></g></g></g><g id="g-root-tx_reduceds_1cvihlq9h51qc-stroke" data-item-order="1000000000" data-item-id="tx_reduceds_1cvihlq9h51qc" data-item-class="Label Stroke Indexed Indexed_1 ColorStrokeBlack" data-item-index="1" data-renderer-id="0" transform="translate(2, 398)"></g><g id="g-root-tx_confiden_1hbbzq69h50y3-stroke" data-item-order="1000000000" data-item-id="tx_confiden_1hbbzq69h50y3" data-item-class="Label Stroke Indexed ColorStrokeBlack" data-item-index="2" data-renderer-id="0" transform="translate(206, 398)"></g><g id="g-root-tx_understa_1hbbzq69h50y2-stroke" data-item-order="1000000000" data-item-id="tx_understa_1hbbzq69h50y2" data-item-class="Label Stroke Indexed ColorStrokeBlack" data-item-index="3" data-renderer-id="0" transform="translate(362, 398)"></g><g id="g-root-tx_healthie_1hbbzq69h50y1-stroke" data-item-order="1000000000" data-item-id="tx_healthie_1hbbzq69h50y1" data-item-class="Label Stroke Indexed ColorStrokeBlack" data-item-index="4" data-renderer-id="0" transform="translate(530, 398)"></g><g id="g-root-tx_moneysav_1q6yzz29h505c-stroke" data-item-order="1000000000" data-item-id="tx_moneysav_1q6yzz29h505c" data-item-class="Label Stroke Indexed ColorStrokeBlack" data-item-index="5" data-renderer-id="0" transform="translate(728, 398)"></g></g></g></svg>