<?xml version="1.0" encoding="utf-8" standalone="yes"?>
<!DOCTYPE svg PUBLIC "-//W3C//DTD SVG 1.1//EN" "http://www.w3.org/Graphics/SVG/1.1/DTD/svg11.dtd">
<svg width="554" height="410" viewBox="0 0 554 410" style="fill:none;stroke:none;fill-rule:evenodd;clip-rule:evenodd;stroke-linecap:round;stroke-linejoin:round;stroke-miterlimit:1.5;" version="1.1" xmlns="http://www.w3.org/2000/svg" xmlns:xlink="http://www.w3.org/1999/xlink"><style id="fontImports">@import url("https://fonts.googleapis.com/css2?family=Roboto:wght@400;700&amp;display=block");</style><g id="items" style="isolation: isolate"><g id="blend" style="mix-blend-mode:normal"><g id="g-root-0.cu_bar_back_sy_18lbcao1wb2610-fill" data-item-order="-61467" transform="translate(145.49749755859375, 174.85498046875)"><g id="0.cu_bar_back_sy_18lbcao1wb2610-fill" stroke="none" fill="url(#gradient-999999-232777082)"><g><path d="M 97.108487 9.999997C 110.109902 41.38856 102.923193 77.518258 78.89949 101.542L 57.686487 80.328997C 73.130266 64.884881 77.749995 41.658362 69.391488 21.479997L 97.108487 9.999997Z"></path></g></g></g><g id="g-root-0.cu_bar_back_1_sy_zpoc1s1wb26tp-fill" data-item-order="-61465" transform="translate(369.4979248046875, 132.155029296875)"><g id="0.cu_bar_back_1_sy_zpoc1s1wb26tp-fill" stroke="none" fill="url(#gradient-999999-232777082)"><g><path d="M 57.637045 10.000001C 81.595377 22.207188 98.261734 45.146279 102.468126 71.704202C 106.674519 98.262125 97.912502 125.228704 78.899048 144.242004L 57.686045 123.029001C 69.908757 110.806085 75.541275 93.470482 72.837058 76.39765C 70.132841 59.324818 59.418755 44.578403 44.017046 36.731001L 57.637045 10.000001Z"></path></g></g></g><g id="g-root-1.gauge-filled-1_sy_zpoc1s1wb26tq-fill" data-item-order="-61461" transform="translate(70.99749755859375, 123)"><g id="1.gauge-filled-1_sy_zpoc1s1wb26tq-fill" stroke="none" fill="url(#gradient-ffeb38-392015901)"><g><path d="M 34.605491 153.396973C 10.581621 129.373111 3.394952 93.243145 16.396625 61.85447C 29.398298 30.465794 60.027848 9.99989 94.002728 10C 127.977608 10.000111 158.607025 30.466214 171.608494 61.854974L 143.891491 73.334973C 135.533263 53.156557 115.842844 39.999922 94.001861 39.999996C 72.160879 40.000071 52.47055 53.156841 44.112458 73.335314C 35.754367 93.513788 40.374499 116.740153 55.818491 132.183974L 34.605491 153.396973Z"></path></g></g></g><g id="g-root-2.gauge-filled-2_sy_v9utxc1wb27lz-fill" data-item-order="-61457" transform="translate(294.99810791015625, 122.9918212890625)"><defs><linearGradient id="gradient-999999-232777082" x2="0" y2="1"><stop offset="0" stop-color="#cccccc"></stop><stop offset="1" stop-color="#666666"></stop></linearGradient><linearGradient id="gradient-ffeb38-392015901" x2="0" y2="1"><stop offset="0" stop-color="#fff066"></stop><stop offset="1" stop-color="#FFE60A"></stop></linearGradient><linearGradient id="gradient-fba659-170788768" x2="0" y2="1"><stop offset="0" stop-color="#fcb778"></stop><stop offset="1" stop-color="#F99539"></stop></linearGradient></defs><g id="2.gauge-filled-2_sy_v9utxc1wb27lz-fill" stroke="none" fill="url(#gradient-fba659-170788768)"><g><path d="M 34.604877 153.405179C 5.387295 124.188399 1.756671 78.061718 26.043482 44.633611C 50.330292 11.205505 95.321243 0.404277 132.136879 19.163179L 118.516877 45.894179C 94.849856 33.835697 65.927858 40.779514 50.315188 62.268568C 34.702518 83.757622 37.03602 113.409828 55.817877 132.19218L 34.604877 153.405179Z"></path></g></g></g><g id="g-root-tx_consumer_dj7aio1wb26tg-fill" data-item-order="0" transform="translate(15, 39)"><g id="tx_consumer_dj7aio1wb26tg-fill" stroke="none" fill="#484848"><g><text style="font: bold 30px Roboto, sans-serif; white-space: pre;" font-weight="bold" font-size="30px" font-family="Roboto, sans-serif"><tspan x="12.26" y="45.5" dominant-baseline="ideographic">Consumer Behavior in Product Label </tspan><tspan x="203.14" y="81.5" dominant-baseline="ideographic">Reading</tspan></text></g></g></g><g id="g-root-tx_75_v9utxc1wb27m0-fill" data-item-order="0" transform="translate(131, 249)"><g id="tx_75_v9utxc1wb27m0-fill" stroke="none" fill="#484848"><g><text style="font: 20px Roboto, sans-serif; white-space: pre;" font-size="20px" font-family="Roboto, sans-serif"><tspan x="15.45" y="33.5" dominant-baseline="ideographic">75%</tspan></text></g></g></g><g id="g-root-tx_60_hz0sn41wb2616-fill" data-item-order="0" transform="translate(355, 249)"><g id="tx_60_hz0sn41wb2616-fill" stroke="none" fill="#484848"><g><text style="font: 20px Roboto, sans-serif; white-space: pre;" font-size="20px" font-family="Roboto, sans-serif"><tspan x="15.45" y="33.5" dominant-baseline="ideographic">60%</tspan></text></g></g></g><g id="g-root-tx_timespen_qunsw01wb258h-fill" data-item-order="0" transform="translate(59, 303)"><g id="tx_timespen_qunsw01wb258h-fill" stroke="none" fill="#484848"><g><text style="font: 20px Roboto, sans-serif; white-space: pre;" font-size="20px" font-family="Roboto, sans-serif"><tspan x="14.4" y="33.5" dominant-baseline="ideographic">Time Spent Reading </tspan><tspan x="74.21" y="57.5" dominant-baseline="ideographic">Labels</tspan></text></g></g></g><g id="g-root-tx_uncertai_hz0sn41wb2617-fill" data-item-order="0" transform="translate(271, 303)"><g id="tx_uncertai_hz0sn41wb2617-fill" stroke="none" fill="#484848"><g><text style="font: 20px Roboto, sans-serif; white-space: pre;" font-size="20px" font-family="Roboto, sans-serif"><tspan x="16.86" y="33.5" dominant-baseline="ideographic">Uncertainty in Product </tspan><tspan x="74.42" y="57.5" dominant-baseline="ideographic">Selection</tspan></text></g></g></g><g id="g-root-0.cu_bar_back_sy_18lbcao1wb2610-stroke" data-item-order="-61467" transform="translate(145.49749755859375, 174.85498046875)"><g id="0.cu_bar_back_sy_18lbcao1wb2610-stroke" fill="none" stroke-linecap="round" stroke-linejoin="round" stroke-miterlimit="4" stroke="#484848" stroke-width="2"><g><path d="M 97.108487 9.999997C 110.109902 41.38856 102.923193 77.518258 78.89949 101.542L 57.686487 80.328997C 73.130266 64.884881 77.749995 41.658362 69.391488 21.479997L 97.108487 9.999997Z"></path></g></g><g id="0.cu_bar_back_sy_18lbcao1wb2610-stroke" fill="none" stroke-linecap="round" stroke-linejoin="round" stroke-miterlimit="4" stroke="#484848" stroke-width="2"><g><path d="M 23.137977 50.921852C 18.290664 52.92968 12.733459 50.6278 10.725632 45.780495C 8.717804 40.933174 11.019676 35.375969 15.866997 33.368142C 16.159866 33.246834 16.455337 33.141213 16.752449 33.051049L 54.797317 25.401314C 56.947349 24.969025 58.125244 27.812722 56.29927 29.027352L 23.988304 50.519951C 23.714462 50.666283 23.430847 50.800545 23.137977 50.921852ZM 17.962189 38.417504C 20.020042 37.565117 22.379394 38.542321 23.231819 40.600258C 24.084244 42.658196 23.106918 45.017495 21.049064 45.869881C 18.991127 46.722313 16.631866 45.745079 15.779434 43.687142C 14.927009 41.629189 15.904251 39.269936 17.962189 38.417504Z"></path></g></g></g><g id="g-root-0.cu_bar_back_1_sy_zpoc1s1wb26tp-stroke" data-item-order="-61465" transform="translate(369.4979248046875, 132.155029296875)"><g id="0.cu_bar_back_1_sy_zpoc1s1wb26tp-stroke" fill="none" stroke-linecap="round" stroke-linejoin="round" stroke-miterlimit="4" stroke="#484848" stroke-width="2"><g><path d="M 57.637045 10.000001C 81.595377 22.207188 98.261734 45.146279 102.468126 71.704202C 106.674519 98.262125 97.912502 125.228704 78.899048 144.242004L 57.686045 123.029001C 69.908757 110.806085 75.541275 93.470482 72.837058 76.39765C 70.132841 59.324818 59.418755 44.578403 44.017046 36.731001L 57.637045 10.000001Z"></path></g></g><g id="0.cu_bar_back_1_sy_zpoc1s1wb26tp-stroke" fill="none" stroke-linecap="round" stroke-linejoin="round" stroke-miterlimit="4" stroke="#484848" stroke-width="2"><g><path d="M 27.966614 89.157913C 25.584656 93.832748 19.863983 95.691513 15.189148 93.30957C 10.514283 90.927612 8.655518 85.206939 11.037476 80.532089C 11.181397 80.249649 11.337494 79.977432 11.504853 79.715912L 35.466278 49.190849C 36.820435 47.465797 39.562958 48.863182 38.963318 50.972664L 28.352173 88.300064C 28.238983 88.589187 28.110535 88.875458 27.966614 89.157913ZM 15.909973 83.01094C 16.921204 81.026306 19.349915 80.237106 21.334626 81.248367C 23.319336 82.259628 24.108429 84.688385 23.097199 86.673004C 22.085938 88.65773 19.657257 89.446838 17.672547 88.435577C 15.687836 87.424316 14.898712 84.995651 15.909973 83.01094Z"></path></g></g></g><g id="g-root-1.gauge-filled-1_sy_zpoc1s1wb26tq-stroke" data-item-order="-61461" transform="translate(70.99749755859375, 123)"><g id="1.gauge-filled-1_sy_zpoc1s1wb26tq-stroke" fill="none" stroke-linecap="round" stroke-linejoin="round" stroke-miterlimit="4" stroke="#484848" stroke-width="2"><g><path d="M 34.605491 153.396973C 10.581621 129.373111 3.394952 93.243145 16.396625 61.85447C 29.398298 30.465794 60.027848 9.99989 94.002728 10C 127.977608 10.000111 158.607025 30.466214 171.608494 61.854974L 143.891491 73.334973C 135.533263 53.156557 115.842844 39.999922 94.001861 39.999996C 72.160879 40.000071 52.47055 53.156841 44.112458 73.335314C 35.754367 93.513788 40.374499 116.740153 55.818491 132.183974L 34.605491 153.396973Z"></path></g></g></g><g id="g-root-2.gauge-filled-2_sy_v9utxc1wb27lz-stroke" data-item-order="-61457" transform="translate(294.99810791015625, 122.9918212890625)"><g id="2.gauge-filled-2_sy_v9utxc1wb27lz-stroke" fill="none" stroke-linecap="round" stroke-linejoin="round" stroke-miterlimit="4" stroke="#484848" stroke-width="2"><g><path d="M 34.604877 153.405179C 5.387295 124.188399 1.756671 78.061718 26.043482 44.633611C 50.330292 11.205505 95.321243 0.404277 132.136879 19.163179L 118.516877 45.894179C 94.849856 33.835697 65.927858 40.779514 50.315188 62.268568C 34.702518 83.757622 37.03602 113.409828 55.817877 132.19218L 34.604877 153.405179Z"></path></g></g></g><g id="g-root-tx_consumer_dj7aio1wb26tg-stroke" data-item-order="0" transform="translate(15, 39)"></g><g id="g-root-tx_75_v9utxc1wb27m0-stroke" data-item-order="0" transform="translate(131, 249)"></g><g id="g-root-tx_60_hz0sn41wb2616-stroke" data-item-order="0" transform="translate(355, 249)"></g><g id="g-root-tx_timespen_qunsw01wb258h-stroke" data-item-order="0" transform="translate(59, 303)"></g><g id="g-root-tx_uncertai_hz0sn41wb2617-stroke" data-item-order="0" transform="translate(271, 303)"></g></g></g></svg>