<?xml version="1.0" encoding="utf-8" standalone="yes"?>
<!DOCTYPE svg PUBLIC "-//W3C//DTD SVG 1.1//EN" "http://www.w3.org/Graphics/SVG/1.1/DTD/svg11.dtd">
<svg width="768" height="409" viewBox="0 0 768 409" style="fill:none;stroke:none;fill-rule:evenodd;clip-rule:evenodd;stroke-linecap:round;stroke-linejoin:round;stroke-miterlimit:1.5;" version="1.1" xmlns="http://www.w3.org/2000/svg" xmlns:xlink="http://www.w3.org/1999/xlink"><style id="fontImports">@import url("https://fonts.googleapis.com/css2?family=Shantell+Sans:wght@300..800&amp;display=block");</style><rect id="" x="0" y="0" width="768" height="409" style="fill: #ffffff;"></rect><g id="items" style="isolation: isolate"><g id="blend" style="mix-blend-mode:normal"><g id="g-root--1.cu_sy_1d0hufs8xa22o-fill" data-item-order="999909286" data-item-id="-1.cu_sy_1d0hufs8xa22o" data-item-class="Part Fill Stroke ColorFillGray ColorStrokeBlack" data-item-index="-1" data-renderer-id="0" transform="translate(205, 134)"></g><g id="g-root-0.line-start_sy_144uu6w8xa2vd-fill" data-item-order="999909291" data-item-id="0.line-start_sy_144uu6w8xa2vd" data-item-class="Curve Stroke Part Indexed_0 ColorStrokeBlack" data-item-index="0" data-renderer-id="0" transform="translate(164, 236)"></g><g id="g-root-4.line_sy_144uu6w8xa2ve-fill" data-item-order="999909297" data-item-id="4.line_sy_144uu6w8xa2ve" data-item-class="Curve Stroke Part Indexed ColorStrokeBlack" data-item-index="4" data-renderer-id="0" transform="translate(274.5, 236)"></g><g id="g-root-3.line_sy_144uu6w8xa2vf-fill" data-item-order="999909303" data-item-id="3.line_sy_144uu6w8xa2vf" data-item-class="Curve Stroke Part Indexed ColorStrokeBlack" data-item-index="3" data-renderer-id="0" transform="translate(275, 236)"></g><g id="g-root-2.line_sy_144uu6w8xa2vg-fill" data-item-order="999909309" data-item-id="2.line_sy_144uu6w8xa2vg" data-item-class="Curve Stroke Part Indexed ColorStrokeBlack" data-item-index="2" data-renderer-id="0" transform="translate(274.5, 194)"></g><g id="g-root-1.line_sy_zpnt5k8xa0hx-fill" data-item-order="999909315" data-item-id="1.line_sy_zpnt5k8xa0hx" data-item-class="Curve Stroke Part Indexed Indexed_1 ColorStrokeBlack" data-item-index="1" data-renderer-id="0" transform="translate(274.5, 110)"></g><g id="g-root-tx_explorin_v1aw8xea6b-fill" data-item-order="1000000000" data-item-id="tx_explorin_v1aw8xea6b" data-item-class="Label Stroke Title ColorStrokeBlack" data-item-index="none" data-renderer-id="0" transform="translate(80, 2)"><g id="tx_explorin_v1aw8xea6b-fill" stroke="none" fill="#484848"><g><text style="font: bold 25px &quot;Shantell Sans&quot;, cursive; white-space: pre;" font-weight="bold" font-size="25px" font-family="'Shantell Sans', cursive"><tspan x="16.23" y="44.5" dominant-baseline="ideographic">Exploring the Target Audience Spectrum</tspan></text></g></g></g><g id="g-root-goal_hs51so8xe7t1-fill" data-item-order="1000000000" data-item-id="goal_hs51so8xe7t1" data-item-class="Icon Stroke Indexed Indexed_1 ColorStrokeBlack" data-item-index="1" data-renderer-id="0" transform="translate(542, 86)"></g><g id="g-root-tx_professi_4gojfc8xe9e2-fill" data-item-order="1000000000" data-item-id="tx_professi_4gojfc8xe9e2" data-item-class="Label Stroke Indexed Indexed_1 ColorStrokeBlack" data-item-index="1" data-renderer-id="0" transform="translate(602, 86)"><g id="tx_professi_4gojfc8xe9e2-fill" stroke="none" fill="#484848"><g><text style="font: 20px &quot;Shantell Sans&quot;, cursive; white-space: pre;" font-size="20px" font-family="'Shantell Sans', cursive"><tspan x="12" y="35.5" dominant-baseline="ideographic">Professionals </tspan><tspan x="12" y="59.5" dominant-baseline="ideographic">Aged 25-40</tspan></text></g></g></g><g id="g-root-huma_v9ub148xctn3-fill" data-item-order="1000000000" data-item-id="huma_v9ub148xctn3" data-item-class="Icon Stroke Indexed ColorStrokeBlack" data-item-index="2" data-renderer-id="0" transform="translate(542, 170)"></g><g id="g-root-tx_students_4gojfc8xe9e1-fill" data-item-order="1000000000" data-item-id="tx_students_4gojfc8xe9e1" data-item-class="Label Stroke Indexed ColorStrokeBlack" data-item-index="2" data-renderer-id="0" transform="translate(602, 182)"><g id="tx_students_4gojfc8xe9e1-fill" stroke="none" fill="#484848"><g><text style="font: 20px &quot;Shantell Sans&quot;, cursive; white-space: pre;" font-size="20px" font-family="'Shantell Sans', cursive"><tspan x="12" y="35.5" dominant-baseline="ideographic">Students</tspan></text></g></g></g><g id="g-root-tx_targetau_8wi1js8xe8lq-fill" data-item-order="1000000000" data-item-id="tx_targetau_8wi1js8xe8lq" data-item-class="Label Stroke ColorStrokeBlack" data-item-index="none" data-renderer-id="0" transform="translate(2, 212)"><g id="tx_targetau_8wi1js8xe8lq-fill" stroke="none" fill="#484848"><g><text style="font: 20px &quot;Shantell Sans&quot;, cursive; white-space: pre;" font-size="20px" font-family="'Shantell Sans', cursive"><tspan x="41.38" y="35.5" dominant-baseline="ideographic">Target </tspan><tspan x="15.8" y="59.5" dominant-baseline="ideographic">Audience</tspan></text></g></g></g><g id="g-root-fema_hs51so8xbfgq-fill" data-item-order="1000000000" data-item-id="fema_hs51so8xbfgq" data-item-class="Icon Stroke ColorStrokeBlack" data-item-index="none" data-renderer-id="0" transform="translate(110, 212)"></g><g id="g-root-spa_v1aw8xcv7s-fill" data-item-order="1000000000" data-item-id="spa_v1aw8xcv7s" data-item-class="Icon Stroke Indexed ColorStrokeBlack" data-item-index="3" data-renderer-id="0" transform="translate(542, 254)"></g><g id="g-root-tx_retirees_4gojfc8xe9e0-fill" data-item-order="1000000000" data-item-id="tx_retirees_4gojfc8xe9e0" data-item-class="Label Stroke Indexed ColorStrokeBlack" data-item-index="3" data-renderer-id="0" transform="translate(602, 266)"><g id="tx_retirees_4gojfc8xe9e0-fill" stroke="none" fill="#484848"><g><text style="font: 20px &quot;Shantell Sans&quot;, cursive; white-space: pre;" font-size="20px" font-family="'Shantell Sans', cursive"><tspan x="12" y="35.5" dominant-baseline="ideographic">Retirees</tspan></text></g></g></g><g id="g-root-tech_8zmezc8xbhfo-fill" data-item-order="1000000000" data-item-id="tech_8zmezc8xbhfo" data-item-class="Icon Stroke Indexed ColorStrokeBlack" data-item-index="4" data-renderer-id="0" transform="translate(542, 338)"></g><g id="g-root-tx_techenth_8wi1js8xe8lr-fill" data-item-order="1000000000" data-item-id="tx_techenth_8wi1js8xe8lr" data-item-class="Label Stroke Indexed ColorStrokeBlack" data-item-index="4" data-renderer-id="0" transform="translate(602, 338)"><g id="tx_techenth_8wi1js8xe8lr-fill" stroke="none" fill="#484848"><g><text style="font: 20px &quot;Shantell Sans&quot;, cursive; white-space: pre;" font-size="20px" font-family="'Shantell Sans', cursive"><tspan x="12" y="35.5" dominant-baseline="ideographic">Tech </tspan><tspan x="12" y="59.5" dominant-baseline="ideographic">Enthusiasts</tspan></text></g></g></g><g id="g-root--1.cu_sy_1d0hufs8xa22o-stroke" data-item-order="999909286" data-item-id="-1.cu_sy_1d0hufs8xa22o" data-item-class="Part Fill Stroke ColorFillGray ColorStrokeBlack" data-item-index="-1" data-renderer-id="0" transform="translate(205, 134)"><g id="-1.cu_sy_1d0hufs8xa22o-stroke" fill="none" stroke-linecap="round" stroke-linejoin="round" stroke-miterlimit="4" stroke="#484848" stroke-width="4"><g><path d="M 125 33.999969C 116.7 26.299969 109.5 17.399969 101 9.999969C 93.6 23.199969 86.9 36.899969 78.1 49.299969C 69.6 61.199969 63.6 74.799969 55.9 87.299969C 47.7 100.799969 41.6 115.499969 32.1 128.099969C 23.3 139.799969 17.5 153.499969 10 165.999969C 17.6 174.399969 25.9 182.099969 34 189.999969C 40 176.399969 49.8 164.799969 56.5 151.499969C 62.7 139.199969 70.5 127.799969 77.3 115.799969C 85.6 101.199969 94.8 87.099969 102.7 72.299969C 109.6 59.299969 118 46.999969 125 33.999969M 125 33.999969C 110.3 61.499969 93.1 87.499969 77.9 114.699969C 63.8 140.099969 48.8 164.999969 34 189.999969C 55.2 188.299969 76.7 191.499969 97.9 189.999969C 117.4 188.599969 136.9 188.999969 156.4 189.999969C 176.3 190.999969 196.1 190.199969 216 189.999969C 209 175.999969 198.7 163.699969 192.3 149.399969C 186.2 135.799969 176.7 123.899969 169.7 110.699969C 163.1 98.199969 155.1 86.599969 148.4 74.099969C 141.1 60.499969 134 46.599969 125 33.999969"></path><path d="M 125 34L 101 10L 10 166L 34 190L 125 34ZM 125 34L 34 190L 216 190L 125 34Z"></path></g></g></g><g id="g-root-0.line-start_sy_144uu6w8xa2vd-stroke" data-item-order="999909291" data-item-id="0.line-start_sy_144uu6w8xa2vd" data-item-class="Curve Stroke Part Indexed_0 ColorStrokeBlack" data-item-index="0" data-renderer-id="0" transform="translate(164, 236)"><g id="0.line-start_sy_144uu6w8xa2vd-stroke" fill="none" stroke-linecap="round" stroke-linejoin="round" stroke-miterlimit="4" stroke="#484848" stroke-width="2"><g><path d="M 10 10C 29.5 9 49.1 8.8 68.7 10C 85.9 11.1 103.3 11.2 120.5 10"></path><path d="M 10 10.000061L 120.5 10.000061"></path></g></g></g><g id="g-root-4.line_sy_144uu6w8xa2ve-stroke" data-item-order="999909297" data-item-id="4.line_sy_144uu6w8xa2ve" data-item-class="Curve Stroke Part Indexed ColorStrokeBlack" data-item-index="4" data-renderer-id="0" transform="translate(274.5, 236)"><g id="4.line_sy_144uu6w8xa2ve-stroke" fill="none" stroke-linecap="round" stroke-linejoin="round" stroke-miterlimit="4" stroke="#484848" stroke-width="2"><g><path d="M 257.9 134.8C 245.2 126 232.8 117 220.6 107.6C 207.5 97.6 193.6 88.7 180.8 78.5C 169.8 69.8 158 62.1 146.8 53.7C 135.1 45 123 37 111.5 28C 77.7 21.6 43.8 16.1 10 10"></path><path d="M 257.88 134.82L 111.5 28L 10 10"></path><path d="M 249.2 136.5C 252.2 135.7 255.3 135.4 258.3 135.1C 257.9 132.1 256.7 129.1 256.9 126" stroke-dasharray="none"></path><path d="M 249.2 136.5L 258.3 135.1L 256.9 126" stroke-dasharray="none"></path></g></g></g><g id="g-root-3.line_sy_144uu6w8xa2vf-stroke" data-item-order="999909303" data-item-id="3.line_sy_144uu6w8xa2vf" data-item-class="Curve Stroke Part Indexed ColorStrokeBlack" data-item-index="3" data-renderer-id="0" transform="translate(275, 236)"><g id="3.line_sy_144uu6w8xa2vf-stroke" fill="none" stroke-linecap="round" stroke-linejoin="round" stroke-miterlimit="4" stroke="#484848" stroke-width="2"><g><path d="M 257.1 51.6C 231.5 44.5 205.3 39.8 179.6 33.6C 154.4 27.5 128.8 23.3 104 16C 87.5 16.9 71 13.6 54.5 12.8C 39.6 12.2 24.8 10.6 10 10"></path><path d="M 257.05 51.55L 104 16L 10 10"></path><path d="M 249.7 56.5C 252.5 55.4 254.8 53.1 257.5 51.7C 255.8 49.2 253.3 46.9 252.7 43.9" stroke-dasharray="none"></path><path d="M 249.7 56.5L 257.5 51.7L 252.7 43.9" stroke-dasharray="none"></path></g></g></g><g id="g-root-2.line_sy_144uu6w8xa2vg-stroke" data-item-order="999909309" data-item-id="2.line_sy_144uu6w8xa2vg" data-item-class="Curve Stroke Part Indexed ColorStrokeBlack" data-item-index="2" data-renderer-id="0" transform="translate(274.5, 194)"><g id="2.line_sy_144uu6w8xa2vg-stroke" fill="none" stroke-linecap="round" stroke-linejoin="round" stroke-miterlimit="4" stroke="#484848" stroke-width="2"><g><path d="M 257.6 10.4C 232 17.3 205.8 21.3 180.2 27.6C 152.8 34.4 125.4 41.5 97.5 46C 68.3 48.1 39 48.4 10 52"></path><path d="M 257.55 10.43L 97.5 46L 10 52"></path><path d="M 253.1 18.1C 253.9 15.1 257 13.2 258 10.3C 255.3 8.9 252.6 7.4 250.3 5.4" stroke-dasharray="none"></path><path d="M 253.1 18.1L 258 10.3L 250.3 5.4" stroke-dasharray="none"></path></g></g></g><g id="g-root-1.line_sy_zpnt5k8xa0hx-stroke" data-item-order="999909315" data-item-id="1.line_sy_zpnt5k8xa0hx" data-item-class="Curve Stroke Part Indexed Indexed_1 ColorStrokeBlack" data-item-index="1" data-renderer-id="0" transform="translate(274.5, 110)"><g id="1.line_sy_zpnt5k8xa0hx-stroke" fill="none" stroke-linecap="round" stroke-linejoin="round" stroke-miterlimit="4" stroke="#484848" stroke-width="2"><g><path d="M 10 136C 37.2 131.9 63.5 123.1 90.5 118C 108.6 105.1 129.1 95.7 146.6 82.1C 165.7 67.4 186.8 55.5 207.5 43.2C 224.6 33.1 240.4 20.8 257.8 11.1"></path><path d="M 10 136L 90.5 118L 257.81 11.08"></path><path d="M 256.3 19.8C 257.5 17 256.7 13.5 258.2 10.8C 255.2 10.5 252.3 8.4 249.3 8.8" stroke-dasharray="none"></path><path d="M 256.3 19.8L 258.2 10.8L 249.3 8.8" stroke-dasharray="none"></path></g></g></g><g id="g-root-tx_explorin_v1aw8xea6b-stroke" data-item-order="1000000000" data-item-id="tx_explorin_v1aw8xea6b" data-item-class="Label Stroke Title ColorStrokeBlack" data-item-index="none" data-renderer-id="0" transform="translate(80, 2)"></g><g id="g-root-goal_hs51so8xe7t1-stroke" data-item-order="1000000000" data-item-id="goal_hs51so8xe7t1" data-item-class="Icon Stroke Indexed Indexed_1 ColorStrokeBlack" data-item-index="1" data-renderer-id="0" transform="translate(542, 86)"><g id="goal_hs51so8xe7t1-stroke" fill="none" stroke-linecap="round" stroke-linejoin="round" stroke-miterlimit="4" stroke="#484848" stroke-width="2"><g><path d="M 39 53.200001C 39.200001 54.200001 39.200001 55 39 56M 49 57C 47.799999 51.599998 44.400002 46.400002 39 47C 33.599998 47.599998 29.200001 51.400002 29 57M 32 37C 33 40.799999 35.200001 43.599998 39 44C 42.799999 44.400002 47.400002 40.599998 46 37C 44.599998 33.400002 42.599998 28.799999 39 30C 35.400002 31.200001 33 33.200001 32 37M 25.200001 53.799999C 23 52.799999 20.6 52 18.4 52.799999C 16.200001 53.599998 14.4 55 13.2 57M 15.4 41C 18.6 43.400002 22.799999 45.200001 26.4 43.200001M 14.6 44C 14 47.200001 17.200001 50 20.6 50C 23.799999 49.799999 26.4 47.200001 26.4 44C 26.4 40.799999 23.6 37 20.6 38C 17.4 39.200001 14.2 40.799999 14.6 44M 55 57C 54.599998 41.599998 56.400002 26.200001 55 11M 55 11C 51.200001 12 46.799999 12.2 43 11C 42 10.6 40.799999 12 41 13C 41.400002 15 40.599998 17 41 19C 41.200001 20 42 21.200001 43 21C 47 20.200001 51.200001 22.4 55 21M 41 15C 36.799999 14.2 32.400002 15.4 28 15C 29.200001 17 31.4 18.4 33 20C 32 22.200001 30 23.799999 28 25C 32.799999 23.799999 38 25.6 43 25C 44 24.799999 45.200001 24 45 23C 44.799999 22.4 45 21.6 45 21M 33.400002 32.799999C 36 34 38.200001 36 41.200001 36C 42.599998 36 44.200001 35.599998 45.799999 35.200001"></path><path d="M 39 53.18L 39 56M 49 57C 49 51.477154 44.522846 47 39 47C 33.477154 47 29 51.477154 29 57M 32 37C 32 40.865997 35.13401 44 39 44C 42.865993 44 46 40.865997 46 37C 46 33.13401 42.865993 30.000002 39 30.000002C 35.13401 30.000002 32 33.13401 32 37M 25.1 53.84C 23.107313 52.595531 20.68919 52.229122 18.41728 52.827393C 16.145369 53.425663 14.221328 54.935509 13.1 57M 15.38 40.98C 18.250408 43.91003 22.619005 44.790092 26.4 43.200001M 14.559999 44C 14.56 47.280575 17.219429 49.940002 20.5 49.940002C 23.780571 49.940002 26.440001 47.280575 26.440001 44C 26.440001 40.719429 23.780571 38.060001 20.5 38.060001C 17.219429 38.060001 14.56 40.719429 14.56 44M 55 57L 55 11M 55 11L 43 11C 41.895432 11 41 11.895431 41 13L 41 19C 41 20.104568 41.895432 21 43 21L 55 21M 41 15L 28 15L 33 20L 28 25L 43 25C 44.104568 25 45 24.104568 45 23L 45 21M 33.400002 32.799999C 35.477036 34.790741 38.223797 35.932251 41.099998 36C 42.693016 36.00816 44.275742 35.74437 45.780003 35.220001"></path></g></g></g><g id="g-root-tx_professi_4gojfc8xe9e2-stroke" data-item-order="1000000000" data-item-id="tx_professi_4gojfc8xe9e2" data-item-class="Label Stroke Indexed Indexed_1 ColorStrokeBlack" data-item-index="1" data-renderer-id="0" transform="translate(602, 86)"></g><g id="g-root-huma_v9ub148xctn3-stroke" data-item-order="1000000000" data-item-id="huma_v9ub148xctn3" data-item-class="Icon Stroke Indexed ColorStrokeBlack" data-item-index="2" data-renderer-id="0" transform="translate(542, 170)"><g id="huma_v9ub148xctn3-stroke" fill="none" stroke-linecap="round" stroke-linejoin="round" stroke-miterlimit="4" stroke="#484848" stroke-width="2"><g><path d="M 16 37C 15.4 35.200001 15.6 33.400002 16 31.6C 16.200001 31 16.200001 30.4 16.799999 30C 17.4 29.799999 18 29.6 18.6 29.799999C 23.6 31.200001 28.799999 32.400002 34 34C 35.599998 41.599998 34.799999 49.400002 34 57C 29.4 53.599998 23.200001 52.400002 17.4 52.400002C 16.6 52.400002 15.8 51.400002 16 50.400002C 16.6 48 16.6 45.400002 16 43M 34 57C 38.799999 54 45 53.400002 50.599998 52.400002C 51.400002 52.200001 51.799999 51.400002 52 50.400002C 52.599998 48 52.400002 45.400002 52 43M 52 37C 52.400002 35.200001 52 33.400002 52 31.6C 52 31 51.599998 30.6 51.200001 30C 50.799999 29.6 50 29.4 49.400002 29.799999C 44.599998 31.799999 39.200001 32.599998 34 34M 27.6 17.6C 26.200001 20.799999 30.6 25 34 24C 37.400002 23 41.200001 21 40.599998 17.6C 39.799999 14 37.599998 10.6 34 11C 30.4 11.4 27.799999 14 27.6 17.6M 25.4 31.6C 26.799999 28.6 30.6 26.799999 34 27C 37.400002 27.6 41 28.6 42.599998 31.6M 46 36.599998C 43.599998 37 41.200001 38 38.799999 38.799999C 38.200001 39 38 39.400002 38 39.799999C 38 40.799999 38 41.799999 38 42.599998C 38 43 38.200001 43.400002 38.400002 43.400002C 38.799999 43.599998 39 43.799999 39.200001 43.599998C 41.400002 42.599998 43.799999 42.400002 46 41.599998M 16 43C 14.4 43.400002 13 41.599998 13 40C 13 38.400002 14.4 37.599998 16 37C 16.6 36.799999 17.4 36.799999 18 37C 18.6 37 19 37.400002 19 38C 19.200001 39.400002 19.4 40.799999 19 42C 18.799999 42.599998 18.6 42.799999 18 43C 17.4 43.200001 16.6 43 16 43M 52 43C 53.599998 42.599998 55.200001 41.599998 55 40C 54.599998 38.400002 53.599998 37 52 37C 51.400002 37 50.599998 36.799999 50 37C 49.400002 37.200001 49 37.400002 49 38C 48.799999 39.400002 49.400002 40.799999 49 42C 48.799999 42.599998 49.400002 43.200001 50 43C 50.599998 42.799999 51.400002 43 52 43"></path><path d="M 16 37L 16 31.634001C 16.000261 31.009022 16.292664 30.420097 16.790375 30.042103C 17.288088 29.664108 17.933884 29.540506 18.535999 29.708L 34 34L 34 57L 17.464001 52.400002C 16.601864 52.160183 16.003956 51.376858 16 50.481998L 16 43M 34 57L 50.535999 52.400002C 51.398136 52.160183 51.996044 51.376858 52 50.481998L 52 43M 52 37L 52 31.634001C 51.999737 31.009022 51.707336 30.420097 51.209625 30.042103C 50.711914 29.664108 50.066116 29.540506 49.464001 29.708L 34 34M 27.5 17.501999C 27.5 21.09185 30.410151 24.001999 34 24.001999C 37.589851 24.001999 40.5 21.09185 40.5 17.502001C 40.5 13.912149 37.589851 11.002001 34 11.002001C 30.410151 11.002001 27.5 13.912149 27.5 17.502001ZM 25.493999 31.639999C 27.562222 28.98171 30.644537 27.305389 34 27.014C 37.355965 27.307392 40.438774 28.983192 42.509998 31.639999M 46 36.599998L 38.711998 38.799999C 38.289921 38.926937 38.000717 39.315247 38 39.756001L 38 42.667999C 37.999886 42.984291 38.149406 43.28199 38.403194 43.470757C 38.656982 43.659519 38.985107 43.717091 39.288002 43.625999L 46 41.599998M 16 43C 14.343145 43 13 41.656853 13 40C 13 38.343147 14.343145 37 16 37L 18 37C 18.552284 37 19 37.447716 19 38L 19 42C 19 42.552284 18.552284 43 18 43ZM 52 43C 53.656857 43 55 41.656853 55 40C 55 38.343147 53.656857 37 52 37L 50 37C 49.447716 37 49 37.447716 49 38L 49 42C 49 42.552284 49.447716 43 50 43Z"></path></g></g></g><g id="g-root-tx_students_4gojfc8xe9e1-stroke" data-item-order="1000000000" data-item-id="tx_students_4gojfc8xe9e1" data-item-class="Label Stroke Indexed ColorStrokeBlack" data-item-index="2" data-renderer-id="0" transform="translate(602, 182)"></g><g id="g-root-tx_targetau_8wi1js8xe8lq-stroke" data-item-order="1000000000" data-item-id="tx_targetau_8wi1js8xe8lq" data-item-class="Label Stroke ColorStrokeBlack" data-item-index="none" data-renderer-id="0" transform="translate(2, 212)"></g><g id="g-root-fema_hs51so8xbfgq-stroke" data-item-order="1000000000" data-item-id="fema_hs51so8xbfgq" data-item-class="Icon Stroke ColorStrokeBlack" data-item-index="none" data-renderer-id="0" transform="translate(110, 212)"><g id="fema_hs51so8xbfgq-stroke" fill="none" stroke-linecap="round" stroke-linejoin="round" stroke-miterlimit="4" stroke="#484848" stroke-width="2"><g><path d="M 29.6 47.799999C 28.200001 46.599998 28.6 44.400002 28.200001 42.599998C 28 41.799999 28.200001 41.200001 28.200001 40.400002C 27.799999 36.400002 24.6 34.599998 21 33C 17.200001 31.4 14.4 36.200001 13.4 40.200001C 13.6 41.200001 13.4 41.799999 13.4 42.599998C 13.4 44.400002 13 46.200001 12 47.799999M 13.4 41.599998C 16 42.400002 19.6 40.799999 20.799999 38.200001C 22.200001 40.799999 25.4 41.400002 28.200001 41.599998M 27.4 41.599998C 27.6 45.200001 24.200001 47.200001 20.6 47.799999C 17.200001 48.400002 14.4 45 14.4 41.599998M 30.6 57C 27.799999 51.599998 21.200001 49.599998 15.8 52.200001C 13.6 52.799999 12.4 55.200001 11 57M 56 47.799999C 54.799999 46.200001 54.799999 44.400002 54.599998 42.599998C 54.599998 41.799999 54.799999 41 54.599998 40.400002C 53.200001 36.599998 51.400002 33.200001 47.400002 33C 43.400002 32.799999 40.799999 36.200001 40 40.200001C 39.799999 41.200001 39.799999 41.799999 40 42.599998C 40.400002 44.400002 39.799999 46.400002 38.599998 47.799999M 39.799999 41.599998C 42.599998 42 46.200001 40.799999 47.200001 38.200001C 49 40.400002 51.799999 41 54.599998 41.599998M 53.599998 41.599998C 54.799999 45 50.400002 47 46.799999 47.799999C 43.400002 48.400002 41.200001 45 40.599998 41.599998M 57 57C 54.799999 51.400002 48.200001 51 42.200001 52.200001C 40.400002 53.599998 37.799999 54.799999 37.400002 57M 40.799999 29.4C 36.400002 26.799999 31 26 27.200001 29.4M 28.4 14.2C 30.200001 16.6 33.200001 18 36.200001 17.6C 37.599998 17.4 39.400002 17.6 40.400002 16.799999M 27.6 17.6C 27.200001 21.200001 30.4 23.799999 34 24C 37.599998 24.200001 39.200001 21 40.400002 17.6C 41.599998 14.2 37.400002 10 34 11.2C 30.6 12.4 27.6 14 27.6 17.6"></path><path d="M 29.6 47.799999C 28.6 46.200001 28.200001 44.400002 28.200001 42.599998L 28.200001 40.400002C 28.200001 36.400002 25 33 21 33C 17 33 13.6 36 13.4 40.200001C 13.4 40.200001 13.4 40.400002 13.4 40.400002L 13.4 42.599998C 13.4 44.400002 13 46.200001 12 47.799999M 13.4 41.599998C 16.200001 41.599998 19 40.400002 20.799999 38.200001C 22.6 40.400002 25.4 41.599998 28.200001 41.599998M 27.4 41.599998C 27.200001 45.200001 24.200001 48 20.6 47.799999C 17.200001 47.599998 14.6 45 14.4 41.599998M 30.6 57C 27.799999 51.599998 21.200001 49.400002 15.8 52.200001C 13.8 53.200001 12 55 11 57M 56 47.799999C 55 46.200001 54.599998 44.400002 54.599998 42.599998L 54.599998 40.400002C 54.599998 36.400002 51.400002 33 47.400002 33C 43.400002 33 40 36.200001 40 40.200001C 40 40.200001 40 40.400002 40 40.400002L 40 42.599998C 40 44.400002 39.599998 46.200001 38.599998 47.799999M 39.799999 41.599998C 42.599998 41.599998 45.400002 40.400002 47.200001 38.200001C 49 40.400002 51.799999 41.599998 54.599998 41.599998M 53.599998 41.599998C 53.400002 45.200001 50.400002 48 46.799999 47.799999C 43.400002 47.599998 40.799999 45 40.599998 41.599998M 57 57C 54.200001 51.599998 47.599998 49.400002 42.200001 52.200001C 40.200001 53.200001 38.400002 55 37.400002 57M 40.799999 29.4C 36.799999 26.200001 31.200001 26.200001 27.200001 29.4M 28.4 14.2C 30.4 16.4 33.200001 17.6 36.200001 17.6C 37.599998 17.6 39.200001 17.4 40.400002 16.799999M 27.6 17.6C 27.6 21.134623 30.465378 24 34 24C 37.534622 24 40.400002 21.134623 40.400002 17.6C 40.400002 14.065378 37.534622 11.2 34 11.2C 30.465378 11.2 27.6 14.065378 27.6 17.6"></path></g></g></g><g id="g-root-spa_v1aw8xcv7s-stroke" data-item-order="1000000000" data-item-id="spa_v1aw8xcv7s" data-item-class="Icon Stroke Indexed ColorStrokeBlack" data-item-index="3" data-renderer-id="0" transform="translate(542, 254)"><g id="spa_v1aw8xcv7s-stroke" fill="none" stroke-linecap="round" stroke-linejoin="round" stroke-miterlimit="4" stroke="#484848" stroke-width="2"><g><path d="M 17.199999 54.914288C 17.885714 55.600002 18.914286 56.285713 19.942858 56.285713C 29.200001 57.314285 38.799999 56.285713 48.057144 56.285713C 49.085712 56.285713 50.457146 55.942856 50.799999 54.914288C 51.142857 53.542858 51.828571 52.514286 51.828571 51.142857C 53.542858 45.657143 43.942856 41.542858 34 40.857143C 24.057142 40.171429 15.142858 45.657143 16.171429 51.142857C 16.171429 52.514286 16.171429 53.885715 17.199999 54.57143M 21.314285 32.285713C 21.314285 37.085716 27.828571 42.914288 35.714287 40.857143C 43.600002 38.799999 50.799999 37.085716 50.457146 32.285713C 49.771431 27.485714 43.600002 24.742859 35.714287 23.714287C 27.828571 22.685715 19.942858 27.828571 21.314285 32.285713M 21.314285 17.885714C 21.314285 20.971428 26.114285 25.771429 31.6 23.714287C 36.742859 21.657143 41.885715 20.971428 41.885715 17.885714C 41.542858 14.457143 37.085716 11.028571 31.6 11.714286C 25.771429 12.4 20.285715 14.457143 21.314285 17.885714"></path><path d="M 17.131428 54.742859C 17.768915 55.710899 18.85235 56.291309 20.011429 56.285713L 47.988571 56.285713C 49.147652 56.291309 50.231083 55.710899 50.868572 54.742859C 51.585346 53.677246 51.978306 52.426922 52 51.142857C 52 45.451431 43.942856 40.857143 34 40.857143C 24.057142 40.857143 16 45.451431 16 51.142857C 16.021692 52.426922 16.414654 53.677246 17.131428 54.742855ZM 21.142857 32.285713C 21.142857 37.019585 27.66671 40.857143 35.714287 40.857143C 43.761864 40.857143 50.285713 37.019585 50.285713 32.285713C 50.285713 27.551846 43.761864 23.714287 35.714287 23.714287C 27.66671 23.714287 21.142857 27.551846 21.142857 32.285713M 21.142857 17.714285C 21.142859 21.027994 25.747929 23.714287 31.428572 23.714287C 37.109215 23.714287 41.714287 21.027994 41.714287 17.714285C 41.714287 14.400578 37.109215 11.714286 31.428572 11.714286C 25.747929 11.714286 21.142859 14.400578 21.142859 17.714285"></path></g></g></g><g id="g-root-tx_retirees_4gojfc8xe9e0-stroke" data-item-order="1000000000" data-item-id="tx_retirees_4gojfc8xe9e0" data-item-class="Label Stroke Indexed ColorStrokeBlack" data-item-index="3" data-renderer-id="0" transform="translate(602, 266)"></g><g id="g-root-tech_8zmezc8xbhfo-stroke" data-item-order="1000000000" data-item-id="tech_8zmezc8xbhfo" data-item-class="Icon Stroke Indexed ColorStrokeBlack" data-item-index="4" data-renderer-id="0" transform="translate(542, 338)"><g id="tech_8zmezc8xbhfo-stroke" fill="none" stroke-linecap="round" stroke-linejoin="round" stroke-miterlimit="4" stroke="#484848" stroke-width="2"><g><path d="M 21 49C 29.6 50.400002 38.400002 50.400002 47 49C 47 49 49.599998 49 49 51C 48.599998 52.200001 49.200001 53.599998 49 55C 49 55 49 57 47 57C 38.400002 57.400002 29.6 55.599998 21 57C 21 57 18.4 57 19 55C 19.4 53.799999 19 52.400002 19 51C 19 51 19.200001 49.599998 21 49M 23 49C 22.799999 47 23.6 45 23 43M 45 49C 44.599998 47 44.599998 45 45 43M 23 53C 23.6 52.799999 24.4 53.200001 25 53M 29 53C 29.6 53 30.4 53 31 53M 34 22.6C 34.200001 22.6 34.599998 22.799999 34.599998 23C 34.599998 23.200001 34.200001 23.4 34 23.6C 33.799999 23.6 33.599998 23.200001 33.599998 23C 33.400002 22.799999 33.799999 22.4 34 22.6M 31 11C 33 11.4 35 10.8 37 11C 37 11 39.200001 11 39 13C 38.400002 17 38.799999 21 39 25C 39 25 39 26.4 37 27C 35 27.6 33 27.200001 31 27C 31 27 28.799999 27 29 25C 29.4 21 30 16.799999 29 13C 29 13 29.200001 10.4 31 11M 47 17C 49 16.6 51 17 53 17C 54.200001 17 55 18 55 19C 55 21 54.799999 23 55 25C 51.799999 25.6 48.400002 25 45 25C 44.200001 23.200001 45.400002 21 45 19C 44.799999 18 46 17.200001 47 17M 55.400002 31C 56 31 56.599998 30.799999 56.799999 30.200001C 57 29.799999 57 29.200001 56.799999 28.6C 56.599998 27.4 56 25.799999 55 25C 51.799999 25.6 48.200001 24.4 45 25C 44.400002 26.200001 43.799999 27.4 43.200001 28.6C 43 29.200001 43 29.799999 43.200001 30.200001C 43.400002 30.799999 44 30.799999 44.599998 31C 48.200001 31.6 51.799999 30.6 55.400002 31M 13 17C 16.200001 17.6 19.799999 17.6 23 17C 23 17 24.4 17 25 19C 25.6 21 25.4 23 25 25C 25 25 25 27.4 23 27C 19.799999 26.4 16.200001 28.200001 13 27C 13 27 11.6 27 11 25C 10.6 23 11 21 11 19C 11 19 11 17 13 17M 13 31C 16.4 30.799999 19.799999 32.200001 23 31M 15 31C 15.8 29.799999 15.8 28.4 16 27M 21 31C 20.4 29.799999 20 28.4 20 27M 41.200001 37.200001C 36.799999 34.200001 31 34.200001 26.799999 37.200001M 39 41.599998C 36 39.400002 31.4 38.799999 29 41.599998"></path><path d="M 21 49L 47 49C 47 49 49 49 49 51L 49 55C 49 55 49 57 47 57L 21 57C 21 57 19 57 19 55L 19 51C 19 51 19 49 21 49M 23 49L 23 43M 45 49L 45 43M 23 53L 25 53M 29 53L 31 53M 34 22.5C 34.276142 22.5 34.5 22.723858 34.5 23C 34.5 23.276142 34.276142 23.5 34 23.5C 33.723858 23.5 33.5 23.276142 33.5 23C 33.5 22.723858 33.723858 22.5 34 22.5M 31 11L 37 11C 37 11 39 11 39 13L 39 25C 39 25 39 27 37 27L 31 27C 31 27 29 27 29 25L 29 13C 29 13 29 11 31 11M 47 17L 53 17C 54.104568 17 55 17.895432 55 19L 55 25L 55 25L 45 25L 45 25L 45 19C 45 17.895432 45.895432 17 47 17ZM 55.382 31C 55.942566 30.999235 56.462902 30.708723 56.757694 30.231926C 57.052486 29.755129 57.079834 29.159817 56.829998 28.657999L 55 25L 45 25L 43.169998 28.658001C 42.920166 29.159817 42.947514 29.755129 43.242306 30.231926C 43.537098 30.708723 44.05743 30.999235 44.618 31ZM 13 17L 23 17C 23 17 25 17 25 19L 25 25C 25 25 25 27 23 27L 13 27C 13 27 11 27 11 25L 11 19C 11 19 11 17 13 17M 13 31L 23 31M 15 31L 16 27M 21 31L 20 27M 41.209999 37.183998C 36.843815 34.273853 31.156187 34.273853 26.790001 37.184002M 39 41.512001C 35.977043 39.496872 32.038956 39.496872 29.016001 41.512001"></path></g></g></g><g id="g-root-tx_techenth_8wi1js8xe8lr-stroke" data-item-order="1000000000" data-item-id="tx_techenth_8wi1js8xe8lr" data-item-class="Label Stroke Indexed ColorStrokeBlack" data-item-index="4" data-renderer-id="0" transform="translate(602, 338)"></g></g></g></svg>