<?xml version="1.0" encoding="utf-8" standalone="yes"?>
<!DOCTYPE svg PUBLIC "-//W3C//DTD SVG 1.1//EN" "http://www.w3.org/Graphics/SVG/1.1/DTD/svg11.dtd">
<svg width="896" height="565" viewBox="0 0 896 565" style="fill:none;stroke:none;fill-rule:evenodd;clip-rule:evenodd;stroke-linecap:round;stroke-linejoin:round;stroke-miterlimit:1.5;" version="1.1" xmlns="http://www.w3.org/2000/svg" xmlns:xlink="http://www.w3.org/1999/xlink"><style id="fontImports">@import url("https://fonts.googleapis.com/css2?family=Roboto:wght@400;700&amp;display=block");</style><g id="items" style="isolation: isolate"><g id="blend" style="mix-blend-mode:normal"><g id="g-root--1.cu_sy_1qeg9h6uaby86-fill" data-item-order="-345847" transform="translate(218.56271362304688, 312.0201416015625)"><g id="-1.cu_sy_1qeg9h6uaby86-fill" stroke="none" fill="url(#gradient-44d0ff-453494305)"><g><path d="M 20.9627 33.77C 19.093 29.167 17.2593 24.486 15.4974 19.7075C 14.7439 17.6719 12.8008 15.2271 10 12.4949L 10.4671 12.4941C 12.4949 12.4941 14.5366 11.8506 15.933 10.5531C 16.122 10.3776 16.2971 10.1968 16.4584 10C 16.6243 10.1968 16.7994 10.3776 16.9838 10.5531C 18.3802 11.8453 20.4218 12.4941 22.4496 12.4941C 24.4774 12.4941 26.5191 11.8506 27.9155 10.5531C 28.0998 10.3776 28.275 10.1968 28.4363 10C 28.6022 10.1968 28.7773 10.3776 28.9616 10.5531C 30.3581 11.8453 32.3997 12.4941 34.4275 12.4941C 36.4553 12.4941 38.497 11.8506 39.8934 10.5531C 40.0777 10.3776 40.2528 10.1968 40.4141 10C 40.5801 10.1968 40.7552 10.3776 40.9395 10.5531C 42.336 11.8453 44.3776 12.4941 46.4054 12.4941C 48.4332 12.4941 50.4748 11.8506 51.8712 10.5531C 52.0556 10.3776 52.2307 10.1968 52.392 10C 52.5579 10.1968 52.7331 10.3776 52.9174 10.5531C 54.3138 11.8453 56.3555 12.4941 58.3833 12.4941C 60.4111 12.4941 62.4527 11.8506 63.8491 10.5531C 64.0335 10.3776 64.2086 10.1968 64.3699 10C 64.5358 10.1968 64.711 10.3776 64.8953 10.5531C 66.2917 11.8453 68.3333 12.4941 70.3611 12.4941C 72.389 12.4941 74.4306 11.8506 75.827 10.5531C 76.016 10.3776 76.1911 10.1968 76.3524 10C 76.5137 10.1968 76.6888 10.3776 76.8732 10.5531C 78.2696 11.8453 80.3066 12.4941 82.339 12.4941C 84.3714 12.4941 86.4085 11.8506 87.8049 10.5531C 87.9939 10.3776 88.169 10.1968 88.3303 10C 88.4916 10.1968 88.6667 10.3776 88.851 10.5531C 90.2475 11.8453 92.2891 12.4941 94.3169 12.4941C 96.3447 12.4941 98.3863 11.8506 99.7827 10.5531C 99.9717 10.3776 100.1468 10.1968 100.3081 10C 100.474 10.1968 100.6492 10.3776 100.8335 10.5531C 102.2299 11.8453 104.3278 12.498 106.3602 12.498C 108.388 12.498 110.608 11.8506 112.004 10.5531C 112.193 10.3776 112.368 10.1968 112.53 10.000004C 112.695 10.1968 112.871 10.3776 113.055 10.5531C 114.451 11.8453 116.493 12.4941 118.521 12.4941C 120.549 12.4941 122.59 11.8506 123.987 10.5531C 124.176 10.3776 124.351 10.1968 124.512 10.000004C 124.678 10.1968 124.853 10.3776 125.037 10.5531C 126.434 11.8453 128.475 12.4941 130.503 12.4941C 132.531 12.4941 134.573 11.8506 135.969 10.5531C 136.153 10.3776 136.329 10.1968 136.49 10.000004C 136.656 10.1968 136.831 10.3776 137.015 10.5531C 138.412 11.8453 140.453 12.4941 142.481 12.4941C 144.509 12.4941 146.551 11.8506 147.947 10.5531C 148.131 10.3776 148.307 10.1968 148.468 10.000004C 148.634 10.1968 148.809 10.3776 148.993 10.5531C 150.39 11.8453 152.431 12.4941 154.459 12.4941C 156.487 12.4941 158.528 11.8506 159.925 10.5531C 160.109 10.3776 160.284 10.1968 160.446 10.000004C 160.612 10.1968 160.787 10.3776 160.971 10.5531C 162.367 11.8453 164.409 12.4941 166.437 12.4941C 168.465 12.4941 170.506 11.8506 171.903 10.5531C 172.087 10.3776 172.262 10.1968 172.424 10.000004C 172.589 10.1968 172.765 10.3776 172.949 10.5531C 174.345 11.8453 176.387 12.4941 178.415 12.4941C 180.443 12.4941 182.484 11.8506 183.881 10.5531C 184.07 10.3776 184.245 10.1968 184.406 10.000004C 184.567 10.1968 184.742 10.3776 184.927 10.5531C 186.323 11.8453 188.36 12.4941 190.393 12.4941C 192.425 12.4941 194.462 11.8506 195.859 10.5531C 196.048 10.3776 196.223 10.1968 196.384 10.000004C 196.545 10.1968 196.72 10.3776 196.905 10.5531C 198.301 11.8453 200.343 12.4941 202.371 12.4941C 204.398 12.4941 206.44 11.8506 207.836 10.5531C 208.025 10.3776 208.201 10.1968 208.362 10.000004C 208.528 10.1968 208.703 10.3776 208.887 10.5531C 210.284 11.8453 212.381 12.498 214.414 12.498C 216.441 12.498 218.661 11.8506 220.058 10.5531C 220.247 10.3776 220.422 10.1968 220.583 10.000004C 220.749 10.1968 220.924 10.3776 221.108 10.5531C 222.505 11.8453 224.546 12.4941 226.574 12.4941C 228.602 12.4941 230.644 11.8506 232.04 10.5531C 232.229 10.3776 232.404 10.1968 232.565 10.000004C 232.731 10.1968 232.907 10.3776 233.091 10.5531C 234.487 11.8453 236.529 12.4941 238.557 12.4941C 240.584 12.4941 242.626 11.8506 244.023 10.5531C 244.207 10.3776 244.382 10.1968 244.543 10.000004C 244.709 10.1968 244.884 10.3776 245.069 10.5531C 246.465 11.8453 248.507 12.4941 250.535 12.4941C 252.562 12.4941 254.604 11.8506 256 10.5531C 256.185 10.3776 256.36 10.1968 256.521 10.000004C 256.687 10.1968 256.862 10.3776 257.047 10.5531C 258.443 11.8453 260.485 12.4941 262.512 12.4941C 264.54 12.4941 266.582 11.8506 267.978 10.5531C 268.163 10.3776 268.338 10.1968 268.499 10.000004C 268.665 10.1968 268.84 10.3776 269.024 10.5531C 270.421 11.8453 272.463 12.4941 274.49 12.4941C 276.518 12.4941 278.56 11.8506 279.956 10.5531C 280.141 10.3776 280.316 10.1968 280.477 10.000004C 280.643 10.1968 280.818 10.3776 281.002 10.5531C 282.399 11.8453 284.44 12.4941 286.468 12.4941C 288.496 12.4941 290.538 11.8506 291.934 10.5531C 292.123 10.3776 292.298 10.1968 292.459 10.000004C 292.621 10.1968 292.796 10.3776 292.98 10.5531C 294.377 11.8453 296.414 12.4941 298.446 12.4941C 300.478 12.4941 302.516 11.8506 303.912 10.5531C 304.101 10.3776 304.276 10.1968 304.437 10.000004C 304.599 10.1968 304.774 10.3776 304.958 10.5531C 306.355 11.8453 308.396 12.4941 310.424 12.4941C 312.452 12.4941 314.493 11.8506 315.89 10.5531C 316.079 10.3776 316.254 10.1968 316.415 10C 316.581 10.1968 316.756 10.3776 316.941 10.5531C 318.337 11.8453 320.435 12.4941 322.467 12.4941C 324.495 12.4941 326.537 11.8506 327.933 10.5531C 328.122 10.3776 328.297 10.1968 328.458 10C 328.624 10.1968 328.799 10.3776 328.984 10.5531C 330.38 11.8453 332.422 12.4941 334.45 12.4941C 336.477 12.4941 338.519 11.8506 339.915 10.5531C 340.1 10.3776 340.275 10.1968 340.436 10C 340.602 10.1968 340.777 10.3776 340.962 10.5531C 342.358 11.8453 344.4 12.4941 346.427 12.4941C 348.455 12.4941 350.497 11.8506 351.893 10.5531C 352.078 10.3776 352.253 10.1968 352.414 10C 352.58 10.1968 352.755 10.3776 352.94 10.5531C 354.336 11.8453 356.378 12.4941 358.405 12.4941C 360.433 12.4941 362.475 11.8506 363.871 10.5531C 364.056 10.3776 364.231 10.1968 364.392 10C 364.558 10.1968 364.733 10.3776 364.917 10.5531C 366.314 11.8453 368.355 12.4941 370.383 12.4941C 372.411 12.4941 374.453 11.8506 375.849 10.5531C 376.033 10.3776 376.209 10.1968 376.37 10C 376.536 10.1968 376.711 10.3776 376.895 10.5531C 378.292 11.8453 380.333 12.4941 382.361 12.4941C 384.389 12.4941 386.431 11.8506 387.827 10.5531C 388.016 10.3776 388.191 10.1968 388.352 10C 388.514 10.1968 388.689 10.3776 388.873 10.5531C 390.27 11.8453 392.307 12.4941 394.339 12.4941C 396.371 12.4941 398.408 11.8506 399.805 10.5531C 399.994 10.3776 400.169 10.1968 400.33 10C 400.492 10.1968 400.667 10.3776 400.851 10.5531C 402.247 11.8453 404.289 12.4941 406.317 12.4941C 408.345 12.4941 410.386 11.8506 411.783 10.5531C 411.972 10.3776 412.147 10.1968 412.308 10C 412.474 10.1968 412.649 10.3776 412.834 10.5531C 414.23 11.8453 416.328 12.498 418.36 12.498C 420.388 12.498 422.608 11.8506 424.004 10.5531C 424.193 10.3776 424.368 10.1968 424.53 10.000004C 424.695 10.1968 424.871 10.3776 425.055 10.5531C 426.451 11.8453 428.493 12.4941 430.521 12.4941C 432.549 12.4941 434.59 11.8506 435.987 10.5531C 436.176 10.3776 436.351 10.1968 436.512 10.000004C 436.678 10.1968 436.853 10.3776 437.037 10.5531C 438.434 11.8453 440.475 12.4941 442.503 12.4941C 444.531 12.4941 446.573 11.8506 447.969 10.5531C 448.153 10.3776 448.329 10.1968 448.49 10.000004C 448.656 10.1968 448.831 10.3776 449.015 10.5531C 450.412 11.8453 452.453 12.4941 454.481 12.4941C 455.518 12.4941 456.556 12.2995 457.585 12.0406C 454.978 19.6584 453.227 23.438 449.826 31.8586C 448.351 35.5254 442.077 39.5238 440.531 43.0735C 437.457 50.134 436.306 61.2318 432.89 67.9608C 429.475 74.6897 423.938 76.8157 420.252 83.0765C 415.002 92.0094 406.859 91.0147 401.124 98.9919C 397.474 104.0435 396.395 118.36 392.566 123.021C 386.508 130.394 381.941 139.795 375.343 146.289C 368.745 152.784 360.332 156.159 353.32 161.639C 349.995 164.233 347.639 169.929 344.224 172.289C 336.169 177.886 323.927 177.555 315.405 181.826C 310.641 184.225 308.753 188.457 303.863 190.427C 300.214 191.91 296.528 193.256 292.807 194.504C 286.694 196.532 280.294 198.307 274.254 199.653C 268.213 200.999 262.1 202.052 255.916 202.793C 251.044 203.378 246.136 202.188 241.192 202.403C 238.37 202.54 235.547 201.155 232.707 201.155C 224.832 201.155 217.048 203.71 209.353 202.774C 200.203 201.662 191.178 199.887 182.332 197.449C 179.078 196.552 174.818 191.5 171.6 190.427C 166.242 188.633 161.999 190.681 156.786 188.418C 150.17 185.551 146.395 186.351 140.03 182.704C 137.028 180.987 131.347 175.117 128.399 173.225C 123.85 170.319 120.039 163.98 115.652 160.664C 111.014 157.153 105.7825 156.627 101.306 152.667C 97.5306 149.352 90.5192 146.543 86.8877 142.915C 81.0808 137.103 83.5258 128.073 78.0965 121.48C 75.4178 118.223 68.0289 117.014 65.4401 113.581C 60.2085 106.6376 55.1567 99.2845 50.3206 91.5609C 48.5948 88.7913 49.4037 79.0002 47.7318 76.1526C 43.1834 68.3704 36.2978 67.2197 32.1449 58.7354C 30.7786 55.9658 29.4483 53.1572 28.1359 50.3096C 25.6729 44.9264 23.2639 39.4262 20.9627 33.77Z"></path></g></g></g><g id="g-root--1.cu_1_sy_1hit98auabz0v-fill" data-item-order="-345845" transform="translate(82.20907592773438, 278.9998779296875)"><g id="-1.cu_1_sy_1hit98auabz0v-fill" stroke="none" fill="url(#gradient-fd8480-377457365)"><g><path d="M 22.2909 12.5545C 22.697 12.7107 23.0699 12.8591 23.4138 13C 24.8157 13.5746 25.7352 14.0256 26.453 14.3776C 28.3773 15.3214 28.8526 15.5545 33.2909 15.5545C 34.4019 15.5545 36.0144 16.1425 38.0427 16.882C 43.3167 18.805 51.4018 21.7529 60.7909 18.0545C 63.5978 16.9488 76.2372 20.3641 80.683 22L 643.631 22C 648.271 19.8406 652.779 18.0545 654.791 18.0545C 656.074 18.0545 657.723 17.6871 659.611 17.2667C 664.342 16.2126 670.572 14.8247 676.291 18.0545C 682.213 21.3991 695.259 19.7919 703.868 18.7314C 706.888 18.3593 709.362 18.0545 710.791 18.0545C 713.426 18.0545 716.176 16.3329 719.041 14.5393C 719.872 14.0189 720.713 13.4922 721.564 13C 723.9 11.648 726.309 10.5545 728.791 10.5545L 728.791 10L 10 10C 14.5954 10.4401 19.0606 11.3121 22.2909 12.5545Z"></path></g></g></g><g id="g-root--1.cu_2_sy_1d2zr3uuabzt4-fill" data-item-order="-345843" transform="translate(118.99993896484375, 103.1822509765625)"><g id="-1.cu_2_sy_1d2zr3uuabzt4-fill" stroke="none" fill="url(#gradient-cccccc-454304273)"><g><path d="M 654.000122 169.300137C 599.622822 168.341137 560.616422 128.382137 535.327922 89.172737C 522.486322 69.262237 513.063922 49.370437 506.853322 34.466837C 503.808522 27.160237 501.532022 21.043537 500.000122 16.699237L 500.000122 11.817737L 503.000122 11.817737L 503.000122 10.000137C 503.370422 11.133637 503.911022 12.748037 504.624422 14.777737C 506.129522 19.059537 508.402922 25.186637 511.468622 32.543537C 517.603322 47.264937 526.895222 66.873237 539.529822 86.462637C 564.563222 125.276137 602.262122 163.340137 654.000122 164.299137L 654.000122 169.300137ZM 179.000122 10L 179.000122 11.8177L 176.000122 11.8177L 176.000122 16.6992C 177.532022 21.0435 179.808622 27.1602 182.853322 34.4668C 189.063922 49.3705 198.486322 69.2622 211.328022 89.1727C 236.925422 128.861 276.578122 169.318 332.000122 169.318C 387.422122 169.318 427.075122 128.861 452.673122 89.1727C 465.514122 69.2622 474.937122 49.3705 481.147122 34.4668C 484.192122 27.1608 486.468122 21.0444 488.000122 16.7002L 488.000122 11.8177L 485.000122 11.8177L 485.000122 10.0011C 484.630122 11.1346 484.089122 12.7487 483.376122 14.7777C 481.871122 19.0595 479.598122 25.1866 476.532122 32.5436C 470.397122 47.265 461.105122 66.8732 448.471122 86.4627C 423.116122 125.775 384.768122 164.318 332.000122 164.318C 279.232122 164.318 240.884722 125.775 215.529822 86.4627C 202.895222 66.8732 193.603322 47.265 187.468622 32.5436C 184.402922 25.1866 182.129522 19.0595 180.624522 14.7777C 179.911022 12.748 179.370422 11.1335 179.000122 10ZM 164 16.699886L 164 11.817686L 161 11.817686L 161 10.000786C 160.63 11.134286 160.089 12.748486 159.376 14.777786C 157.871 19.059486 155.598 25.186586 152.532 32.543586C 146.397 47.264986 137.105 66.873186 124.471 86.462686C 99.4372 125.275786 61.7385 163.340786 10 164.298786L 10 169.299786C 64.3775 168.340786 103.384 128.381786 128.673 89.172786C 141.514 69.262186 150.937 49.370486 157.147 34.466886C 160.192 27.160586 162.468 21.044186 164 16.699886Z"></path></g></g></g><g id="g-root--1.cu_3_sy_1d2zr3uuabzt5-fill" data-item-order="-345840" transform="translate(117, 139.4300537109375)"></g><g id="g-root--1.cu_4_sy_18nsq2iuabxfm-fill" data-item-order="-345839" transform="translate(261.0001220703125, 94)"><g id="-1.cu_4_sy_18nsq2iuabxfm-fill" stroke="none" fill="url(#gradient-fd8480-377457365)"><g><path d="M 46 207L 10 207L 10 213L 46 213L 46 207ZM 37 195L 37 90L 34 87L 22 87L 19 90L 19 195L 37 195ZM 34 21L 22 21L 22 87L 34 87L 34 21ZM 40 213L 16 213L 16 219L 40 219L 40 213ZM 40 297L 16 297L 16 303L 40 303L 40 297ZM 37 219L 19 219L 19 297L 37 297L 37 219ZM 37 14L 19 14L 19 21L 37 21L 37 14ZM 33 10L 23 10L 23 14L 33 14L 33 10ZM 46 362.3478C 45.4372 361.9068 44.916 361.4552 44.4504 360.99C 41.4564 357.9933 40.6561 354.141 39.8391 350.2084C 39.0715 346.5138 38.2892 342.7483 35.6592 339.5549C 34.3536 337.9673 31.929 336.8663 29.4866 335.7572C 26.918 334.5907 24.3298 333.4154 23.0028 331.6558C 18.5296 325.7188 14.1878 319.4825 10 312.971L 10 303L 46 303L 46 362.3478Z"></path></g></g></g><g id="g-root--1.cu_5_sy_zs5ptmuaby8b-fill" data-item-order="-345837" transform="translate(103, 252.4998779296875)"><g id="-1.cu_5_sy_zs5ptmuaby8b-fill" stroke="none" fill="url(#gradient-fd8480-377457365)"><g><path d="M 23.999985 21L 11.999985 21L 11.999985 36.5001L 23.999985 36.5001L 23.999985 21ZM 26 14L 10 14L 10 21L 26 21L 26 14ZM 23 10L 13 10L 13 14L 23 14L 23 10Z"></path></g></g></g><g id="g-root--1.cu_6_sy_zs5ptmuaby8c-fill" data-item-order="-345835" transform="translate(763.0001220703125, 252.4998779296875)"><g id="-1.cu_6_sy_zs5ptmuaby8c-fill" stroke="none" fill="url(#gradient-fd8480-377457365)"><g><path d="M 24 21L 12 21L 12 36.5001L 24 36.5001L 24 21ZM 26 14L 10 14L 10 21L 26 21L 26 14ZM 23 10L 13 10L 13 14L 23 14L 23 10Z"></path></g></g></g><g id="g-root--1.cu_7_sy_vcc7p6uabz0l-fill" data-item-order="-345833" transform="translate(585.0001220703125, 94)"><defs><linearGradient id="gradient-44d0ff-453494305" x2="0" y2="1"><stop offset="0" stop-color="#6ddafe"></stop><stop offset="1" stop-color="#1AC6FF"></stop></linearGradient><linearGradient id="gradient-fd8480-377457365" x2="0" y2="1"><stop offset="0" stop-color="#fd9e9a"></stop><stop offset="1" stop-color="#FD6A65"></stop></linearGradient><linearGradient id="gradient-cccccc-454304273" x2="0" y2="1"><stop offset="0" stop-color="#f5f5f5"></stop><stop offset="1" stop-color="#A3A3A3"></stop></linearGradient></defs><g id="-1.cu_7_sy_vcc7p6uabz0l-fill" stroke="none" fill="url(#gradient-fd8480-377457365)"><g><path d="M 46 207L 10 207L 10 213L 46 213L 46 207ZM 37 195L 37 90L 34 87L 22 87L 19 90L 19 195L 37 195ZM 34 21L 22 21L 22 87L 34 87L 34 21ZM 40 213L 16 213L 16 219L 40 219L 40 213ZM 40 297L 16 297L 16 303L 40 303L 40 297ZM 37 219L 19 219L 19 297L 37 297L 37 219ZM 37 14L 19 14L 19 21L 37 21L 37 14ZM 46 308.589C 45.2916 309 44.576 309.3896 43.8594 309.7799C 40.6368 311.5349 37.3932 313.3014 34.6863 317.0666C 32.9119 319.5228 31.7452 324.1691 30.5746 328.831C 29.3377 333.7572 28.0963 338.7008 26.1289 341.0958C 23.5995 344.1738 21.3301 347.6055 19.0644 351.0316C 16.2083 355.3504 13.3581 359.6604 10 363.2423L 10 303L 46 303L 46 308.589ZM 33 10L 23 10L 23 14L 33 14L 33 10Z"></path></g></g></g><g id="g-root--1.cu_8_sy_mgp7gauabzta-fill" data-item-order="-345830" transform="translate(218.54962158203125, 312.0201416015625)"></g><g id="g-root--1.cu_9_sy_mgp7gauabztb-fill" data-item-order="-345828" transform="translate(21, 276.9454345703125)"></g><g id="g-root-tx_transfor_4g22nuuaddl7-fill" data-item-order="0" transform="translate(201, 39)"><g id="tx_transfor_4g22nuuaddl7-fill" stroke="none" fill="#484848"><g><text style="font: 20px Roboto, sans-serif; white-space: pre;" font-size="20px" font-family="Roboto, sans-serif"><tspan x="12.82" y="33.5" dominant-baseline="ideographic">Transforming Grocery Shopping for Healthier Choices</tspan></text></g></g></g><g id="g-root-tx_orbitsca_dbp2wquadcsh-fill" data-item-order="0" transform="translate(345, 111)"><g id="tx_orbitsca_dbp2wquadcsh-fill" stroke="none" fill="#484848"><g><text style="font: 20px Roboto, sans-serif; white-space: pre;" font-size="20px" font-family="Roboto, sans-serif"><tspan x="14.56" y="33.5" dominant-baseline="ideographic">OrbitScan simplifies </tspan><tspan x="19.25" y="57.5" dominant-baseline="ideographic">ingredient lists and </tspan><tspan x="28.09" y="81.5" dominant-baseline="ideographic">provides insights</tspan></text></g></g></g><g id="g-root-tx_confused_dbp2wquadcsi-fill" data-item-order="0" transform="translate(15, 351)"><g id="tx_confused_dbp2wquadcsi-fill" stroke="none" fill="#484848"><g><text style="font: 20px Roboto, sans-serif; white-space: pre;" font-size="20px" font-family="Roboto, sans-serif"><tspan x="40.84" y="33.5" dominant-baseline="ideographic">Confused users </tspan><tspan x="17.36" y="57.5" dominant-baseline="ideographic">struggle with grocery </tspan><tspan x="69.49" y="81.5" dominant-baseline="ideographic">shopping</tspan></text></g></g></g><g id="g-root-tx_confiden_hril16uadc08-fill" data-item-order="0" transform="translate(669, 363)"><g id="tx_confiden_hril16uadc08-fill" stroke="none" fill="#484848"><g><text style="font: 20px Roboto, sans-serif; white-space: pre;" font-size="20px" font-family="Roboto, sans-serif"><tspan x="18.05" y="33.5" dominant-baseline="ideographic">Confident, informed </tspan><tspan x="13.73" y="57.5" dominant-baseline="ideographic">shopping experience</tspan></text></g></g></g><g id="g-root--1.cu_sy_1qeg9h6uaby86-stroke" data-item-order="-345847" transform="translate(218.56271362304688, 312.0201416015625)"><g id="-1.cu_sy_1qeg9h6uaby86-stroke" fill="none" stroke-linecap="round" stroke-linejoin="round" stroke-miterlimit="4" stroke="#484848" stroke-width="2"><g><path d="M 10.4671 12.4941C 12.4949 12.4941 14.5366 11.8506 15.933 10.5531C 16.122 10.3776 16.2971 10.1968 16.4584 10C 16.6243 10.1968 16.7994 10.3776 16.9838 10.5531C 18.3802 11.8453 20.4218 12.4941 22.4496 12.4941C 24.4774 12.4941 26.5191 11.8506 27.9155 10.5531C 28.0998 10.3776 28.275 10.1968 28.4363 10C 28.6022 10.1968 28.7773 10.3776 28.9616 10.5531C 30.3581 11.8453 32.3997 12.4941 34.4275 12.4941C 36.4553 12.4941 38.497 11.8506 39.8934 10.5531C 40.0777 10.3776 40.2528 10.1968 40.4141 10C 40.5801 10.1968 40.7552 10.3776 40.9395 10.5531C 42.336 11.8453 44.3776 12.4941 46.4054 12.4941C 48.4332 12.4941 50.4748 11.8506 51.8712 10.5531C 52.0556 10.3776 52.2307 10.1968 52.392 10C 52.5579 10.1968 52.7331 10.3776 52.9174 10.5531C 54.3138 11.8453 56.3555 12.4941 58.3833 12.4941C 60.4111 12.4941 62.4527 11.8506 63.8491 10.5531C 64.0335 10.3776 64.2086 10.1968 64.3699 10C 64.5358 10.1968 64.711 10.3776 64.8953 10.5531C 66.2917 11.8453 68.3333 12.4941 70.3611 12.4941C 72.389 12.4941 74.4306 11.8506 75.827 10.5531C 76.016 10.3776 76.1911 10.1968 76.3524 10C 76.5137 10.1968 76.6888 10.3776 76.8732 10.5531C 78.2696 11.8453 80.3066 12.4941 82.339 12.4941C 84.3714 12.4941 86.4085 11.8506 87.8049 10.5531C 87.9939 10.3776 88.169 10.1968 88.3303 10C 88.4916 10.1968 88.6667 10.3776 88.851 10.5531C 90.2475 11.8453 92.2891 12.4941 94.3169 12.4941C 96.3447 12.4941 98.3863 11.8506 99.7827 10.5531C 99.9717 10.3776 100.1468 10.1968 100.3081 10C 100.474 10.1968 100.6492 10.3776 100.8335 10.5531C 102.2299 11.8453 104.3278 12.498 106.3602 12.498C 108.388 12.498 110.6078 11.8506 112.0042 10.5531C 112.1931 10.3776 112.3682 10.1968 112.5295 10C 112.6954 10.1968 112.8706 10.3776 113.0549 10.5531C 114.4514 11.8453 116.493 12.4941 118.5208 12.4941C 120.5486 12.4941 122.5902 11.8506 123.9867 10.5531C 124.1756 10.3776 124.3508 10.1968 124.5121 10C 124.678 10.1968 124.8531 10.3776 125.0374 10.5531C 126.4338 11.8453 128.4755 12.4941 130.5033 12.4941C 132.5311 12.4941 134.5727 11.8506 135.9691 10.5531C 136.1535 10.3776 136.3286 10.1968 136.4899 10C 136.6558 10.1968 136.8309 10.3776 137.0153 10.5531C 138.4117 11.8453 140.4534 12.4941 142.4812 12.4941C 144.509 12.4941 146.5506 11.8506 147.947 10.5531C 148.1314 10.3776 148.3065 10.1968 148.4678 10C 148.6337 10.1968 148.8089 10.3776 148.9932 10.5531C 150.3896 11.8453 152.4312 12.4941 154.459 12.4941C 156.4868 12.4941 158.5285 11.8506 159.9249 10.5531C 160.1092 10.3776 160.2844 10.1968 160.4457 10C 160.6116 10.1968 160.7867 10.3776 160.971 10.5531C 162.3675 11.8453 164.4091 12.4941 166.4369 12.4941C 168.4647 12.4941 170.5063 11.8506 171.9028 10.5531C 172.0871 10.3776 172.2623 10.1968 172.4236 10C 172.5895 10.1968 172.7646 10.3776 172.9489 10.5531C 174.3454 11.8453 176.387 12.4941 178.4148 12.4941C 180.4426 12.4941 182.4842 11.8506 183.8806 10.5531C 184.0696 10.3776 184.2448 10.1968 184.406 10C 184.5674 10.1968 184.7425 10.3776 184.9268 10.5531C 186.3232 11.8453 188.3603 12.4941 190.3927 12.4941C 192.4251 12.4941 194.4621 11.8506 195.8586 10.5531C 196.0475 10.3776 196.2226 10.1968 196.3839 10C 196.5452 10.1968 196.7203 10.3776 196.9047 10.5531C 198.3011 11.8453 200.3428 12.4941 202.3706 12.4941C 204.3984 12.4941 206.44 11.8506 207.8364 10.5531C 208.0254 10.3776 208.2005 10.1968 208.3618 10C 208.5277 10.1968 208.7028 10.3776 208.8872 10.5531C 210.2836 11.8453 212.3813 12.498 214.4137 12.498C 216.4415 12.498 218.6612 11.8506 220.0576 10.5531C 220.2465 10.3776 220.4216 10.1968 220.5829 10C 220.7489 10.1968 220.924 10.3776 221.1083 10.5531C 222.5048 11.8453 224.5464 12.4941 226.5742 12.4941C 228.602 12.4941 230.6436 11.8506 232.04 10.5531C 232.229 10.3776 232.4042 10.1968 232.5655 10C 232.7314 10.1968 232.9065 10.3776 233.0909 10.5531C 234.4873 11.8453 236.5289 12.4941 238.5567 12.4941C 240.5845 12.4941 242.6261 11.8506 244.0226 10.5531C 244.2069 10.3776 244.382 10.1968 244.5433 10C 244.7092 10.1968 244.8844 10.3776 245.0687 10.5531C 246.4651 11.8453 248.5068 12.4941 250.5346 12.4941C 252.5624 12.4941 254.604 11.8506 256.0004 10.5531C 256.1848 10.3776 256.3599 10.1968 256.5212 10C 256.6871 10.1968 256.8622 10.3776 257.0466 10.5531C 258.443 11.8453 260.4846 12.4941 262.5124 12.4941C 264.5402 12.4941 266.5819 11.8506 267.9783 10.5531C 268.1627 10.3776 268.3378 10.1968 268.4991 10C 268.665 10.1968 268.8401 10.3776 269.0244 10.5531C 270.4209 11.8453 272.4625 12.4941 274.4903 12.4941C 276.5181 12.4941 278.5598 11.8506 279.9562 10.5531C 280.1405 10.3776 280.3157 10.1968 280.477 10C 280.6429 10.1968 280.818 10.3776 281.0023 10.5531C 282.3987 11.8453 284.4404 12.4941 286.4682 12.4941C 288.496 12.4941 290.5376 11.8506 291.9341 10.5531C 292.123 10.3776 292.2982 10.1968 292.4594 10C 292.6208 10.1968 292.7959 10.3776 292.9802 10.5531C 294.3766 11.8453 296.4137 12.4941 298.4461 12.4941C 300.4785 12.4941 302.5155 11.8506 303.912 10.5531C 304.1009 10.3776 304.276 10.1968 304.4373 10C 304.5987 10.1968 304.7738 10.3776 304.9581 10.5531C 306.3546 11.8453 308.3962 12.4941 310.424 12.4941C 312.4518 12.4941 314.4934 11.8506 315.8899 10.5531C 316.0788 10.3776 316.2539 10.1968 316.4153 10C 316.5812 10.1968 316.7563 10.3776 316.9406 10.5531C 318.337 11.8453 320.4347 12.4941 322.4671 12.4941M 10.4671 12.4941L 10.4671 12.498M 10.4671 12.4941C 10.4334 12.4941 10.2577 12.4944 10 12.4949C 12.8008 15.2271 14.7439 17.6719 15.4974 19.7075C 17.2592 24.486 19.093 29.167 20.9627 33.77C 23.2639 39.4262 25.6729 44.9264 28.1359 50.3096C 29.4483 53.1572 30.7786 55.9658 32.1449 58.7354C 36.2978 67.2197 43.1834 68.3704 47.7318 76.1526C 49.4037 79.0002 48.5948 88.7913 50.3206 91.5609C 55.1567 99.2845 60.2085 106.6376 65.4401 113.5811C 68.0289 117.0138 75.4178 118.223 78.0965 121.4802C 83.5258 128.0726 81.0808 137.1031 86.8877 142.9153C 90.5192 146.5431 97.5306 149.3517 101.306 152.6674C 105.7825 156.6267 111.0141 157.1534 115.6524 160.6641C 120.039 163.9798 123.8503 170.3186 128.3987 173.2248C 131.3471 175.1167 137.0281 180.9874 140.0304 182.7038C 146.3946 186.3511 150.17 185.5514 156.7858 188.4185C 161.9994 190.681 166.2422 188.633 171.5997 190.4274C 174.8177 191.5001 179.0785 196.5517 182.3325 197.4489C 191.1776 199.8869 200.2025 201.6618 209.3533 202.7736C 217.0478 203.7098 224.8323 201.1547 232.7066 201.1547C 235.5471 201.1547 238.3697 202.5396 241.1922 202.403C 246.1361 202.1885 251.044 203.3782 255.916 202.793C 262.1004 202.0519 268.213 200.9987 274.2535 199.6529C 280.2941 198.3071 286.6943 196.5322 292.8068 194.5038C 296.5282 193.2555 300.2137 191.9097 303.8632 190.4274C 308.7531 188.4575 310.6409 184.2251 315.405 181.8261C 323.9265 177.5547 336.1695 177.8863 344.2235 172.2886C 347.6394 169.9286 349.9945 164.2334 353.3205 161.6393C 360.3319 156.1586 368.7455 152.7844 375.3434 146.2895C 381.9413 139.7946 386.5077 130.3936 392.5662 123.0211C 396.3955 118.3596 397.4741 104.0435 401.1236 98.9919C 406.8586 91.0147 415.0025 92.0094 420.252 83.0765C 423.9375 76.8157 429.4746 74.6897 432.8905 67.9608C 436.3063 61.2318 437.4568 50.134 440.531 43.0735C 442.0771 39.5238 448.3515 35.5254 449.8257 31.8586C 453.2272 23.438 454.9775 19.6583 457.5852 12.0406C 456.5562 12.2995 455.5183 12.4941 454.4812 12.4941C 452.4534 12.4941 450.4117 11.8453 449.0153 10.5531C 448.831 10.3776 448.6558 10.1968 448.4899 10C 448.3286 10.1968 448.1535 10.3776 447.9691 10.5531C 446.5727 11.8506 444.5311 12.4941 442.5033 12.4941C 440.4755 12.4941 438.4339 11.8453 437.0374 10.5531C 436.8531 10.3776 436.6779 10.1968 436.5121 10C 436.3507 10.1968 436.1756 10.3776 435.9867 10.5531C 434.5902 11.8506 432.5486 12.4941 430.5208 12.4941C 428.493 12.4941 426.4513 11.8453 425.0549 10.5531C 424.8705 10.3776 424.6954 10.1968 424.5295 10C 424.3682 10.1968 424.1931 10.3776 424.0042 10.5531C 422.6078 11.8506 420.388 12.498 418.3602 12.498C 416.3278 12.498 414.2299 11.8453 412.8335 10.5531C 412.6492 10.3776 412.474 10.1968 412.3081 10C 412.1468 10.1968 411.9717 10.3776 411.7827 10.5531C 410.3863 11.8506 408.3447 12.4941 406.3169 12.4941C 404.2891 12.4941 402.2475 11.8453 400.851 10.5531C 400.6667 10.3776 400.4916 10.1968 400.3303 10C 400.169 10.1968 399.9939 10.3776 399.8049 10.5531C 398.4085 11.8506 396.3714 12.4941 394.339 12.4941C 392.3066 12.4941 390.2696 11.8453 388.8731 10.5531C 388.6888 10.3776 388.5137 10.1968 388.3524 10C 388.1911 10.1968 388.016 10.3776 387.827 10.5531C 386.4306 11.8506 384.389 12.4941 382.3612 12.4941C 380.3334 12.4941 378.2917 11.8453 376.8953 10.5531C 376.711 10.3776 376.5358 10.1968 376.3699 10C 376.2086 10.1968 376.0334 10.3776 375.8491 10.5531C 374.4527 11.8506 372.4111 12.4941 370.3833 12.4941C 368.3555 12.4941 366.3138 11.8453 364.9174 10.5531C 364.733 10.3776 364.558 10.1968 364.3921 10C 364.2307 10.1968 364.0556 10.3776 363.8712 10.5531C 362.4748 11.8506 360.4332 12.4941 358.4054 12.4941C 356.3776 12.4941 354.336 11.8453 352.9395 10.5531C 352.7552 10.3776 352.5801 10.1968 352.4142 10C 352.2528 10.1968 352.0778 10.3776 351.8934 10.5531C 350.497 11.8506 348.4553 12.4941 346.4275 12.4941C 344.3997 12.4941 342.3581 11.8453 340.9616 10.5531C 340.7773 10.3776 340.6022 10.1968 340.4362 10C 340.2749 10.1968 340.0999 10.3776 339.9155 10.5531C 338.5191 11.8506 336.4774 12.4941 334.4496 12.4941C 332.4218 12.4941 330.3802 11.8453 328.9837 10.5531C 328.7994 10.3776 328.6243 10.1968 328.4583 10C 328.297 10.1968 328.1219 10.3776 327.933 10.5531C 326.5365 11.8506 324.4949 12.4941 322.4671 12.4941M 322.4671 12.4941L 322.4671 12.498"></path></g></g></g><g id="g-root--1.cu_1_sy_1hit98auabz0v-stroke" data-item-order="-345845" transform="translate(82.20907592773438, 278.9998779296875)"><g id="-1.cu_1_sy_1hit98auabz0v-stroke" fill="none" stroke-linecap="round" stroke-linejoin="round" stroke-miterlimit="4" stroke="#484848" stroke-width="2"><g><path d="M 22.2909 12.5545C 22.697 12.7107 23.0699 12.8591 23.4138 13C 24.8157 13.5746 25.7352 14.0256 26.453 14.3776C 28.3773 15.3214 28.8526 15.5545 33.2909 15.5545C 34.4019 15.5545 36.0144 16.1424 38.0427 16.882C 43.3167 18.805 51.4018 21.7529 60.7909 18.0545C 63.5978 16.9488 76.2372 20.3641 80.683 22L 643.6307 22C 648.2705 19.8405 652.7794 18.0545 654.7909 18.0545C 656.0741 18.0545 657.7231 17.6871 659.6106 17.2667C 664.3423 16.2126 670.572 14.8247 676.2909 18.0545C 682.213 21.3991 695.2589 19.7919 703.8676 18.7314C 706.8881 18.3593 709.3623 18.0545 710.7909 18.0545C 713.426 18.0545 716.1759 16.3329 719.0407 14.5393C 719.8719 14.0189 720.713 13.4922 721.5636 13C 723.8998 11.648 726.3089 10.5545 728.7909 10.5545L 728.7908 10L 10 10C 14.5954 10.4401 19.0606 11.3121 22.2909 12.5545ZM 23.413757 13L 721.563557 13"></path></g></g></g><g id="g-root--1.cu_2_sy_1d2zr3uuabzt4-stroke" data-item-order="-345843" transform="translate(118.99993896484375, 103.1822509765625)"><g id="-1.cu_2_sy_1d2zr3uuabzt4-stroke" fill="none" stroke-linecap="round" stroke-linejoin="round" stroke-miterlimit="4" stroke="#484848" stroke-width="2"><g><path d="M 654.000122 169.300037C 599.622822 168.341037 560.616422 128.381737 535.327922 89.172737C 522.486322 69.262237 513.063922 49.370437 506.853322 34.466837C 503.808522 27.160237 501.532022 21.043537 500.000122 16.699237L 500.000122 11.817737L 503.000122 11.817737L 503.000122 10.000137C 503.370422 11.133637 503.911022 12.748037 504.624422 14.777737C 506.129522 19.059437 508.402922 25.186637 511.468622 32.543537C 517.603322 47.264937 526.895222 66.873237 539.529822 86.462637C 564.563222 125.276137 602.261822 163.340237 654.000122 164.299137L 654.000122 169.300037ZM 179.000122 10L 179.000122 11.8177L 176.000122 11.8177L 176.000122 16.6992C 177.532022 21.0435 179.808622 27.1602 182.853322 34.4668C 189.063922 49.3705 198.486322 69.2622 211.328022 89.1727C 236.925422 128.8608 276.578122 169.3177 332.000322 169.3177C 387.422522 169.3177 427.075122 128.8608 452.672622 89.1727C 465.514222 69.2622 474.936622 49.3705 481.147222 34.4668C 484.191822 27.1608 486.468222 21.0444 488.000122 16.7002L 488.000122 11.8177L 485.000122 11.8177L 485.000122 10.0011C 484.629822 11.1346 484.089322 12.7487 483.376122 14.7777C 481.871122 19.0595 479.597722 25.1866 476.531922 32.5436C 470.397222 47.265 461.105322 66.8732 448.470722 86.4627C 423.115822 125.7746 384.768422 164.3177 332.000322 164.3177C 279.232122 164.3177 240.884722 125.7746 215.529822 86.4627C 202.895222 66.8732 193.603322 47.265 187.468622 32.5436C 184.402922 25.1866 182.129522 19.0595 180.624522 14.7777C 179.911022 12.748 179.370422 11.1335 179.000122 10ZM 164.0001 16.699886L 164.0001 11.817686L 161.0001 11.817686L 161.0001 10.000786C 160.6298 11.134286 160.0893 12.748486 159.376 14.777786C 157.871 19.059486 155.5976 25.186586 152.5318 32.543586C 146.3972 47.264986 137.1052 66.873186 124.4707 86.462686C 99.4372 125.276286 61.7385 163.340386 10 164.299186L 10 169.300086C 64.3775 168.341286 103.384 128.381786 128.6725 89.172786C 141.5141 69.262186 150.9365 49.370486 157.1471 34.466886C 160.1918 27.160586 162.4682 21.044186 164.0001 16.699886Z"></path></g></g></g><g id="g-root--1.cu_3_sy_1d2zr3uuabzt5-stroke" data-item-order="-345840" transform="translate(117, 139.4300537109375)"><g id="-1.cu_3_sy_1d2zr3uuabzt5-stroke" fill="none" stroke-linecap="round" stroke-linejoin="round" stroke-miterlimit="4" stroke="#484848" stroke-width="2"><g><path d="M 28 131.6105L 28 147.57M 46 127.0689L 46 147.57M 64 119.1587L 64 147.57M 82 107.5183L 82 147.57M 100 91.6723L 100 147.57M 118 70.9569L 118 147.57M 136 44.3527L 136 147.57M 154 10L 154 147.57M 10 133.0697L 10 147.57M 316 131.6105L 316 147.57M 298 127.0689L 298 147.57M 280 119.1587L 280 147.57M 262 107.5183L 262 147.57M 244 91.6723L 244 147.57M 226 70.9569L 226 147.57M 208 44.3527L 208 147.57M 190 10L 190 147.57M 334 133.0697L 334 147.57M 352 131.6105L 352 147.57M 370 127.0689L 370 147.57M 388 119.1587L 388 147.57M 406 107.5183L 406 147.57M 424 91.6723L 424 147.57M 442 70.9569L 442 147.57M 460 44.3527L 460 147.57M 478 10L 478 147.57M 640 131.6105L 640 147.57M 622 127.0689L 622 147.57M 604 119.1587L 604 147.57M 586 107.5183L 586 147.57M 568 91.6723L 568 147.57M 550 70.9569L 550 147.57M 532 44.3527L 532 147.57M 514 10L 514 147.57M 658 133.0697L 658 147.57"></path></g></g></g><g id="g-root--1.cu_4_sy_18nsq2iuabxfm-stroke" data-item-order="-345839" transform="translate(261.0001220703125, 94)"><g id="-1.cu_4_sy_18nsq2iuabxfm-stroke" fill="none" stroke-linecap="round" stroke-linejoin="round" stroke-miterlimit="4" stroke="#484848" stroke-width="2"><g><path d="M 10 207L 46 207L 46 213L 10 213L 10 207ZM 19 90L 19 195L 37 195L 37 90L 34 87L 22 87L 19 90ZM 22 21L 34 21L 34 87L 22 87L 22 21ZM 16 213L 40 213L 40 219L 16 219L 16 213ZM 16 297L 40 297L 40 303L 16 303L 16 297ZM 19 219L 37 219L 37 297L 19 297L 19 219ZM 19 14L 37 14L 37 21L 19 21L 19 14ZM 23 10L 33 10L 33 14L 23 14L 23 10ZM 46 362.3478C 45.4372 361.9068 44.916 361.4552 44.4504 360.99C 41.4564 357.9933 40.6561 354.141 39.8391 350.2084C 39.0715 346.5138 38.2892 342.7483 35.6592 339.5549C 34.3536 337.9673 31.929 336.8663 29.4866 335.7572C 26.918 334.5907 24.3298 333.4154 23.0028 331.6558C 18.5296 325.7188 14.1878 319.4825 10 312.971L 10 303L 46 303L 46 362.3478Z"></path></g></g></g><g id="g-root--1.cu_5_sy_zs5ptmuaby8b-stroke" data-item-order="-345837" transform="translate(103, 252.4998779296875)"><g id="-1.cu_5_sy_zs5ptmuaby8b-stroke" fill="none" stroke-linecap="round" stroke-linejoin="round" stroke-miterlimit="4" stroke="#484848" stroke-width="2"><g><path d="M 11.999985 21L 23.999985 21L 23.999985 36.5001L 11.999985 36.5001L 11.999985 21ZM 10 14L 26 14L 26 21L 10 21L 10 14ZM 13 10L 23 10L 23 14L 13 14L 13 10Z"></path></g></g></g><g id="g-root--1.cu_6_sy_zs5ptmuaby8c-stroke" data-item-order="-345835" transform="translate(763.0001220703125, 252.4998779296875)"><g id="-1.cu_6_sy_zs5ptmuaby8c-stroke" fill="none" stroke-linecap="round" stroke-linejoin="round" stroke-miterlimit="4" stroke="#484848" stroke-width="2"><g><path d="M 12 21L 24 21L 24 36.5001L 12 36.5001L 12 21ZM 10 14L 26 14L 26 21L 10 21L 10 14ZM 13 10L 23 10L 23 14L 13 14L 13 10Z"></path></g></g></g><g id="g-root--1.cu_7_sy_vcc7p6uabz0l-stroke" data-item-order="-345833" transform="translate(585.0001220703125, 94)"><g id="-1.cu_7_sy_vcc7p6uabz0l-stroke" fill="none" stroke-linecap="round" stroke-linejoin="round" stroke-miterlimit="4" stroke="#484848" stroke-width="2"><g><path d="M 10 207L 46 207L 46 213L 10 213L 10 207ZM 19 90L 19 195L 37 195L 37 90L 34 87L 22 87L 19 90ZM 22 21L 34 21L 34 87L 22 87L 22 21ZM 16 213L 40 213L 40 219L 16 219L 16 213ZM 16 297L 40 297L 40 303L 16 303L 16 297ZM 19 219L 37 219L 37 297L 19 297L 19 219ZM 19 14L 37 14L 37 21L 19 21L 19 14ZM 46 308.589C 45.2916 308.9999 44.576 309.3896 43.8594 309.7799C 40.6368 311.5349 37.3932 313.3014 34.6863 317.0666C 32.9119 319.5228 31.7452 324.1691 30.5746 328.831C 29.3377 333.7572 28.0963 338.7008 26.1289 341.0958C 23.5995 344.1738 21.3301 347.6055 19.0644 351.0316C 16.2083 355.3504 13.3581 359.6604 10 363.2423L 10 303L 46 303L 46 308.589ZM 23 10L 33 10L 33 14L 23 14L 23 10Z"></path></g></g></g><g id="g-root--1.cu_8_sy_mgp7gauabzta-stroke" data-item-order="-345830" transform="translate(218.54962158203125, 312.0201416015625)"><g id="-1.cu_8_sy_mgp7gauabzta-stroke" fill="none" stroke-linecap="round" stroke-linejoin="round" stroke-miterlimit="4" stroke="#484848" stroke-width="2"><g><path d="M 10.4802 12.4941C 12.508 12.4941 14.5497 11.8506 15.9461 10.5531C 16.135 10.3776 16.3102 10.1968 16.4715 10C 16.6374 10.1968 16.8125 10.3776 16.9969 10.5531C 18.3933 11.8453 20.4349 12.4941 22.4627 12.4941C 24.4905 12.4941 26.5322 11.8506 27.9286 10.5531C 28.1129 10.3776 28.2881 10.1968 28.4494 10C 28.6153 10.1968 28.7904 10.3776 28.9747 10.5531C 30.3712 11.8453 32.4128 12.4941 34.4406 12.4941C 36.4684 12.4941 38.51 11.8506 39.9065 10.5531C 40.0908 10.3776 40.2659 10.1968 40.4272 10C 40.5931 10.1968 40.7683 10.3776 40.9526 10.5531C 42.349 11.8453 44.3907 12.4941 46.4185 12.4941C 48.4463 12.4941 50.4879 11.8506 51.8843 10.5531C 52.0687 10.3776 52.2438 10.1968 52.4051 10C 52.571 10.1968 52.7461 10.3776 52.9305 10.5531C 54.3269 11.8453 56.3686 12.4941 58.3964 12.4941C 60.4242 12.4941 62.4658 11.8506 63.8622 10.5531C 64.0465 10.3776 64.2217 10.1968 64.383 10C 64.5489 10.1968 64.724 10.3776 64.9084 10.5531C 66.3048 11.8453 68.3464 12.4941 70.3742 12.4941C 72.402 12.4941 74.4437 11.8506 75.8401 10.5531C 76.029 10.3776 76.2042 10.1968 76.3655 10C 76.5268 10.1968 76.7019 10.3776 76.8863 10.5531C 78.2827 11.8453 80.3197 12.4941 82.3521 12.4941C 84.3845 12.4941 86.4216 11.8506 87.818 10.5531C 88.0069 10.3776 88.1821 10.1968 88.3434 10C 88.5047 10.1968 88.6798 10.3776 88.8641 10.5531C 90.2606 11.8453 92.3022 12.4941 94.33 12.4941C 96.3578 12.4941 98.3994 11.8506 99.7958 10.5531C 99.9848 10.3776 100.1599 10.1968 100.3212 10C 100.4871 10.1968 100.6623 10.3776 100.8466 10.5531C 102.243 11.8453 104.3409 12.498 106.3733 12.498C 108.4011 12.498 110.6208 11.8506 112.0173 10.5531C 112.2062 10.3776 112.3813 10.1968 112.5426 10C 112.7085 10.1968 112.8837 10.3776 113.068 10.5531C 114.4644 11.8453 116.5061 12.4941 118.5339 12.4941C 120.5617 12.4941 122.6033 11.8506 123.9998 10.5531C 124.1887 10.3776 124.3638 10.1968 124.5251 10C 124.6911 10.1968 124.8662 10.3776 125.0505 10.5531C 126.4469 11.8453 128.4886 12.4941 130.5164 12.4941C 132.5442 12.4941 134.5858 11.8506 135.9822 10.5531C 136.1666 10.3776 136.3417 10.1968 136.503 10C 136.6689 10.1968 136.844 10.3776 137.0284 10.5531C 138.4248 11.8453 140.4665 12.4941 142.4943 12.4941C 144.5221 12.4941 146.5637 11.8506 147.9601 10.5531C 148.1445 10.3776 148.3196 10.1968 148.4809 10C 148.6468 10.1968 148.8219 10.3776 149.0063 10.5531C 150.4027 11.8453 152.4443 12.4941 154.4721 12.4941C 156.4999 12.4941 158.5416 11.8506 159.938 10.5531C 160.1223 10.3776 160.2975 10.1968 160.4588 10C 160.6247 10.1968 160.7998 10.3776 160.9841 10.5531C 162.3806 11.8453 164.4222 12.4941 166.45 12.4941C 168.4778 12.4941 170.5194 11.8506 171.9159 10.5531C 172.1002 10.3776 172.2753 10.1968 172.4366 10C 172.6026 10.1968 172.7777 10.3776 172.962 10.5531C 174.3585 11.8453 176.4001 12.4941 178.4279 12.4941C 180.4557 12.4941 182.4973 11.8506 183.8937 10.5531C 184.0827 10.3776 184.2578 10.1968 184.4191 10C 184.5804 10.1968 184.7556 10.3776 184.9399 10.5531C 186.3363 11.8453 188.3734 12.4941 190.4058 12.4941C 192.4382 12.4941 194.4752 11.8506 195.8716 10.5531C 196.0606 10.3776 196.2357 10.1968 196.397 10C 196.5583 10.1968 196.7334 10.3776 196.9178 10.5531C 198.3142 11.8453 200.3559 12.4941 202.3837 12.4941C 204.4115 12.4941 206.4531 11.8506 207.8495 10.5531C 208.0385 10.3776 208.2136 10.1968 208.3749 10C 208.5408 10.1968 208.7159 10.3776 208.9003 10.5531C 210.2967 11.8453 212.3943 12.498 214.4268 12.498C 216.4546 12.498 218.6743 11.8506 220.0707 10.5531C 220.2596 10.3776 220.4347 10.1968 220.596 10C 220.7619 10.1968 220.9371 10.3776 221.1214 10.5531C 222.5179 11.8453 224.5595 12.4941 226.5873 12.4941C 228.6151 12.4941 230.6567 11.8506 232.0531 10.5531C 232.2421 10.3776 232.4173 10.1968 232.5786 10C 232.7445 10.1968 232.9196 10.3776 233.1039 10.5531C 234.5004 11.8453 236.542 12.4941 238.5698 12.4941C 240.5976 12.4941 242.6392 11.8506 244.0356 10.5531C 244.22 10.3776 244.3951 10.1968 244.5564 10C 244.7223 10.1968 244.8974 10.3776 245.0818 10.5531C 246.4782 11.8453 248.5199 12.4941 250.5477 12.4941C 252.5755 12.4941 254.6171 11.8506 256.0135 10.5531C 256.1978 10.3776 256.373 10.1968 256.5343 10C 256.7002 10.1968 256.8753 10.3776 257.0597 10.5531C 258.4561 11.8453 260.4977 12.4941 262.5255 12.4941C 264.5533 12.4941 266.595 11.8506 267.9914 10.5531C 268.1758 10.3776 268.3509 10.1968 268.5122 10C 268.6781 10.1968 268.8532 10.3776 269.0375 10.5531C 270.434 11.8453 272.4756 12.4941 274.5034 12.4941C 276.5312 12.4941 278.5729 11.8506 279.9693 10.5531C 280.1536 10.3776 280.3288 10.1968 280.4901 10C 280.656 10.1968 280.8311 10.3776 281.0154 10.5531C 282.4118 11.8453 284.4535 12.4941 286.4813 12.4941C 288.5091 12.4941 290.5507 11.8506 291.9471 10.5531C 292.1361 10.3776 292.3112 10.1968 292.4725 10C 292.6339 10.1968 292.809 10.3776 292.9933 10.5531C 294.3897 11.8453 296.4268 12.4941 298.4592 12.4941C 300.4916 12.4941 302.5286 11.8506 303.925 10.5531C 304.114 10.3776 304.2891 10.1968 304.4504 10C 304.6118 10.1968 304.7869 10.3776 304.9712 10.5531C 306.3676 11.8453 308.4093 12.4941 310.4371 12.4941C 312.4649 12.4941 314.5065 11.8506 315.903 10.5531C 316.0919 10.3776 316.267 10.1968 316.4283 10C 316.5943 10.1968 316.7693 10.3776 316.9537 10.5531C 318.3501 11.8453 320.4478 12.4941 322.4802 12.4941M 10.4802 12.4941L 10.4802 12.498M 10.4802 12.4941C 10.3204 12.4941 10.1602 12.4901 10 12.482M 322.4802 12.4941C 324.508 12.4941 326.5496 11.8506 327.946 10.5531C 328.135 10.3776 328.3101 10.1968 328.4714 10C 328.6374 10.1968 328.8125 10.3776 328.9968 10.5531C 330.3932 11.8453 332.4349 12.4941 334.4627 12.4941C 336.4905 12.4941 338.5322 11.8506 339.9286 10.5531C 340.1129 10.3776 340.288 10.1968 340.4493 10C 340.6153 10.1968 340.7904 10.3776 340.9747 10.5531C 342.3712 11.8453 344.4128 12.4941 346.4406 12.4941C 348.4684 12.4941 350.5101 11.8506 351.9065 10.5531C 352.0909 10.3776 352.2659 10.1968 352.4272 10C 352.5932 10.1968 352.7683 10.3776 352.9526 10.5531C 354.3491 11.8453 356.3907 12.4941 358.4185 12.4941C 360.4463 12.4941 362.4879 11.8506 363.8843 10.5531C 364.0687 10.3776 364.2438 10.1968 364.4052 10C 364.5711 10.1968 364.7461 10.3776 364.9305 10.5531C 366.3269 11.8453 368.3686 12.4941 370.3964 12.4941C 372.4242 12.4941 374.4658 11.8506 375.8622 10.5531C 376.0465 10.3776 376.2217 10.1968 376.383 10C 376.5489 10.1968 376.7241 10.3776 376.9084 10.5531C 378.3048 11.8453 380.3465 12.4941 382.3743 12.4941C 384.4021 12.4941 386.4437 11.8506 387.8401 10.5531C 388.0291 10.3776 388.2042 10.1968 388.3655 10C 388.5268 10.1968 388.7019 10.3776 388.8862 10.5531C 390.2827 11.8453 392.3197 12.4941 394.3521 12.4941C 396.3845 12.4941 398.4216 11.8506 399.818 10.5531C 400.007 10.3776 400.1821 10.1968 400.3434 10C 400.5047 10.1968 400.6798 10.3776 400.8641 10.5531C 402.2606 11.8453 404.3022 12.4941 406.33 12.4941C 408.3578 12.4941 410.3994 11.8506 411.7958 10.5531C 411.9848 10.3776 412.1599 10.1968 412.3212 10C 412.4871 10.1968 412.6623 10.3776 412.8466 10.5531C 414.243 11.8453 416.3409 12.498 418.3733 12.498C 420.4011 12.498 422.6208 11.8506 424.0173 10.5531C 424.2062 10.3776 424.3813 10.1968 424.5426 10C 424.7085 10.1968 424.8836 10.3776 425.068 10.5531C 426.4644 11.8453 428.5061 12.4941 430.5339 12.4941C 432.5617 12.4941 434.6033 11.8506 435.9998 10.5531C 436.1887 10.3776 436.3638 10.1968 436.5251 10C 436.691 10.1968 436.8662 10.3776 437.0505 10.5531C 438.447 11.8453 440.4886 12.4941 442.5164 12.4941C 444.5442 12.4941 446.5858 11.8506 447.9822 10.5531C 448.1666 10.3776 448.3417 10.1968 448.503 10C 448.6689 10.1968 448.8441 10.3776 449.0284 10.5531C 450.4248 11.8453 452.4665 12.4941 454.4943 12.4941C 455.5679 12.4941 456.6453 12.3137 457.6288 11.9514M 322.4802 12.4941L 322.4802 12.498"></path></g></g></g><g id="g-root--1.cu_9_sy_mgp7gauabztb-stroke" data-item-order="-345828" transform="translate(21, 276.9454345703125)"><g id="-1.cu_9_sy_mgp7gauabztb-stroke" fill="none" stroke-linecap="round" stroke-linejoin="round" stroke-miterlimit="4" stroke="#484848" stroke-width="2"><g><path d="M 10 12.0545C 13.3333 11.5545 20.6 10.8545 23 12.0545C 25.4 13.2545 28.3333 12.5545 29.5 12.0545C 31.1667 11.5545 35.4 10.8545 39 12.0545C 43.5 13.5545 50.5 13.0545 58 12.0545C 65.5 11.0545 77 12.0545 83.5 14.5545C 90 17.0545 88 17.5545 94.5 17.5545C 98.5 17.5545 109 25.1753 122 20.0545C 125.2069 18.7913 141.2471 23.429 143.2412 24.5726C 148.0515 29.4582 151.4234 26.2269 155.2669 28.9938C 162.4824 34.1882 173.8362 34.8922 178 34.5545C 182.1638 34.2168 195.9882 37.6411 202.5 43.0545C 208 47.6267 211.9117 51.6798 213.0601 54.7822C 214.822 59.5608 216.6557 64.2417 218.5254 68.8447C 220.8266 74.5009 223.2356 80.0011 225.6986 85.3843C 227.011 88.2319 228.3413 91.0405 229.7076 93.8101C 233.8605 102.2944 240.7461 103.4451 245.2945 111.2273C 246.9665 114.0749 246.1575 123.866 247.8833 126.6356C 252.7194 134.3592 257.7712 141.7123 263.0028 148.6558C 265.5916 152.0885 272.9805 153.2977 275.6592 156.5549C 281.0885 163.1473 278.6435 172.1778 284.4504 177.99C 288.0819 181.6178 295.0934 184.4264 298.8687 187.7421C 303.3452 191.7014 308.5768 192.2281 313.2151 195.7388C 317.6017 199.0545 321.413 205.3933 325.9614 208.2995C 328.9098 210.1914 334.5908 216.0621 337.5931 217.7785C 343.9573 221.4258 347.7327 220.6261 354.3485 223.4932C 359.5621 225.7557 363.805 223.7077 369.1624 225.5021C 372.3804 226.5748 376.6412 231.6264 379.8952 232.5236C 388.7403 234.9616 397.7652 236.7366 406.916 237.8483C 414.6105 238.7845 422.395 236.2294 430.2693 236.2294C 433.1098 236.2294 435.9324 237.6142 438.7549 237.4777C 443.6988 237.2632 448.6067 238.4529 453.4788 237.8677C 459.6632 237.1266 465.7757 236.0734 471.8163 234.7276C 477.8568 233.3818 484.257 231.6069 490.3695 229.5785C 494.0909 228.3302 497.7764 226.9844 501.4259 225.5021C 506.3159 223.5322 508.2036 219.2998 512.9677 216.9008C 521.4893 212.6294 533.7322 212.961 541.7863 207.3633C 545.2021 205.0033 547.5573 199.3081 550.8832 196.714C 557.8946 191.2334 566.3082 187.8591 572.9061 181.3642C 579.504 174.8693 584.0704 165.4683 590.1289 158.0958C 593.9582 153.4343 595.0368 139.1182 598.6863 134.0666C 604.4213 126.0894 612.5652 127.0841 617.8148 118.1512C 621.5002 111.8904 627.0374 109.7644 630.4532 103.0355C 633.869 96.3066 635.0195 85.2087 638.0938 78.1482C 639.6399 74.5985 645.9142 70.6001 647.3884 66.9333C 651.3435 57.1423 653.0662 53.6257 656.5 43.0545C 658.5854 36.6181 669 34.5545 676 34.5545C 680.1667 34.0747 689.1 32.7031 691.5 31.0545C 694.5 28.9938 711.5 20.0545 716 20.0545C 720.5 20.0545 729.5 15.5364 737.5 20.0545C 745.5 24.5726 766.5 20.0545 772 20.0545C 777.5 20.0545 783.5 12.5545 790 12.5545C 796.5 12.5545 799 10.0545 806.5 12.5545C 814 15.0545 822 12.5545 826 12.5545C 830 12.5545 835 10.5545 838.5 10.0545C 841.3 9.6545 847.3333 11.5545 850 12.5545"></path></g></g></g><g id="g-root-tx_transfor_4g22nuuaddl7-stroke" data-item-order="0" transform="translate(201, 39)"></g><g id="g-root-tx_orbitsca_dbp2wquadcsh-stroke" data-item-order="0" transform="translate(345, 111)"></g><g id="g-root-tx_confused_dbp2wquadcsi-stroke" data-item-order="0" transform="translate(15, 351)"></g><g id="g-root-tx_confiden_hril16uadc08-stroke" data-item-order="0" transform="translate(669, 363)"></g></g></g></svg>