<?xml version="1.0" encoding="utf-8" standalone="yes"?>
<!DOCTYPE svg PUBLIC "-//W3C//DTD SVG 1.1//EN" "http://www.w3.org/Graphics/SVG/1.1/DTD/svg11.dtd">
<svg width="206" height="378" viewBox="0 0 206 378" style="fill:none;stroke:none;fill-rule:evenodd;clip-rule:evenodd;stroke-linecap:round;stroke-linejoin:round;stroke-miterlimit:1.5;" version="1.1" xmlns="http://www.w3.org/2000/svg" xmlns:xlink="http://www.w3.org/1999/xlink"><style id="fontImports">@import url("https://fonts.googleapis.com/css2?family=Roboto:wght@400;700&amp;display=block");</style><g id="items" style="isolation: isolate"><g id="blend" style="mix-blend-mode:normal"><g id="g-root-ro_4gomiqjgw00e-fill" data-item-order="999985024" data-item-id="ro_4gomiqjgw00e" data-item-class="Shape Stroke Fill" data-item-index="none" data-renderer-id="0" transform="translate(15, 131)"><g id="ro_4gomiqjgw00e-fill" stroke="none" fill="#e6f9ff"><g><path d="M 22 10L 154 10C 154 10 166 10 166 22L 166 94C 166 94 166 106 154 106L 22 106C 22 106 10 106 10 94L 10 22C 10 22 10 10 22 10"></path></g></g></g><g id="g-root-ro_i09b0ijh09hg-fill" data-item-order="999987040" data-item-id="ro_i09b0ijh09hg" data-item-class="Shape Stroke Fill" data-item-index="none" data-renderer-id="0" transform="translate(3, 283)"><g id="ro_i09b0ijh09hg-fill" stroke="none" fill="#e6f9ff"><g><path d="M 22 10L 178 10C 178 10 190 10 190 22L 190 70C 190 70 190 82 178 82L 22 82C 22 82 10 82 10 70L 10 22C 10 22 10 10 22 10"></path></g></g></g><g id="g-root-ro_6he6ajghxj4-fill" data-item-order="999989632" data-item-id="ro_6he6ajghxj4" data-item-class="Shape Stroke Fill" data-item-index="none" data-renderer-id="0" transform="translate(21, 3)"><g id="ro_6he6ajghxj4-fill" stroke="none" fill="#f0f0f0"><g><path d="M 22 10L 142 10C 142 10 154 10 154 22L 154 70C 154 70 154 82 142 82L 22 82C 22 82 10 82 10 70L 10 22C 10 22 10 10 22 10"></path></g></g></g><g id="g-root-favo_4lof7mjghzwn-fill" data-item-order="1000000000" data-item-id="favo_4lof7mjghzwn" data-item-class="Icon Stroke" data-item-index="none" data-renderer-id="0" transform="translate(33, 24)"></g><g id="g-root-tx_mealplan_91hxc2jghz4e-fill" data-item-order="1000000000" data-item-id="tx_mealplan_91hxc2jghz4e" data-item-class="Label Stroke" data-item-index="none" data-renderer-id="0" transform="translate(69, 15)"><g id="tx_mealplan_91hxc2jghz4e-fill" stroke="none" fill="#484848"><g><text style="font: 20px Roboto, sans-serif; white-space: pre;" font-size="20px" font-family="Roboto, sans-serif"><tspan x="12" y="33.5" dominant-baseline="ideographic">Meal </tspan><tspan x="12" y="57.5" dominant-baseline="ideographic">Planning</tspan></text></g></g></g><g id="g-root-tx_creating_hrinsyjgw1l8-fill" data-item-order="1000000000" data-item-id="tx_creating_hrinsyjgw1l8" data-item-class="Label Stroke" data-item-index="none" data-renderer-id="0" transform="translate(63, 143)"><g id="tx_creating_hrinsyjgw1l8-fill" stroke="none" fill="#17b0e3"><g><text style="font: 20px Roboto, sans-serif; white-space: pre;" font-size="20px" font-family="Roboto, sans-serif"><tspan x="12" y="33.5" dominant-baseline="ideographic">Creating </tspan><tspan x="12" y="57.5" dominant-baseline="ideographic">Shopping </tspan><tspan x="12" y="81.5" dominant-baseline="ideographic">Lists</tspan></text></g></g></g><g id="g-root-2_dcbmrmjgvz7p-fill" data-item-order="1000000000" data-item-id="2_dcbmrmjgvz7p" data-item-class="Icon Stroke" data-item-index="none" data-renderer-id="0" transform="translate(27, 164)"></g><g id="g-root-sear_mg2t4yjh08p7-fill" data-item-order="1000000000" data-item-id="sear_mg2t4yjh08p7" data-item-class="Icon Stroke" data-item-index="none" data-renderer-id="0" transform="translate(15, 304)"></g><g id="g-root-tx_research_mg2t4yjh08p6-fill" data-item-order="1000000000" data-item-id="tx_research_mg2t4yjh08p6" data-item-class="Label Stroke" data-item-index="none" data-renderer-id="0" transform="translate(51, 295)"><g id="tx_research_mg2t4yjh08p6-fill" stroke="none" fill="#17b0e3"><g><text style="font: 20px Roboto, sans-serif; white-space: pre;" font-size="20px" font-family="Roboto, sans-serif"><tspan x="12" y="33.5" dominant-baseline="ideographic">Researching </tspan><tspan x="12" y="57.5" dominant-baseline="ideographic">Products</tspan></text></g></g></g><g id="g-root-cu_4pf9qajh07wl-fill" data-item-order="1000000002" data-item-id="cu_4pf9qajh07wl" data-item-class="Curve Stroke" data-item-index="none" data-renderer-id="0" transform="translate(93, 75)"></g><g id="g-root-cu_4pf9qajh07wo-fill" data-item-order="1000000002" data-item-id="cu_4pf9qajh07wo" data-item-class="Curve Stroke" data-item-index="none" data-renderer-id="0" transform="translate(93, 227)"></g><g id="g-root-ro_4gomiqjgw00e-stroke" data-item-order="999985024" data-item-id="ro_4gomiqjgw00e" data-item-class="Shape Stroke Fill" data-item-index="none" data-renderer-id="0" transform="translate(15, 131)"><g id="ro_4gomiqjgw00e-stroke" fill="none" stroke-linecap="round" stroke-linejoin="round" stroke-miterlimit="4" stroke="#17b0e3" stroke-width="2"><g><path d="M 22 10L 154 10C 154 10 166 10 166 22L 166 94C 166 94 166 106 154 106L 22 106C 22 106 10 106 10 94L 10 22C 10 22 10 10 22 10"></path></g></g></g><g id="g-root-ro_i09b0ijh09hg-stroke" data-item-order="999987040" data-item-id="ro_i09b0ijh09hg" data-item-class="Shape Stroke Fill" data-item-index="none" data-renderer-id="0" transform="translate(3, 283)"><g id="ro_i09b0ijh09hg-stroke" fill="none" stroke-linecap="round" stroke-linejoin="round" stroke-miterlimit="4" stroke="#17b0e3" stroke-width="2"><g><path d="M 22 10L 178 10C 178 10 190 10 190 22L 190 70C 190 70 190 82 178 82L 22 82C 22 82 10 82 10 70L 10 22C 10 22 10 10 22 10"></path></g></g></g><g id="g-root-ro_6he6ajghxj4-stroke" data-item-order="999989632" data-item-id="ro_6he6ajghxj4" data-item-class="Shape Stroke Fill" data-item-index="none" data-renderer-id="0" transform="translate(21, 3)"><g id="ro_6he6ajghxj4-stroke" fill="none" stroke-linecap="round" stroke-linejoin="round" stroke-miterlimit="4" stroke="#484848" stroke-width="2"><g><path d="M 22 10L 142 10C 142 10 154 10 154 22L 154 70C 154 70 154 82 142 82L 22 82C 22 82 10 82 10 70L 10 22C 10 22 10 10 22 10"></path></g></g></g><g id="g-root-favo_4lof7mjghzwn-stroke" data-item-order="1000000000" data-item-id="favo_4lof7mjghzwn" data-item-class="Icon Stroke" data-item-index="none" data-renderer-id="0" transform="translate(33, 24)"><g id="favo_4lof7mjghzwn-stroke" fill="none" stroke-linecap="round" stroke-linejoin="round" stroke-miterlimit="4" stroke="#484848" stroke-width="2"><g><path d="M 13.214286 15.357142C 12.030818 15.357142 11.071428 16.316532 11.071428 17.5L 11.071428 36.785713C 11.071428 37.969181 12.030818 38.92857 13.214286 38.92857L 36.785713 38.92857C 37.969181 38.92857 38.92857 37.969181 38.92857 36.785713L 38.92857 17.5C 38.92857 16.316532 37.969181 15.357142 36.785713 15.357142L 32.5 15.357142M 17.5 11.071428L 17.5 19.642857M 32.5 11.071428L 32.5 19.642857M 17.5 15.357142L 28.214285 15.357142M 23.821428 21.507143C 24.010237 21.020847 24.478336 20.700445 25 20.700445C 25.521662 20.700445 25.989763 21.020847 26.17857 21.507143L 27.549999 25L 31.214285 25C 31.703093 25.037298 32.128151 25.349319 32.310215 25.804485C 32.492279 26.259649 32.399666 26.778738 32.071426 27.142857L 28.835714 30.057142L 30.207144 32.799999C 30.46225 33.294823 30.357187 33.89893 29.949999 34.278572C 29.546614 34.662067 28.944628 34.748066 28.449999 34.492859L 25 32.607143L 21.549999 34.492859C 21.055372 34.748066 20.453384 34.662067 20.049999 34.278572C 19.642809 33.89893 19.537748 33.294823 19.792856 32.799999L 21.164286 30.057142L 17.928572 27.142857C 17.600332 26.778738 17.507717 26.259649 17.689783 25.804485C 17.871849 25.349319 18.296907 25.037298 18.785713 25L 22.449999 25Z"></path></g></g></g><g id="g-root-tx_mealplan_91hxc2jghz4e-stroke" data-item-order="1000000000" data-item-id="tx_mealplan_91hxc2jghz4e" data-item-class="Label Stroke" data-item-index="none" data-renderer-id="0" transform="translate(69, 15)"></g><g id="g-root-tx_creating_hrinsyjgw1l8-stroke" data-item-order="1000000000" data-item-id="tx_creating_hrinsyjgw1l8" data-item-class="Label Stroke" data-item-index="none" data-renderer-id="0" transform="translate(63, 143)"></g><g id="g-root-2_dcbmrmjgvz7p-stroke" data-item-order="1000000000" data-item-id="2_dcbmrmjgvz7p" data-item-class="Icon Stroke" data-item-index="none" data-renderer-id="0" transform="translate(27, 164)"><g id="2_dcbmrmjgvz7p-stroke" fill="none" stroke-linecap="round" stroke-linejoin="round" stroke-miterlimit="4" stroke="#17b0e3" stroke-width="2"><g><path d="M 13.9 26.071428L 31.42857 26.071428L 33.571426 15.357142L 12.142857 15.357142C 11.825629 15.358306 11.525225 15.499986 11.322546 15.744027C 11.119867 15.98807 11.035753 16.30938 11.092857 16.621428L 12.85 25.192858C 12.934705 25.705002 13.380943 26.078386 13.9 26.071428ZM 33.571426 15.357142L 34.471428 11.928572C 34.573269 11.429644 35.012211 11.071324 35.521427 11.071428L 38.92857 11.071428M 31.42857 26.071428L 30.52857 30.571428C 30.426729 31.070356 29.987785 31.428675 29.478571 31.42857L 16.428572 31.42857M 16.428572 37.857143C 16.428572 38.448875 16.908266 38.92857 17.5 38.92857C 18.091734 38.92857 18.571428 38.448875 18.571428 37.857143C 18.571428 37.265408 18.091734 36.785713 17.5 36.785713C 16.908266 36.785713 16.428572 37.265408 16.428572 37.857143M 27.142857 37.857143C 27.142857 38.448875 27.622553 38.92857 28.214285 38.92857C 28.806019 38.92857 29.285713 38.448875 29.285713 37.857143C 29.285713 37.265408 28.806019 36.785713 28.214285 36.785713C 27.622553 36.785713 27.142857 37.265408 27.142857 37.857143"></path></g></g></g><g id="g-root-sear_mg2t4yjh08p7-stroke" data-item-order="1000000000" data-item-id="sear_mg2t4yjh08p7" data-item-class="Icon Stroke" data-item-index="none" data-renderer-id="0" transform="translate(15, 304)"><g id="sear_mg2t4yjh08p7-stroke" fill="none" stroke-linecap="round" stroke-linejoin="round" stroke-miterlimit="4" stroke="#17b0e3" stroke-width="2"><g><path d="M 11.071428 22.685715C 11.070206 29.100971 16.270456 34.302216 22.685715 34.302216C 29.100971 34.302216 34.30122 29.100971 34.299999 22.685715C 34.30122 16.270456 29.100971 11.069214 22.685715 11.069214C 16.270456 11.069214 11.070206 16.270456 11.071428 22.685715M 38.92857 38.92857L 30.892857 30.892857"></path></g></g></g><g id="g-root-tx_research_mg2t4yjh08p6-stroke" data-item-order="1000000000" data-item-id="tx_research_mg2t4yjh08p6" data-item-class="Label Stroke" data-item-index="none" data-renderer-id="0" transform="translate(51, 295)"></g><g id="g-root-cu_4pf9qajh07wl-stroke" data-item-order="1000000002" data-item-id="cu_4pf9qajh07wl" data-item-class="Curve Stroke" data-item-index="none" data-renderer-id="0" transform="translate(93, 75)"><g id="cu_4pf9qajh07wl-stroke" fill="none" stroke-linecap="round" stroke-linejoin="round" stroke-miterlimit="4" stroke="#484848" stroke-width="2"><g><path d="M 10 10L 10 38L 10 64"></path><path d="M 3.5 58L 10 64.5L 16.5 58" stroke-dasharray="none"></path></g></g></g><g id="g-root-cu_4pf9qajh07wo-stroke" data-item-order="1000000002" data-item-id="cu_4pf9qajh07wo" data-item-class="Curve Stroke" data-item-index="none" data-renderer-id="0" transform="translate(93, 227)"><g id="cu_4pf9qajh07wo-stroke" fill="none" stroke-linecap="round" stroke-linejoin="round" stroke-miterlimit="4" stroke="#484848" stroke-width="2"><g><path d="M 10 10L 10 38L 10 64"></path><path d="M 3.5 58L 10 64.5L 16.5 58" stroke-dasharray="none"></path></g></g></g></g></g></svg>