<?xml version="1.0" encoding="utf-8" standalone="yes"?>
<!DOCTYPE svg PUBLIC "-//W3C//DTD SVG 1.1//EN" "http://www.w3.org/Graphics/SVG/1.1/DTD/svg11.dtd">
<svg width="660" height="492" viewBox="0 0 660 492" style="fill:none;stroke:none;fill-rule:evenodd;clip-rule:evenodd;stroke-linecap:round;stroke-linejoin:round;stroke-miterlimit:1.5;" version="1.1" xmlns="http://www.w3.org/2000/svg" xmlns:xlink="http://www.w3.org/1999/xlink"><style id="fontImports">@import url("https://fonts.googleapis.com/css2?family=Roboto:wght@400;700&amp;display=block");</style><g id="items" style="isolation: isolate"><g id="blend" style="mix-blend-mode:normal"><g id="g-root--1.cu_sy_1uonhhqct04cs-fill" data-item-order="999882545" data-item-id="-1.cu_sy_1uonhhqct04cs" data-item-class="Part Stroke ColorStrokeGray" data-item-index="-1" data-renderer-id="0" transform="translate(171.2357177734375, 123.23583984375)"></g><g id="g-root-0.cu_sy_1uonhhqct04ct-fill" data-item-order="999882548" data-item-id="0.cu_sy_1uonhhqct04ct" data-item-class="Part Indexed_0 Fill Stroke" data-item-index="0" data-renderer-id="0" transform="translate(265.9999694824219, 218)"></g><g id="g-root-8.cu_sy_1uonhhqct04cu-fill" data-item-order="999882552" data-item-id="8.cu_sy_1uonhhqct04cu" data-item-class="Part Indexed Fill Stroke" data-item-index="8" data-renderer-id="0" transform="translate(230.294921875, 97.868408203125)"></g><g id="g-root-7.cu_sy_1q8tzdact0553-fill" data-item-order="999882556" data-item-id="7.cu_sy_1q8tzdact0553" data-item-class="Part Indexed Fill Stroke" data-item-index="7" data-renderer-id="0" transform="translate(145.86865234375, 182.295166015625)"></g><g id="g-root-6.cu_sy_1q8tzdact0554-fill" data-item-order="999882560" data-item-id="6.cu_sy_1q8tzdact0554" data-item-class="Part Indexed Fill Stroke" data-item-index="6" data-renderer-id="0" transform="translate(145.86865234375, 301.6923828125)"></g><g id="g-root-5.cu_sy_1lt0h8uct05xd-fill" data-item-order="999882564" data-item-id="5.cu_sy_1lt0h8uct05xd" data-item-class="Part Indexed Fill Stroke" data-item-index="5" data-renderer-id="0" transform="translate(230.294921875, 386.119140625)"></g><g id="g-root-4.cu_sy_1lt0h8uct05xe-fill" data-item-order="999882568" data-item-id="4.cu_sy_1lt0h8uct05xe" data-item-class="Part Indexed Fill Stroke" data-item-index="4" data-renderer-id="0" transform="translate(349.6923828125, 386.119140625)"></g><g id="g-root-3.cu_sy_1lt0h8uct05xf-fill" data-item-order="999882572" data-item-id="3.cu_sy_1lt0h8uct05xf" data-item-class="Part Indexed Fill Stroke" data-item-index="3" data-renderer-id="0" transform="translate(434.11865234375, 301.6923828125)"></g><g id="g-root-2.cu_sy_1cxdgzyct06q4-fill" data-item-order="999882576" data-item-id="2.cu_sy_1cxdgzyct06q4" data-item-class="Part Indexed Fill Stroke" data-item-index="2" data-renderer-id="0" transform="translate(434.119140625, 182.295166015625)"></g><g id="g-root-1.cu_sy_1cxdgzyct06q5-fill" data-item-order="999882580" data-item-id="1.cu_sy_1cxdgzyct06q5" data-item-class="Part Indexed Indexed_1 Fill Stroke" data-item-index="1" data-renderer-id="0" transform="translate(349.6923828125, 97.86865234375)"></g><g id="g-root-like_zlahjict4dfu-fill" data-item-order="1000000000" data-item-id="like_zlahjict4dfu" data-item-class="Icon Stroke Indexed InsideFill InsideColorFill" data-item-index="7" data-renderer-id="0" transform="translate(158, 194)"></g><g id="g-root-tx_confiden_1ly0d3icsxbm5-fill" data-item-order="1000000000" data-item-id="tx_confiden_1ly0d3icsxbm5" data-item-class="Label Stroke Indexed ColorStrokeBlack" data-item-index="7" data-renderer-id="0" transform="translate(38, 170)"><g id="tx_confiden_1ly0d3icsxbm5-fill" stroke="none" fill="#484848"><g><text style="font: 20px Roboto, sans-serif; white-space: pre;" font-size="20px" font-family="Roboto, sans-serif"><tspan x="18.02" y="33.5" dominant-baseline="ideographic">Confident </tspan><tspan x="21.84" y="57.5" dominant-baseline="ideographic">Decision-</tspan><tspan x="38.41" y="81.5" dominant-baseline="ideographic">Making</tspan></text></g></g></g><g id="g-root-plus_140hlqmcsuhoh-fill" data-item-order="1000000000" data-item-id="plus_140hlqmcsuhoh" data-item-class="Icon Stroke Indexed InsideFill InsideColorFill" data-item-index="2" data-renderer-id="0" transform="translate(446, 194)"></g><g id="g-root-tx_instanth_147ctoucsxatm-fill" data-item-order="1000000000" data-item-id="tx_instanth_147ctoucsxatm" data-item-class="Label Stroke Indexed ColorStrokeBlack" data-item-index="2" data-renderer-id="0" transform="translate(494, 182)"><g id="tx_instanth_147ctoucsxatm-fill" stroke="none" fill="#484848"><g><text style="font: 20px Roboto, sans-serif; white-space: pre;" font-size="20px" font-family="Roboto, sans-serif"><tspan x="12" y="33.5" dominant-baseline="ideographic">Instant Health </tspan><tspan x="12" y="57.5" dominant-baseline="ideographic">Ratings</tspan></text></g></g></g><g id="g-root-scan_908z7ycsvwg1-fill" data-item-order="1000000000" data-item-id="scan_908z7ycsvwg1" data-item-class="Icon Stroke Indexed Indexed_1 InsideFill InsideColorFill" data-item-index="1" data-renderer-id="0" transform="translate(362, 110)"></g><g id="g-root-phon_1utndcecsxatf-fill" data-item-order="1000000000" data-item-id="phon_1utndcecsxatf" data-item-class="Icon Stroke Indexed Indexed_0 InsideFill InsideColorFill" data-item-index="0" data-renderer-id="0" transform="translate(290, 242)"></g><g id="g-root-sear_73s5qct2y2s-fill" data-item-order="1000000000" data-item-id="sear_73s5qct2y2s" data-item-class="Icon Stroke Indexed InsideFill InsideColorFill" data-item-index="8" data-renderer-id="0" transform="translate(242, 110)"></g><g id="g-root-tx_timesavi_1hi6uz2csxcee-fill" data-item-order="1000000000" data-item-id="tx_timesavi_1hi6uz2csxcee" data-item-class="Label Stroke Indexed ColorStrokeBlack" data-item-index="6" data-renderer-id="0" transform="translate(2, 314)"><g id="tx_timesavi_1hi6uz2csxcee-fill" stroke="none" fill="#484848"><g><text style="font: 20px Roboto, sans-serif; white-space: pre;" font-size="20px" font-family="Roboto, sans-serif"><tspan x="20.43" y="33.5" dominant-baseline="ideographic">Time Savings</tspan></text></g></g></g><g id="g-root-3_73s5qct4c99-fill" data-item-order="1000000000" data-item-id="3_73s5qct4c99" data-item-class="Icon Stroke Indexed InsideFill InsideColorFill" data-item-index="6" data-renderer-id="0" transform="translate(158, 314)"></g><g id="g-root-bag_90vgb2csq9zf-fill" data-item-order="1000000000" data-item-id="bag_90vgb2csq9zf" data-item-class="Icon Stroke Indexed InsideFill InsideColorFill" data-item-index="3" data-renderer-id="0" transform="translate(446, 314)"></g><g id="g-root-tx_ingredie_1d2dcumcsxd6p-fill" data-item-order="1000000000" data-item-id="tx_ingredie_1d2dcumcsxd6p" data-item-class="Label Stroke Indexed ColorStrokeBlack" data-item-index="3" data-renderer-id="0" transform="translate(494, 302)"><g id="tx_ingredie_1d2dcumcsxd6p-fill" stroke="none" fill="#484848"><g><text style="font: 20px Roboto, sans-serif; white-space: pre;" font-size="20px" font-family="Roboto, sans-serif"><tspan x="12" y="33.5" dominant-baseline="ideographic">Ingredient </tspan><tspan x="12" y="57.5" dominant-baseline="ideographic">Explanations</tspan></text></g></g></g><g id="g-root-tx_nutritio_1hi6uz2csxcef-fill" data-item-order="1000000000" data-item-id="tx_nutritio_1hi6uz2csxcef" data-item-class="Label Stroke Indexed ColorStrokeBlack" data-item-index="5" data-renderer-id="0" transform="translate(110, 398)"><g id="tx_nutritio_1hi6uz2csxcef-fill" stroke="none" fill="#484848"><g><text style="font: 20px Roboto, sans-serif; white-space: pre;" font-size="20px" font-family="Roboto, sans-serif"><tspan x="23" y="33.5" dominant-baseline="ideographic">Nutritional </tspan><tspan x="38.85" y="57.5" dominant-baseline="ideographic">Learning</tspan></text></g></g></g><g id="g-root-tx_scanning_147ctoucsxatn-fill" data-item-order="1000000000" data-item-id="tx_scanning_147ctoucsxatn" data-item-class="Label Stroke Indexed Indexed_1 ColorStrokeBlack" data-item-index="1" data-renderer-id="0" transform="translate(410, 62)"><g id="tx_scanning_147ctoucsxatn-fill" stroke="none" fill="#484848"><g><text style="font: 20px Roboto, sans-serif; white-space: pre;" font-size="20px" font-family="Roboto, sans-serif"><tspan x="12" y="33.5" dominant-baseline="ideographic">Scanning </tspan><tspan x="12" y="57.5" dominant-baseline="ideographic">Product </tspan><tspan x="12" y="81.5" dominant-baseline="ideographic">Barcodes</tspan></text></g></g></g><g id="g-root-scal_1hfovguct5qfi-fill" data-item-order="1000000000" data-item-id="scal_1hfovguct5qfi" data-item-class="Icon Stroke Indexed InsideFill InsideColorFill" data-item-index="5" data-renderer-id="0" transform="translate(242, 398)"></g><g id="g-root-tx_betterin_1utndcecsxatg-fill" data-item-order="1000000000" data-item-id="tx_betterin_1utndcecsxatg" data-item-class="Label Stroke Indexed ColorStrokeBlack" data-item-index="8" data-renderer-id="0" transform="translate(74, 62)"><g id="tx_betterin_1utndcecsxatg-fill" stroke="none" fill="#484848"><g><text style="font: 20px Roboto, sans-serif; white-space: pre;" font-size="20px" font-family="Roboto, sans-serif"><tspan x="98.52" y="33.5" dominant-baseline="ideographic">Better </tspan><tspan x="62.83" y="57.5" dominant-baseline="ideographic">Ingredient </tspan><tspan x="22.2" y="81.5" dominant-baseline="ideographic">Understanding</tspan></text></g></g></g><g id="g-root-awar_zpnt5acta0pb-fill" data-item-order="1000000000" data-item-id="awar_zpnt5acta0pb" data-item-class="Icon Stroke Indexed InsideFill InsideColorFill" data-item-index="4" data-renderer-id="0" transform="translate(362, 398)"></g><g id="g-root-tx_thebenef_147ctoucsxato-fill" data-item-order="1000000000" data-item-id="tx_thebenef_147ctoucsxato" data-item-class="Label Stroke Title ColorStrokeBlack" data-item-index="none" data-renderer-id="0" transform="translate(170, 2)"><g id="tx_thebenef_147ctoucsxato-fill" stroke="none" fill="#484848"><g><text style="font: 20px Roboto, sans-serif; white-space: pre;" font-size="20px" font-family="Roboto, sans-serif"><tspan x="12.97" y="33.5" dominant-baseline="ideographic">The Benefits of Using OrbitScan</tspan></text></g></g></g><g id="g-root-tx_alternat_1d2dcumcsxd6o-fill" data-item-order="1000000000" data-item-id="tx_alternat_1d2dcumcsxd6o" data-item-class="Label Stroke Indexed ColorStrokeBlack" data-item-index="4" data-renderer-id="0" transform="translate(410, 398)"><g id="tx_alternat_1d2dcumcsxd6o-fill" stroke="none" fill="#484848"><g><text style="font: 20px Roboto, sans-serif; white-space: pre;" font-size="20px" font-family="Roboto, sans-serif"><tspan x="12" y="33.5" dominant-baseline="ideographic">Alternative </tspan><tspan x="12" y="57.5" dominant-baseline="ideographic">Product </tspan><tspan x="12" y="81.5" dominant-baseline="ideographic">Suggestions</tspan></text></g></g></g><g id="g-root--1.cu_sy_1uonhhqct04cs-stroke" data-item-order="999882545" data-item-id="-1.cu_sy_1uonhhqct04cs" data-item-class="Part Stroke ColorStrokeGray" data-item-index="-1" data-renderer-id="0" transform="translate(171.2357177734375, 123.23583984375)"><g id="-1.cu_sy_1uonhhqct04cs-stroke" fill="none" stroke-linecap="round" stroke-linejoin="round" stroke-miterlimit="4" stroke="#888888" stroke-width="2" stroke-dasharray="5.0, 7.0"><g><path d="M 10.005371 188.496651C 22.253971 159.118851 68.513571 122.718551 129.803471 97.331451C 191.091371 71.945251 249.538771 64.973251 278.974071 77.083751M 295.528371 117.020351C 283.287071 146.400151 237.023371 182.806551 175.725471 208.197051C 114.425471 233.588351 55.966971 240.558051 26.537371 228.437551M 77.087536 26.5455C 64.971736 55.9777 71.942536 114.431 97.331436 175.7253C 122.718336 237.0147 159.118236 283.2741 188.495936 295.5231M 228.441436 278.982C 240.556536 249.5494 233.585636 191.0968 208.197036 129.8033C 182.806336 68.5047 146.399336 22.2407 117.019336 10M 117.020136 295.527982C 146.399936 283.286782 182.806536 237.023082 208.197036 175.724982C 233.588236 114.425182 240.557936 55.966882 228.437636 26.537182M 77.083736 278.973482C 64.973236 249.538282 71.945236 191.090782 97.331436 129.802982C 122.718636 68.513082 159.118836 22.253482 188.496636 10.004882M 10 117.019451C 22.2408 146.399451 68.5047 182.806351 129.8032 208.197051C 191.0968 233.585651 249.5494 240.556551 278.982 228.441451M 295.5229 188.495751C 283.2738 159.118151 237.0145 122.718351 175.7253 97.331451C 114.4311 71.942651 55.978 64.971851 26.5456 77.087451"></path></g></g></g><g id="g-root-0.cu_sy_1uonhhqct04ct-stroke" data-item-order="999882548" data-item-id="0.cu_sy_1uonhhqct04ct" data-item-class="Part Indexed_0 Fill Stroke" data-item-index="0" data-renderer-id="0" transform="translate(265.9999694824219, 218)"><g id="0.cu_sy_1uonhhqct04ct-stroke" fill="none" stroke-linecap="round" stroke-linejoin="round" stroke-miterlimit="4" stroke="#4682e3" stroke-width="2"><g><path d="M 102.358831 39.643831C 112.503631 64.135531 100.873131 92.214031 76.381431 102.358831C 51.889631 112.503631 23.811231 100.873131 13.666331 76.381431C 3.521531 51.889631 15.152031 23.811231 39.643831 13.666331C 64.135531 3.521531 92.214031 15.152031 102.358831 39.643831Z"></path></g></g></g><g id="g-root-8.cu_sy_1uonhhqct04cu-stroke" data-item-order="999882552" data-item-id="8.cu_sy_1uonhhqct04cu" data-item-class="Part Indexed Fill Stroke" data-item-index="8" data-renderer-id="0" transform="translate(230.294921875, 97.868408203125)"><g id="8.cu_sy_1uonhhqct04cu-stroke" fill="none" stroke-linecap="round" stroke-linejoin="round" stroke-miterlimit="4" stroke="#b65edf" stroke-width="2"><g><path d="M 43.182 56.167307C 30.9393 61.238407 16.9038 55.424707 11.8327 43.182007C 6.7616 30.939307 12.5753 16.903807 24.818 11.832707C 37.0607 6.761607 51.0962 12.575307 56.1673 24.818007C 61.2384 37.060707 55.4247 51.096207 43.182 56.167307Z"></path></g></g></g><g id="g-root-7.cu_sy_1q8tzdact0553-stroke" data-item-order="999882556" data-item-id="7.cu_sy_1q8tzdact0553" data-item-class="Part Indexed Fill Stroke" data-item-index="7" data-renderer-id="0" transform="translate(145.86865234375, 182.295166015625)"><g id="7.cu_sy_1q8tzdact0553-stroke" fill="none" stroke-linecap="round" stroke-linejoin="round" stroke-miterlimit="4" stroke="#da5da8" stroke-width="2"><g><path d="M 56.167315 43.182015C 51.096215 55.424715 37.060715 61.238415 24.818015 56.167315C 12.575315 51.096215 6.761615 37.060715 11.832715 24.818015C 16.903815 12.575315 30.939315 6.761615 43.182015 11.832715C 55.424715 16.903815 61.238415 30.939315 56.167315 43.182015Z"></path></g></g></g><g id="g-root-6.cu_sy_1q8tzdact0554-stroke" data-item-order="999882560" data-item-id="6.cu_sy_1q8tzdact0554" data-item-class="Part Indexed Fill Stroke" data-item-index="6" data-renderer-id="0" transform="translate(145.86865234375, 301.6923828125)"><g id="6.cu_sy_1q8tzdact0554-stroke" fill="none" stroke-linecap="round" stroke-linejoin="round" stroke-miterlimit="4" stroke="#e15e5a" stroke-width="2"><g><path d="M 56.1673 24.818C 61.2384 37.0607 55.4247 51.0962 43.182 56.1673C 30.9393 61.2384 16.9038 55.4247 11.8327 43.182C 6.7616 30.9393 12.5753 16.9038 24.818 11.8327C 37.0607 6.7616 51.0962 12.5753 56.1673 24.818Z"></path></g></g></g><g id="g-root-5.cu_sy_1lt0h8uct05xd-stroke" data-item-order="999882564" data-item-id="5.cu_sy_1lt0h8uct05xd" data-item-class="Part Indexed Fill Stroke" data-item-index="5" data-renderer-id="0" transform="translate(230.294921875, 386.119140625)"><g id="5.cu_sy_1lt0h8uct05xd-stroke" fill="none" stroke-linecap="round" stroke-linejoin="round" stroke-miterlimit="4" stroke="#dd8433" stroke-width="2"><g><path d="M 24.818 56.1673C 12.5753 51.0962 6.7616 37.0607 11.8327 24.818C 16.9038 12.5753 30.9393 6.7616 43.182 11.8327C 55.4247 16.9038 61.2384 30.9393 56.1673 43.182C 51.0962 55.4247 37.0607 61.2384 24.818 56.1673Z"></path></g></g></g><g id="g-root-4.cu_sy_1lt0h8uct05xe-stroke" data-item-order="999882568" data-item-id="4.cu_sy_1lt0h8uct05xe" data-item-class="Part Indexed Fill Stroke" data-item-index="4" data-renderer-id="0" transform="translate(349.6923828125, 386.119140625)"><g id="4.cu_sy_1lt0h8uct05xe-stroke" fill="none" stroke-linecap="round" stroke-linejoin="round" stroke-miterlimit="4" stroke="#e3cd09" stroke-width="2"><g><path d="M 43.182 56.1673C 30.9393 61.2384 16.9038 55.4247 11.8327 43.182C 6.7616 30.9393 12.5753 16.9038 24.818 11.8327C 37.0607 6.7616 51.0962 12.5753 56.1673 24.818C 61.2384 37.0607 55.4247 51.0962 43.182 56.1673Z"></path></g></g></g><g id="g-root-3.cu_sy_1lt0h8uct05xf-stroke" data-item-order="999882572" data-item-id="3.cu_sy_1lt0h8uct05xf" data-item-class="Part Indexed Fill Stroke" data-item-index="3" data-renderer-id="0" transform="translate(434.11865234375, 301.6923828125)"><g id="3.cu_sy_1lt0h8uct05xf-stroke" fill="none" stroke-linecap="round" stroke-linejoin="round" stroke-miterlimit="4" stroke="#93c131" stroke-width="2"><g><path d="M 56.1673 43.182C 51.0962 55.4247 37.0607 61.2384 24.818 56.1673C 12.5753 51.0962 6.7616 37.0607 11.8327 24.818C 16.9038 12.5753 30.9393 6.7616 43.182 11.8327C 55.4247 16.9038 61.2384 30.9393 56.1673 43.182Z"></path></g></g></g><g id="g-root-2.cu_sy_1cxdgzyct06q4-stroke" data-item-order="999882576" data-item-id="2.cu_sy_1cxdgzyct06q4" data-item-class="Part Indexed Fill Stroke" data-item-index="2" data-renderer-id="0" transform="translate(434.119140625, 182.295166015625)"><g id="2.cu_sy_1cxdgzyct06q4-stroke" fill="none" stroke-linecap="round" stroke-linejoin="round" stroke-miterlimit="4" stroke="#3bc482" stroke-width="2"><g><path d="M 56.1673 24.818C 61.2384 37.0607 55.4247 51.0962 43.182 56.1673C 30.9393 61.2384 16.9038 55.4247 11.8327 43.182C 6.7616 30.9393 12.5753 16.9038 24.818 11.8327C 37.0607 6.7616 51.0962 12.5753 56.1673 24.818Z"></path></g></g></g><g id="g-root-1.cu_sy_1cxdgzyct06q5-stroke" data-item-order="999882580" data-item-id="1.cu_sy_1cxdgzyct06q5" data-item-class="Part Indexed Indexed_1 Fill Stroke" data-item-index="1" data-renderer-id="0" transform="translate(349.6923828125, 97.86865234375)"><g id="1.cu_sy_1cxdgzyct06q5-stroke" fill="none" stroke-linecap="round" stroke-linejoin="round" stroke-miterlimit="4" stroke="#17b0e3" stroke-width="2"><g><path d="M 24.818 56.167307C 12.5753 51.096207 6.7616 37.060707 11.8327 24.818007C 16.9038 12.575307 30.9393 6.761607 43.182 11.832707C 55.4247 16.903807 61.2384 30.939307 56.1673 43.182007C 51.0962 55.424707 37.0607 61.238407 24.818 56.167307Z"></path></g></g></g><g id="g-root-like_zlahjict4dfu-stroke" data-item-order="1000000000" data-item-id="like_zlahjict4dfu" data-item-class="Icon Stroke Indexed InsideFill InsideColorFill" data-item-index="7" data-renderer-id="0" transform="translate(158, 194)"><g id="like_zlahjict4dfu-stroke" fill="none" stroke-linecap="round" stroke-linejoin="round" stroke-miterlimit="4" stroke="#da5da8" stroke-width="2"><g><path d="M 11.5 31.692C 11.696 31.792667 11.892667 31.892667 12.09 31.992C 15.727 33.83 15.549 33.472 18.663 33.472C 19.963 33.472 20.624 32.626 21.008 31.387L 21.008 31.379L 21.953 28.225L 21.953 28.219C 22.044092 27.919272 21.987492 27.594099 21.800482 27.34278C 21.613472 27.091461 21.318261 26.943841 21.005 26.944999L 18.579 26.945C 18.272291 26.944157 17.982932 26.802611 17.794 26.561C 17.606137 26.318967 17.542142 26.003062 17.621 25.706999L 18.058 24.058C 18.126908 23.798217 18.067031 23.521146 17.897 23.313C 17.729106 23.107238 17.474779 22.991651 17.209358 23.000479C 16.943936 23.009307 16.697852 23.141537 16.544 23.358001L 14.121 26.774C 13.934561 27.036212 13.632737 27.191967 13.311 27.191999L 11.5 27.192M 10.5 26.5L 11.5 26.5L 11.5 33.5L 10.5 33.5M 14.232 10.5C 13.81724 10.500202 13.445655 10.756413 13.298 11.144L 11.718 15.292C 11.547223 15.736785 11.54084 16.227927 11.7 16.677C 12.151904 17.934918 13.442593 18.685984 14.759526 18.45737C 16.076458 18.228757 17.038497 17.086627 17.04 15.75C 17.04 17.268783 18.271217 18.5 19.79 18.5C 21.308783 18.5 22.54 17.268783 22.54 15.75C 22.54 17.268783 23.771217 18.5 25.29 18.5C 26.808784 18.5 28.04 17.268783 28.04 15.75C 28.041502 17.086627 29.003541 18.228757 30.320473 18.45737C 31.637405 18.685984 32.928095 17.934918 33.379999 16.677C 33.540976 16.228492 33.53601 15.737163 33.366001 15.292L 31.786 11.144C 31.638607 10.757095 31.268028 10.50103 30.854 10.5ZM 23.5 30.5L 31.5 30.5L 31.5 18.408M 24.5 30.5L 24.5 22.5C 24.5 21.947715 24.947715 21.5 25.5 21.5L 28.5 21.5C 29.052285 21.5 29.5 21.947715 29.5 22.5L 29.5 30.5M 13.5 22L 13.5 18.384"></path></g></g></g><g id="g-root-tx_confiden_1ly0d3icsxbm5-stroke" data-item-order="1000000000" data-item-id="tx_confiden_1ly0d3icsxbm5" data-item-class="Label Stroke Indexed ColorStrokeBlack" data-item-index="7" data-renderer-id="0" transform="translate(38, 170)"></g><g id="g-root-plus_140hlqmcsuhoh-stroke" data-item-order="1000000000" data-item-id="plus_140hlqmcsuhoh" data-item-class="Icon Stroke Indexed InsideFill InsideColorFill" data-item-index="2" data-renderer-id="0" transform="translate(446, 194)"><g id="plus_140hlqmcsuhoh-stroke" fill="none" stroke-linecap="round" stroke-linejoin="round" stroke-miterlimit="4" stroke="#3bc482" stroke-width="2"><g><path d="M 33.5 15.5L 10.5 15.5L 10.5 31.5C 10.5 32.604569 11.395431 33.5 12.5 33.5L 31.5 33.5C 32.604569 33.5 33.5 32.604569 33.5 31.5ZM 33.5 15.5L 10.5 15.5L 10.5 12.5C 10.5 11.395431 11.395431 10.5 12.5 10.5L 31.5 10.5C 32.604569 10.5 33.5 11.395431 33.5 12.5ZM 26.5 10.5L 26.5 15.5M 17.5 10.5L 17.5 15.5M 26.5 23.5L 23.5 23.5L 23.5 20.5L 20.5 20.5L 20.5 23.5L 17.5 23.5L 17.5 26.5L 20.5 26.5L 20.5 29.5L 23.5 29.5L 23.5 26.5L 26.5 26.5L 26.5 23.5Z"></path></g></g></g><g id="g-root-tx_instanth_147ctoucsxatm-stroke" data-item-order="1000000000" data-item-id="tx_instanth_147ctoucsxatm" data-item-class="Label Stroke Indexed ColorStrokeBlack" data-item-index="2" data-renderer-id="0" transform="translate(494, 182)"></g><g id="g-root-scan_908z7ycsvwg1-stroke" data-item-order="1000000000" data-item-id="scan_908z7ycsvwg1" data-item-class="Icon Stroke Indexed Indexed_1 InsideFill InsideColorFill" data-item-index="1" data-renderer-id="0" transform="translate(362, 110)"><g id="scan_908z7ycsvwg1-stroke" fill="none" stroke-linecap="round" stroke-linejoin="round" stroke-miterlimit="4" stroke="#17b0e3" stroke-width="2"><g><path d="M 10.5 16.5L 10.5 14.5C 10.5 13.947715 10.947715 13.5 11.5 13.5L 13.5 13.5M 13.5 30.5L 11.5 30.5C 10.947715 30.5 10.5 30.052285 10.5 29.5L 10.5 27.5M 33.5 27.5L 33.5 29.5C 33.5 30.052285 33.052285 30.5 32.5 30.5L 30.5 30.5M 30.5 13.5L 32.5 13.5C 33.052285 13.5 33.5 13.947715 33.5 14.5L 33.5 16.5M 13.5 17.5L 13.5 26.5M 30.5 17.5L 30.5 26.5M 17.5 17.5L 17.5 23.5M 22.5 17.5L 22.5 23.5M 24.5 17.5L 24.5 23.5M 19.5 17.5L 19.5 23.5M 26.5 17.5L 26.5 23.5M 17.5 26.5L 17.5 25.5M 15.5 17.5L 15.5 23.5M 15.5 26.5L 15.5 25.5M 19.5 26.5L 19.5 25.5M 22.5 26.5L 22.5 25.5M 24.5 26.5L 24.5 25.5M 26.5 26.5L 26.5 25.5M 28.5 17.5L 28.5 23.5M 28.5 26.5L 28.5 25.5"></path></g></g></g><g id="g-root-phon_1utndcecsxatf-stroke" data-item-order="1000000000" data-item-id="phon_1utndcecsxatf" data-item-class="Icon Stroke Indexed Indexed_0 InsideFill InsideColorFill" data-item-index="0" data-renderer-id="0" transform="translate(290, 242)"><g id="phon_1utndcecsxatf-stroke" fill="none" stroke-linecap="round" stroke-linejoin="round" stroke-miterlimit="4" stroke="#4682e3" stroke-width="2"><g><path d="M 20.285715 11.714286L 47.714287 11.714286C 47.714287 11.714286 51.142857 11.714286 51.142857 15.142858L 51.142857 52.857143C 51.142857 52.857143 51.142857 56.285713 47.714287 56.285713L 20.285715 56.285713C 20.285715 56.285713 16.857143 56.285713 16.857143 52.857143L 16.857143 15.142858C 16.857143 15.142858 16.857143 11.714286 20.285715 11.714286M 25.428572 20.285715L 42.57143 20.285715L 42.57143 37.428574L 25.428572 37.428574ZM 32.285713 46.857143C 32.285713 47.803917 33.053226 48.57143 34 48.57143C 34.946774 48.57143 35.714287 47.803917 35.714287 46.857143C 35.714287 45.91037 34.946774 45.142857 34 45.142857C 33.053226 45.142857 32.285713 45.91037 32.285713 46.857143"></path></g></g></g><g id="g-root-sear_73s5qct2y2s-stroke" data-item-order="1000000000" data-item-id="sear_73s5qct2y2s" data-item-class="Icon Stroke Indexed InsideFill InsideColorFill" data-item-index="8" data-renderer-id="0" transform="translate(242, 110)"><g id="sear_73s5qct2y2s-stroke" fill="none" stroke-linecap="round" stroke-linejoin="round" stroke-miterlimit="4" stroke="#b65edf" stroke-width="2"><g><path d="M 10.857142 20.148571C 10.856164 25.280777 15.016365 29.441772 20.148571 29.441772C 25.280777 29.441772 29.440979 25.280777 29.440001 20.148571C 29.440979 15.016365 25.280777 10.855371 20.148571 10.855371C 15.016365 10.855371 10.856164 15.016365 10.857142 20.148571M 33.142857 33.142857L 26.714287 26.714287"></path></g></g></g><g id="g-root-tx_timesavi_1hi6uz2csxcee-stroke" data-item-order="1000000000" data-item-id="tx_timesavi_1hi6uz2csxcee" data-item-class="Label Stroke Indexed ColorStrokeBlack" data-item-index="6" data-renderer-id="0" transform="translate(2, 314)"></g><g id="g-root-3_73s5qct4c99-stroke" data-item-order="1000000000" data-item-id="3_73s5qct4c99" data-item-class="Icon Stroke Indexed InsideFill InsideColorFill" data-item-index="6" data-renderer-id="0" transform="translate(158, 314)"><g id="3_73s5qct4c99-stroke" fill="none" stroke-linecap="round" stroke-linejoin="round" stroke-miterlimit="4" stroke="#e15e5a" stroke-width="2"><g><path d="M 11.281 23.115C 11.28184 18.204545 14.685882 13.950451 19.476623 12.87278C 24.267364 11.79511 29.16522 14.181704 31.268773 18.618779C 33.372327 23.055853 32.119729 28.358289 28.253 31.385M 28.218 27.385L 28.216999 31.385L 32.719 31.385M 16.717 23.115L 21.781 23.115L 24.677 26.733999"></path></g></g></g><g id="g-root-bag_90vgb2csq9zf-stroke" data-item-order="1000000000" data-item-id="bag_90vgb2csq9zf" data-item-class="Icon Stroke Indexed InsideFill InsideColorFill" data-item-index="3" data-renderer-id="0" transform="translate(446, 314)"><g id="bag_90vgb2csq9zf-stroke" fill="none" stroke-linecap="round" stroke-linejoin="round" stroke-miterlimit="4" stroke="#93c131" stroke-width="2"><g><path d="M 25.2 16.9C 25.089543 16.9 25 16.810457 25 16.7C 25 16.589543 25.089543 16.5 25.2 16.5M 25.2 16.9C 25.310457 16.9 25.4 16.810457 25.4 16.7C 25.4 16.589543 25.310457 16.5 25.2 16.5M 23.2 14.4C 23.089543 14.4 23 14.310457 23 14.2C 23 14.089543 23.089543 14 23.2 14M 23.2 14.4C 23.310457 14.4 23.4 14.310457 23.4 14.2C 23.4 14.089543 23.310457 14 23.2 14M 12.5 19.25L 31.5 19.25C 31.5 19.25 32.5 19.25 32.5 20.25L 32.5 21.25C 32.5 21.25 32.5 22.25 31.5 22.25L 12.5 22.25C 12.5 22.25 11.5 22.25 11.5 21.25L 11.5 20.25C 11.5 20.25 11.5 19.25 12.5 19.25M 13.588 19.25C 14.778 16.446 18.126 10.838 22 10.838C 25.874 10.838 29.222 16.446 30.412 19.25M 12.718 22.25C 12.426 23.566 11.849 26.747 11.881 28.947C 11.921 31.697 13.356 33.292 15.469 33.292L 28.53 33.292C 30.643 33.292 32.078 31.698 32.118 28.947C 32.15 26.747 31.573 23.566 31.281 22.25"></path></g></g></g><g id="g-root-tx_ingredie_1d2dcumcsxd6p-stroke" data-item-order="1000000000" data-item-id="tx_ingredie_1d2dcumcsxd6p" data-item-class="Label Stroke Indexed ColorStrokeBlack" data-item-index="3" data-renderer-id="0" transform="translate(494, 302)"></g><g id="g-root-tx_nutritio_1hi6uz2csxcef-stroke" data-item-order="1000000000" data-item-id="tx_nutritio_1hi6uz2csxcef" data-item-class="Label Stroke Indexed ColorStrokeBlack" data-item-index="5" data-renderer-id="0" transform="translate(110, 398)"></g><g id="g-root-tx_scanning_147ctoucsxatn-stroke" data-item-order="1000000000" data-item-id="tx_scanning_147ctoucsxatn" data-item-class="Label Stroke Indexed Indexed_1 ColorStrokeBlack" data-item-index="1" data-renderer-id="0" transform="translate(410, 62)"></g><g id="g-root-scal_1hfovguct5qfi-stroke" data-item-order="1000000000" data-item-id="scal_1hfovguct5qfi" data-item-class="Icon Stroke Indexed InsideFill InsideColorFill" data-item-index="5" data-renderer-id="0" transform="translate(242, 398)"><g id="scal_1hfovguct5qfi-stroke" fill="none" stroke-linecap="round" stroke-linejoin="round" stroke-miterlimit="4" stroke="#dd8433" stroke-width="2"><g><path d="M 10.75 26L 14 33.25L 30 33.25L 33.25 26C 32 24 26.91 21.25 22 21.25C 17.09 21.25 12 24 10.75 26ZM 22 24L 22 26M 18.2 24.5L 18.7 26.5M 14.5 26L 15.5 27.5M 25.5 24.5L 25 26.5M 29.2 26L 28.2 27.5M 22 33.25L 17.5 29M 14 10.75L 14 13.75M 14 16.75L 14 13.75M 17 10.75L 14 13.75M 14 13.75L 17 16.75M 21 12.75L 20.5 12.75C 19.395431 12.75 18.5 13.645431 18.5 14.75C 18.5 15.854569 19.395431 16.75 20.5 16.75L 21 16.75M 23 16.75L 23.375 15.75M 26 16.75L 25.625 15.75M 23.375 15.75L 24.5 12.75L 25.625 15.75M 23.375 15.75L 25.625 15.75M 28 12.75L 28 16.75L 30 16.75"></path></g></g></g><g id="g-root-tx_betterin_1utndcecsxatg-stroke" data-item-order="1000000000" data-item-id="tx_betterin_1utndcecsxatg" data-item-class="Label Stroke Indexed ColorStrokeBlack" data-item-index="8" data-renderer-id="0" transform="translate(74, 62)"></g><g id="g-root-awar_zpnt5acta0pb-stroke" data-item-order="1000000000" data-item-id="awar_zpnt5acta0pb" data-item-class="Icon Stroke Indexed InsideFill InsideColorFill" data-item-index="4" data-renderer-id="0" transform="translate(362, 398)"><g id="awar_zpnt5acta0pb-stroke" fill="none" stroke-linecap="round" stroke-linejoin="round" stroke-miterlimit="4" stroke="#e3cd09" stroke-width="2"><g><path d="M 10.5 14.5L 20.5 14.5M 27.5 14.5L 30.5 14.5M 13.25 12.25C 13.111929 12.25 13 12.361929 13 12.5C 13 12.638071 13.111929 12.75 13.25 12.75C 13.388071 12.75 13.5 12.638071 13.5 12.5C 13.5 12.361929 13.388071 12.25 13.25 12.25L 13.25 12.25M 15.75 12.25C 15.611929 12.25 15.5 12.361929 15.5 12.5C 15.5 12.638071 15.611929 12.75 15.75 12.75C 15.888071 12.75 16 12.638071 16 12.5C 16 12.361929 15.888071 12.25 15.75 12.25L 15.75 12.25M 18.25 12.25C 18.111929 12.25 18 12.361929 18 12.5C 18 12.638071 18.111929 12.75 18.25 12.75C 18.388071 12.75 18.5 12.638071 18.5 12.5C 18.5 12.361929 18.388071 12.25 18.25 12.25L 18.25 12.25M 18 25.5L 12.5 25.5C 11.395431 25.5 10.5 24.604569 10.5 23.5L 10.5 12.5C 10.5 11.395431 11.395431 10.5 12.5 10.5L 28.5 10.5C 29.604569 10.5 30.5 11.395431 30.5 12.5L 30.5 24.5M 23.5 27.5L 24 27.5C 24.276142 27.5 24.5 27.723858 24.5 28L 24.5 31.5M 23.5 31.5L 25.5 31.5M 21.5 24.5L 27.5 24.5C 28.052285 24.5 28.5 24.947715 28.5 25.5L 28.5 33.5L 28.5 33.5L 20.5 33.5L 20.5 33.5L 20.5 25.5C 20.5 24.947715 20.947715 24.5 21.5 24.5ZM 28.5 29.5L 32.5 29.5C 33.052285 29.5 33.5 29.947715 33.5 30.5L 33.5 33.5L 33.5 33.5L 28.5 33.5L 28.5 33.5L 28.5 29.5L 28.5 29.5ZM 16.5 29.5L 20.5 29.5L 20.5 29.5L 20.5 33.5L 20.5 33.5L 15.5 33.5L 15.5 33.5L 15.5 30.5C 15.5 29.947715 15.947715 29.5 16.5 29.5ZM 27.472 18.38C 27.631106 18.243939 27.688602 18.023162 27.616073 17.826777C 27.543545 17.630392 27.35635 17.499984 27.147 17.5L 25.312 17.5L 24.721 15.831C 24.650035 15.631816 24.461448 15.498806 24.25 15.498806C 24.038552 15.498806 23.849965 15.631816 23.779 15.831L 23.187 17.5L 21.353 17.5C 21.14365 17.499984 20.956455 17.630392 20.883927 17.826777C 20.811398 18.023162 20.868894 18.243939 21.028 18.38L 22.409 19.562L 21.6 21.624C 21.521638 21.823696 21.579393 22.051127 21.743541 22.189238C 21.90769 22.327349 22.141647 22.345359 22.325 22.234L 24.249 21.068L 26.173 22.234C 26.356318 22.344571 26.589689 22.326166 26.753408 22.188225C 26.917127 22.050285 26.974863 21.823421 26.897 21.624L 26.09 19.562Z"></path></g></g></g><g id="g-root-tx_thebenef_147ctoucsxato-stroke" data-item-order="1000000000" data-item-id="tx_thebenef_147ctoucsxato" data-item-class="Label Stroke Title ColorStrokeBlack" data-item-index="none" data-renderer-id="0" transform="translate(170, 2)"></g><g id="g-root-tx_alternat_1d2dcumcsxd6o-stroke" data-item-order="1000000000" data-item-id="tx_alternat_1d2dcumcsxd6o" data-item-class="Label Stroke Indexed ColorStrokeBlack" data-item-index="4" data-renderer-id="0" transform="translate(410, 398)"></g></g></g></svg>