<?xml version="1.0" encoding="utf-8" standalone="yes"?>
<!DOCTYPE svg PUBLIC "-//W3C//DTD SVG 1.1//EN" "http://www.w3.org/Graphics/SVG/1.1/DTD/svg11.dtd">
<svg width="780" height="433" viewBox="0 0 780 433" style="fill:none;stroke:none;fill-rule:evenodd;clip-rule:evenodd;stroke-linecap:round;stroke-linejoin:round;stroke-miterlimit:1.5;" version="1.1" xmlns="http://www.w3.org/2000/svg" xmlns:xlink="http://www.w3.org/1999/xlink"><style id="fontImports">@import url("https://fonts.googleapis.com/css2?family=Shantell+Sans:wght@300..800&amp;display=block");</style><g id="items" style="isolation: isolate"><g id="blend" style="mix-blend-mode:normal"><g id="g-root-4.cu_sy_1hap94qc93qiz-fill" data-item-order="999928520" data-item-id="4.cu_sy_1hap94qc93qiz" data-item-class="Part Indexed Fill Stroke" data-item-index="4" data-renderer-id="0" transform="translate(444.16845703125, 260.3671875)"><g id="4.cu_sy_1hap94qc93qiz-fill" stroke="none" fill="#fff9ce"><g><path d="M 28.4966 135.818L 143.661 135.878C 142.249 87.2093 122.726 43.0818 91.5959 10L 10 91.512001C 20.4126 103.606801 27.1545 118.952001 28.4966 135.818Z"></path></g></g></g><g id="g-root-3.cu_sy_1cuvr0ac93rb8-fill" data-item-order="999928524" data-item-id="3.cu_sy_1cuvr0ac93rb8" data-item-class="Part Indexed Fill Stroke" data-item-index="3" data-renderer-id="0" transform="translate(391.72265625, 200.005859375)"><g id="3.cu_sy_1cuvr0ac93rb8-fill" stroke="none" fill="#ecf7d5"><g><path d="M 54.2876 143.707L 135.884 62.1953C 102.8306 31.0287 58.7202 11.4613 10.0593 10L 10 125.165C 26.8633 126.524 42.2024 133.282 54.2876 143.707Z"></path></g></g></g><g id="g-root-2.cu_sy_1cuvr0ac93rb9-fill" data-item-order="999928528" data-item-id="2.cu_sy_1cuvr0ac93rb9" data-item-class="Part Indexed Fill Stroke" data-item-index="2" data-renderer-id="0" transform="translate(254.361328125, 200)"><g id="2.cu_sy_1cuvr0ac93rb9-fill" stroke="none" fill="#d5f7e8"><g><path d="M 91.0519 143.201C 103.3025 132.847 118.81 126.225 135.818 125.092L 135.878 10C 87.2093 11.4122 43.0818 30.9356 10 62.0655L 91.0519 143.201Z"></path></g></g></g><g id="g-root-1.cu_sy_13z8qrec93s3y-fill" data-item-order="999928532" data-item-id="1.cu_sy_13z8qrec93s3y" data-item-class="Part Indexed Indexed_1 Fill Stroke" data-item-index="1" data-renderer-id="0" transform="translate(194, 260.2236328125)"><g id="1.cu_sy_13z8qrec93s3y-fill" stroke="none" fill="#cef3ff"><g><path d="M 62.1951 10C 31.0286 43.0529 11.4613 87.1633 10 135.824L 124.165 135.883C 125.545 118.77 132.483 103.2269 143.173 91.0611L 62.1951 10Z"></path></g></g></g><g id="g-root-tx_discover_1lr5bi2c8wq2t-fill" data-item-order="1000000000" data-item-id="tx_discover_1lr5bi2c8wq2t" data-item-class="Label Stroke Title ColorFillBlack ColorStrokeBlack" data-item-index="none" data-renderer-id="0" transform="translate(302, 2)"><g id="tx_discover_1lr5bi2c8wq2t-fill" stroke="none" fill="#484848"><g><text style="font: bold 20px &quot;Shantell Sans&quot;, cursive; white-space: pre;" font-weight="bold" font-size="20px" font-family="'Shantell Sans', cursive"><tspan x="15.73" y="35.5" dominant-baseline="ideographic">Discover Phase</tspan></text></g></g></g><g id="g-root-tx_surveys_1q6ytmic8wpaj-fill" data-item-order="1000000000" data-item-id="tx_surveys_1q6ytmic8wpaj" data-item-class="Label Stroke Indexed" data-item-index="2" data-renderer-id="0" transform="translate(218, 74)"><g id="tx_surveys_1q6ytmic8wpaj-fill" stroke="none" fill="#3bc482"><g><text style="font: bold 20px &quot;Shantell Sans&quot;, cursive; white-space: pre;" font-weight="bold" font-size="20px" font-family="'Shantell Sans', cursive"><tspan x="17.63" y="35.5" dominant-baseline="ideographic">Surveys</tspan></text></g></g></g><g id="g-root-tx_userrese_1q6ytmic8wpai-fill" data-item-order="1000000000" data-item-id="tx_userrese_1q6ytmic8wpai" data-item-class="Label Stroke Indexed" data-item-index="3" data-renderer-id="0" transform="translate(428.076171875, 74)"><g id="tx_userrese_1q6ytmic8wpai-fill" stroke="none" fill="#93c131"><g><text style="font: bold 20px &quot;Shantell Sans&quot;, cursive; white-space: pre;" font-weight="bold" font-size="20px" font-family="'Shantell Sans', cursive"><tspan x="13.27" y="35.5" dominant-baseline="ideographic">User Research</tspan></text></g></g></g><g id="g-root-tx_summaryo_1um5unuc8wrnz-fill" data-item-order="1000000000" data-item-id="tx_summaryo_1um5unuc8wrnz" data-item-class="Label Stroke Indexed ColorFillBlack ColorStrokeBlack" data-item-index="2" data-renderer-id="0" transform="translate(188, 110)"><g id="tx_summaryo_1um5unuc8wrnz-fill" stroke="none" fill="#484848"><g><text style="font: 15px &quot;Shantell Sans&quot;, cursive; white-space: pre;" font-size="15px" font-family="'Shantell Sans', cursive"><tspan x="15.9" y="32" dominant-baseline="ideographic">Summary of survey </tspan><tspan x="14.5" y="50" dominant-baseline="ideographic">design and insights </tspan><tspan x="50.55" y="68" dominant-baseline="ideographic">gathered.</tspan></text></g></g></g><g id="g-root-tx_methodsu_4gosxmc8wr2e-fill" data-item-order="1000000000" data-item-id="tx_methodsu_4gosxmc8wr2e" data-item-class="Label Stroke Indexed ColorFillBlack ColorStrokeBlack" data-item-index="3" data-renderer-id="0" transform="translate(434, 110)"><g id="tx_methodsu_4gosxmc8wr2e-fill" stroke="none" fill="#484848"><g><text style="font: 15px &quot;Shantell Sans&quot;, cursive; white-space: pre;" font-size="15px" font-family="'Shantell Sans', cursive"><tspan x="15.07" y="32" dominant-baseline="ideographic">Methods used for </tspan><tspan x="13.75" y="50" dominant-baseline="ideographic">user research and </tspan><tspan x="14.66" y="68" dominant-baseline="ideographic">major discoveries.</tspan></text></g></g></g><g id="g-root-tx_userinte_1q6ytmic8wpak-fill" data-item-order="1000000000" data-item-id="tx_userinte_1q6ytmic8wpak" data-item-class="Label Stroke Indexed Indexed_1" data-item-index="1" data-renderer-id="0" transform="translate(26, 230)"><g id="tx_userinte_1q6ytmic8wpak-fill" stroke="none" fill="#17b0e3"><g><text style="font: bold 20px &quot;Shantell Sans&quot;, cursive; white-space: pre;" font-weight="bold" font-size="20px" font-family="'Shantell Sans', cursive"><tspan x="46.73" y="35.5" dominant-baseline="ideographic">User </tspan><tspan x="12.73" y="59.5" dominant-baseline="ideographic">Interviews</tspan></text></g></g></g><g id="g-root-chec_ddko6yc9c8av-fill" data-item-order="1000000000" data-item-id="chec_ddko6yc9c8av" data-item-class="Icon Stroke Indexed InsideFill InsideColorFill" data-item-index="2" data-renderer-id="0" transform="translate(311, 242)"></g><g id="g-root-1_hye262c8sjr8-fill" data-item-order="1000000000" data-item-id="1_hye262c8sjr8" data-item-class="Icon Stroke Indexed InsideFill InsideColorFill" data-item-index="3" data-renderer-id="0" transform="translate(413, 242)"></g><g id="g-root-tx_competit_vat6c8wrup-fill" data-item-order="1000000000" data-item-id="tx_competit_vat6c8wrup" data-item-class="Label Stroke Indexed" data-item-index="4" data-renderer-id="0" transform="translate(614, 230)"><g id="tx_competit_vat6c8wrup-fill" stroke="none" fill="#e3cd09"><g><text style="font: bold 20px &quot;Shantell Sans&quot;, cursive; white-space: pre;" font-weight="bold" font-size="20px" font-family="'Shantell Sans', cursive"><tspan x="17.45" y="35.5" dominant-baseline="ideographic">Competitive </tspan><tspan x="34.76" y="59.5" dominant-baseline="ideographic">Analysis</tspan></text></g></g></g><g id="g-root-tx_overview_vat6c8wruo-fill" data-item-order="1000000000" data-item-id="tx_overview_vat6c8wruo" data-item-class="Label Stroke Indexed Indexed_1 ColorFillBlack ColorStrokeBlack" data-item-index="1" data-renderer-id="0" transform="translate(2, 290)"><g id="tx_overview_vat6c8wruo-fill" stroke="none" fill="#484848"><g><text style="font: 15px &quot;Shantell Sans&quot;, cursive; white-space: pre;" font-size="15px" font-family="'Shantell Sans', cursive"><tspan x="12.84" y="32" dominant-baseline="ideographic">Overview of interview </tspan><tspan x="34.14" y="50" dominant-baseline="ideographic">process and key </tspan><tspan x="61.94" y="68" dominant-baseline="ideographic">findings.</tspan></text></g></g></g><g id="g-root-tx_analysis_8wib22c8wqa5-fill" data-item-order="1000000000" data-item-id="tx_analysis_8wib22c8wqa5" data-item-class="Label Stroke Indexed ColorFillBlack ColorStrokeBlack" data-item-index="4" data-renderer-id="0" transform="translate(614, 290)"><g id="tx_analysis_8wib22c8wqa5-fill" stroke="none" fill="#484848"><g><text style="font: 15px &quot;Shantell Sans&quot;, cursive; white-space: pre;" font-size="15px" font-family="'Shantell Sans', cursive"><tspan x="42.02" y="32" dominant-baseline="ideographic">Analysis of </tspan><tspan x="22.84" y="50" dominant-baseline="ideographic">competitors and </tspan><tspan x="12.32" y="68" dominant-baseline="ideographic">market positioning.</tspan></text></g></g></g><g id="g-root-head_1hbbq7uc99cst-fill" data-item-order="1000000000" data-item-id="head_1hbbq7uc99cst" data-item-class="Icon Stroke Indexed Indexed_1 InsideFill InsideColorFill" data-item-index="1" data-renderer-id="0" transform="translate(236, 320)"></g><g id="g-root-ches_8wib22c8wqa4-fill" data-item-order="1000000000" data-item-id="ches_8wib22c8wqa4" data-item-class="Icon Stroke Indexed InsideFill InsideColorFill" data-item-index="4" data-renderer-id="0" transform="translate(488, 320)"></g><g id="g-root-sear_hwijqyc96ln1-fill" data-item-order="1000000000" data-item-id="sear_hwijqyc96ln1" data-item-class="Icon Stroke Title ColorStrokeBlack" data-item-index="none" data-renderer-id="0" transform="translate(350, 338)"></g><g id="g-root-4.cu_sy_1hap94qc93qiz-stroke" data-item-order="999928520" data-item-id="4.cu_sy_1hap94qc93qiz" data-item-class="Part Indexed Fill Stroke" data-item-index="4" data-renderer-id="0" transform="translate(444.16845703125, 260.3671875)"><g id="4.cu_sy_1hap94qc93qiz-stroke" fill="none" stroke-linecap="round" stroke-linejoin="round" stroke-miterlimit="4" stroke="#2c2c2c" stroke-width="2"><g><path d="M 28.4966 135.818401L 143.6613 135.877701C 142.2492 87.2093 122.7257 43.0818 91.5959 10L 10 91.512001C 20.4126 103.606801 27.1545 118.952001 28.4966 135.818401Z"></path></g></g></g><g id="g-root-3.cu_sy_1cuvr0ac93rb8-stroke" data-item-order="999928524" data-item-id="3.cu_sy_1cuvr0ac93rb8" data-item-class="Part Indexed Fill Stroke" data-item-index="3" data-renderer-id="0" transform="translate(391.72265625, 200.005859375)"><g id="3.cu_sy_1cuvr0ac93rb8-stroke" fill="none" stroke-linecap="round" stroke-linejoin="round" stroke-miterlimit="4" stroke="#2c2c2c" stroke-width="2"><g><path d="M 54.2876 143.7073L 135.8836 62.1953C 102.8306 31.0287 58.7202 11.4613 10.0593 10L 10 125.1652C 26.8633 126.5242 42.2024 133.2815 54.2876 143.7073Z"></path></g></g></g><g id="g-root-2.cu_sy_1cuvr0ac93rb9-stroke" data-item-order="999928528" data-item-id="2.cu_sy_1cuvr0ac93rb9" data-item-class="Part Indexed Fill Stroke" data-item-index="2" data-renderer-id="0" transform="translate(254.361328125, 200)"><g id="2.cu_sy_1cuvr0ac93rb9-stroke" fill="none" stroke-linecap="round" stroke-linejoin="round" stroke-miterlimit="4" stroke="#2c2c2c" stroke-width="2"><g><path d="M 91.0519 143.2008C 103.3025 132.8468 118.8096 126.2255 135.8185 125.0916L 135.8777 10C 87.2093 11.4122 43.0818 30.9356 10 62.0655L 91.0519 143.2008Z"></path></g></g></g><g id="g-root-1.cu_sy_13z8qrec93s3y-stroke" data-item-order="999928532" data-item-id="1.cu_sy_13z8qrec93s3y" data-item-class="Part Indexed Indexed_1 Fill Stroke" data-item-index="1" data-renderer-id="0" transform="translate(194, 260.2236328125)"><g id="1.cu_sy_13z8qrec93s3y-stroke" fill="none" stroke-linecap="round" stroke-linejoin="round" stroke-miterlimit="4" stroke="#2c2c2c" stroke-width="2"><g><path d="M 62.1951 10C 31.0286 43.0529 11.4613 87.1633 10 135.8241L 124.1653 135.8829C 125.5445 118.7701 132.4829 103.2269 143.1729 91.0611L 62.1951 10Z"></path></g></g></g><g id="g-root-tx_discover_1lr5bi2c8wq2t-stroke" data-item-order="1000000000" data-item-id="tx_discover_1lr5bi2c8wq2t" data-item-class="Label Stroke Title ColorFillBlack ColorStrokeBlack" data-item-index="none" data-renderer-id="0" transform="translate(302, 2)"></g><g id="g-root-tx_surveys_1q6ytmic8wpaj-stroke" data-item-order="1000000000" data-item-id="tx_surveys_1q6ytmic8wpaj" data-item-class="Label Stroke Indexed" data-item-index="2" data-renderer-id="0" transform="translate(218, 74)"></g><g id="g-root-tx_userrese_1q6ytmic8wpai-stroke" data-item-order="1000000000" data-item-id="tx_userrese_1q6ytmic8wpai" data-item-class="Label Stroke Indexed" data-item-index="3" data-renderer-id="0" transform="translate(428.076171875, 74)"></g><g id="g-root-tx_summaryo_1um5unuc8wrnz-stroke" data-item-order="1000000000" data-item-id="tx_summaryo_1um5unuc8wrnz" data-item-class="Label Stroke Indexed ColorFillBlack ColorStrokeBlack" data-item-index="2" data-renderer-id="0" transform="translate(188, 110)"></g><g id="g-root-tx_methodsu_4gosxmc8wr2e-stroke" data-item-order="1000000000" data-item-id="tx_methodsu_4gosxmc8wr2e" data-item-class="Label Stroke Indexed ColorFillBlack ColorStrokeBlack" data-item-index="3" data-renderer-id="0" transform="translate(434, 110)"></g><g id="g-root-tx_userinte_1q6ytmic8wpak-stroke" data-item-order="1000000000" data-item-id="tx_userinte_1q6ytmic8wpak" data-item-class="Label Stroke Indexed Indexed_1" data-item-index="1" data-renderer-id="0" transform="translate(26, 230)"></g><g id="g-root-chec_ddko6yc9c8av-stroke" data-item-order="1000000000" data-item-id="chec_ddko6yc9c8av" data-item-class="Icon Stroke Indexed InsideFill InsideColorFill" data-item-index="2" data-renderer-id="0" transform="translate(311, 242)"><g id="chec_ddko6yc9c8av-stroke" fill="none" stroke-linecap="round" stroke-linejoin="round" stroke-miterlimit="4" stroke="#3bc482" stroke-width="2"><g><path d="M 42.57143 15.142858L 47.714287 15.142858C 49.607834 15.142858 51.142857 16.677881 51.142857 18.571428L 51.142857 52.857143C 51.142857 54.750694 49.607834 56.285713 47.714287 56.285713L 20.285715 56.285713C 18.392166 56.285713 16.857143 54.750694 16.857143 52.857143L 16.857143 18.571428C 16.857143 16.677881 18.392166 15.142858 20.285715 15.142858L 25.428572 15.142858M 28.857143 11.714286L 39.142857 11.714286C 39.142857 11.714286 42.57143 11.714286 42.57143 15.142858L 42.57143 16.857143C 42.57143 16.857143 42.57143 20.285715 39.142857 20.285715L 28.857143 20.285715C 28.857143 20.285715 25.428572 20.285715 25.428572 16.857143L 25.428572 15.142858C 25.428572 15.142858 25.428572 11.714286 28.857143 11.714286M 25.428572 39.142857L 32.285713 44.285713L 40.857143 30.571428"></path></g></g></g><g id="g-root-1_hye262c8sjr8-stroke" data-item-order="1000000000" data-item-id="1_hye262c8sjr8" data-item-class="Icon Stroke Indexed InsideFill InsideColorFill" data-item-index="3" data-renderer-id="0" transform="translate(413, 242)"><g id="1_hye262c8sjr8-stroke" fill="none" stroke-linecap="round" stroke-linejoin="round" stroke-miterlimit="4" stroke="#93c131" stroke-width="2"><g><path d="M 16.722 38.896C 16.722 41.377968 18.734032 43.389999 21.216 43.389999C 23.697968 43.389999 25.709999 41.377968 25.709999 38.896C 25.709999 36.414032 23.697968 34.402 21.216 34.402C 18.734032 34.402 16.722 36.414032 16.722 38.896M 28.618 50.838001C 27.504629 47.743671 24.583839 45.668522 21.295467 45.635521C 18.007092 45.602524 15.045246 47.618637 13.87 50.690002M 41.862 38.896C 41.862 41.377968 43.874035 43.389999 46.355999 43.389999C 48.837967 43.389999 50.850002 41.377968 50.850002 38.896C 50.850002 36.414032 48.837967 34.402 46.355999 34.402C 43.874035 34.402 41.862 36.414032 41.862 38.896M 53.458 50.119999C 52.250942 47.641796 49.853069 45.959583 47.112 45.667999C 46.405117 45.612225 45.694004 45.647175 44.995998 45.771999M 12 54.622002L 56 54.622002M 47.848 54.622002L 34.875999 54.622002L 33.148003 46.838001C 33.082535 46.542072 33.154812 46.232418 33.344528 45.996056C 33.534241 45.759689 33.820915 45.62212 34.124001 45.622002L 44.243999 45.622002C 45.181217 45.622162 45.992622 46.273117 46.195999 47.188ZM 33 13.378L 33 21.378M 29 27.378L 30 21.378L 36 21.378L 37 27.378L 29 27.378ZM 39.388 50.122002C 39.388 50.536213 39.723785 50.872002 40.138 50.872002C 40.552216 50.872002 40.888 50.536213 40.888 50.122002C 40.888 49.707787 40.552216 49.372002 40.138 49.372002C 39.723785 49.372002 39.388 49.707787 39.388 50.122002M 43.150002 35.75C 45.123543 37.888058 47.94392 39.040382 50.850002 38.896M 24.422001 35.75C 22.44846 37.888058 19.628082 39.040382 16.722 38.896"></path></g></g></g><g id="g-root-tx_competit_vat6c8wrup-stroke" data-item-order="1000000000" data-item-id="tx_competit_vat6c8wrup" data-item-class="Label Stroke Indexed" data-item-index="4" data-renderer-id="0" transform="translate(614, 230)"></g><g id="g-root-tx_overview_vat6c8wruo-stroke" data-item-order="1000000000" data-item-id="tx_overview_vat6c8wruo" data-item-class="Label Stroke Indexed Indexed_1 ColorFillBlack ColorStrokeBlack" data-item-index="1" data-renderer-id="0" transform="translate(2, 290)"></g><g id="g-root-tx_analysis_8wib22c8wqa5-stroke" data-item-order="1000000000" data-item-id="tx_analysis_8wib22c8wqa5" data-item-class="Label Stroke Indexed ColorFillBlack ColorStrokeBlack" data-item-index="4" data-renderer-id="0" transform="translate(614, 290)"></g><g id="g-root-head_1hbbq7uc99cst-stroke" data-item-order="1000000000" data-item-id="head_1hbbq7uc99cst" data-item-class="Icon Stroke Indexed Indexed_1 InsideFill InsideColorFill" data-item-index="1" data-renderer-id="0" transform="translate(236, 320)"><g id="head_1hbbq7uc99cst-stroke" fill="none" stroke-linecap="round" stroke-linejoin="round" stroke-miterlimit="4" stroke="#17b0e3" stroke-width="2"><g><path d="M 21 14.918C 18.73641 14.428013 16.434309 14.136905 14.120001 14.048C 13.570656 14.019608 13.033566 14.216922 12.633254 14.594196C 12.232943 14.971471 12.004178 15.495938 12 16.046L 12 46.646C 12.007194 47.732864 12.875473 48.617962 13.962 48.646C 29.388 49.256001 34 57 34 57M 47 14.916C 49.261795 14.427704 51.561817 14.137274 53.874001 14.048C 54.424698 14.017896 54.963684 14.21472 55.365391 14.592619C 55.767097 14.970518 55.996445 15.49649 56 16.048L 56 46.647999C 55.992805 47.734863 55.124527 48.619961 54.037998 48.647999C 38.612 49.256001 34 57 34 57L 34 37M 44 30L 44 21C 44 15.477153 39.52285 11 34 11C 28.477154 11 24 15.477153 24 21L 24 30M 44 22C 46.209141 22 48 23.790861 48 26C 48 28.209139 46.209141 30 44 30M 24 30C 21.790861 30 20 28.209139 20 26C 20 23.790861 21.790861 22 24 22M 27 25.001999C 27.000002 28.867994 30.134008 32.001999 34 32.001999C 37.865993 32.001999 41 28.867994 41 25.002001C 41 21.136007 37.865993 18.002001 34 18.002001C 30.134008 18.002001 27.000002 21.136007 27.000002 25.002001Z"></path></g></g></g><g id="g-root-ches_8wib22c8wqa4-stroke" data-item-order="1000000000" data-item-id="ches_8wib22c8wqa4" data-item-class="Icon Stroke Indexed InsideFill InsideColorFill" data-item-index="4" data-renderer-id="0" transform="translate(488, 320)"><g id="ches_8wib22c8wqa4-stroke" fill="none" stroke-linecap="round" stroke-linejoin="round" stroke-miterlimit="4" stroke="#e3cd09" stroke-width="2"><g><path d="M 20 40.562L 17.236 40.562C 16.478668 40.562405 15.786528 40.99054 15.448 41.667999L 11 50.562L 57 50.562L 52.551998 41.667999C 52.213474 40.99054 51.521332 40.562405 50.764 40.562L 46 40.562M 11 50.562L 11.622 53.048C 11.844918 53.937862 12.644641 54.561977 13.562 54.562L 54.438 54.562C 55.355358 54.561977 56.155083 53.937862 56.377998 53.048L 57 50.562M 27 40.562C 26.763098 36.665192 27.81752 32.798977 30 29.562C 30.936913 28.500841 31.938841 27.498911 33 26.562L 25 26.562C 23.656 26.562 23.417999 25.841999 23 24.562C 22.901398 23.754997 23.295238 22.967319 24 22.562L 31 17.562L 31 13.438C 31 13.438 35 15.562 37 16.562C 41.419998 18.771999 41.091999 20.667999 41.012001 22.962C 40.997963 23.359604 40.865654 23.743988 40.632 24.066L 36 30.438C 38.956985 33.005531 40.758549 36.653336 41 40.562M 43.759998 45.366001C 43.820065 45.660255 43.744701 45.965923 43.554737 46.198536C 43.364773 46.431145 43.080322 46.566063 42.779999 46.566002L 25.220001 46.566002C 24.919678 46.566063 24.635227 46.431145 24.445263 46.198536C 24.255299 45.965923 24.179935 45.660255 24.24 45.366001L 25 41.566002C 25.271999 40.75 26.139999 40.566002 27 40.566002L 41 40.566002C 41.860001 40.566002 42.728001 40.75 43 41.566002ZM 49.5 44.562L 49.5 44.562C 49.776142 44.562 50 44.785858 50 45.062L 50 45.062C 50 45.338142 49.776142 45.562 49.5 45.562L 49.5 45.562C 49.223858 45.562 49 45.338142 49 45.062L 49 45.062C 49 44.785858 49.223858 44.562 49.5 44.562"></path></g></g></g><g id="g-root-sear_hwijqyc96ln1-stroke" data-item-order="1000000000" data-item-id="sear_hwijqyc96ln1" data-item-class="Icon Stroke Title ColorStrokeBlack" data-item-index="none" data-renderer-id="0" transform="translate(350, 338)"><g id="sear_hwijqyc96ln1-stroke" fill="none" stroke-linecap="round" stroke-linejoin="round" stroke-miterlimit="4" stroke="#484848" stroke-width="2"><g><path d="M 11.5 35.5C 11.5 48.754833 22.245165 59.5 35.5 59.5C 48.754833 59.5 59.5 48.754833 59.5 35.5C 59.5 22.245165 48.754833 11.5 35.5 11.5C 22.245165 11.5 11.5 22.245165 11.5 35.5ZM 52.468002 52.468002L 80.5 80.5"></path></g></g></g></g></g></svg>