<?xml version="1.0" encoding="utf-8" standalone="yes"?>
<!DOCTYPE svg PUBLIC "-//W3C//DTD SVG 1.1//EN" "http://www.w3.org/Graphics/SVG/1.1/DTD/svg11.dtd">
<svg width="638" height="337" viewBox="0 0 638 337" style="fill:none;stroke:none;fill-rule:evenodd;clip-rule:evenodd;stroke-linecap:round;stroke-linejoin:round;stroke-miterlimit:1.5;" version="1.1" xmlns="http://www.w3.org/2000/svg" xmlns:xlink="http://www.w3.org/1999/xlink"><style id="fontImports">@import url("https://fonts.googleapis.com/css2?family=Roboto:wght@400;700&amp;display=block");</style><g id="items" style="isolation: isolate"><g id="blend" style="mix-blend-mode:normal"><g id="g-root-ro_vagoyyabau4i-fill" data-item-order="999978400" data-item-id="ro_vagoyyabau4i" data-item-class="Shape Stroke Fill" data-item-index="none" data-renderer-id="0" transform="translate(255, 84)"><g id="ro_vagoyyabau4i-fill" stroke="none" fill="#f0f0f0"><g><path d="M 34 10L 130 10C 130 10 154 10 154 34L 154 136C 154 136 154 160 130 160L 34 160C 34 160 10 160 10 136L 10 34C 10 34 10 10 34 10"></path></g></g></g><g id="g-root-ro_1lt0e3uabf1u1-fill" data-item-order="999988984" data-item-id="ro_1lt0e3uabf1u1" data-item-class="Shape Stroke Fill" data-item-index="none" data-renderer-id="0" transform="translate(3, 3)"><g id="ro_1lt0e3uabf1u1-fill" stroke="none" fill="#e6efff"><g><path d="M 22 10L 202 10C 202 10 214 10 214 22L 214 52C 214 52 214 64 202 64L 22 64C 22 64 10 64 10 52L 10 22C 10 22 10 10 22 10"></path></g></g></g><g id="g-root-ro_8yzuqyabdlhg-fill" data-item-order="999990928" data-item-id="ro_8yzuqyabdlhg" data-item-class="Shape Stroke Fill" data-item-index="none" data-renderer-id="0" transform="translate(447, 171)"><g id="ro_8yzuqyabdlhg-fill" stroke="none" fill="#ffe7e6"><g><path d="M 22 10L 166 10C 166 10 178 10 178 22L 178 52C 178 52 178 64 166 64L 22 64C 22 64 10 64 10 52L 10 22C 10 22 10 10 22 10"></path></g></g></g><g id="g-root-ro_1hi6ooaabf213-fill" data-item-order="999991576" data-item-id="ro_1hi6ooaabf213" data-item-class="Shape Stroke Fill" data-item-index="none" data-renderer-id="0" transform="translate(51, 189)"><g id="ro_1hi6ooaabf213-fill" stroke="none" fill="#fef2e6"><g><path d="M 22 10L 154 10C 154 10 166 10 166 22L 166 52C 166 52 166 64 154 64L 22 64C 22 64 10 64 10 52L 10 22C 10 22 10 10 22 10"></path></g></g></g><g id="g-root-ro_djt5kaabc6py-fill" data-item-order="999993520" data-item-id="ro_djt5kaabc6py" data-item-class="Shape Stroke Fill" data-item-index="none" data-renderer-id="0" transform="translate(447, 21)"><g id="ro_djt5kaabc6py-fill" stroke="none" fill="#e9fbf3"><g><path d="M 22 10L 118 10C 118 10 130 10 130 22L 130 52C 130 52 130 64 118 64L 22 64C 22 64 10 64 10 52L 10 22C 10 22 10 10 22 10"></path></g></g></g><g id="g-root-goal_djt5kaabc6px-fill" data-item-order="1000000000" data-item-id="goal_djt5kaabc6px" data-item-class="Icon Stroke" data-item-index="none" data-renderer-id="0" transform="translate(459, 33)"></g><g id="g-root-cu_1d2d6juabf2tf-fill" data-item-order="1000000000" data-item-id="cu_1d2d6juabf2tf" data-item-class="Curve Stroke ColorStrokeGray" data-item-index="none" data-renderer-id="0" transform="translate(399, 48)"></g><g id="g-root-tx_goals_hz06lmabc93g-fill" data-item-order="1000000000" data-item-id="tx_goals_hz06lmabc93g" data-item-class="Label Stroke" data-item-index="none" data-renderer-id="0" transform="translate(495, 36)"><g id="tx_goals_hz06lmabc93g-fill" stroke="none" fill="#3bc482"><g><text style="font: 20px Roboto, sans-serif; white-space: pre;" font-size="20px" font-family="Roboto, sans-serif"><tspan x="14.46" y="33.5" dominant-baseline="ideographic">Goals</tspan></text></g></g></g><g id="g-root-tx_age_4o65beabdloj-fill" data-item-order="1000000000" data-item-id="tx_age_4o65beabdloj" data-item-class="Label Stroke" data-item-index="none" data-renderer-id="0" transform="translate(111, 69)"><g id="tx_age_4o65beabdloj-fill" stroke="none" fill="#484848"><g><text style="font: 20px Roboto, sans-serif; white-space: pre;" font-size="20px" font-family="Roboto, sans-serif"><tspan x="16.57" y="33.5" dominant-baseline="ideographic">Age</tspan></text></g></g></g><g id="g-root-cu_1d2d6juabf2to-fill" data-item-order="1000000000" data-item-id="cu_1d2d6juabf2to" data-item-class="Curve Stroke ColorStrokeGray" data-item-index="none" data-renderer-id="0" transform="translate(165, 57)"></g><g id="g-root-cu_18n65iiabf0g7-fill" data-item-order="1000000000" data-item-id="cu_18n65iiabf0g7" data-item-class="Curve Stroke ColorStrokeGray" data-item-index="none" data-renderer-id="0" transform="translate(165, 57)"></g><g id="g-root-cu_18n65iiabf0g9-fill" data-item-order="1000000000" data-item-id="cu_18n65iiabf0g9" data-item-class="Curve Stroke ColorStrokeGray" data-item-index="none" data-renderer-id="0" transform="translate(165, 57)"></g><g id="g-root-cu_147cne2abf18j-fill" data-item-order="1000000000" data-item-id="cu_147cne2abf18j" data-item-class="Curve Stroke ColorStrokeGray" data-item-index="none" data-renderer-id="0" transform="translate(471, 75)"></g><g id="g-root-cu_147cne2abf18m-fill" data-item-order="1000000000" data-item-id="cu_147cne2abf18m" data-item-class="Curve Stroke ColorStrokeGray" data-item-index="none" data-renderer-id="0" transform="translate(471, 75)"></g><g id="g-root-tx_objectiv_1utn71mabdma6-fill" data-item-order="1000000000" data-item-id="tx_objectiv_1utn71mabdma6" data-item-class="Label Stroke" data-item-index="none" data-renderer-id="0" transform="translate(495, 87)"><g id="tx_objectiv_1utn71mabdma6-fill" stroke="none" fill="#484848"><g><text style="font: 20px Roboto, sans-serif; white-space: pre;" font-size="20px" font-family="Roboto, sans-serif"><tspan x="17.66" y="33.5" dominant-baseline="ideographic">Objectives</tspan></text></g></g></g><g id="g-root-tx_income_4o65beabdlok-fill" data-item-order="1000000000" data-item-id="tx_income_4o65beabdlok" data-item-class="Label Stroke" data-item-index="none" data-renderer-id="0" transform="translate(87, 105)"><g id="tx_income_4o65beabdlok-fill" stroke="none" fill="#484848"><g><text style="font: 20px Roboto, sans-serif; white-space: pre;" font-size="20px" font-family="Roboto, sans-serif"><tspan x="12.76" y="33.5" dominant-baseline="ideographic">Income</tspan></text></g></g></g><g id="g-root-focu_vagoyyabau4h-fill" data-item-order="1000000000" data-item-id="focu_vagoyyabau4h" data-item-class="Icon Stroke" data-item-index="none" data-renderer-id="0" transform="translate(303, 108)"></g><g id="g-root-tx_aspirati_1utn71mabdma7-fill" data-item-order="1000000000" data-item-id="tx_aspirati_1utn71mabdma7" data-item-class="Label Stroke" data-item-index="none" data-renderer-id="0" transform="translate(495, 123)"><g id="tx_aspirati_1utn71mabdma7-fill" stroke="none" fill="#484848"><g><text style="font: 20px Roboto, sans-serif; white-space: pre;" font-size="20px" font-family="Roboto, sans-serif"><tspan x="13.58" y="33.5" dominant-baseline="ideographic">Aspirations</tspan></text></g></g></g><g id="g-root-tx_location_4o65beabdlol-fill" data-item-order="1000000000" data-item-id="tx_location_4o65beabdlol" data-item-class="Label Stroke" data-item-index="none" data-renderer-id="0" transform="translate(75, 141)"><g id="tx_location_4o65beabdlol-fill" stroke="none" fill="#484848"><g><text style="font: 20px Roboto, sans-serif; white-space: pre;" font-size="20px" font-family="Roboto, sans-serif"><tspan x="13.33" y="33.5" dominant-baseline="ideographic">Location</tspan></text></g></g></g><g id="g-root-tx_userpers_zqa73eabatc8-fill" data-item-order="1000000000" data-item-id="tx_userpers_zqa73eabatc8" data-item-class="Label Stroke" data-item-index="none" data-renderer-id="0" transform="translate(279, 162)"><g id="tx_userpers_zqa73eabatc8-fill" stroke="none" fill="#484848"><g><text style="font: 20px Roboto, sans-serif; white-space: pre;" font-size="20px" font-family="Roboto, sans-serif"><tspan x="37.68" y="33.5" dominant-baseline="ideographic">User </tspan><tspan x="16.1" y="57.5" dominant-baseline="ideographic">Personas</tspan></text></g></g></g><g id="g-root-cu_1hi6ooaabf214-fill" data-item-order="1000000000" data-item-id="cu_1hi6ooaabf214" data-item-class="Curve Stroke ColorStrokeGray" data-item-index="none" data-renderer-id="0" transform="translate(207, 30)"></g><g id="g-root-char_1uonecqabf11c-fill" data-item-order="1000000000" data-item-id="char_1uonecqabf11c" data-item-class="Icon Stroke" data-item-index="none" data-renderer-id="0" transform="translate(165, 15)"></g><g id="g-root-cu_1d2d6juabf2tl-fill" data-item-order="1000000000" data-item-id="cu_1d2d6juabf2tl" data-item-class="Curve Stroke ColorStrokeGray" data-item-index="none" data-renderer-id="0" transform="translate(207, 184)"></g><g id="g-root-cu_1d2d6juabf2ti-fill" data-item-order="1000000000" data-item-id="cu_1d2d6juabf2ti" data-item-class="Curve Stroke ColorStrokeGray" data-item-index="none" data-renderer-id="0" transform="translate(399, 184)"></g><g id="g-root-warn_de6vsaabdnuz-fill" data-item-order="1000000000" data-item-id="warn_de6vsaabdnuz" data-item-class="Icon Stroke" data-item-index="none" data-renderer-id="0" transform="translate(459, 183)"></g><g id="g-root-tx_painpoin_de6vsaabdnuy-fill" data-item-order="1000000000" data-item-id="tx_painpoin_de6vsaabdnuy" data-item-class="Label Stroke" data-item-index="none" data-renderer-id="0" transform="translate(495, 186)"><g id="tx_painpoin_de6vsaabdnuy-fill" stroke="none" fill="#e15e5a"><g><text style="font: 20px Roboto, sans-serif; white-space: pre;" font-size="20px" font-family="Roboto, sans-serif"><tspan x="13.57" y="33.5" dominant-baseline="ideographic">Pain Points</tspan></text></g></g></g><g id="g-root-tx_behavior_1ly06sqabf18t-fill" data-item-order="1000000000" data-item-id="tx_behavior_1ly06sqabf18t" data-item-class="Label Stroke" data-item-index="none" data-renderer-id="0" transform="translate(63, 204)"><g id="tx_behavior_1ly06sqabf18t-fill" stroke="none" fill="#dd8433"><g><text style="font: 20px Roboto, sans-serif; white-space: pre;" font-size="20px" font-family="Roboto, sans-serif"><tspan x="14.09" y="33.5" dominant-baseline="ideographic">Behaviors</tspan></text></g></g></g><g id="g-root-clic_1ly06sqabf18u-fill" data-item-order="1000000000" data-item-id="clic_1ly06sqabf18u" data-item-class="Icon Stroke" data-item-index="none" data-renderer-id="0" transform="translate(165, 201)"></g><g id="g-root-cu_147cne2abf18o-fill" data-item-order="1000000000" data-item-id="cu_147cne2abf18o" data-item-class="Curve Stroke ColorStrokeGray" data-item-index="none" data-renderer-id="0" transform="translate(471, 225)"></g><g id="g-root-cu_zrj59mabf20z-fill" data-item-order="1000000000" data-item-id="cu_zrj59mabf20z" data-item-class="Curve Stroke ColorStrokeGray" data-item-index="none" data-renderer-id="0" transform="translate(471, 225)"></g><g id="g-root-cu_zrj59mabf211-fill" data-item-order="1000000000" data-item-id="cu_zrj59mabf211" data-item-class="Curve Stroke ColorStrokeGray" data-item-index="none" data-renderer-id="0" transform="translate(165, 243)"></g><g id="g-root-cu_zrj59mabf214-fill" data-item-order="1000000000" data-item-id="cu_zrj59mabf214" data-item-class="Curve Stroke ColorStrokeGray" data-item-index="none" data-renderer-id="0" transform="translate(165, 243)"></g><g id="g-root-tx_challeng_8cn6yabdmgw-fill" data-item-order="1000000000" data-item-id="tx_challeng_8cn6yabdmgw" data-item-class="Label Stroke" data-item-index="none" data-renderer-id="0" transform="translate(495, 237)"><g id="tx_challeng_8cn6yabdmgw-fill" stroke="none" fill="#484848"><g><text style="font: 20px Roboto, sans-serif; white-space: pre;" font-size="20px" font-family="Roboto, sans-serif"><tspan x="14.81" y="33.5" dominant-baseline="ideographic">Challenges</tspan></text></g></g></g><g id="g-root-tx_habits_1qdtox6abdn2i-fill" data-item-order="1000000000" data-item-id="tx_habits_1qdtox6abdn2i" data-item-class="Label Stroke" data-item-index="none" data-renderer-id="0" transform="translate(87, 255)"><g id="tx_habits_1qdtox6abdn2i-fill" stroke="none" fill="#484848"><g><text style="font: 20px Roboto, sans-serif; white-space: pre;" font-size="20px" font-family="Roboto, sans-serif"><tspan x="16.97" y="33.5" dominant-baseline="ideographic">Habits</tspan></text></g></g></g><g id="g-root-tx_frustrat_8cn6yabdmgx-fill" data-item-order="1000000000" data-item-id="tx_frustrat_8cn6yabdmgx" data-item-class="Label Stroke" data-item-index="none" data-renderer-id="0" transform="translate(495, 273)"><g id="tx_frustrat_8cn6yabdmgx-fill" stroke="none" fill="#484848"><g><text style="font: 20px Roboto, sans-serif; white-space: pre;" font-size="20px" font-family="Roboto, sans-serif"><tspan x="16.58" y="33.5" dominant-baseline="ideographic">Frustrations</tspan></text></g></g></g><g id="g-root-tx_preferen_1qdtox6abdn2j-fill" data-item-order="1000000000" data-item-id="tx_preferen_1qdtox6abdn2j" data-item-class="Label Stroke" data-item-index="none" data-renderer-id="0" transform="translate(39, 291)"><g id="tx_preferen_1qdtox6abdn2j-fill" stroke="none" fill="#484848"><g><text style="font: 20px Roboto, sans-serif; white-space: pre;" font-size="20px" font-family="Roboto, sans-serif"><tspan x="16.65" y="33.5" dominant-baseline="ideographic">Preferences</tspan></text></g></g></g><g id="g-root-tx_demograp_3cui2abf0g7-fill" data-item-order="1000000000" data-item-id="tx_demograp_3cui2abf0g7" data-item-class="Label Stroke" data-item-index="none" data-renderer-id="0" transform="translate(15, 18)"><g id="tx_demograp_3cui2abf0g7-fill" stroke="none" fill="#4682e3"><g><text style="font: 20px Roboto, sans-serif; white-space: pre;" font-size="20px" font-family="Roboto, sans-serif"><tspan x="17.5" y="33.5" dominant-baseline="ideographic">Demographics</tspan></text></g></g></g><g id="g-root-ro_vagoyyabau4i-stroke" data-item-order="999978400" data-item-id="ro_vagoyyabau4i" data-item-class="Shape Stroke Fill" data-item-index="none" data-renderer-id="0" transform="translate(255, 84)"><g id="ro_vagoyyabau4i-stroke" fill="none" stroke-linecap="round" stroke-linejoin="round" stroke-miterlimit="4" stroke="#484848" stroke-width="2"><g><path d="M 34 10L 130 10C 130 10 154 10 154 34L 154 136C 154 136 154 160 130 160L 34 160C 34 160 10 160 10 136L 10 34C 10 34 10 10 34 10"></path></g></g></g><g id="g-root-ro_1lt0e3uabf1u1-stroke" data-item-order="999988984" data-item-id="ro_1lt0e3uabf1u1" data-item-class="Shape Stroke Fill" data-item-index="none" data-renderer-id="0" transform="translate(3, 3)"><g id="ro_1lt0e3uabf1u1-stroke" fill="none" stroke-linecap="round" stroke-linejoin="round" stroke-miterlimit="4" stroke="#4682e3" stroke-width="2"><g><path d="M 22 10L 202 10C 202 10 214 10 214 22L 214 52C 214 52 214 64 202 64L 22 64C 22 64 10 64 10 52L 10 22C 10 22 10 10 22 10"></path></g></g></g><g id="g-root-ro_8yzuqyabdlhg-stroke" data-item-order="999990928" data-item-id="ro_8yzuqyabdlhg" data-item-class="Shape Stroke Fill" data-item-index="none" data-renderer-id="0" transform="translate(447, 171)"><g id="ro_8yzuqyabdlhg-stroke" fill="none" stroke-linecap="round" stroke-linejoin="round" stroke-miterlimit="4" stroke="#e15e5a" stroke-width="2"><g><path d="M 22 10L 166 10C 166 10 178 10 178 22L 178 52C 178 52 178 64 166 64L 22 64C 22 64 10 64 10 52L 10 22C 10 22 10 10 22 10"></path></g></g></g><g id="g-root-ro_1hi6ooaabf213-stroke" data-item-order="999991576" data-item-id="ro_1hi6ooaabf213" data-item-class="Shape Stroke Fill" data-item-index="none" data-renderer-id="0" transform="translate(51, 189)"><g id="ro_1hi6ooaabf213-stroke" fill="none" stroke-linecap="round" stroke-linejoin="round" stroke-miterlimit="4" stroke="#dd8433" stroke-width="2"><g><path d="M 22 10L 154 10C 154 10 166 10 166 22L 166 52C 166 52 166 64 154 64L 22 64C 22 64 10 64 10 52L 10 22C 10 22 10 10 22 10"></path></g></g></g><g id="g-root-ro_djt5kaabc6py-stroke" data-item-order="999993520" data-item-id="ro_djt5kaabc6py" data-item-class="Shape Stroke Fill" data-item-index="none" data-renderer-id="0" transform="translate(447, 21)"><g id="ro_djt5kaabc6py-stroke" fill="none" stroke-linecap="round" stroke-linejoin="round" stroke-miterlimit="4" stroke="#3bc482" stroke-width="2"><g><path d="M 22 10L 118 10C 118 10 130 10 130 22L 130 52C 130 52 130 64 118 64L 22 64C 22 64 10 64 10 52L 10 22C 10 22 10 10 22 10"></path></g></g></g><g id="g-root-goal_djt5kaabc6px-stroke" data-item-order="1000000000" data-item-id="goal_djt5kaabc6px" data-item-class="Icon Stroke" data-item-index="none" data-renderer-id="0" transform="translate(459, 33)"><g id="goal_djt5kaabc6px-stroke" fill="none" stroke-linecap="round" stroke-linejoin="round" stroke-miterlimit="4" stroke="#3bc482" stroke-width="2"><g><path d="M 28.125 36.987499L 28.125 38.75M 34.375 39.375C 34.375 35.923222 31.576778 33.125 28.125 33.125C 24.673222 33.125 21.875 35.923222 21.875 39.375M 23.75 26.875C 23.750002 29.291246 25.708755 31.25 28.125002 31.25C 30.541246 31.25 32.5 29.291246 32.5 26.875002C 32.5 24.458755 30.541246 22.500002 28.125002 22.500002C 25.708755 22.500002 23.750002 24.458755 23.750002 26.875002M 19.4375 37.400002C 18.19207 36.622208 16.680744 36.3932 15.2608 36.76712C 13.840856 37.141041 12.63833 38.084694 11.9375 39.375M 13.3625 29.362499C 15.156505 31.193769 17.886879 31.743809 20.25 30.75M 12.85 31.25C 12.85 33.300358 14.512143 34.962502 16.5625 34.962502C 18.612858 34.962502 20.275 33.300358 20.275 31.25C 20.275 29.199644 18.612858 27.5375 16.5625 27.5375C 14.512143 27.5375 12.85 29.199644 12.85 31.25M 38.125 39.375L 38.125 10.625M 38.125 10.625L 30.625 10.625C 29.934643 10.625 29.375 11.184644 29.375 11.875L 29.375 15.625C 29.375 16.315355 29.934643 16.875 30.625 16.875L 38.125 16.875M 29.375 13.125L 21.25 13.125L 24.375 16.25L 21.25 19.375L 30.625 19.375C 31.315355 19.375 31.875 18.815355 31.875 18.125L 31.875 16.875M 24.625 24.25C 25.923149 25.494215 27.639874 26.207659 29.4375 26.25C 30.433136 26.2551 31.422338 26.090233 32.362503 25.762501"></path></g></g></g><g id="g-root-cu_1d2d6juabf2tf-stroke" data-item-order="1000000000" data-item-id="cu_1d2d6juabf2tf" data-item-class="Curve Stroke ColorStrokeGray" data-item-index="none" data-renderer-id="0" transform="translate(399, 48)"><g id="cu_1d2d6juabf2tf-stroke" fill="none" stroke-linecap="round" stroke-linejoin="round" stroke-miterlimit="4" stroke="#888888" stroke-width="2" stroke-dasharray="5.0, 7.0"><g><path d="M 10 96L 13 96L 13.1 96C 24.642748 96.000003 33.999998 86.642755 33.999998 75.100003L 34 75L 34 30.9C 33.999999 19.357249 43.357248 10.000001 54.899999 10.000002L 55 10L 58 10"></path></g></g></g><g id="g-root-tx_goals_hz06lmabc93g-stroke" data-item-order="1000000000" data-item-id="tx_goals_hz06lmabc93g" data-item-class="Label Stroke" data-item-index="none" data-renderer-id="0" transform="translate(495, 36)"></g><g id="g-root-tx_age_4o65beabdloj-stroke" data-item-order="1000000000" data-item-id="tx_age_4o65beabdloj" data-item-class="Label Stroke" data-item-index="none" data-renderer-id="0" transform="translate(111, 69)"></g><g id="g-root-cu_1d2d6juabf2to-stroke" data-item-order="1000000000" data-item-id="cu_1d2d6juabf2to" data-item-class="Curve Stroke ColorStrokeGray" data-item-index="none" data-renderer-id="0" transform="translate(165, 57)"><g id="cu_1d2d6juabf2to-stroke" fill="none" stroke-linecap="round" stroke-linejoin="round" stroke-miterlimit="4" stroke="#888888" stroke-width="2" stroke-dasharray="5.0, 7.0"><g><path d="M 28 10L 28 22L 28 34L 19 34L 10 34"></path></g></g></g><g id="g-root-cu_18n65iiabf0g7-stroke" data-item-order="1000000000" data-item-id="cu_18n65iiabf0g7" data-item-class="Curve Stroke ColorStrokeGray" data-item-index="none" data-renderer-id="0" transform="translate(165, 57)"><g id="cu_18n65iiabf0g7-stroke" fill="none" stroke-linecap="round" stroke-linejoin="round" stroke-miterlimit="4" stroke="#888888" stroke-width="2" stroke-dasharray="5.0, 7.0"><g><path d="M 28 10L 28 40L 28 70L 19 70L 10 70"></path></g></g></g><g id="g-root-cu_18n65iiabf0g9-stroke" data-item-order="1000000000" data-item-id="cu_18n65iiabf0g9" data-item-class="Curve Stroke ColorStrokeGray" data-item-index="none" data-renderer-id="0" transform="translate(165, 57)"><g id="cu_18n65iiabf0g9-stroke" fill="none" stroke-linecap="round" stroke-linejoin="round" stroke-miterlimit="4" stroke="#888888" stroke-width="2" stroke-dasharray="5.0, 7.0"><g><path d="M 28 10L 28 22L 28 94C 28.000002 100.627415 22.627419 105.999998 16.000002 105.999998L 15.9 106L 10 106"></path></g></g></g><g id="g-root-cu_147cne2abf18j-stroke" data-item-order="1000000000" data-item-id="cu_147cne2abf18j" data-item-class="Curve Stroke ColorStrokeGray" data-item-index="none" data-renderer-id="0" transform="translate(471, 75)"><g id="cu_147cne2abf18j-stroke" fill="none" stroke-linecap="round" stroke-linejoin="round" stroke-miterlimit="4" stroke="#888888" stroke-width="2" stroke-dasharray="5.0, 7.0"><g><path d="M 10 10L 10 22L 10 34L 19 34L 28 34"></path></g></g></g><g id="g-root-cu_147cne2abf18m-stroke" data-item-order="1000000000" data-item-id="cu_147cne2abf18m" data-item-class="Curve Stroke ColorStrokeGray" data-item-index="none" data-renderer-id="0" transform="translate(471, 75)"><g id="cu_147cne2abf18m-stroke" fill="none" stroke-linecap="round" stroke-linejoin="round" stroke-miterlimit="4" stroke="#888888" stroke-width="2" stroke-dasharray="5.0, 7.0"><g><path d="M 10 10L 10 17.5L 10 58C 10.000002 64.627417 15.372585 70 22.000002 69.999999L 22.1 70L 28 70"></path></g></g></g><g id="g-root-tx_objectiv_1utn71mabdma6-stroke" data-item-order="1000000000" data-item-id="tx_objectiv_1utn71mabdma6" data-item-class="Label Stroke" data-item-index="none" data-renderer-id="0" transform="translate(495, 87)"></g><g id="g-root-tx_income_4o65beabdlok-stroke" data-item-order="1000000000" data-item-id="tx_income_4o65beabdlok" data-item-class="Label Stroke" data-item-index="none" data-renderer-id="0" transform="translate(87, 105)"></g><g id="g-root-focu_vagoyyabau4h-stroke" data-item-order="1000000000" data-item-id="focu_vagoyyabau4h" data-item-class="Icon Stroke" data-item-index="none" data-renderer-id="0" transform="translate(303, 108)"><g id="focu_vagoyyabau4h-stroke" fill="none" stroke-linecap="round" stroke-linejoin="round" stroke-miterlimit="4" stroke="#484848" stroke-width="2"><g><path d="M 25.428572 28.857143C 25.428572 33.591011 29.266132 37.428574 34 37.428574C 38.733868 37.428574 42.57143 33.591011 42.57143 28.857143C 42.57143 24.123276 38.733868 20.285715 34 20.285715C 29.266132 20.285715 25.428572 24.123276 25.428572 28.857143M 45.348572 46.857143C 38.866127 41.131516 29.133875 41.131516 22.651428 46.857143M 56.285713 46L 56.285713 52.857143C 56.285713 54.750694 54.750694 56.285713 52.857143 56.285713L 46 56.285713M 46 11.714286L 52.857143 11.714286C 54.750694 11.714286 56.285713 13.24931 56.285713 15.142858L 56.285713 22M 11.714286 22L 11.714286 15.142858C 11.714286 13.24931 13.24931 11.714286 15.142858 11.714286L 22 11.714286M 22 56.285713L 15.142858 56.285713C 13.24931 56.285713 11.714286 54.750694 11.714286 52.857143L 11.714286 46"></path></g></g></g><g id="g-root-tx_aspirati_1utn71mabdma7-stroke" data-item-order="1000000000" data-item-id="tx_aspirati_1utn71mabdma7" data-item-class="Label Stroke" data-item-index="none" data-renderer-id="0" transform="translate(495, 123)"></g><g id="g-root-tx_location_4o65beabdlol-stroke" data-item-order="1000000000" data-item-id="tx_location_4o65beabdlol" data-item-class="Label Stroke" data-item-index="none" data-renderer-id="0" transform="translate(75, 141)"></g><g id="g-root-tx_userpers_zqa73eabatc8-stroke" data-item-order="1000000000" data-item-id="tx_userpers_zqa73eabatc8" data-item-class="Label Stroke" data-item-index="none" data-renderer-id="0" transform="translate(279, 162)"></g><g id="g-root-cu_1hi6ooaabf214-stroke" data-item-order="1000000000" data-item-id="cu_1hi6ooaabf214" data-item-class="Curve Stroke ColorStrokeGray" data-item-index="none" data-renderer-id="0" transform="translate(207, 30)"><g id="cu_1hi6ooaabf214-stroke" fill="none" stroke-linecap="round" stroke-linejoin="round" stroke-miterlimit="4" stroke="#888888" stroke-width="2" stroke-dasharray="5.0, 7.0"><g><path d="M 58 114L 55 114L 54.9 114C 43.357245 113.999995 33.999997 104.642746 33.999997 93.099996L 34 93L 34 30.9C 33.999998 19.357248 24.64275 10 13.1 10L 13 10L 10 10"></path></g></g></g><g id="g-root-char_1uonecqabf11c-stroke" data-item-order="1000000000" data-item-id="char_1uonecqabf11c" data-item-class="Icon Stroke" data-item-index="none" data-renderer-id="0" transform="translate(165, 15)"><g id="char_1uonecqabf11c-stroke" fill="none" stroke-linecap="round" stroke-linejoin="round" stroke-miterlimit="4" stroke="#4682e3" stroke-width="2"><g><path d="M 13.105 15.05C 13.104632 17.49412 15.085879 19.475666 17.529999 19.475666C 19.974119 19.475666 21.955368 17.49412 21.955 15.05C 21.955368 12.60588 19.974119 10.624334 17.529999 10.624334C 15.085879 10.624334 13.104632 12.60588 13.105 15.05M 24.414999 26.283751C 23.358816 23.435522 20.650188 21.538189 17.612499 21.518749C 14.572283 21.53854 11.860553 23.43491 10.79875 26.283749ZM 36.48 29.391249L 26.891249 26.096251L 26.891249 15.955M 28.696249 36.077499C 24.079473 36.906868 19.495119 34.467461 17.60375 30.174999M 24.712502 16.190001C 28.295895 15.405247 32.023869 16.61532 34.463249 19.355024C 36.90263 22.094727 37.673687 25.937582 36.480003 29.406252M 26.891249 26.096251L 28.72625 36.07M 39.201248 33.555L 30.84375 30.68L 32.442501 39.375C 35.580132 38.795822 38.162758 36.571903 39.201248 33.555ZM 14.2675 12.06375C 16.342844 14.02387 19.101946 15.095484 21.956251 15.05"></path></g></g></g><g id="g-root-cu_1d2d6juabf2tl-stroke" data-item-order="1000000000" data-item-id="cu_1d2d6juabf2tl" data-item-class="Curve Stroke ColorStrokeGray" data-item-index="none" data-renderer-id="0" transform="translate(207, 184)"><g id="cu_1d2d6juabf2tl-stroke" fill="none" stroke-linecap="round" stroke-linejoin="round" stroke-miterlimit="4" stroke="#888888" stroke-width="2" stroke-dasharray="5.0, 7.0"><g><path d="M 58 10L 55 10L 54.9 10C 50.611929 10.004962 45.995266 11.578824 41.700001 14.500001C 39.147207 16.234511 36.356002 20.403194 34.000002 26.000001C 31.644001 31.596807 28.852796 35.76549 26.300001 37.500001C 22.004737 40.421177 17.388073 41.995039 13.100001 42L 13 42L 10 42"></path></g></g></g><g id="g-root-cu_1d2d6juabf2ti-stroke" data-item-order="1000000000" data-item-id="cu_1d2d6juabf2ti" data-item-class="Curve Stroke ColorStrokeGray" data-item-index="none" data-renderer-id="0" transform="translate(399, 184)"><g id="cu_1d2d6juabf2ti-stroke" fill="none" stroke-linecap="round" stroke-linejoin="round" stroke-miterlimit="4" stroke="#888888" stroke-width="2" stroke-dasharray="5.0, 7.0"><g><path d="M 10 10L 13 10L 13.1 10C 16.47715 10.00393 20.199416 10.613028 24.1 11.8C 26.434787 12.503612 29.936878 14.343094 34 16.999999C 38.063122 19.656905 41.565214 21.496387 43.900001 22.199999C 47.800584 23.386973 51.52285 23.996071 54.900001 24.000001L 55 24L 58 24"></path></g></g></g><g id="g-root-warn_de6vsaabdnuz-stroke" data-item-order="1000000000" data-item-id="warn_de6vsaabdnuz" data-item-class="Icon Stroke" data-item-index="none" data-renderer-id="0" transform="translate(459, 183)"><g id="warn_de6vsaabdnuz-stroke" fill="none" stroke-linecap="round" stroke-linejoin="round" stroke-miterlimit="4" stroke="#e15e5a" stroke-width="2"><g><path d="M 33.125 33.75L 33.125 30.625M 39.220001 37.526249L 34.220001 27.526249C 34.000999 27.12454 33.580029 26.874577 33.122498 26.874577C 32.66497 26.874577 32.243999 27.12454 32.025002 27.526249L 27.025 37.526249C 26.813427 37.913979 26.822184 38.384579 27.048037 38.764168C 27.27389 39.143753 27.683304 39.375965 28.125 39.375L 38.125 39.375C 38.565804 39.374203 38.973602 39.141285 39.198238 38.762016C 39.422878 38.382744 39.431145 37.913193 39.220001 37.526249ZM 33.125 35.9375C 33.297588 35.9375 33.4375 36.077412 33.4375 36.25C 33.4375 36.422588 33.297588 36.5625 33.125 36.5625C 32.952412 36.5625 32.8125 36.422588 32.8125 36.25C 32.8125 36.077412 32.952412 35.9375 33.125 35.9375M 10.625 26.875C 10.637154 25.714609 10.877112 24.567902 11.33125 23.5C 11.83125 22.5 13.91 21.8125 16.522499 20.844999C 17.22875 20.58375 17.112499 18.74 16.799999 18.395C 15.792845 17.303646 15.299419 15.834283 15.44375 14.35625C 15.353253 13.415162 15.657961 12.478797 16.284966 11.771194C 16.91197 11.063592 17.804861 10.648415 18.75 10.625C 19.695139 10.648415 20.58803 11.063592 21.215034 11.771194C 21.842039 12.478797 22.146746 13.415162 22.05625 14.35625C 22.200947 15.834702 21.707495 17.304594 20.699999 18.39625C 20.387501 18.741249 20.27125 20.585001 20.977499 20.846251C 23.59 21.813751 25.67 22.504999 26.168751 23.501249C 26.622889 24.569153 26.862846 25.715858 26.875 26.876251ZM 23.639999 10.92125C 24.066275 10.724414 24.530476 10.623296 24.999998 10.625C 25.945137 10.648415 26.83803 11.063592 27.465034 11.771194C 28.092039 12.478797 28.396746 13.415162 28.30625 14.35625C 28.450947 15.834702 27.957495 17.304594 26.949999 18.39625C 26.637501 18.741249 26.52125 20.585001 27.227499 20.846251C 29.84 21.813751 31.919998 22.504999 32.418751 23.501249C 32.46125 23.58625 32.501251 23.67375 32.543751 23.762501"></path></g></g></g><g id="g-root-tx_painpoin_de6vsaabdnuy-stroke" data-item-order="1000000000" data-item-id="tx_painpoin_de6vsaabdnuy" data-item-class="Label Stroke" data-item-index="none" data-renderer-id="0" transform="translate(495, 186)"></g><g id="g-root-tx_behavior_1ly06sqabf18t-stroke" data-item-order="1000000000" data-item-id="tx_behavior_1ly06sqabf18t" data-item-class="Label Stroke" data-item-index="none" data-renderer-id="0" transform="translate(63, 204)"></g><g id="g-root-clic_1ly06sqabf18u-stroke" data-item-order="1000000000" data-item-id="clic_1ly06sqabf18u" data-item-class="Icon Stroke" data-item-index="none" data-renderer-id="0" transform="translate(165, 201)"><g id="clic_1ly06sqabf18u-stroke" fill="none" stroke-linecap="round" stroke-linejoin="round" stroke-miterlimit="4" stroke="#dd8433" stroke-width="2"><g><path d="M 38.125 39.375L 38.125 36.041252C 38.12431 33.740582 36.259422 31.87569 33.958752 31.875002L 31.875 31.875L 31.875 26.25C 31.875 25.214466 31.035536 24.375 30 24.375C 28.964466 24.375 28.125 25.214466 28.125 26.25L 28.125 35L 26.51375 33.650002C 25.961464 32.986568 24.975931 32.896465 24.3125 33.44875C 23.649067 34.001034 23.558964 34.986568 24.11125 35.650002L 27.209999 39.375M 21.875 39.375L 13.125 39.375C 11.744288 39.375 10.625 38.255714 10.625 36.875L 10.625 13.125C 10.625 11.744288 11.744288 10.625 13.125 10.625L 36.875 10.625C 38.255714 10.625 39.375 11.744288 39.375 13.125L 39.375 29.375M 10.625 16.873751L 39.375 16.873751M 15 20.623749L 22.5 20.623749C 22.5 20.623749 23.125 20.623749 23.125 21.248749L 23.125 29.998749C 23.125 29.998749 23.125 30.623751 22.5 30.623751L 15 30.623751C 15 30.623751 14.375 30.623751 14.375 29.998749L 14.375 21.248749C 14.375 21.248749 14.375 20.623749 15 20.623749M 16.875 24.998749C 16.875 26.034285 17.714466 26.873751 18.75 26.873751C 19.785534 26.873751 20.625 26.034285 20.625 24.998751C 20.625 23.963217 19.785534 23.123751 18.75 23.123751C 17.714466 23.123751 16.875 23.963217 16.875 24.998751M 21.875 30.625L 15.625 30.625C 15.46833 28.731516 16.859306 27.062347 18.75 26.875C 20.640696 27.062347 22.03167 28.731516 21.875 30.625ZM 15 33.123749L 20 33.123749M 15 35.623749L 20 35.623749M 15 13.43625C 15.172426 13.436252 15.312268 13.575909 15.312497 13.748335C 15.312727 13.920761 15.173255 14.06079 15.000831 14.061249C 14.828404 14.061708 14.68819 13.922424 14.6875 13.75C 14.687168 13.666903 14.719945 13.587096 14.778586 13.528221C 14.837227 13.469345 14.916903 13.436249 15 13.43625M 18.75 13.43625C 18.922426 13.436252 19.062267 13.575909 19.062496 13.748335C 19.062727 13.920761 18.923256 14.06079 18.75083 14.061249C 18.578405 14.061708 18.43819 13.922424 18.4375 13.75C 18.437168 13.666903 18.469944 13.587096 18.528585 13.528221C 18.587227 13.469345 18.666903 13.436249 18.75 13.43625M 22.5 13.43625C 22.672426 13.436252 22.812269 13.575909 22.812498 13.748335C 22.812727 13.920761 22.673256 14.06079 22.50083 14.061249C 22.328403 14.061708 22.18819 13.922424 22.1875 13.75C 22.1875 13.577411 22.327412 13.4375 22.5 13.4375M 27.5 20.623749L 35.625 20.623749"></path></g></g></g><g id="g-root-cu_147cne2abf18o-stroke" data-item-order="1000000000" data-item-id="cu_147cne2abf18o" data-item-class="Curve Stroke ColorStrokeGray" data-item-index="none" data-renderer-id="0" transform="translate(471, 225)"><g id="cu_147cne2abf18o-stroke" fill="none" stroke-linecap="round" stroke-linejoin="round" stroke-miterlimit="4" stroke="#888888" stroke-width="2" stroke-dasharray="5.0, 7.0"><g><path d="M 10 10L 10 22L 10 34L 19 34L 28 34"></path></g></g></g><g id="g-root-cu_zrj59mabf20z-stroke" data-item-order="1000000000" data-item-id="cu_zrj59mabf20z" data-item-class="Curve Stroke ColorStrokeGray" data-item-index="none" data-renderer-id="0" transform="translate(471, 225)"><g id="cu_zrj59mabf20z-stroke" fill="none" stroke-linecap="round" stroke-linejoin="round" stroke-miterlimit="4" stroke="#888888" stroke-width="2" stroke-dasharray="5.0, 7.0"><g><path d="M 10 10L 10 17.5L 10 58C 10.000002 64.627417 15.372585 70 22.000002 69.999999L 22.1 70L 28 70"></path></g></g></g><g id="g-root-cu_zrj59mabf211-stroke" data-item-order="1000000000" data-item-id="cu_zrj59mabf211" data-item-class="Curve Stroke ColorStrokeGray" data-item-index="none" data-renderer-id="0" transform="translate(165, 243)"><g id="cu_zrj59mabf211-stroke" fill="none" stroke-linecap="round" stroke-linejoin="round" stroke-miterlimit="4" stroke="#888888" stroke-width="2" stroke-dasharray="5.0, 7.0"><g><path d="M 28 10L 28 22L 28 34L 19 34L 10 34"></path></g></g></g><g id="g-root-cu_zrj59mabf214-stroke" data-item-order="1000000000" data-item-id="cu_zrj59mabf214" data-item-class="Curve Stroke ColorStrokeGray" data-item-index="none" data-renderer-id="0" transform="translate(165, 243)"><g id="cu_zrj59mabf214-stroke" fill="none" stroke-linecap="round" stroke-linejoin="round" stroke-miterlimit="4" stroke="#888888" stroke-width="2" stroke-dasharray="5.0, 7.0"><g><path d="M 28 10L 28 17.5L 28 58C 27.999999 64.627415 22.627416 69.999998 16 69.999998L 15.9 70L 10 70"></path></g></g></g><g id="g-root-tx_challeng_8cn6yabdmgw-stroke" data-item-order="1000000000" data-item-id="tx_challeng_8cn6yabdmgw" data-item-class="Label Stroke" data-item-index="none" data-renderer-id="0" transform="translate(495, 237)"></g><g id="g-root-tx_habits_1qdtox6abdn2i-stroke" data-item-order="1000000000" data-item-id="tx_habits_1qdtox6abdn2i" data-item-class="Label Stroke" data-item-index="none" data-renderer-id="0" transform="translate(87, 255)"></g><g id="g-root-tx_frustrat_8cn6yabdmgx-stroke" data-item-order="1000000000" data-item-id="tx_frustrat_8cn6yabdmgx" data-item-class="Label Stroke" data-item-index="none" data-renderer-id="0" transform="translate(495, 273)"></g><g id="g-root-tx_preferen_1qdtox6abdn2j-stroke" data-item-order="1000000000" data-item-id="tx_preferen_1qdtox6abdn2j" data-item-class="Label Stroke" data-item-index="none" data-renderer-id="0" transform="translate(39, 291)"></g><g id="g-root-tx_demograp_3cui2abf0g7-stroke" data-item-order="1000000000" data-item-id="tx_demograp_3cui2abf0g7" data-item-class="Label Stroke" data-item-index="none" data-renderer-id="0" transform="translate(15, 18)"></g></g></g></svg>