<?xml version="1.0" encoding="utf-8" standalone="yes"?>
<!DOCTYPE svg PUBLIC "-//W3C//DTD SVG 1.1//EN" "http://www.w3.org/Graphics/SVG/1.1/DTD/svg11.dtd">
<svg width="1070" height="361" viewBox="0 0 1070 361" style="fill:none;stroke:none;fill-rule:evenodd;clip-rule:evenodd;stroke-linecap:round;stroke-linejoin:round;stroke-miterlimit:1.5;" version="1.1" xmlns="http://www.w3.org/2000/svg" xmlns:xlink="http://www.w3.org/1999/xlink"><style id="fontImports">@import url("https://fonts.googleapis.com/css2?family=Roboto:wght@400;700&amp;display=block");</style><g id="items" style="isolation: isolate"><g id="blend" style="mix-blend-mode:normal"><g id="g-root-1.cu_sy_1hcklb19r4ky3-fill" data-item-order="999760932" data-item-id="1.cu_sy_1hcklb19r4ky3" data-item-class="Part Indexed Indexed_1 Fill Stroke" data-item-index="1" data-renderer-id="0" transform="translate(3, 3)"><g id="1.cu_sy_1hcklb19r4ky3-fill" stroke="none" fill="#e3cd09"><g><path d="M 10 106L 10 10L 226 10L 178 34L 178 106L 10 106Z"></path></g></g></g><g id="g-root-2.cu_sy_1hcklb19r4ky4-fill" data-item-order="999760936" data-item-id="2.cu_sy_1hcklb19r4ky4" data-item-class="Part Indexed Fill Stroke" data-item-index="2" data-renderer-id="0" transform="translate(171, 3)"><g id="2.cu_sy_1hcklb19r4ky4-fill" stroke="none" fill="#dd8433"><g><path d="M 10 130L 10 34L 226 34L 178 58L 178 130L 10 130ZM 58 10L 58 34L 10 34L 58 10Z"></path></g></g></g><g id="g-root-3.cu_sy_1cwr36l9r4lqd-fill" data-item-order="999760940" data-item-id="3.cu_sy_1cwr36l9r4lqd" data-item-class="Part Indexed Fill Stroke" data-item-index="3" data-renderer-id="0" transform="translate(339.0001220703125, 27)"><g id="3.cu_sy_1cwr36l9r4lqd-fill" stroke="none" fill="#e15e5a"><g><path d="M 10 130L 10 34L 226 34L 178 58L 178 130L 10 130ZM 58.000022 10L 58.000022 34L 10.000122 34L 58.000022 10Z"></path></g></g></g><g id="g-root-4.cu_sy_14142xp9r4mj2-fill" data-item-order="999760944" data-item-id="4.cu_sy_14142xp9r4mj2" data-item-class="Part Indexed Fill Stroke" data-item-index="4" data-renderer-id="0" transform="translate(507.0001220703125, 51)"><g id="4.cu_sy_14142xp9r4mj2-fill" stroke="none" fill="#da5da8"><g><path d="M 10 34L 10 130L 178 130L 178 58L 226 34L 10 34ZM 57.9999 10L 57.9999 34L 10 34L 57.9999 10Z"></path></g></g></g><g id="g-root-5.cu_sy_14142xp9r4mj3-fill" data-item-order="999760948" data-item-id="5.cu_sy_14142xp9r4mj3" data-item-class="Part Indexed Fill Stroke" data-item-index="5" data-renderer-id="0" transform="translate(675, 75)"><g id="5.cu_sy_14142xp9r4mj3-fill" stroke="none" fill="#b65edf"><g><path d="M 10.000122 130L 10.000122 34L 226.000122 34L 178.000122 58L 178.000122 130L 10.000122 130ZM 58.0001 10L 58.0001 34L 10 34L 58.0001 10Z"></path></g></g></g><g id="g-root-6.cu_sy_zlakt99r4nbc-fill" data-item-order="999760952" data-item-id="6.cu_sy_zlakt99r4nbc" data-item-class="Part Indexed Fill Stroke" data-item-index="6" data-renderer-id="0" transform="translate(843, 99)"><g id="6.cu_sy_zlakt99r4nbc-fill" stroke="none" fill="#795ee3"><g><path d="M 10 130L 10 34L 166 34L 166 22L 214 82L 166 143L 166 130L 10 130ZM 58 10L 58 34L 10 34L 58 10Z"></path></g></g></g><g id="g-root-tx_sarahmet_magjj19r4lqj-fill" data-item-order="1000000000" data-item-id="tx_sarahmet_magjj19r4lqj" data-item-class="Label Stroke Indexed Indexed_1 ColorStrokeBlack" data-item-index="1" data-renderer-id="0" transform="translate(15, 123)"><g id="tx_sarahmet_magjj19r4lqj-fill" stroke="none" fill="#484848"><g><text style="font: 20px Roboto, sans-serif; white-space: pre;" font-size="20px" font-family="Roboto, sans-serif"><tspan x="12" y="33.5" dominant-baseline="ideographic">Sarah </tspan><tspan x="12" y="57.5" dominant-baseline="ideographic">meticulously </tspan><tspan x="12" y="81.5" dominant-baseline="ideographic">checks product </tspan><tspan x="12" y="105.5" dominant-baseline="ideographic">labels for </tspan><tspan x="12" y="129.5" dominant-baseline="ideographic">information</tspan></text></g></g></g><g id="g-root-tx_discover_3zhzx9r4lqc-fill" data-item-order="1000000000" data-item-id="tx_discover_3zhzx9r4lqc" data-item-class="Label Stroke Indexed InsideFill InsideColorFill" data-item-index="6" data-renderer-id="0" transform="translate(855, 123)"><g id="tx_discover_3zhzx9r4lqc-fill" stroke="none" fill="#2c2c2c"><g><text style="font: 20px Roboto, sans-serif; white-space: pre;" font-size="20px" font-family="Roboto, sans-serif"><tspan x="38.38" y="33.5" dominant-baseline="ideographic">Discovers </tspan><tspan x="28.93" y="57.5" dominant-baseline="ideographic">problematic </tspan><tspan x="32.55" y="81.5" dominant-baseline="ideographic">ingredients </tspan><tspan x="17.61" y="105.5" dominant-baseline="ideographic">after purchase</tspan></text></g></g></g><g id="g-root-tx_shesearc_hun1el9r4mit-fill" data-item-order="1000000000" data-item-id="tx_shesearc_hun1el9r4mit" data-item-class="Label Stroke Indexed ColorStrokeBlack" data-item-index="2" data-renderer-id="0" transform="translate(183, 147)"><g id="tx_shesearc_hun1el9r4mit-fill" stroke="none" fill="#484848"><g><text style="font: 20px Roboto, sans-serif; white-space: pre;" font-size="20px" font-family="Roboto, sans-serif"><tspan x="12" y="33.5" dominant-baseline="ideographic">She searches </tspan><tspan x="12" y="57.5" dominant-baseline="ideographic">online to </tspan><tspan x="12" y="81.5" dominant-baseline="ideographic">understand </tspan><tspan x="12" y="105.5" dominant-baseline="ideographic">unknown </tspan><tspan x="12" y="129.5" dominant-baseline="ideographic">ingredients</tspan></text></g></g></g><g id="g-root-tx_sarahcom_8z015p9r4nbj-fill" data-item-order="1000000000" data-item-id="tx_sarahcom_8z015p9r4nbj" data-item-class="Label Stroke Indexed ColorStrokeBlack" data-item-index="3" data-renderer-id="0" transform="translate(351, 171)"><g id="tx_sarahcom_8z015p9r4nbj-fill" stroke="none" fill="#484848"><g><text style="font: 20px Roboto, sans-serif; white-space: pre;" font-size="20px" font-family="Roboto, sans-serif"><tspan x="12" y="33.5" dominant-baseline="ideographic">Sarah compares </tspan><tspan x="12" y="57.5" dominant-baseline="ideographic">different </tspan><tspan x="12" y="81.5" dominant-baseline="ideographic">products to find </tspan><tspan x="12" y="105.5" dominant-baseline="ideographic">the best option</tspan></text></g></g></g><g id="g-root-tx_shefeels_4jt04d9r4ky1-fill" data-item-order="1000000000" data-item-id="tx_shefeels_4jt04d9r4ky1" data-item-class="Label Stroke Indexed ColorStrokeBlack" data-item-index="4" data-renderer-id="0" transform="translate(519, 195)"><g id="tx_shefeels_4jt04d9r4ky1-fill" stroke="none" fill="#484848"><g><text style="font: 20px Roboto, sans-serif; white-space: pre;" font-size="20px" font-family="Roboto, sans-serif"><tspan x="12" y="33.5" dominant-baseline="ideographic">She feels </tspan><tspan x="12" y="57.5" dominant-baseline="ideographic">unsure about </tspan><tspan x="12" y="81.5" dominant-baseline="ideographic">making the </tspan><tspan x="12" y="105.5" dominant-baseline="ideographic">right purchase </tspan><tspan x="12" y="129.5" dominant-baseline="ideographic">decisions</tspan></text></g></g></g><g id="g-root-tx_sarahend_3zhzx9r4lqb-fill" data-item-order="1000000000" data-item-id="tx_sarahend_3zhzx9r4lqb" data-item-class="Label Stroke Indexed ColorStrokeBlack" data-item-index="5" data-renderer-id="0" transform="translate(687, 219)"><g id="tx_sarahend_3zhzx9r4lqb-fill" stroke="none" fill="#484848"><g><text style="font: 20px Roboto, sans-serif; white-space: pre;" font-size="20px" font-family="Roboto, sans-serif"><tspan x="12" y="33.5" dominant-baseline="ideographic">Sarah ends up </tspan><tspan x="12" y="57.5" dominant-baseline="ideographic">buying </tspan><tspan x="12" y="81.5" dominant-baseline="ideographic">products that </tspan><tspan x="12" y="105.5" dominant-baseline="ideographic">are not suitable</tspan></text></g></g></g><g id="g-root-tx_shefinds_1q9gjq59r4mbx-fill" data-item-order="1000000000" data-item-id="tx_shefinds_1q9gjq59r4mbx" data-item-class="Label Stroke Indexed ColorStrokeBlack" data-item-index="6" data-renderer-id="0" transform="translate(855, 243)"><g id="tx_shefinds_1q9gjq59r4mbx-fill" stroke="none" fill="#484848"><g><text style="font: 20px Roboto, sans-serif; white-space: pre;" font-size="20px" font-family="Roboto, sans-serif"><tspan x="12" y="33.5" dominant-baseline="ideographic">She finds out </tspan><tspan x="12" y="57.5" dominant-baseline="ideographic">about harmful </tspan><tspan x="12" y="81.5" dominant-baseline="ideographic">ingredients </tspan><tspan x="12" y="105.5" dominant-baseline="ideographic">post-purchase</tspan></text></g></g></g><g id="g-root-1.cu_sy_1hcklb19r4ky3-stroke" data-item-order="999760932" data-item-id="1.cu_sy_1hcklb19r4ky3" data-item-class="Part Indexed Indexed_1 Fill Stroke" data-item-index="1" data-renderer-id="0" transform="translate(3, 3)"><g id="1.cu_sy_1hcklb19r4ky3-stroke" fill="none" stroke-linecap="round" stroke-linejoin="round" stroke-miterlimit="4" stroke="#2c2c2c" stroke-width="2"><g><path d="M 10 10L 10 106L 178 106L 178 34L 226 10L 10 10Z"></path></g></g></g><g id="g-root-2.cu_sy_1hcklb19r4ky4-stroke" data-item-order="999760936" data-item-id="2.cu_sy_1hcklb19r4ky4" data-item-class="Part Indexed Fill Stroke" data-item-index="2" data-renderer-id="0" transform="translate(171, 3)"><g id="2.cu_sy_1hcklb19r4ky4-stroke" fill="none" stroke-linecap="round" stroke-linejoin="round" stroke-miterlimit="4" stroke="#2c2c2c" stroke-width="2"><g><path d="M 10 34L 10 130L 178 130L 178 58L 226 34L 10 34ZM 58 34L 58 10L 10 34L 58 34Z"></path></g></g></g><g id="g-root-3.cu_sy_1cwr36l9r4lqd-stroke" data-item-order="999760940" data-item-id="3.cu_sy_1cwr36l9r4lqd" data-item-class="Part Indexed Fill Stroke" data-item-index="3" data-renderer-id="0" transform="translate(339.0001220703125, 27)"><g id="3.cu_sy_1cwr36l9r4lqd-stroke" fill="none" stroke-linecap="round" stroke-linejoin="round" stroke-miterlimit="4" stroke="#2c2c2c" stroke-width="2"><g><path d="M 10 34L 10 130L 178 130L 178 58L 226 34L 10 34ZM 58.000022 34L 58.000022 10L 10.000122 34L 58.000022 34Z"></path></g></g></g><g id="g-root-4.cu_sy_14142xp9r4mj2-stroke" data-item-order="999760944" data-item-id="4.cu_sy_14142xp9r4mj2" data-item-class="Part Indexed Fill Stroke" data-item-index="4" data-renderer-id="0" transform="translate(507.0001220703125, 51)"><g id="4.cu_sy_14142xp9r4mj2-stroke" fill="none" stroke-linecap="round" stroke-linejoin="round" stroke-miterlimit="4" stroke="#2c2c2c" stroke-width="2"><g><path d="M 10 130L 10 34L 226 34L 178 58L 178 130L 10 130ZM 57.9999 34L 57.9999 10L 10 34L 57.9999 34Z"></path></g></g></g><g id="g-root-5.cu_sy_14142xp9r4mj3-stroke" data-item-order="999760948" data-item-id="5.cu_sy_14142xp9r4mj3" data-item-class="Part Indexed Fill Stroke" data-item-index="5" data-renderer-id="0" transform="translate(675, 75)"><g id="5.cu_sy_14142xp9r4mj3-stroke" fill="none" stroke-linecap="round" stroke-linejoin="round" stroke-miterlimit="4" stroke="#2c2c2c" stroke-width="2"><g><path d="M 10.000122 34L 10.000122 130L 178.000122 130L 178.000122 58L 226.000122 34L 10.000122 34ZM 58.0001 34L 58.0001 10L 10 34L 58.0001 34Z"></path></g></g></g><g id="g-root-6.cu_sy_zlakt99r4nbc-stroke" data-item-order="999760952" data-item-id="6.cu_sy_zlakt99r4nbc" data-item-class="Part Indexed Fill Stroke" data-item-index="6" data-renderer-id="0" transform="translate(843, 99)"><g id="6.cu_sy_zlakt99r4nbc-stroke" fill="none" stroke-linecap="round" stroke-linejoin="round" stroke-miterlimit="4" stroke="#2c2c2c" stroke-width="2"><g><path d="M 10 34L 10 130L 166 130L 166 143L 214 82L 166 22L 166 34L 10 34ZM 58 34L 58 10L 10 34L 58 34Z"></path></g></g></g><g id="g-root-tx_sarahmet_magjj19r4lqj-stroke" data-item-order="1000000000" data-item-id="tx_sarahmet_magjj19r4lqj" data-item-class="Label Stroke Indexed Indexed_1 ColorStrokeBlack" data-item-index="1" data-renderer-id="0" transform="translate(15, 123)"></g><g id="g-root-tx_discover_3zhzx9r4lqc-stroke" data-item-order="1000000000" data-item-id="tx_discover_3zhzx9r4lqc" data-item-class="Label Stroke Indexed InsideFill InsideColorFill" data-item-index="6" data-renderer-id="0" transform="translate(855, 123)"></g><g id="g-root-tx_shesearc_hun1el9r4mit-stroke" data-item-order="1000000000" data-item-id="tx_shesearc_hun1el9r4mit" data-item-class="Label Stroke Indexed ColorStrokeBlack" data-item-index="2" data-renderer-id="0" transform="translate(183, 147)"></g><g id="g-root-tx_sarahcom_8z015p9r4nbj-stroke" data-item-order="1000000000" data-item-id="tx_sarahcom_8z015p9r4nbj" data-item-class="Label Stroke Indexed ColorStrokeBlack" data-item-index="3" data-renderer-id="0" transform="translate(351, 171)"></g><g id="g-root-tx_shefeels_4jt04d9r4ky1-stroke" data-item-order="1000000000" data-item-id="tx_shefeels_4jt04d9r4ky1" data-item-class="Label Stroke Indexed ColorStrokeBlack" data-item-index="4" data-renderer-id="0" transform="translate(519, 195)"></g><g id="g-root-tx_sarahend_3zhzx9r4lqb-stroke" data-item-order="1000000000" data-item-id="tx_sarahend_3zhzx9r4lqb" data-item-class="Label Stroke Indexed ColorStrokeBlack" data-item-index="5" data-renderer-id="0" transform="translate(687, 219)"></g><g id="g-root-tx_shefinds_1q9gjq59r4mbx-stroke" data-item-order="1000000000" data-item-id="tx_shefinds_1q9gjq59r4mbx" data-item-class="Label Stroke Indexed ColorStrokeBlack" data-item-index="6" data-renderer-id="0" transform="translate(855, 243)"></g></g></g></svg>