<?xml version="1.0" encoding="utf-8" standalone="yes"?>
<!DOCTYPE svg PUBLIC "-//W3C//DTD SVG 1.1//EN" "http://www.w3.org/Graphics/SVG/1.1/DTD/svg11.dtd">
<svg width="768" height="624" viewBox="0 0 768 624" style="fill:none;stroke:none;fill-rule:evenodd;clip-rule:evenodd;stroke-linecap:round;stroke-linejoin:round;stroke-miterlimit:1.5;" version="1.1" xmlns="http://www.w3.org/2000/svg" xmlns:xlink="http://www.w3.org/1999/xlink"><style id="fontImports">@import url("https://fonts.googleapis.com/css2?family=Roboto:wght@400;700&amp;display=block");</style><g id="items" style="isolation: isolate"><g id="blend" style="mix-blend-mode:normal"><g id="g-root-0.cu_sy_v8m8gsab9fk4-fill" data-item-order="999853844" data-item-id="0.cu_sy_v8m8gsab9fk4" data-item-class="Part Indexed_0 Fill Stroke ColorFillBlack ColorStrokeGray" data-item-index="0" data-renderer-id="0" transform="translate(267, 158.35772705078125)"><g id="0.cu_sy_v8m8gsab9fk4-fill" stroke="none" fill="#666666"><g><path d="M 166.699 244.285C 165.529 242.803 164.274 241.391 162.941 240.058L 129 206.117L 95.0589 240.059C 93.8827 241.235 92.7673 242.472 91.7178 243.764C 66.0029 235.114 44.1819 217.99 29.5746 195.712L 50.0436 155.539L 10.1103 135.192C 10.037 133.471 10 131.74 10 130C 10 101.9785 19.6045 76.2003 35.7012 55.7778L 79.9467 62.7859L 87.0537 17.9135C 100.3881 12.8012 114.867 10 130 10C 144.245 10 157.91 12.4821 170.587 17.0375L 177.833 62.7859L 224.052 55.4652C 240.297 75.937 250 101.8354 250 130C 250 132.063 249.948 134.114 249.845 136.152L 209.833 156.539L 230.068 196.253C 215.162 218.722 192.891 235.88 166.699 244.285Z"></path></g></g></g><g id="g-root-5.cu_sy_v8m8gsab9fk5-fill" data-item-order="999853848" data-item-id="5.cu_sy_v8m8gsab9fk5" data-item-class="Part Indexed Fill Stroke" data-item-index="5" data-renderer-id="0" transform="translate(249.0430908203125, 108.22216796875)"><g id="5.cu_sy_v8m8gsab9fk5-fill" stroke="none" fill="#dd8433"><g><path d="M 105.412445 65.512619C 107.334228 53.379517 104.62735 40.513245 96.836242 29.789719C 81.254242 8.342926 51.236542 3.588585 29.789734 19.170609C 8.342956 34.752609 3.588592 64.77031 19.170624 86.217102C 26.961578 96.94046 38.361542 103.490738 50.494598 105.41243L 97.903808 112.922104L 105.410736 65.523529C 105.411316 65.519898 105.411865 65.516266 105.412445 65.512619Z"></path></g></g></g><g id="g-root-4.cu_sy_mcz87wab9gcu-fill" data-item-order="999853852" data-item-id="4.cu_sy_mcz87wab9gcu" data-item-class="Part Indexed Fill Stroke" data-item-index="4" data-renderer-id="0" transform="translate(194.4705810546875, 276.86090087890625)"><g id="4.cu_sy_mcz87wab9gcu-fill" stroke="none" fill="#17b0e3"><g><path d="M 100.781448 79.804077C 95.204544 90.749664 85.452041 99.567627 72.845779 103.663635C 47.63356 111.855591 20.554199 98.057983 12.362243 72.845764C 4.170303 47.633514 17.967926 20.554169 43.180145 12.362213C 55.786209 8.266266 68.859115 9.667694 79.804489 15.244659L 122.57344 37.035644L 100.786484 79.794342C 100.784775 79.797546 100.783096 79.800812 100.781448 79.804077Z"></path></g></g></g><g id="g-root-3.cu_sy_mcz87wab9gcv-fill" data-item-order="999853856" data-item-id="3.cu_sy_mcz87wab9gcv" data-item-class="Part Indexed Fill Stroke" data-item-index="3" data-renderer-id="0" transform="translate(338, 354.474853515625)"><g id="3.cu_sy_mcz87wab9gcv-fill" stroke="none" fill="#93c131"><g><path d="M 91.940796 43.941101C 100.627289 52.627411 106 64.627594 106 77.882507C 106 104.392212 84.509705 125.882996 58 125.882996C 31.490295 125.882996 10 104.392212 10 77.882507C 10 64.627716 15.372589 52.627716 24.058899 43.941406L 57.999695 10L 91.933105 43.933289C 91.935608 43.935913 91.938202 43.938507 91.940796 43.941101Z"></path></g></g></g><g id="g-root-2.cu_sy_hxs76kab9dzc-fill" data-item-order="999853860" data-item-id="2.cu_sy_hxs76kab9dzc" data-item-class="Part Indexed Fill Stroke" data-item-index="2" data-renderer-id="0" transform="translate(466.832763671875, 277.86102294921875)"><g id="2.cu_sy_hxs76kab9dzc-fill" stroke="none" fill="#3bc482"><g><path d="M 52.76828 15.244873C 63.713715 9.667725 76.786835 8.266266 89.392975 12.362244C 114.605194 20.554199 128.40329 47.633697 120.211395 72.845947C 112.01944 98.058166 84.939606 111.855621 59.727387 103.663666C 47.121308 99.567718 37.368866 90.749878 31.791901 79.804504L 10 37.036407L 52.758454 15.249786C 52.761749 15.248199 52.764984 15.246551 52.76828 15.244873Z"></path></g></g></g><g id="g-root-1.cu_sy_dhyp24ab9erl-fill" data-item-order="999853864" data-item-id="1.cu_sy_dhyp24ab9erl" data-item-class="Part Indexed Indexed_1 Fill Stroke" data-item-index="1" data-renderer-id="0" transform="translate(426.729736328125, 108.22216796875)"><g id="1.cu_sy_dhyp24ab9erl-fill" stroke="none" fill="#e3cd09"><g><path d="M 10.594422 65.512619C 8.672638 53.379517 11.379517 40.513245 19.170624 29.789719C 34.752625 8.342926 64.770325 3.588585 86.217102 19.170609C 107.663941 34.752609 112.418274 64.77031 96.836243 86.217102C 89.045288 96.94046 77.645325 103.490738 65.512268 105.41243L 18.103058 112.922104L 10.596131 65.523529C 10.595551 65.519898 10.595002 65.516266 10.594422 65.512619Z"></path></g></g></g><g id="g-root-tx_age_1uqjsd8abdmv4-fill" data-item-order="1000000000" data-item-id="tx_age_1uqjsd8abdmv4" data-item-class="Label Stroke Indexed Indexed_1" data-item-index="1" data-renderer-id="0" transform="translate(542, 74)"><g id="tx_age_1uqjsd8abdmv4-fill" stroke="none" fill="#e3cd09"><g><text style="font: bold 20px Roboto, sans-serif; white-space: pre;" font-weight="bold" font-size="20px" font-family="Roboto, sans-serif"><tspan x="12" y="33.5" dominant-baseline="ideographic">Age</tspan></text></g></g></g><g id="g-root-tx_sarahisa_mbqa1oabdma7-fill" data-item-order="1000000000" data-item-id="tx_sarahisa_mbqa1oabdma7" data-item-class="Label Stroke Indexed ColorFillBlack ColorStrokeBlack" data-item-index="5" data-renderer-id="0" transform="translate(74, 110)"><g id="tx_sarahisa_mbqa1oabdma7-fill" stroke="none" fill="#484848"><g><text style="font: 15px Roboto, sans-serif; white-space: pre;" font-size="15px" font-family="Roboto, sans-serif"><tspan x="12.36" y="27.5" dominant-baseline="ideographic">Sarah is a busy, health-</tspan><tspan x="54.02" y="45.5" dominant-baseline="ideographic">conscious mom, </tspan><tspan x="15.72" y="63.5" dominant-baseline="ideographic">showcasing her active </tspan><tspan x="108.47" y="81.5" dominant-baseline="ideographic">lifestyle.</tspan></text></g></g></g><g id="g-root-tx_sarahism_dg39ssabdnup-fill" data-item-order="1000000000" data-item-id="tx_sarahism_dg39ssabdnup" data-item-class="Label Stroke Indexed ColorFillBlack ColorStrokeBlack" data-item-index="3" data-renderer-id="0" transform="translate(309, 530)"><g id="tx_sarahism_dg39ssabdnup-fill" stroke="none" fill="#484848"><g><text style="font: 15px Roboto, sans-serif; white-space: pre;" font-size="15px" font-family="Roboto, sans-serif"><tspan x="15.96" y="27.5" dominant-baseline="ideographic">Sarah is married with </tspan><tspan x="12.34" y="45.5" dominant-baseline="ideographic">two kids, emphasizing </tspan><tspan x="23.73" y="63.5" dominant-baseline="ideographic">her family-oriented </tspan><tspan x="58.38" y="81.5" dominant-baseline="ideographic">lifestyle.</tspan></text></g></g></g><g id="g-root-tx_sarahis3_4l2qn0abdlhn-fill" data-item-order="1000000000" data-item-id="tx_sarahis3_4l2qn0abdlhn" data-item-class="Label Stroke Indexed Indexed_1 ColorFillBlack ColorStrokeBlack" data-item-index="1" data-renderer-id="0" transform="translate(542, 110)"><g id="tx_sarahis3_4l2qn0abdlhn-fill" stroke="none" fill="#484848"><g><text style="font: 15px Roboto, sans-serif; white-space: pre;" font-size="15px" font-family="Roboto, sans-serif"><tspan x="12" y="27.5" dominant-baseline="ideographic">Sarah is 32 years old, </tspan><tspan x="12" y="45.5" dominant-baseline="ideographic">representing her </tspan><tspan x="12" y="63.5" dominant-baseline="ideographic">youthful yet mature </tspan><tspan x="12" y="81.5" dominant-baseline="ideographic">stage.</tspan></text></g></g></g><g id="g-root-musi_vahnq4abatjg-fill" data-item-order="1000000000" data-item-id="musi_vahnq4abatjg" data-item-class="Icon Stroke Indexed InsideFill InsideColorFill" data-item-index="5" data-renderer-id="0" transform="translate(272, 134)"></g><g id="g-root-thir_v7daakabdlhh-fill" data-item-order="1000000000" data-item-id="thir_v7daakabdlhh" data-item-class="Icon Stroke Indexed Indexed_1 InsideFill InsideColorFill" data-item-index="1" data-renderer-id="0" transform="translate(453, 134)"></g><g id="g-root-tx_lifestyl_1qaqa8sabdmvi-fill" data-item-order="1000000000" data-item-id="tx_lifestyl_1qaqa8sabdmvi" data-item-class="Label Stroke Indexed" data-item-index="5" data-renderer-id="0" transform="translate(146, 74)"><g id="tx_lifestyl_1qaqa8sabdmvi-fill" stroke="none" fill="#dd8433"><g><text style="font: bold 20px Roboto, sans-serif; white-space: pre;" font-weight="bold" font-size="20px" font-family="Roboto, sans-serif"><tspan x="14.93" y="33.5" dominant-baseline="ideographic">Lifestyle</tspan></text></g></g></g><g id="g-root-prot_mbqa1oabdma6-fill" data-item-order="1000000000" data-item-id="prot_mbqa1oabdma6" data-item-class="Icon Stroke InsideFill ColorStrokeGray" data-item-index="none" data-renderer-id="0" transform="translate(339, 230)"></g><g id="g-root-tx_location_598ikabdm9x-fill" data-item-order="1000000000" data-item-id="tx_location_598ikabdm9x" data-item-class="Label Stroke Indexed" data-item-index="4" data-renderer-id="0" transform="translate(86, 278)"><g id="tx_location_598ikabdm9x-fill" stroke="none" fill="#17b0e3"><g><text style="font: bold 20px Roboto, sans-serif; white-space: pre;" font-weight="bold" font-size="20px" font-family="Roboto, sans-serif"><tspan x="14.13" y="33.5" dominant-baseline="ideographic">Location</tspan></text></g></g></g><g id="g-root-tx_occupati_598ikabdm9w-fill" data-item-order="1000000000" data-item-id="tx_occupati_598ikabdm9w" data-item-class="Label Stroke Indexed" data-item-index="2" data-renderer-id="0" transform="translate(602, 278)"><g id="tx_occupati_598ikabdm9w-fill" stroke="none" fill="#3bc482"><g><text style="font: bold 20px Roboto, sans-serif; white-space: pre;" font-weight="bold" font-size="20px" font-family="Roboto, sans-serif"><tspan x="12" y="33.5" dominant-baseline="ideographic">Occupation</tspan></text></g></g></g><g id="g-root-tx_sarahliv_hvwrx8abdn2g-fill" data-item-order="1000000000" data-item-id="tx_sarahliv_hvwrx8abdn2g" data-item-class="Label Stroke Indexed ColorFillBlack ColorStrokeBlack" data-item-index="4" data-renderer-id="0" transform="translate(2, 314)"><g id="tx_sarahliv_hvwrx8abdn2g-fill" stroke="none" fill="#484848"><g><text style="font: 15px Roboto, sans-serif; white-space: pre;" font-size="15px" font-family="Roboto, sans-serif"><tspan x="26.2" y="30.5" dominant-baseline="ideographic">Sarah lives in an urban </tspan><tspan x="22.68" y="48.5" dominant-baseline="ideographic">area, indicating her city </tspan><tspan x="120.47" y="66.5" dominant-baseline="ideographic">lifestyle.</tspan></text></g></g></g><g id="g-root-buil_qofeqkabc6x4-fill" data-item-order="1000000000" data-item-id="buil_qofeqkabc6x4" data-item-class="Icon Stroke Indexed InsideFill InsideColorFill" data-item-index="4" data-renderer-id="0" transform="translate(218, 302)"></g><g id="g-root-char_9ftoabdm2z-fill" data-item-order="1000000000" data-item-id="char_9ftoabdm2z" data-item-class="Icon Stroke Indexed InsideFill InsideColorFill" data-item-index="2" data-renderer-id="0" transform="translate(506, 302)"></g><g id="g-root-tx_sarahwor_4l2qn0abdlhm-fill" data-item-order="1000000000" data-item-id="tx_sarahwor_4l2qn0abdlhm" data-item-class="Label Stroke Indexed ColorFillBlack ColorStrokeBlack" data-item-index="2" data-renderer-id="0" transform="translate(602, 314)"><g id="tx_sarahwor_4l2qn0abdlhm-fill" stroke="none" fill="#484848"><g><text style="font: 15px Roboto, sans-serif; white-space: pre;" font-size="15px" font-family="Roboto, sans-serif"><tspan x="12" y="27.5" dominant-baseline="ideographic">Sarah works as a </tspan><tspan x="12" y="45.5" dominant-baseline="ideographic">marketing manager, </tspan><tspan x="12" y="63.5" dominant-baseline="ideographic">highlighting her </tspan><tspan x="12" y="81.5" dominant-baseline="ideographic">professional life.</tspan></text></g></g></g><g id="g-root-hold_1hfpr30abc741-fill" data-item-order="1000000000" data-item-id="hold_1hfpr30abc741" data-item-class="Icon Stroke Indexed InsideFill InsideColorFill" data-item-index="3" data-renderer-id="0" transform="translate(362, 398)"></g><g id="g-root-tx_family_1qaqa8sabdmvj-fill" data-item-order="1000000000" data-item-id="tx_family_1qaqa8sabdmvj" data-item-class="Label Stroke Indexed" data-item-index="3" data-renderer-id="0" transform="translate(351, 494)"><g id="tx_family_1qaqa8sabdmvj-fill" stroke="none" fill="#93c131"><g><text style="font: bold 20px Roboto, sans-serif; white-space: pre;" font-weight="bold" font-size="20px" font-family="Roboto, sans-serif"><tspan x="16.34" y="33.5" dominant-baseline="ideographic">Family</tspan></text></g></g></g><g id="g-root-tx_understa_dhyp24ab9erm-fill" data-item-order="1000000000" data-item-id="tx_understa_dhyp24ab9erm" data-item-class="Label Stroke Title ColorFillBlack ColorStrokeBlack" data-item-index="none" data-renderer-id="0" transform="translate(261, 2)"><g id="tx_understa_dhyp24ab9erm-fill" stroke="none" fill="#484848"><g><text style="font: bold 20px Roboto, sans-serif; white-space: pre;" font-weight="bold" font-size="20px" font-family="Roboto, sans-serif"><tspan x="15.47" y="33.5" dominant-baseline="ideographic">Understanding Sarah's Profile</tspan></text></g></g></g><g id="g-root-0.cu_sy_v8m8gsab9fk4-stroke" data-item-order="999853844" data-item-id="0.cu_sy_v8m8gsab9fk4" data-item-class="Part Indexed_0 Fill Stroke ColorFillBlack ColorStrokeGray" data-item-index="0" data-renderer-id="0" transform="translate(267, 158.35772705078125)"><g id="0.cu_sy_v8m8gsab9fk4-stroke" fill="none" stroke-linecap="round" stroke-linejoin="round" stroke-miterlimit="4" stroke="#2c2c2c" stroke-width="2"><g><path d="M 166.6988 244.2845C 192.8911 235.8805 215.1623 218.7219 230.0683 196.2531M 91.7178 243.7642C 66.0029 235.1144 44.1819 217.9903 29.5746 195.7116M 10.1103 135.1924C 10.037 133.4707 10 131.7397 10 130C 10 101.9785 19.6045 76.2003 35.7012 55.7778M 87.0537 17.9135C 100.3881 12.8012 114.8669 10 130 10C 144.2451 10 157.9105 12.4821 170.5872 17.0375M 224.0516 55.4652C 240.2971 75.937 250 101.8354 250 130C 250 132.0633 249.9479 134.1144 249.845 136.1522"></path></g></g></g><g id="g-root-5.cu_sy_v8m8gsab9fk5-stroke" data-item-order="999853848" data-item-id="5.cu_sy_v8m8gsab9fk5" data-item-class="Part Indexed Fill Stroke" data-item-index="5" data-renderer-id="0" transform="translate(249.0430908203125, 108.22216796875)"><g id="5.cu_sy_v8m8gsab9fk5-stroke" fill="none" stroke-linecap="round" stroke-linejoin="round" stroke-miterlimit="4" stroke="#2c2c2c" stroke-width="2"><g><path d="M 105.412445 65.512619C 107.334228 53.379517 104.62735 40.513245 96.836242 29.789719C 81.254242 8.342926 51.236542 3.588593 29.789734 19.170609C 8.342956 34.752609 3.588592 64.77031 19.170624 86.217102C 26.961578 96.94046 38.361542 103.490738 50.494598 105.41243L 97.903534 112.921692L 105.410736 65.523529C 105.411316 65.519898 105.411865 65.516266 105.412445 65.512619Z"></path></g></g></g><g id="g-root-4.cu_sy_mcz87wab9gcu-stroke" data-item-order="999853852" data-item-id="4.cu_sy_mcz87wab9gcu" data-item-class="Part Indexed Fill Stroke" data-item-index="4" data-renderer-id="0" transform="translate(194.4705810546875, 276.86090087890625)"><g id="4.cu_sy_mcz87wab9gcu-stroke" fill="none" stroke-linecap="round" stroke-linejoin="round" stroke-miterlimit="4" stroke="#2c2c2c" stroke-width="2"><g><path d="M 100.781448 79.804077C 95.204544 90.749664 85.452041 99.567627 72.845779 103.663635C 47.63356 111.855591 20.554199 98.057983 12.362243 72.845764C 4.170303 47.633514 17.967926 20.554169 43.180145 12.362213C 55.786209 8.266266 68.859115 9.667694 79.804489 15.244659L 122.572952 37.035797L 100.786484 79.794342C 100.784775 79.797546 100.783096 79.800812 100.781448 79.804077Z"></path></g></g></g><g id="g-root-3.cu_sy_mcz87wab9gcv-stroke" data-item-order="999853856" data-item-id="3.cu_sy_mcz87wab9gcv" data-item-class="Part Indexed Fill Stroke" data-item-index="3" data-renderer-id="0" transform="translate(338, 354.474853515625)"><g id="3.cu_sy_mcz87wab9gcv-stroke" fill="none" stroke-linecap="round" stroke-linejoin="round" stroke-miterlimit="4" stroke="#2c2c2c" stroke-width="2"><g><path d="M 91.940796 43.941101C 100.627289 52.627411 106 64.627594 106 77.882507C 106 104.392212 84.509705 125.882507 58 125.882507C 31.490295 125.882507 10 104.392181 10 77.882507C 10 64.627716 15.372589 52.627716 24.058899 43.941406L 57.999695 10L 91.933105 43.933289C 91.935608 43.935913 91.938202 43.938507 91.940796 43.941101Z"></path></g></g></g><g id="g-root-2.cu_sy_hxs76kab9dzc-stroke" data-item-order="999853860" data-item-id="2.cu_sy_hxs76kab9dzc" data-item-class="Part Indexed Fill Stroke" data-item-index="2" data-renderer-id="0" transform="translate(466.832763671875, 277.86102294921875)"><g id="2.cu_sy_hxs76kab9dzc-stroke" fill="none" stroke-linecap="round" stroke-linejoin="round" stroke-miterlimit="4" stroke="#2c2c2c" stroke-width="2"><g><path d="M 52.76828 15.244873C 63.713715 9.667725 76.786835 8.266266 89.392975 12.362244C 114.605194 20.554199 128.402863 47.633545 120.210907 72.845764C 112.018952 98.058014 84.939606 111.855621 59.727387 103.663666C 47.121308 99.567718 37.368866 90.749878 31.791901 79.804504L 10 37.036407L 52.758454 15.249786C 52.761749 15.248199 52.764984 15.246551 52.76828 15.244873Z"></path></g></g></g><g id="g-root-1.cu_sy_dhyp24ab9erl-stroke" data-item-order="999853864" data-item-id="1.cu_sy_dhyp24ab9erl" data-item-class="Part Indexed Indexed_1 Fill Stroke" data-item-index="1" data-renderer-id="0" transform="translate(426.729736328125, 108.22216796875)"><g id="1.cu_sy_dhyp24ab9erl-stroke" fill="none" stroke-linecap="round" stroke-linejoin="round" stroke-miterlimit="4" stroke="#2c2c2c" stroke-width="2"><g><path d="M 10.594422 65.512619C 8.672638 53.379517 11.379517 40.513245 19.170624 29.789719C 34.752625 8.342926 64.770325 3.588593 86.217102 19.170609C 107.663941 34.752609 112.418274 64.77031 96.836243 86.217102C 89.045288 96.94046 77.645325 103.490738 65.512268 105.41243L 18.103333 112.921692L 10.596131 65.523529C 10.595551 65.519898 10.595002 65.516266 10.594422 65.512619Z"></path></g></g></g><g id="g-root-tx_age_1uqjsd8abdmv4-stroke" data-item-order="1000000000" data-item-id="tx_age_1uqjsd8abdmv4" data-item-class="Label Stroke Indexed Indexed_1" data-item-index="1" data-renderer-id="0" transform="translate(542, 74)"></g><g id="g-root-tx_sarahisa_mbqa1oabdma7-stroke" data-item-order="1000000000" data-item-id="tx_sarahisa_mbqa1oabdma7" data-item-class="Label Stroke Indexed ColorFillBlack ColorStrokeBlack" data-item-index="5" data-renderer-id="0" transform="translate(74, 110)"></g><g id="g-root-tx_sarahism_dg39ssabdnup-stroke" data-item-order="1000000000" data-item-id="tx_sarahism_dg39ssabdnup" data-item-class="Label Stroke Indexed ColorFillBlack ColorStrokeBlack" data-item-index="3" data-renderer-id="0" transform="translate(309, 530)"></g><g id="g-root-tx_sarahis3_4l2qn0abdlhn-stroke" data-item-order="1000000000" data-item-id="tx_sarahis3_4l2qn0abdlhn" data-item-class="Label Stroke Indexed Indexed_1 ColorFillBlack ColorStrokeBlack" data-item-index="1" data-renderer-id="0" transform="translate(542, 110)"></g><g id="g-root-musi_vahnq4abatjg-stroke" data-item-order="1000000000" data-item-id="musi_vahnq4abatjg" data-item-class="Icon Stroke Indexed InsideFill InsideColorFill" data-item-index="5" data-renderer-id="0" transform="translate(272, 134)"><g id="musi_vahnq4abatjg-stroke" fill="none" stroke-linecap="round" stroke-linejoin="round" stroke-miterlimit="4" stroke="#2c2c2c" stroke-width="2"><g><path d="M 23.062 23.9C 26.37571 23.900002 29.062 21.213709 29.062 17.9C 29.062 14.586292 26.37571 11.900001 23.062 11.900001C 19.748291 11.900001 17.062 14.586292 17.062 17.9C 17.062 21.213709 19.748291 23.900002 23.062 23.900002ZM 31.652 32.700001L 34.251999 33.299999C 34.652 33.299999 35.052002 33.700001 35.052002 34.099998L 35.652 37.299999C 35.851997 38.900002 37.452 40.099998 39.052002 39.700001C 40.652 39.5 41.851997 37.900002 41.452 36.299999L 40.851997 33.099998C 40.452 30.299999 38.251999 27.9 35.251999 27.299999C 23.852001 25.1 28.052 24.700001 20.452 30.700001C 20.052 30.9 19.652 31.1 19.452 30.9L 15.852 29.1C 14.452 28.299999 12.652 28.9 11.852 30.5C 11.052 31.9 11.652 33.700001 13.252 34.5L 16.852001 36.299999C 17.852001 36.700001 18.852001 37.099998 20.052 37.099998C 21.652 37.099998 23.251999 36.5 24.652 35.5L 25.852001 34.5L 27.252001 39.5L 23.652 40.700001C 21.852001 41.5 20.452 42.900002 19.852001 44.700001C 19.251999 46.5 19.251999 48.5 20.052 50.099998L 21.052 52.700001C 21.452 53.900002 22.652 54.5 23.852001 54.5C 24.251999 54.5 24.652 54.5 25.052 54.299999C 26.652 53.700001 27.252001 51.900002 26.652 50.299999L 25.452 47.5C 25.188 46.889999 25.268 46.484001 25.852001 45.900002L 29.652 44.5L 35.851997 55.099998C 36.452 56.099998 37.452 56.5 38.452 56.5C 39.052002 56.5 39.452 56.299999 40.052002 56.099998C 41.452 55.299999 42.051998 53.5 41.052002 51.900002L 36.251999 43.700001M 48.5 26.299999C 50.156857 26.300001 51.5 24.956856 51.5 23.299999C 51.5 21.643147 50.156857 20.299999 48.5 20.299999C 46.843147 20.299999 45.5 21.643147 45.5 23.299999C 45.5 24.956856 46.843147 26.300001 48.5 26.300001ZM 51.5 23.299999L 51.5 14.3C 51.5 13.5 52.099998 12.7 52.900002 12.3L 56.5 11.5"></path></g></g></g><g id="g-root-thir_v7daakabdlhh-stroke" data-item-order="1000000000" data-item-id="thir_v7daakabdlhh" data-item-class="Icon Stroke Indexed Indexed_1 InsideFill InsideColorFill" data-item-index="1" data-renderer-id="0" transform="translate(453, 134)"><g id="thir_v7daakabdlhh-stroke" fill="none" stroke-linecap="round" stroke-linejoin="round" stroke-miterlimit="4" stroke="#2c2c2c" stroke-width="2"><g><path d="M 39.142857 32.285713L 42.57143 32.285713L 42.57143 47.714287M 39.142857 47.714287L 46 47.714287M 15.142858 18.571428C 13.24931 18.571428 11.714286 20.106453 11.714286 22L 11.714286 52.857143C 11.714286 54.750694 13.24931 56.285713 15.142858 56.285713L 52.857143 56.285713C 54.750694 56.285713 56.285713 54.750694 56.285713 52.857143L 56.285713 22C 56.285713 20.106453 54.750694 18.571428 52.857143 18.571428L 46 18.571428M 22 11.714286L 22 25.428572M 46 11.714286L 46 25.428572M 22 18.571428L 39.142857 18.571428M 22 32.285713L 30.571428 32.285713L 25.428572 39.142857C 25.428572 39.142857 30.571428 39.142857 30.571428 42.57143C 30.767559 43.9865 30.289185 45.411701 29.279015 46.421871C 28.268843 47.432041 26.843641 47.910419 25.428572 47.714287L 22 47.714287"></path></g></g></g><g id="g-root-tx_lifestyl_1qaqa8sabdmvi-stroke" data-item-order="1000000000" data-item-id="tx_lifestyl_1qaqa8sabdmvi" data-item-class="Label Stroke Indexed" data-item-index="5" data-renderer-id="0" transform="translate(146, 74)"></g><g id="g-root-prot_mbqa1oabdma6-stroke" data-item-order="1000000000" data-item-id="prot_mbqa1oabdma6" data-item-class="Icon Stroke InsideFill ColorStrokeGray" data-item-index="none" data-renderer-id="0" transform="translate(339, 230)"><g id="prot_mbqa1oabdma6-stroke" fill="none" stroke-linecap="round" stroke-linejoin="round" stroke-miterlimit="4" stroke="#2c2c2c" stroke-width="2"><g><path d="M 58 16L 58 12M 58 54L 58 70M 22 74C 22 80.627419 27.372583 86 34 86C 40.627419 86 46 80.627419 46 74C 46 67.372589 40.627419 62 34 62C 27.372583 62 22 67.372589 22 74ZM 23.66 67.908005C 29.420652 73.875305 38.273216 75.654419 45.891998 72.375999M 96.568001 86.575996C 94.970139 83.953499 94.173492 80.921219 94.275993 77.851997L 94.276001 74.283997C 94.276001 67.50415 88.779846 62.008003 82 62.008003C 75.220154 62.008003 69.723999 67.50415 69.723999 74.284004L 69.723999 77.851997C 69.8265 80.921219 69.029846 83.953499 67.431992 86.575996M 69.723999 76.311996C 74.438393 76.304352 78.917381 74.250938 82 70.684006C 85.082619 74.250938 89.561615 76.304352 94.276001 76.312004M 71.223999 76.239998C 71.778885 81.776283 76.437973 85.991753 82.001999 85.991753C 87.566025 85.991753 92.225113 81.776283 92.779999 76.239998M 49 89C 49 93.970566 53.029438 98 58 98C 62.970562 98 67 93.970566 67 89C 67 84.029434 62.970562 80 58 80C 53.029438 80 49 84.029434 49 89ZM 66.987999 104C 64.681999 101.452545 61.406143 99.999237 57.969997 99.999237C 54.533848 99.999237 51.257992 101.452545 48.951996 103.999992M 41.031998 91.272003C 35.887428 89.344963 30.177013 89.616669 25.238647 92.023453C 20.300278 94.430237 16.567913 98.760605 14.916 104M 74.968002 91.272003C 80.112572 89.344963 85.822983 89.616669 90.761353 92.023453C 95.699722 94.430237 99.432083 98.760605 101.084 104M 104 54C 104 50.688 99.075996 48 93 48C 86.924004 48 82 50.688 82 54C 82 50.688 76.627998 48 70 48C 63.372002 48 58 50.688 58 54C 58 50.688 52.627998 48 46 48C 39.372002 48 34 50.688 34 54C 34 50.688 29.076 48 23 48C 16.924 48 12 50.688 12 54C 12 33.012001 32.596001 16 58 16C 83.403999 16 104 33.012001 104 54Z"></path></g></g></g><g id="g-root-tx_location_598ikabdm9x-stroke" data-item-order="1000000000" data-item-id="tx_location_598ikabdm9x" data-item-class="Label Stroke Indexed" data-item-index="4" data-renderer-id="0" transform="translate(86, 278)"></g><g id="g-root-tx_occupati_598ikabdm9w-stroke" data-item-order="1000000000" data-item-id="tx_occupati_598ikabdm9w" data-item-class="Label Stroke Indexed" data-item-index="2" data-renderer-id="0" transform="translate(602, 278)"></g><g id="g-root-tx_sarahliv_hvwrx8abdn2g-stroke" data-item-order="1000000000" data-item-id="tx_sarahliv_hvwrx8abdn2g" data-item-class="Label Stroke Indexed ColorFillBlack ColorStrokeBlack" data-item-index="4" data-renderer-id="0" transform="translate(2, 314)"></g><g id="g-root-buil_qofeqkabc6x4-stroke" data-item-order="1000000000" data-item-id="buil_qofeqkabc6x4" data-item-class="Icon Stroke Indexed InsideFill InsideColorFill" data-item-index="4" data-renderer-id="0" transform="translate(218, 302)"><g id="buil_qofeqkabc6x4-stroke" fill="none" stroke-linecap="round" stroke-linejoin="round" stroke-miterlimit="4" stroke="#2c2c2c" stroke-width="2"><g><path d="M 11 57L 57 57M 52 21C 54.737476 21.008759 56.973049 18.814545 57.0154 16.077381C 57.057751 13.340217 54.891136 11.077888 52.154697 11.00195C 49.418262 10.926011 47.129513 13.0647 47.02 15.8C 46.032772 14.884805 44.556789 14.739281 43.409843 15.444059C 42.262897 16.148838 41.725853 17.53133 42.096268 18.825546C 42.466682 20.119759 43.653851 21.008768 45 21ZM 31 57L 31 34C 31 33.447716 30.552284 33 30 33L 28 33C 27.447716 33 27 32.552284 27 32L 27 26C 27 25.447716 27.447716 25 28 25L 30 25C 30.552284 25 31 24.552284 31 24L 31 14.988L 17.504 22.700001C 17.192448 22.877964 17.000116 23.209202 17 23.568001L 17 57M 31 14.988L 31 11M 37 57L 37 45.987999C 37 45.435715 37.447716 44.987999 38 44.987999L 41 44.987999L 41 36C 41 35.447716 40.552284 35 40 35L 38 35C 37.447716 35 37 34.552284 37 34L 37 22.987999L 50.582001 32.700001C 50.844585 32.887932 51.000263 33.191093 51 33.514L 51 57M 37 22.987999L 37 16.987999M 45 37L 45 41M 23 25.987999L 23 31.988001M 27 38.987999L 31 38.987999M 27 44.987999L 31 44.987999M 27 50.987999L 31 50.987999M 37 51L 41 51"></path></g></g></g><g id="g-root-char_9ftoabdm2z-stroke" data-item-order="1000000000" data-item-id="char_9ftoabdm2z" data-item-class="Icon Stroke Indexed InsideFill InsideColorFill" data-item-index="2" data-renderer-id="0" transform="translate(506, 302)"><g id="char_9ftoabdm2z-stroke" fill="none" stroke-linecap="round" stroke-linejoin="round" stroke-miterlimit="4" stroke="#2c2c2c" stroke-width="2"><g><path d="M 38.737999 21.338001L 30.790001 21.338001M 19.436001 21.338001L 11.488 21.338001M 15.182 48.313999C 15.181761 50.046131 16.585865 51.450432 18.318001 51.450432C 20.050133 51.450432 21.454239 50.046131 21.453999 48.313999C 21.454239 46.581863 20.050133 45.177567 18.318001 45.177567C 16.585865 45.177567 15.181761 46.581863 15.181999 48.313999M 32.954002 51.450001C 32.953758 53.182133 34.357864 54.586433 36.089996 54.586433C 37.822136 54.586433 39.226238 53.182133 39.225998 51.449997C 39.226238 49.717865 37.822136 48.313564 36.089996 48.313564C 34.357864 48.313564 32.953758 49.717865 32.953999 51.449997M 44.453999 37.860001C 44.453758 39.592133 45.857864 40.996429 47.59 40.996429C 49.322132 40.996429 50.726238 39.592133 50.725998 37.860001C 50.726238 36.127865 49.322132 34.723564 47.59 34.723564C 45.857864 34.723564 44.453758 36.127865 44.453999 37.860001M 11 54.585999L 15.958 50.380001M 21.362 49.074001L 33.048 50.689999M 38.218002 49.146L 45.464001 40.164001M 50.099998 35.978001L 57 32.632M 11.488 13.414L 11.488 26.214001C 11.57842 33.674477 17.651978 39.674866 25.112999 39.674866C 32.57402 39.674866 38.647579 33.674477 38.737999 26.213999L 38.737999 13.414L 30.563999 13.414L 30.563999 25.644001C 30.563799 28.653809 28.12381 31.093636 25.113998 31.093636C 22.104191 31.093636 19.6642 28.653809 19.664 25.643999L 19.664 13.414Z"></path></g></g></g><g id="g-root-tx_sarahwor_4l2qn0abdlhm-stroke" data-item-order="1000000000" data-item-id="tx_sarahwor_4l2qn0abdlhm" data-item-class="Label Stroke Indexed ColorFillBlack ColorStrokeBlack" data-item-index="2" data-renderer-id="0" transform="translate(602, 314)"></g><g id="g-root-hold_1hfpr30abc741-stroke" data-item-order="1000000000" data-item-id="hold_1hfpr30abc741" data-item-class="Icon Stroke Indexed InsideFill InsideColorFill" data-item-index="3" data-renderer-id="0" transform="translate(362, 398)"><g id="hold_1hfpr30abc741-stroke" fill="none" stroke-linecap="round" stroke-linejoin="round" stroke-miterlimit="4" stroke="#2c2c2c" stroke-width="2"><g><path d="M 11 39.056L 19 39.056L 19 55.056L 11 55.056ZM 19 52.056C 40.056 59.077999 33.599998 59.278 56.445999 47.728001C 56.754162 47.569084 56.960739 47.264767 56.994678 46.919704C 57.028618 46.574646 56.885296 46.235909 56.613998 46.02C 55.286747 44.865963 53.448395 44.499359 51.779999 45.056L 41.379997 48.507999M 29 49.056L 40 49.056C 41.104568 49.056 42 48.160568 42 47.056C 42 45.951431 41.104568 45.056 40 45.056L 34 45.056C 31.629602 42.60976 28.404175 41.176239 25 41.056L 19 41.056M 19 17.056C 19 20.369709 21.686291 23.056 25 23.056C 28.313709 23.056 31 20.369709 31 17.056C 31 13.742291 28.313709 11.056 25 11.056C 21.686291 11.056 19 13.742291 19 17.056ZM 19.83 14.01C 21.707212 15.956848 24.295532 17.056435 27 17.056C 28.35603 17.06024 29.698692 16.788033 30.945999 16.256001M 54.284 23.346001C 53.484909 22.034084 53.086586 20.51726 53.137997 18.981998L 53.138 17.200001C 53.138 13.810077 50.389923 11.062 47 11.062C 43.610077 11.062 40.862 13.810077 40.862 17.200001L 40.862 18.984001C 40.91341 20.51926 40.515087 22.036083 39.716 23.348M 40.862 18.212C 43.21888 18.208679 45.458321 17.182724 47 15.4C 48.541309 17.183468 50.780807 18.210175 53.138 18.214001M 41.612 18.175999C 41.889442 20.944141 44.218987 23.051876 47.000999 23.051876C 49.783012 23.051876 52.112556 20.944141 52.389999 18.175999M 27 25.257999C 24.057449 24.657354 21.00075 25.410992 18.674654 27.310638C 16.348558 29.210283 14.999388 32.054771 15 35.057999M 45 25.257999C 47.942551 24.657354 50.999252 25.410992 53.325348 27.310638C 55.651443 29.210283 57.000614 32.054771 57 35.057999M 31.5 27.556C 31.5 30.041281 33.514717 32.056 36 32.056C 38.485283 32.056 40.5 30.041281 40.5 27.556C 40.5 25.070719 38.485283 23.056 36 23.056C 33.514717 23.056 31.5 25.070719 31.5 27.556ZM 42 39.056C 41.542961 36.558479 39.588531 34.604141 37.090992 34.147217C 34.593452 33.690289 32.073685 34.826069 30.761999 37"></path></g></g></g><g id="g-root-tx_family_1qaqa8sabdmvj-stroke" data-item-order="1000000000" data-item-id="tx_family_1qaqa8sabdmvj" data-item-class="Label Stroke Indexed" data-item-index="3" data-renderer-id="0" transform="translate(351, 494)"></g><g id="g-root-tx_understa_dhyp24ab9erm-stroke" data-item-order="1000000000" data-item-id="tx_understa_dhyp24ab9erm" data-item-class="Label Stroke Title ColorFillBlack ColorStrokeBlack" data-item-index="none" data-renderer-id="0" transform="translate(261, 2)"></g></g></g></svg>