<?xml version="1.0" encoding="utf-8" standalone="yes"?>
<!DOCTYPE svg PUBLIC "-//W3C//DTD SVG 1.1//EN" "http://www.w3.org/Graphics/SVG/1.1/DTD/svg11.dtd">
<svg width="816" height="659" viewBox="0 0 816 659" style="fill:none;stroke:none;fill-rule:evenodd;clip-rule:evenodd;stroke-linecap:round;stroke-linejoin:round;stroke-miterlimit:1.5;" version="1.1" xmlns="http://www.w3.org/2000/svg" xmlns:xlink="http://www.w3.org/1999/xlink"><style id="fontImports"></style><g id="items" style="isolation: isolate"><g id="blend" style="mix-blend-mode:normal"><g id="g-root-0.cu_sy_1hbcs4qbow64h-fill" data-item-order="999782636" data-item-id="0.cu_sy_1hbcs4qbow64h" data-item-class="Part Indexed_0 Fill Stroke ColorStrokeBlack" data-item-index="0" data-renderer-id="0" transform="translate(199.00399780273438, 194.1943359375)"></g><g id="g-root-1.cu_sy_1hbcs4qbow64i-fill" data-item-order="999782640" data-item-id="1.cu_sy_1hbcs4qbow64i" data-item-class="Part Indexed Indexed_1 Fill Stroke ColorStrokeBlack" data-item-index="1" data-renderer-id="0" transform="translate(198, 374)"></g><g id="g-root-2.cu_sy_1hbcs4qbow64j-fill" data-item-order="999782644" data-item-id="2.cu_sy_1hbcs4qbow64j" data-item-class="Part Indexed Fill Stroke ColorStrokeBlack" data-item-index="2" data-renderer-id="0" transform="translate(506, 272)"></g><g id="g-root-3.cu_sy_18fprvubow6x8-fill" data-item-order="999782648" data-item-id="3.cu_sy_18fprvubow6x8" data-item-class="Part Indexed Fill Stroke ColorStrokeBlack" data-item-index="3" data-renderer-id="0" transform="translate(272, 230)"></g><g id="g-root-4.cu_sy_18fprvubow6x9-fill" data-item-order="999782652" data-item-id="4.cu_sy_18fprvubow6x9" data-item-class="Part Indexed Fill Stroke ColorStrokeBlack" data-item-index="4" data-renderer-id="0" transform="translate(488, 200)"></g><g id="g-root-5.cu_sy_140iquibow4jq-fill" data-item-order="999782656" data-item-id="5.cu_sy_140iquibow4jq" data-item-class="Part Indexed Fill Stroke ColorStrokeBlack" data-item-index="5" data-renderer-id="0" transform="translate(308, 164)"></g><g id="g-root-tx_userjour_8yep2ibow5c9-fill" data-item-order="1000000000" data-item-id="tx_userjour_8yep2ibow5c9" data-item-class="Label Stroke Title ColorStrokeBlack" data-item-index="none" data-renderer-id="0" transform="translate(218, 2)"><g id="tx_userjour_8yep2ibow5c9-fill" stroke="none" fill="#484848"><g><text style="font: bold 25px Arial, Helvetica, sans-serif; white-space: pre;" font-weight="bold" font-size="25px" font-family="Arial, Helvetica, sans-serif"><tspan x="15.13" y="42" dominant-baseline="ideographic">User Journey Mapping Process</tspan></text></g></g></g><g id="g-root-tx_discussi_hu1pbebow4jk-fill" data-item-order="1000000000" data-item-id="tx_discussi_hu1pbebow4jk" data-item-class="Label Stroke Indexed ColorStrokeBlack" data-item-index="5" data-renderer-id="0" transform="translate(110, 86)"><g id="tx_discussi_hu1pbebow4jk-fill" stroke="none" fill="#484848"><g><text style="font: bold 20px Arial, Helvetica, sans-serif; white-space: pre;" font-weight="bold" font-size="20px" font-family="Arial, Helvetica, sans-serif"><tspan x="17.06" y="33" dominant-baseline="ideographic">Discuss Insights</tspan></text></g></g></g><g id="g-root-tx_recogniz_de876ybow4jz-fill" data-item-order="1000000000" data-item-id="tx_recogniz_de876ybow4jz" data-item-class="Label Stroke Indexed ColorStrokeBlack" data-item-index="4" data-renderer-id="0" transform="translate(554, 98)"><g id="tx_recogniz_de876ybow4jz-fill" stroke="none" fill="#484848"><g><text style="font: bold 20px Arial, Helvetica, sans-serif; white-space: pre;" font-weight="bold" font-size="20px" font-family="Arial, Helvetica, sans-serif"><tspan x="12" y="33" dominant-baseline="ideographic">Recognize Pain </tspan><tspan x="12" y="57" dominant-baseline="ideographic">Points</tspan></text></g></g></g><g id="g-root-tx_analyzin_qp28h6bow64r-fill" data-item-order="1000000000" data-item-id="tx_analyzin_qp28h6bow64r" data-item-class="Label Stroke Indexed ColorStrokeBlack" data-item-index="5" data-renderer-id="0" transform="translate(110, 122)"><g id="tx_analyzin_qp28h6bow64r-fill" stroke="none" fill="#484848"><g><text style="font: 20px Arial, Helvetica, sans-serif; white-space: pre;" font-size="20px" font-family="Arial, Helvetica, sans-serif"><tspan x="15.91" y="33" dominant-baseline="ideographic">Analyzing insights </tspan><tspan x="37.02" y="57" dominant-baseline="ideographic">gained from the </tspan><tspan x="65.94" y="81" dominant-baseline="ideographic">journey map</tspan></text></g></g></g><g id="g-root-chat_dcbgiybyrjm0-fill" data-item-order="1000000000" data-item-id="chat_dcbgiybyrjm0" data-item-class="Icon Stroke Indexed InsideFill InsideColorFill ColorStrokeBlack" data-item-index="5" data-renderer-id="0" transform="translate(314, 170)"></g><g id="g-root-tx_spotting_qp28h6bow64q-fill" data-item-order="1000000000" data-item-id="tx_spotting_qp28h6bow64q" data-item-class="Label Stroke Indexed ColorStrokeBlack" data-item-index="4" data-renderer-id="0" transform="translate(554, 158)"><g id="tx_spotting_qp28h6bow64q-fill" stroke="none" fill="#484848"><g><text style="font: 20px Arial, Helvetica, sans-serif; white-space: pre;" font-size="20px" font-family="Arial, Helvetica, sans-serif"><tspan x="12" y="33" dominant-baseline="ideographic">Spotting challenges </tspan><tspan x="12" y="57" dominant-baseline="ideographic">faced by users</tspan></text></g></g></g><g id="g-root-add_v8ml4abpa6mi-fill" data-item-order="1000000000" data-item-id="add_v8ml4abpa6mi" data-item-class="Icon Stroke Indexed InsideFill InsideColorFill ColorStrokeBlack" data-item-index="4" data-renderer-id="0" transform="translate(494, 206)"></g><g id="g-root-tx_identify_m98qcqbow6x2-fill" data-item-order="1000000000" data-item-id="tx_identify_m98qcqbow6x2" data-item-class="Label Stroke Indexed ColorStrokeBlack" data-item-index="3" data-renderer-id="0" transform="translate(62, 242)"><g id="tx_identify_m98qcqbow6x2-fill" stroke="none" fill="#484848"><g><text style="font: bold 20px Arial, Helvetica, sans-serif; white-space: pre;" font-weight="bold" font-size="20px" font-family="Arial, Helvetica, sans-serif"><tspan x="20.21" y="33" dominant-baseline="ideographic">Identify Emotions</tspan></text></g></g></g><g id="g-root-nine_zpp1eybp7eve-fill" data-item-order="1000000000" data-item-id="nine_zpp1eybp7eve" data-item-class="Icon Stroke Indexed InsideFill InsideColorFill ColorStrokeBlack" data-item-index="3" data-renderer-id="0" transform="translate(281, 239)"></g><g id="g-root-tx_understa_zkp8q2bow5c1-fill" data-item-order="1000000000" data-item-id="tx_understa_zkp8q2bow5c1" data-item-class="Label Stroke Indexed ColorStrokeBlack" data-item-index="3" data-renderer-id="0" transform="translate(62, 278)"><g id="tx_understa_zkp8q2bow5c1-fill" stroke="none" fill="#484848"><g><text style="font: 20px Arial, Helvetica, sans-serif; white-space: pre;" font-size="20px" font-family="Arial, Helvetica, sans-serif"><tspan x="13.45" y="33" dominant-baseline="ideographic">Understanding user </tspan><tspan x="35.68" y="57" dominant-baseline="ideographic">emotions at each </tspan><tspan x="139.07" y="81" dominant-baseline="ideographic">stage</tspan></text></g></g></g><g id="g-root-tx_highligh_m98qcqbow6x1-fill" data-item-order="1000000000" data-item-id="tx_highligh_m98qcqbow6x1" data-item-class="Label Stroke Indexed ColorStrokeBlack" data-item-index="2" data-renderer-id="0" transform="translate(602, 266)"><g id="tx_highligh_m98qcqbow6x1-fill" stroke="none" fill="#484848"><g><text style="font: bold 20px Arial, Helvetica, sans-serif; white-space: pre;" font-weight="bold" font-size="20px" font-family="Arial, Helvetica, sans-serif"><tspan x="12" y="33" dominant-baseline="ideographic">Highlight </tspan><tspan x="12" y="57" dominant-baseline="ideographic">Touchpoints</tspan></text></g></g></g><g id="g-root-righ_1heh5kabp1ssv-fill" data-item-order="1000000000" data-item-id="righ_1heh5kabp1ssv" data-item-class="Icon Stroke Indexed InsideFill InsideColorFill ColorStrokeBlack" data-item-index="2" data-renderer-id="0" transform="translate(518, 284)"></g><g id="g-root-tx_identify_zkp8q2bow5c0-fill" data-item-order="1000000000" data-item-id="tx_identify_zkp8q2bow5c0" data-item-class="Label Stroke Indexed ColorStrokeBlack" data-item-index="2" data-renderer-id="0" transform="translate(602, 326)"><g id="tx_identify_zkp8q2bow5c0-fill" stroke="none" fill="#484848"><g><text style="font: 20px Arial, Helvetica, sans-serif; white-space: pre;" font-size="20px" font-family="Arial, Helvetica, sans-serif"><tspan x="12" y="33" dominant-baseline="ideographic">Identifying key </tspan><tspan x="12" y="57" dominant-baseline="ideographic">interaction points in </tspan><tspan x="12" y="81" dominant-baseline="ideographic">the journey</tspan></text></g></g></g><g id="g-root-tx_visualre_m98qcqbow6x0-fill" data-item-order="1000000000" data-item-id="tx_visualre_m98qcqbow6x0" data-item-class="Label Stroke Indexed Indexed_1 ColorStrokeBlack" data-item-index="1" data-renderer-id="0" transform="translate(2, 374)"><g id="tx_visualre_m98qcqbow6x0-fill" stroke="none" fill="#484848"><g><text style="font: bold 20px Arial, Helvetica, sans-serif; white-space: pre;" font-weight="bold" font-size="20px" font-family="Arial, Helvetica, sans-serif"><tspan x="105.45" y="33" dominant-baseline="ideographic">Visual </tspan><tspan x="18.41" y="57" dominant-baseline="ideographic">Representation</tspan></text></g></g></g><g id="g-root-proc_1cxep9mboxk3k-fill" data-item-order="1000000000" data-item-id="proc_1cxep9mboxk3k" data-item-class="Icon Stroke Indexed Indexed_1 InsideFill InsideColorFill ColorStrokeBlack" data-item-index="1" data-renderer-id="0" transform="translate(210, 386)"></g><g id="g-root-tx_creating_140iquibow4jr-fill" data-item-order="1000000000" data-item-id="tx_creating_140iquibow4jr" data-item-class="Label Stroke Indexed Indexed_1 ColorStrokeBlack" data-item-index="1" data-renderer-id="0" transform="translate(2, 434)"><g id="tx_creating_140iquibow4jr-fill" stroke="none" fill="#484848"><g><text style="font: 20px Arial, Helvetica, sans-serif; white-space: pre;" font-size="20px" font-family="Arial, Helvetica, sans-serif"><tspan x="15.03" y="33" dominant-baseline="ideographic">Creating a visual </tspan><tspan x="25.03" y="57" dominant-baseline="ideographic">map of the user </tspan><tspan x="98.4" y="81" dominant-baseline="ideographic">journey</tspan></text></g></g></g><g id="g-root-0.cu_sy_1hbcs4qbow64h-stroke" data-item-order="999782636" data-item-id="0.cu_sy_1hbcs4qbow64h" data-item-class="Part Indexed_0 Fill Stroke ColorStrokeBlack" data-item-index="0" data-renderer-id="0" transform="translate(199.00399780273438, 194.1943359375)"><g id="0.cu_sy_1hbcs4qbow64h-stroke" fill="none" stroke-linecap="butt" stroke-linejoin="miter" stroke-miterlimit="4" stroke="#484848" stroke-width="1"><g><path d="M 296.996002 451.754761C 345.235626 438.904663 371.921417 418.867004 366.2518 393.974976C 359.152313 362.805176 284.96109 347.079712 207.47232 339.905029C 65.996002 326.805664 2.502991 298.805206 10.702087 253.195007C 11.264099 250.069092 12.312805 247.042297 13.85849 244.118713M 440.096283 451.754761C 456.267303 433.863525 462.999481 413.648926 458.752472 391.945007C 447.982513 336.904907 383.252472 302.476807 209.202301 293.394989C 130.052307 289.265015 77.029114 274.524811 80.112091 255.164978C 83.195099 235.805206 125.192291 223.305206 212.422302 217.785004C 333.48233 210.123901 377.894012 191.86499 373.512298 164.994995C 372.551727 159.104797 368.903595 153.560486 361.82492 148.536682M 129.996002 18.035706C 122.770813 20.077194 118.141296 22.475906 116.922088 25.195007C 112.272095 35.565002 148.802307 43.095001 219.752289 45.785004C 260.672302 47.334991 297.292267 51.054993 299.182281 59.345001C 301.182281 68.144989 259.262298 72.505188 213.522308 73.805206C 175.942016 74.873291 148.040008 77.642517 127.996002 81.545196M 147.496002 14.465698C 166.7164 11.568497 193.098297 10 221.352295 10L 221.122284 10C 184.712311 10 153.522095 18.714996 151.492096 25.195007C 149.362091 32.014999 178.502289 35.134994 220.142303 36.705002C 256.593414 38.081802 283.645416 40.638504 302.209137 44.3591M 325.996002 51.934509C 330.033233 54.177704 332.502106 56.6483 333.48233 59.345001C 338.352325 72.744995 300.062286 83.63501 218.002289 86.825012C 168.592315 88.744995 128.182098 95.214996 125.192108 104.024994C 122.182098 113.205017 145.273498 120.463013 216.47232 122.714996C 262.649597 124.175598 296.658478 127.854706 320.996002 133.165588M 93.815002 92.941101C 88.30719 96.408508 85.466797 100.157593 84.802093 104.035004C 82.277313 118.764801 98.752197 136.464905 212.422302 141.805206C 269.002228 144.463379 319.172272 153.225006 321.622284 165.015015C 326.172272 178.225006 286.752228 189.018005 213.522308 191.86499C 154.487213 194.160095 109.177215 199.79718 76.477203 208.305695M 412.331451 418.465454C 410.691498 422.595459 408.351471 426.725464 405.361481 430.735474M 414.251495 394.085449C 415.201446 398.085449 415.531463 402.145386 415.231476 406.175415M 401.761505 371.325439C 404.931488 374.905395 407.601471 378.635437 409.681488 382.405395M 377.021454 352.495422C 382.031463 355.505432 386.661468 358.695435 390.761505 361.975464M 342.641449 337.465454C 349.041473 339.79541 355.171478 342.31543 360.87149 344.975464M 301.231476 325.745422C 308.581451 327.31543 315.791473 329.095459 322.661468 331.04541M 255.161468 318.805786C 263.091461 319.585815 270.981476 320.445435 278.64151 321.615417M 206.741485 314.805817C 206.741485 314.805817 222.999359 315.706818 231.12149 316.085815M 158.091461 310.845428C 165.861481 311.665436 173.931488 312.30542 182.071472 312.735443M 115.481476 303.685425C 122.101471 305.215424 129.13147 306.605438 136.38147 307.795441M 79.741485 293.80542C 84.641479 295.865417 90.041473 297.835419 95.811462 299.645416M 56.361481 280.385437C 59.221466 282.765442 62.641479 285.105438 66.531463 287.335419M 111.271484 215.735413C 105.841461 217.105408 100.611481 218.605408 95.711487 220.185425M 146.161468 208.925415C 140.021484 209.81543 133.971466 210.835449 128.171478 211.965424M 184.401459 205.115417C 177.87149 205.495422 171.341461 206.005432 164.991485 206.635437M 223.721466 203.185425L 204.111481 204.375427M 261.561493 200.835449C 255.531463 201.475433 249.271454 201.995422 242.971466 202.385437M 295.1315 195.695435C 290.051483 196.755432 284.651459 197.735413 279.081451 198.585449M 322.681488 188.31543C 318.951446 189.695435 313.831451 191.015442 309.421478 192.245422M 339.361481 180.425415C 337.221466 181.985413 334.651459 183.535431 331.711456 185.005432M 347.241485 170.81543C 346.751495 172.435425 345.851471 174.06543 344.551483 175.665436M 345.431488 161.245422C 346.271454 162.475433 346.891449 163.735413 347.261505 164.995422C 347.361481 165.325439 347.441498 165.655426 347.501495 165.975433M 316.401459 144.735413C 320.011505 145.885437 323.391449 147.105408 326.441498 148.375427M 291.981476 138.695435C 296.461456 139.545441 300.791473 140.485413 304.851471 141.495422M 263.161468 134.545441C 268.221466 135.06543 273.221466 135.685425 278.011505 136.375427M 231.661468 132.455444C 237.031463 132.625427 242.401459 132.885437 247.63147 133.235413M 199.011474 131.925415C 204.411468 132.115417 209.941498 132.205444 215.451477 132.215424M 167.681488 129.755432C 172.611481 130.285431 177.751495 130.735413 182.961456 131.095428M 140.681488 125.675415C 144.691467 126.495422 149.011474 127.255432 153.501465 127.935425M 120.061462 120.085419C 122.87149 121.115417 126.041473 122.105438 129.461487 123.035431M 107.231476 113.525421C 108.681488 114.675415 110.491485 115.80542 112.62149 116.895447M 102.811462 106.535431C 102.851471 107.705444 103.231476 108.895447 103.961487 110.045441M 135.321472 87.965424C 131.951477 88.765442 128.751465 89.615417 125.841461 90.505432M 157.811462 83.825439C 153.751465 84.395447 149.791473 85.045441 146.041473 85.725433M 183.751495 81.105438C 179.231476 81.435425 174.761474 81.825439 170.441498 82.275421M 211.601471 79.935425C 206.901459 79.995422 202.171478 80.125427 197.551483 80.325439M 239.351471 79.445435C 234.841461 79.645447 230.221466 79.775421 225.601471 79.845428M 265.261505 77.515442C 261.221466 77.955444 256.981476 78.335419 252.671478 78.655426M 287.291473 74.265442C 284.041473 74.905426 280.541473 75.495422 276.8815 76.035431M 303.791473 69.995422C 301.571441 70.765442 299.061493 71.525421 296.311493 72.235413M 313.671478 65.085419C 312.611481 65.935425 311.241485 66.785431 309.601471 67.595428M 316.461456 59.92543C 316.581451 60.785431 316.411468 61.655426 315.951446 62.505432M 302.041473 50.365433C 304.241485 51.06543 306.231476 51.805435 307.951446 52.56543M 286.351471 46.555435C 289.341461 47.115433 292.181488 47.715424 294.791473 48.355438M 266.541473 43.695435C 270.101471 44.085434 273.581451 44.525421 276.8815 44.995422M 243.891479 41.92543C 247.821472 42.125427 251.721466 42.375427 255.491485 42.665436M 219.791473 41.335434L 219.941498 41.335434C 223.951477 41.335434 227.981476 41.385437 231.931488 41.475433M 195.411468 40.725433C 199.341461 40.92543 203.391479 41.075424 207.461456 41.185425M 173.141479 38.955429C 176.571472 39.335434 180.181488 39.685425 183.891479 39.975433M 154.761474 36.185425C 157.421478 36.715424 160.311493 37.215424 163.37149 37.67543M 141.591461 32.685425C 143.291473 33.31543 145.271484 33.92543 147.461487 34.505432M 134.491485 28.745422C 135.141479 29.42543 136.071472 30.095428 137.251465 30.755432M 133.741485 24.665436C 133.641479 24.835434 133.561462 25.005432 133.491485 25.185425C 133.301483 25.685425 133.241485 26.195435 133.331482 26.705429M 149.801483 17.265427C 147.591461 17.805435 145.571472 18.365433 143.781463 18.945435M 165.12149 14.395431C 162.261474 14.81543 159.511474 15.265427 156.961487 15.735428M 183.861481 12.31543C 180.531463 12.585434 177.251495 12.905426 174.13147 13.255432M 394.261505 442.715454C 390.768463 445.827393 386.821564 448.889038 382.496002 451.840088"></path></g></g></g><g id="g-root-1.cu_sy_1hbcs4qbow64i-stroke" data-item-order="999782640" data-item-id="1.cu_sy_1hbcs4qbow64i" data-item-class="Part Indexed Indexed_1 Fill Stroke ColorStrokeBlack" data-item-index="1" data-renderer-id="0" transform="translate(198, 374)"><g id="1.cu_sy_1hbcs4qbow64i-stroke" fill="none" stroke-linecap="butt" stroke-linejoin="miter" stroke-miterlimit="4" stroke="#484848" stroke-width="1"><g><path d="M 10.0011 46.2732C 10.0011 26.2399 26.0941 10 45.9463 10L 46.0537 10C 65.9059 10 81.9989 26.2399 81.9989 46.2732L 82 46.2732C 82 72.8129 46 98 46 98C 46 98 10 72.8129 10 46.2732L 10.0011 46.2732Z"></path></g></g></g><g id="g-root-2.cu_sy_1hbcs4qbow64j-stroke" data-item-order="999782644" data-item-id="2.cu_sy_1hbcs4qbow64j" data-item-class="Part Indexed Fill Stroke ColorStrokeBlack" data-item-index="2" data-renderer-id="0" transform="translate(506, 272)"><g id="2.cu_sy_1hbcs4qbow64j-stroke" fill="none" stroke-linecap="butt" stroke-linejoin="miter" stroke-miterlimit="4" stroke="#484848" stroke-width="1"><g><path d="M 10.0009 40.5024C 10.0009 23.6562 23.4117 10 39.9552 10L 40.0448 10C 56.5883 10 69.9991 23.6562 69.9991 40.5024L 70 40.5024C 70 62.8199 40 84 40 84C 40 84 10 62.8199 10 40.5024L 10.0009 40.5024Z"></path></g></g></g><g id="g-root-3.cu_sy_18fprvubow6x8-stroke" data-item-order="999782648" data-item-id="3.cu_sy_18fprvubow6x8" data-item-class="Part Indexed Fill Stroke ColorStrokeBlack" data-item-index="3" data-renderer-id="0" transform="translate(272, 230)"><g id="3.cu_sy_18fprvubow6x8-stroke" fill="none" stroke-linecap="butt" stroke-linejoin="miter" stroke-miterlimit="4" stroke="#484848" stroke-width="1"><g><path d="M 10.0007 34.3195C 10.0007 20.8881 20.7294 10 33.9642 10L 34.0358 10C 47.2706 10 57.9993 20.8881 57.9993 34.3195L 58 34.3195C 58 52.1132 34 69 34 69C 34 69 10 52.1132 10 34.3195L 10.0007 34.3195Z"></path></g></g></g><g id="g-root-4.cu_sy_18fprvubow6x9-stroke" data-item-order="999782652" data-item-id="4.cu_sy_18fprvubow6x9" data-item-class="Part Indexed Fill Stroke ColorStrokeBlack" data-item-index="4" data-renderer-id="0" transform="translate(488, 200)"><g id="4.cu_sy_18fprvubow6x9-stroke" fill="none" stroke-linecap="butt" stroke-linejoin="miter" stroke-miterlimit="4" stroke="#484848" stroke-width="1"><g><path d="M 10.0005 28.2396C 10.0005 18.1661 18.047 10 27.9731 10L 28.0269 10C 37.953 10 45.9995 18.1661 45.9995 28.2396L 46 28.2396C 46 41.5849 28 54.25 28 54.25C 28 54.25 10 41.5849 10 28.2396L 10.0005 28.2396Z"></path></g></g></g><g id="g-root-5.cu_sy_140iquibow4jq-stroke" data-item-order="999782656" data-item-id="5.cu_sy_140iquibow4jq" data-item-class="Part Indexed Fill Stroke ColorStrokeBlack" data-item-index="5" data-renderer-id="0" transform="translate(308, 164)"><g id="5.cu_sy_140iquibow4jq-stroke" fill="none" stroke-linecap="butt" stroke-linejoin="miter" stroke-miterlimit="4" stroke="#484848" stroke-width="1"><g><path d="M 10.0005 28.2396C 10.0005 18.1661 18.047 10 27.9731 10L 28.0269 10C 37.953 10 45.9995 18.1661 45.9995 28.2396L 46 28.2396C 46 41.5849 28 54.25 28 54.25C 28 54.25 10 41.5849 10 28.2396L 10.0005 28.2396Z"></path></g></g></g><g id="g-root-tx_userjour_8yep2ibow5c9-stroke" data-item-order="1000000000" data-item-id="tx_userjour_8yep2ibow5c9" data-item-class="Label Stroke Title ColorStrokeBlack" data-item-index="none" data-renderer-id="0" transform="translate(218, 2)"></g><g id="g-root-tx_discussi_hu1pbebow4jk-stroke" data-item-order="1000000000" data-item-id="tx_discussi_hu1pbebow4jk" data-item-class="Label Stroke Indexed ColorStrokeBlack" data-item-index="5" data-renderer-id="0" transform="translate(110, 86)"></g><g id="g-root-tx_recogniz_de876ybow4jz-stroke" data-item-order="1000000000" data-item-id="tx_recogniz_de876ybow4jz" data-item-class="Label Stroke Indexed ColorStrokeBlack" data-item-index="4" data-renderer-id="0" transform="translate(554, 98)"></g><g id="g-root-tx_analyzin_qp28h6bow64r-stroke" data-item-order="1000000000" data-item-id="tx_analyzin_qp28h6bow64r" data-item-class="Label Stroke Indexed ColorStrokeBlack" data-item-index="5" data-renderer-id="0" transform="translate(110, 122)"></g><g id="g-root-chat_dcbgiybyrjm0-stroke" data-item-order="1000000000" data-item-id="chat_dcbgiybyrjm0" data-item-class="Icon Stroke Indexed InsideFill InsideColorFill ColorStrokeBlack" data-item-index="5" data-renderer-id="0" transform="translate(314, 170)"><g id="chat_dcbgiybyrjm0-stroke" fill="none" stroke-linecap="butt" stroke-linejoin="miter" stroke-miterlimit="4" stroke="#484848" stroke-width="1"><g><path d="M 30.5 19.5C 30.5 20.052285 30.052285 20.5 29.5 20.5L 25.5 20.5L 22.5 23.5L 22.5 20.5L 15.5 20.5C 14.947715 20.5 14.5 20.052285 14.5 19.5L 14.5 11.5C 14.5 10.947715 14.947715 10.5 15.5 10.5L 29.5 10.5C 30.052285 10.5 30.5 10.947715 30.5 11.5ZM 12.13 26.25C 12.13 27.768784 13.361217 29 14.88 29C 16.398783 29 17.63 27.768784 17.63 26.25C 17.63 24.731217 16.398783 23.5 14.88 23.5C 13.361217 23.5 12.13 24.731217 12.13 26.25M 19.26 33.5C 18.798192 31.452248 16.979178 29.997774 14.88 29.997774C 12.780821 29.997774 10.961808 31.452248 10.5 33.499999M 26.37 26.25C 26.370001 27.768784 27.601218 29 29.120001 29C 30.638784 29 31.870001 27.768784 31.870001 26.25C 31.870001 24.731217 30.638784 23.5 29.120001 23.5C 27.601218 23.5 26.370001 24.731217 26.370001 26.25M 33.5 33.5C 33.038191 31.452248 31.219177 29.997774 29.119999 29.997774C 27.020821 29.997774 25.201807 31.452248 24.739999 33.499999M 25.5 13.5L 27.5 15.5L 25.5 17.5M 19.5 13.5L 17.5 15.5L 19.5 17.5M 23.5 13.5L 21.5 17.5"></path></g></g></g><g id="g-root-tx_spotting_qp28h6bow64q-stroke" data-item-order="1000000000" data-item-id="tx_spotting_qp28h6bow64q" data-item-class="Label Stroke Indexed ColorStrokeBlack" data-item-index="4" data-renderer-id="0" transform="translate(554, 158)"></g><g id="g-root-add_v8ml4abpa6mi-stroke" data-item-order="1000000000" data-item-id="add_v8ml4abpa6mi" data-item-class="Icon Stroke Indexed InsideFill InsideColorFill ColorStrokeBlack" data-item-index="4" data-renderer-id="0" transform="translate(494, 206)"><g id="add_v8ml4abpa6mi-stroke" fill="none" stroke-linecap="butt" stroke-linejoin="miter" stroke-miterlimit="4" stroke="#484848" stroke-width="1"><g><path d="M 23.5 28.5C 23.5 31.261424 25.738577 33.5 28.5 33.5C 31.261424 33.5 33.5 31.261424 33.5 28.5C 33.5 25.738577 31.261424 23.5 28.5 23.5C 25.738577 23.5 23.5 25.738577 23.5 28.5ZM 28.5 26.5L 28.5 30.5M 26.5 28.5L 30.5 28.5M 10.5 23.5C 10.509723 22.571687 10.70169 21.654322 11.065 20.8C 11.465 20 13.128 19.45 15.218 18.676C 15.783 18.467 15.69 16.992 15.44 16.716C 14.634276 15.842917 14.239535 14.667427 14.355 13.485C 14.282603 12.73213 14.526369 11.983037 15.027972 11.416956C 15.529576 10.850874 16.243889 10.518732 17 10.5C 17.756111 10.518732 18.470424 10.850874 18.972027 11.416956C 19.473631 11.983037 19.717396 12.73213 19.645 13.485C 19.760757 14.667762 19.365997 15.843676 18.56 16.717C 18.31 16.993 18.217 18.468 18.782 18.677C 20.872 19.451 22.536 20.004 22.935 20.801C 23.29831 21.655322 23.490277 22.572687 23.5 23.501ZM 20.912 10.737C 21.253019 10.579531 21.624381 10.498637 22 10.5C 22.756111 10.518732 23.470423 10.850874 23.972027 11.416956C 24.47363 11.983037 24.717396 12.73213 24.644999 13.485C 24.760757 14.667762 24.365996 15.843676 23.559999 16.717C 23.31 16.993 23.217 18.468 23.782 18.677C 25.872 19.451 27.536 20.004 27.935 20.801C 27.959 20.85 27.983 20.901 28.005 20.951"></path></g></g></g><g id="g-root-tx_identify_m98qcqbow6x2-stroke" data-item-order="1000000000" data-item-id="tx_identify_m98qcqbow6x2" data-item-class="Label Stroke Indexed ColorStrokeBlack" data-item-index="3" data-renderer-id="0" transform="translate(62, 242)"></g><g id="g-root-nine_zpp1eybp7eve-stroke" data-item-order="1000000000" data-item-id="nine_zpp1eybp7eve" data-item-class="Icon Stroke Indexed InsideFill InsideColorFill ColorStrokeBlack" data-item-index="3" data-renderer-id="0" transform="translate(281, 239)"><g id="nine_zpp1eybp7eve-stroke" fill="none" stroke-linecap="butt" stroke-linejoin="miter" stroke-miterlimit="4" stroke="#484848" stroke-width="1"><g><path d="M 11.071428 25C 11.071429 32.692539 17.307463 38.92857 25 38.92857C 32.692539 38.92857 38.92857 32.692539 38.92857 25C 38.92857 17.307463 32.692539 11.071429 25 11.071428L 25 25ZM 17.414286 17.414286L 15.142858 15.142858"></path></g></g></g><g id="g-root-tx_understa_zkp8q2bow5c1-stroke" data-item-order="1000000000" data-item-id="tx_understa_zkp8q2bow5c1" data-item-class="Label Stroke Indexed ColorStrokeBlack" data-item-index="3" data-renderer-id="0" transform="translate(62, 278)"></g><g id="g-root-tx_highligh_m98qcqbow6x1-stroke" data-item-order="1000000000" data-item-id="tx_highligh_m98qcqbow6x1" data-item-class="Label Stroke Indexed ColorStrokeBlack" data-item-index="2" data-renderer-id="0" transform="translate(602, 266)"></g><g id="g-root-righ_1heh5kabp1ssv-stroke" data-item-order="1000000000" data-item-id="righ_1heh5kabp1ssv" data-item-class="Icon Stroke Indexed InsideFill InsideColorFill ColorStrokeBlack" data-item-index="2" data-renderer-id="0" transform="translate(518, 284)"><g id="righ_1heh5kabp1ssv-stroke" fill="none" stroke-linecap="butt" stroke-linejoin="miter" stroke-miterlimit="4" stroke="#484848" stroke-width="1"><g><path d="M 15.2335 34.762001L 15.2335 28.012001C 15.2335 25.112505 17.584005 22.762001 20.483501 22.762001C 23.382996 22.762001 25.733501 25.112505 25.733501 28.012001L 25.733501 34.762001M 22.733501 28.012001C 22.733501 26.76936 21.726141 25.762001 20.483501 25.762001C 19.24086 25.762001 18.233501 26.76936 18.233501 28.012001L 18.2335 30.262001L 22.733501 30.262001ZM 28.733501 34.762001L 28.733501 28.012001C 28.733501 25.112505 31.084007 22.762001 33.983501 22.762001C 36.882996 22.762001 39.233501 25.112505 39.233501 28.012001L 39.233501 34.762001M 36.233501 28.012001C 36.233501 26.76936 35.226139 25.762001 33.983501 25.762001C 32.74086 25.762001 31.733501 26.76936 31.733501 28.012001L 31.733501 30.262001L 36.233501 30.262001ZM 31.733501 10.762L 27.233501 12.262L 28.733501 16.011999M 22.733501 45.262001L 27.233501 43.762001L 25.733501 40.012001M 20.4625 37.012001C 21.9625 41.089001 24.43 43.762001 27.233501 43.762001M 34.259499 19.75C 32.806 15.2575 30.209499 12.2635 27.233501 12.2635"></path></g></g></g><g id="g-root-tx_identify_zkp8q2bow5c0-stroke" data-item-order="1000000000" data-item-id="tx_identify_zkp8q2bow5c0" data-item-class="Label Stroke Indexed ColorStrokeBlack" data-item-index="2" data-renderer-id="0" transform="translate(602, 326)"></g><g id="g-root-tx_visualre_m98qcqbow6x0-stroke" data-item-order="1000000000" data-item-id="tx_visualre_m98qcqbow6x0" data-item-class="Label Stroke Indexed Indexed_1 ColorStrokeBlack" data-item-index="1" data-renderer-id="0" transform="translate(2, 374)"></g><g id="g-root-proc_1cxep9mboxk3k-stroke" data-item-order="1000000000" data-item-id="proc_1cxep9mboxk3k" data-item-class="Icon Stroke Indexed Indexed_1 InsideFill InsideColorFill ColorStrokeBlack" data-item-index="1" data-renderer-id="0" transform="translate(210, 386)"><g id="proc_1cxep9mboxk3k-stroke" fill="none" stroke-linecap="butt" stroke-linejoin="miter" stroke-miterlimit="4" stroke="#484848" stroke-width="1"><g><path d="M 34 11L 42 19M 42 11L 34 19M 48 31.5C 48 33.985283 50.014717 36 52.5 36C 54.985283 36 57 33.985283 57 31.5C 57 29.014719 54.985283 27 52.5 27C 50.014717 27 48 29.014719 48 31.5ZM 41 30.365999C 43.75909 23.084572 49.627197 17.416714 57 14.912001M 51.004002 13.672L 57 14.912001L 54.598 20.139999M 21 32L 21 38M 25 57L 26 45L 31 45L 31 38C 31 32.477154 26.522848 28 21 28C 15.477153 28 11 32.477154 11 38L 11 45L 16 45L 17 57ZM 14.968 14.446C 17.158287 16.717663 20.1784 18.000652 23.334 18C 24.91567 18.000362 26.480831 17.678482 27.934 17.054001M 14 18C 14 21.865993 17.134007 25 21 25C 24.865993 25 28 21.865993 28 18C 28 14.134007 24.865993 11 21 11C 17.134007 11 14 14.134007 14 18Z"></path></g></g></g><g id="g-root-tx_creating_140iquibow4jr-stroke" data-item-order="1000000000" data-item-id="tx_creating_140iquibow4jr" data-item-class="Label Stroke Indexed Indexed_1 ColorStrokeBlack" data-item-index="1" data-renderer-id="0" transform="translate(2, 434)"></g></g></g></svg>