<?xml version="1.0" encoding="utf-8" standalone="yes"?>
<!DOCTYPE svg PUBLIC "-//W3C//DTD SVG 1.1//EN" "http://www.w3.org/Graphics/SVG/1.1/DTD/svg11.dtd">
<svg width="638" height="746" viewBox="0 0 638 746" style="fill:none;stroke:none;fill-rule:evenodd;clip-rule:evenodd;stroke-linecap:round;stroke-linejoin:round;stroke-miterlimit:1.5;" version="1.1" xmlns="http://www.w3.org/2000/svg" xmlns:xlink="http://www.w3.org/1999/xlink"><style id="fontImports">@import url("https://fonts.googleapis.com/css2?family=Roboto:wght@400;700&amp;display=block");</style><g id="items" style="isolation: isolate"><g id="blend" style="mix-blend-mode:normal"><g id="g-root--1.cu_sy_1utnwlaqod1ja-fill" data-item-order="-338682" transform="translate(15, 111)"><g id="-1.cu_sy_1utnwlaqod1ja-fill" stroke="none" fill="url(#gradient-cccccc-454304273)"><g><path d="M 10 514L 10 586L 82 586L 82 514L 10 514ZM 34 490L 10 514L 82 514L 106 490L 34 490ZM 34 490L 34 418L 106.5 418L 106.5 490L 34 490ZM 58 394L 34 418L 106.5 418L 130 394L 58 394ZM 58 394L 58 322L 130 322L 130 394L 58 394ZM 82 298L 58 322L 130 322L 154 298L 82 298ZM 82 298L 82 226L 154 226L 154 298L 82 298ZM 106 202L 82 226L 154 226L 178 202L 106 202ZM 106 202L 106 130L 178 130L 178 202L 106 202ZM 130 106L 106 130L 178 130L 202 106L 130 106ZM 130 106L 130 34L 202 34L 202 106L 130 106ZM 154 10L 130 34L 202 34L 226 10L 154 10Z"></path></g></g></g><g id="g-root--1.cu_1_sy_1ly0wceqod2bz-fill" data-item-order="-338678" transform="translate(387, 111)"><g id="-1.cu_1_sy_1ly0wceqod2bz-fill" stroke="none" fill="url(#gradient-cccccc-454304273)"><g><path d="M 226 586L 226 514L 154.5 514L 154.5 586L 226 586ZM 226 514L 202 490L 130 490L 155 514L 226 514ZM 202 490L 202 418L 130.5 418L 130.5 490L 202 490ZM 202 418L 178 394L 106 394L 130.5 418L 202 418ZM 178 322L 178 394L 106 394L 106 322L 178 322ZM 178 322L 154 298L 82 298L 106 322L 178 322ZM 154 226L 154 298L 82 298L 82 226L 154 226ZM 154 226L 130 202L 58 202L 82 226L 154 226ZM 130 130L 130 202L 58 202L 58 130L 130 130ZM 130 130L 106 106L 34 106L 58 130L 130 130ZM 106 34L 106 106L 34 106L 34 34L 106 34ZM 106 34L 82 10L 10 10L 34 34L 106 34Z"></path></g></g></g><g id="g-root-1.cu_sy_1qdueguqod2bk-fill" data-item-order="-338674" transform="translate(87, 591)"><g id="1.cu_sy_1qdueguqod2bk-fill" stroke="none" fill="url(#gradient-67a1ff-352354018)"><g><path d="M 10 106L 10 34L 454.5 34L 454.5 106L 10 106ZM 430 10L 455 34L 10 34L 34 10L 430 10Z"></path></g></g></g><g id="g-root-2.cu_sy_1hitvb2qoczyh-fill" data-item-order="-338670" transform="translate(111.49984741210938, 495)"><g id="2.cu_sy_1hitvb2qoczyh-fill" stroke="none" fill="url(#gradient-65e5a8-188701211)"><g><path d="M 10 106L 10 34L 406 34L 406 106L 10 106ZM 381.5 10L 406 34L 10 34L 33.5 10L 381.5 10Z"></path></g></g></g><g id="g-root-3.cu_sy_1hitvb2qoczyi-fill" data-item-order="-338666" transform="translate(135, 399)"><g id="3.cu_sy_1hitvb2qoczyi-fill" stroke="none" fill="url(#gradient-b8e45c-154771520)"><g><path d="M 10 106L 10 34L 358 34L 358 106L 10 106ZM 334 10L 358 34L 10 34L 34 10L 334 10Z"></path></g></g></g><g id="g-root-4.cu_sy_1d30d6mqod0qr-fill" data-item-order="-338662" transform="translate(159, 303)"><g id="4.cu_sy_1d30d6mqod0qr-fill" stroke="none" fill="url(#gradient-ffeb38-392015901)"><g><path d="M 10 34L 10 106L 310 106L 310 34L 10 34ZM 286 10L 310 34L 10 34L 34 10L 286 10Z"></path></g></g></g><g id="g-root-5.cu_sy_1d30d6mqod0qs-fill" data-item-order="-338658" transform="translate(183.00009155273438, 207)"><g id="5.cu_sy_1d30d6mqod0qs-fill" stroke="none" fill="url(#gradient-fba659-170788768)"><g><path d="M 10 106L 10 34L 262 34L 262 106L 10 106ZM 238 10L 262 34L 10 34L 34 10L 238 10Z"></path></g></g></g><g id="g-root-6.cu_sy_147dcxqqod1jh-fill" data-item-order="-338654" transform="translate(207.00009155273438, 111)"><defs><linearGradient id="gradient-cccccc-454304273" x2="0" y2="1"><stop offset="0" stop-color="#f5f5f5"></stop><stop offset="1" stop-color="#A3A3A3"></stop></linearGradient><linearGradient id="gradient-67a1ff-352354018" x2="0" y2="1"><stop offset="0" stop-color="#7fb0ff"></stop><stop offset="1" stop-color="#4F92FF"></stop></linearGradient><linearGradient id="gradient-65e5a8-188701211" x2="0" y2="1"><stop offset="0" stop-color="#85eaba"></stop><stop offset="1" stop-color="#44E095"></stop></linearGradient><linearGradient id="gradient-b8e45c-154771520" x2="0" y2="1"><stop offset="0" stop-color="#c8ea80"></stop><stop offset="1" stop-color="#A8DD38"></stop></linearGradient><linearGradient id="gradient-ffeb38-392015901" x2="0" y2="1"><stop offset="0" stop-color="#fff066"></stop><stop offset="1" stop-color="#FFE60A"></stop></linearGradient><linearGradient id="gradient-fba659-170788768" x2="0" y2="1"><stop offset="0" stop-color="#fcb778"></stop><stop offset="1" stop-color="#F99539"></stop></linearGradient></defs><g id="6.cu_sy_147dcxqqod1jh-fill" stroke="none" fill="url(#gradient-65e5a8-188701211)"><g><path d="M 10 106L 10 34L 214 34L 214 106L 10 106ZM 190 10L 214 34L 10 34L 34 10L 190 10Z"></path></g></g></g><g id="g-root-tx_promotel_i0wbemqod1j7-fill" data-item-order="0" transform="translate(219, 255)"><g id="tx_promotel_i0wbemqod1j7-fill" stroke="none" fill="#484848"><g><text style="font: 20px Roboto, sans-serif; white-space: pre;" font-size="20px" font-family="Roboto, sans-serif"><tspan x="16.7" y="33.5" dominant-baseline="ideographic">Promote Lifestyles</tspan></text></g></g></g><g id="g-root-runn_qwjetaqo61vp-fill" data-item-order="0" transform="translate(447, 243)"></g><g id="g-root-48px_14492nyqobmz1-fill" data-item-order="0" transform="translate(123, 243)"></g><g id="g-root-48px_dhc1xaqok35s-fill" data-item-order="0" transform="translate(99, 339)"></g><g id="g-root-sear_hrjdfiqobl6p-fill" data-item-order="0" transform="translate(543, 627)"></g><g id="g-root-on_140i85aqofvgj-fill" data-item-order="0" transform="translate(471, 339)"></g><g id="g-root-leaf_zk25ryqok26l-fill" data-item-order="0" transform="translate(423, 147)"></g><g id="g-root-48px_1cxe6keqor3sw-fill" data-item-order="0" transform="translate(75, 435)"></g><g id="g-root-tx_provider_mgptj2qod0qx-fill" data-item-order="0" transform="translate(183, 447)"><g id="tx_provider_mgptj2qod0qx-fill" stroke="none" fill="#484848"><g><text style="font: 20px Roboto, sans-serif; white-space: pre;" font-size="20px" font-family="Roboto, sans-serif"><tspan x="16.2" y="33.5" dominant-baseline="ideographic">Provide Recommendations</tspan></text></g></g></g><g id="g-root-chec_1q8uoxqqoo937-fill" data-item-order="0" transform="translate(495, 435)"></g><g id="g-root-tx_achieves_959b5qqod2bw-fill" data-item-order="0" transform="translate(243, 147)"><g id="tx_achieves_959b5qqod2bw-fill" stroke="none" fill="#484848"><g><text style="font: 20px Roboto, sans-serif; white-space: pre;" font-size="20px" font-family="Roboto, sans-serif"><tspan x="41" y="33.5" dominant-baseline="ideographic">Achieve </tspan><tspan x="16.42" y="57.5" dominant-baseline="ideographic">Sustainability</tspan></text></g></g></g><g id="g-root-48px_1czw62mqoa8lc-fill" data-item-order="0" transform="translate(51, 531)"></g><g id="g-root-tx_developa_mgptj2qod0qw-fill" data-item-order="0" transform="translate(249, 543)"><g id="tx_developa_mgptj2qod0qw-fill" stroke="none" fill="#484848"><g><text style="font: 20px Roboto, sans-serif; white-space: pre;" font-size="20px" font-family="Roboto, sans-serif"><tspan x="14.17" y="33.5" dominant-baseline="ideographic">Develop App</tspan></text></g></g></g><g id="g-root-1_mah8ziqoa7f0-fill" data-item-order="0" transform="translate(519, 531)"></g><g id="g-root-48px_v98gceqoponh-fill" data-item-order="0" transform="translate(147, 147)"></g><g id="g-root-48px_1usf4qmqobls2-fill" data-item-order="0" transform="translate(27, 627)"></g><g id="g-root-tx_identify_qwjbniqoczyn-fill" data-item-order="0" transform="translate(201, 639)"><g id="tx_identify_qwjbniqoczyn-fill" stroke="none" fill="#484848"><g><text style="font: 20px Roboto, sans-serif; white-space: pre;" font-size="20px" font-family="Roboto, sans-serif"><tspan x="12.95" y="33.5" dominant-baseline="ideographic">Identify Knowledge Gap</tspan></text></g></g></g><g id="g-root-tx_enhancea_i0wbemqod1j6-fill" data-item-order="0" transform="translate(213, 351)"><g id="tx_enhancea_i0wbemqod1j6-fill" stroke="none" fill="#484848"><g><text style="font: 20px Roboto, sans-serif; white-space: pre;" font-size="20px" font-family="Roboto, sans-serif"><tspan x="16.29" y="33.5" dominant-baseline="ideographic">Enhance Awareness</tspan></text></g></g></g><g id="g-root--1.cu_sy_1utnwlaqod1ja-stroke" data-item-order="-338682" transform="translate(15, 111)"><g id="-1.cu_sy_1utnwlaqod1ja-stroke" fill="none" stroke-linecap="round" stroke-linejoin="round" stroke-miterlimit="4" stroke="#484848" stroke-width="2"><g><path d="M 10 586L 10 514L 82 514L 82 586L 10 586ZM 10 514L 34 490L 106 490L 82 514L 10 514ZM 34 490L 34 418L 106.5 418L 106.5 490L 34 490ZM 34 418L 58 394L 130 394L 106.5 418L 34 418ZM 58 394L 58 322L 130 322L 130 394L 58 394ZM 58 322L 82 298L 154 298L 130 322L 58 322ZM 82 298L 82 226L 154 226L 154 298L 82 298ZM 82 226L 106 202L 178 202L 154 226L 82 226ZM 106 202L 106 130L 178 130L 178 202L 106 202ZM 106 130L 130 106L 202 106L 178 130L 106 130ZM 130 106L 130 34L 202 34L 202 106L 130 106ZM 130 34L 154 10L 226 10L 202 34L 130 34Z"></path></g></g></g><g id="g-root--1.cu_1_sy_1ly0wceqod2bz-stroke" data-item-order="-338678" transform="translate(387, 111)"><g id="-1.cu_1_sy_1ly0wceqod2bz-stroke" fill="none" stroke-linecap="round" stroke-linejoin="round" stroke-miterlimit="4" stroke="#484848" stroke-width="2"><g><path d="M 226 586L 226 514L 154.5 514L 154.5 586L 226 586ZM 226 514L 202 490L 130 490L 155 514L 226 514ZM 202 418L 202 490L 130.5 490L 130.5 418L 202 418ZM 202 418L 178 394L 106 394L 130.5 418L 202 418ZM 178 322L 178 394L 106 394L 106 322L 178 322ZM 178 322L 154 298L 82 298L 106 322L 178 322ZM 154 226L 154 298L 82 298L 82 226L 154 226ZM 154 226L 130 202L 58 202L 82 226L 154 226ZM 130 130L 130 202L 58 202L 58 130L 130 130ZM 130 130L 106 106L 34 106L 58 130L 130 130ZM 106 106L 106 34L 34 34L 34 106L 106 106ZM 106 34L 82 10L 10 10L 34 34L 106 34Z"></path></g></g></g><g id="g-root-1.cu_sy_1qdueguqod2bk-stroke" data-item-order="-338674" transform="translate(87, 591)"><g id="1.cu_sy_1qdueguqod2bk-stroke" fill="none" stroke-linecap="round" stroke-linejoin="round" stroke-miterlimit="4" stroke="#484848" stroke-width="2"><g><path d="M 10 34L 10 106L 454.5 106L 454.5 34L 10 34ZM 455 34L 430 10L 34 10L 10 34L 455 34Z"></path></g></g></g><g id="g-root-2.cu_sy_1hitvb2qoczyh-stroke" data-item-order="-338670" transform="translate(111.49984741210938, 495)"><g id="2.cu_sy_1hitvb2qoczyh-stroke" fill="none" stroke-linecap="round" stroke-linejoin="round" stroke-miterlimit="4" stroke="#484848" stroke-width="2"><g><path d="M 10 34L 10 106L 406 106L 406 34L 10 34ZM 406 34L 381.5 10L 33.5 10L 10 34L 406 34Z"></path></g></g></g><g id="g-root-3.cu_sy_1hitvb2qoczyi-stroke" data-item-order="-338666" transform="translate(135, 399)"><g id="3.cu_sy_1hitvb2qoczyi-stroke" fill="none" stroke-linecap="round" stroke-linejoin="round" stroke-miterlimit="4" stroke="#484848" stroke-width="2"><g><path d="M 10 34L 10 106L 358 106L 358 34L 10 34ZM 358 34L 334 10L 34 10L 10 34L 358 34Z"></path></g></g></g><g id="g-root-4.cu_sy_1d30d6mqod0qr-stroke" data-item-order="-338662" transform="translate(159, 303)"><g id="4.cu_sy_1d30d6mqod0qr-stroke" fill="none" stroke-linecap="round" stroke-linejoin="round" stroke-miterlimit="4" stroke="#484848" stroke-width="2"><g><path d="M 10 106L 10 34L 310 34L 310 106L 10 106ZM 310 34L 286 10L 34 10L 10 34L 310 34Z"></path></g></g></g><g id="g-root-5.cu_sy_1d30d6mqod0qs-stroke" data-item-order="-338658" transform="translate(183.00009155273438, 207)"><g id="5.cu_sy_1d30d6mqod0qs-stroke" fill="none" stroke-linecap="round" stroke-linejoin="round" stroke-miterlimit="4" stroke="#484848" stroke-width="2"><g><path d="M 10 34L 10 106L 262 106L 262 34L 10 34ZM 262 34L 238 10L 34 10L 10 34L 262 34Z"></path></g></g></g><g id="g-root-6.cu_sy_147dcxqqod1jh-stroke" data-item-order="-338654" transform="translate(207.00009155273438, 111)"><g id="6.cu_sy_147dcxqqod1jh-stroke" fill="none" stroke-linecap="round" stroke-linejoin="round" stroke-miterlimit="4" stroke="#484848" stroke-width="2"><g><path d="M 10 34L 10 106L 214 106L 214 34L 10 34ZM 214 34L 190 10L 34 10L 10 34L 214 34Z"></path></g></g></g><g id="g-root-tx_promotel_i0wbemqod1j7-stroke" data-item-order="0" transform="translate(219, 255)"></g><g id="g-root-runn_qwjetaqo61vp-stroke" data-item-order="0" transform="translate(447, 243)"><g id="runn_qwjetaqo61vp-stroke" fill="none" stroke-linecap="round" stroke-linejoin="round" stroke-miterlimit="4" stroke="#484848" stroke-width="2"><g><path d="M 42 57L 34 57C 21.297451 57 11 46.702549 11 34L 11 34C 11 21.297451 21.297451 11 34 11L 57 11M 57 57L 46 57M 42 51L 34.580002 51C 25.191158 51 17.58 43.38884 17.58 34L 17.58 34C 17.58 24.61116 25.191158 17 34.580002 17L 56.419998 17M 57 51L 46 51M 42 45L 36 45C 29.924868 45 25 40.075134 25 34L 25 34C 25 27.924868 29.924868 23 36 23L 57 23M 57 45L 46 45M 47 11L 47 17M 39 17L 39 23M 42 40L 53.02 34.82C 53.369972 34.648636 53.588528 34.289581 53.580002 33.900002C 53.582119 33.511566 53.354614 33.158539 53 33L 42 28.200001M 42 57L 42 28.200001"></path></g></g></g><g id="g-root-48px_14492nyqobmz1-stroke" data-item-order="0" transform="translate(123, 243)"><g id="48px_14492nyqobmz1-stroke" fill="none" stroke-linecap="round" stroke-linejoin="round" stroke-miterlimit="4" stroke="#484848" stroke-width="2"><g><path d="M 15.07227 30.179C 15.07227 24.4822 17.78873 19.69573 23.0107 19.69573C 28.2328 19.69573 30.9492 24.4822 30.9492 30.179L 30.9492 37.2732C 30.9492 42.97 28.1054 47.8821 23.0107 47.8821C 17.91609 47.8821 15.07227 42.97 15.07227 37.2732L 15.07227 30.179ZM 53.6933 20.1206L 40.3788 20.1206L 38.9878 33.1442C 39.8169 32.315 42.3531 30.6566 45.8651 30.6566C 49.9711 30.6566 53.8125 33.4467 53.427 40.0524C 53.0278 46.8938 48.912 47.9042 45.5285 47.9042C 41.9445 47.9042 38.405 45.3609 38.0728 40.565"></path></g></g></g><g id="g-root-48px_dhc1xaqok35s-stroke" data-item-order="0" transform="translate(99, 339)"><g id="48px_dhc1xaqok35s-stroke" fill="none" stroke-linecap="round" stroke-linejoin="round" stroke-miterlimit="4" stroke="#484848" stroke-width="2"><g><path d="M 15.07227 30.179C 15.07227 24.4822 17.78873 19.69573 23.0107 19.69573C 28.2328 19.69573 30.9492 24.4822 30.9492 30.179L 30.9492 37.2732C 30.9492 42.97 28.1054 47.8821 23.0107 47.8821C 17.91609 47.8821 15.07227 42.97 15.07227 37.2732L 15.07227 30.179ZM 49.9098 47.9788L 49.9098 19.55127L 36.2949 39.738L 55.3147 39.738"></path></g></g></g><g id="g-root-sear_hrjdfiqobl6p-stroke" data-item-order="0" transform="translate(543, 627)"><g id="sear_hrjdfiqobl6p-stroke" fill="none" stroke-linecap="round" stroke-linejoin="round" stroke-miterlimit="4" stroke="#484848" stroke-width="2"><g><path d="M 27 47.759998C 22.513447 46.091202 17.784643 45.165707 13 45.02C 11.895431 45.02 11 44.124569 11 43.02L 11 14C 11 12.895431 11.895431 12 13 12C 23.82 12.34 33 15.32 33 18.959999C 33 15.32 42.119999 12.34 53 12C 54.104568 12 55 12.895431 55 14L 55 28.98M 33 18.98L 33 24.98M 29 22.459999C 24.802313 21.038824 20.426722 20.210827 16 20M 29 28.52C 24.810371 27.059311 20.431957 26.210571 16 26M 26 33.5C 22.717789 32.704216 19.371244 32.202232 16 32M 24.66 39.18C 21.805859 38.576668 18.911514 38.182285 16 38M 42 21.02C 44.641495 20.505445 47.3139 20.164715 50 20M 29 40.02C 29.000002 47.199703 34.820297 53.02 42 53.02C 49.179703 53.02 55 47.199703 55 40.02C 55 32.840302 49.179703 27.02 42 27.02C 34.820297 27.02 29.000002 32.840302 29.000002 40.02M 50.700001 49.68L 57 55.98M 37 38L 37 35C 37 34.447716 37.447716 34 38 34L 46 34C 46.552284 34 47 34.447716 47 35L 47 38M 42 34.02L 42 46.02M 39 46.02L 45 46.02"></path></g></g></g><g id="g-root-on_140i85aqofvgj-stroke" data-item-order="0" transform="translate(471, 339)"><g id="on_140i85aqofvgj-stroke" fill="none" stroke-linecap="round" stroke-linejoin="round" stroke-miterlimit="4" stroke="#484848" stroke-width="2"><g><path d="M 46 37.428574C 46.022171 31.506199 41.720341 26.453302 35.870296 25.530289C 30.020248 24.607275 24.371649 28.090206 22.569283 33.731705C 20.766918 39.373199 23.34985 45.48597 28.651428 48.125717L 28.651428 54.022858C 28.670025 54.747917 29.263273 55.325954 29.988571 55.325714L 38.011429 55.325714C 38.736725 55.325954 39.329975 54.747917 39.348572 54.022858L 39.348572 48.022858C 43.376583 46.017712 45.944405 41.927727 46 37.428574ZM 34 12.777143L 34 17.92M 47.714287 17.68L 44.079998 21.348572M 55.531429 28.308573L 50.388573 28.308573M 20.285715 17.68L 23.92 21.348572M 12.468572 28.308573L 17.611429 28.308573"></path></g></g></g><g id="g-root-leaf_zk25ryqok26l-stroke" data-item-order="0" transform="translate(423, 147)"><g id="leaf_zk25ryqok26l-stroke" fill="none" stroke-linecap="round" stroke-linejoin="round" stroke-miterlimit="4" stroke="#484848" stroke-width="2"><g><path d="M 49.46286 28.445715C 56.32 38.114285 51.074284 49.188572 48.537144 53.508572C 47.784046 54.731693 46.529278 55.559837 45.10857 55.771427C 40.137142 56.628574 27.76 57.588573 21.108572 47.920002C 14.56 38.799999 14.834286 22.754286 15.417143 15.108571C 15.463764 13.953008 16.06271 12.8902 17.027063 12.251825C 17.991417 11.61345 19.203747 11.477244 20.285713 11.885715C 27.657143 14.011429 43.017143 19.325714 49.46286 28.445715ZM 26.354286 25.257143C 34.207516 34.511768 41.10006 44.540417 46.925713 55.188568"></path></g></g></g><g id="g-root-48px_1cxe6keqor3sw-stroke" data-item-order="0" transform="translate(75, 435)"><g id="48px_1cxe6keqor3sw-stroke" fill="none" stroke-linecap="round" stroke-linejoin="round" stroke-miterlimit="4" stroke="#484848" stroke-width="2"><g><path d="M 15.07227 30.1785C 15.07227 24.4817 17.78873 19.69524 23.0107 19.69524C 28.2328 19.69524 30.9492 24.4817 30.9492 30.1785L 30.9492 37.2727C 30.9492 42.9695 28.1054 47.8816 23.0107 47.8816C 17.91609 47.8816 15.07227 42.9695 15.07227 37.2727L 15.07227 30.1785ZM 37.1212 27.0681C 37.0021 24.6592 38.4826 19.70994 45.0653 19.70994C 51.648 19.70994 52.6563 24.5974 52.4282 27.357C 52.1767 30.3999 50.2718 33.5079 42.2007 33.5079C 49.7136 33.5079 53.1255 35.562 53.1255 41.1245C 53.1255 45.9328 48.8755 47.8898 44.9922 47.8898C 42.2014 47.866 36.6196 46.2871 36.6196 40.1622"></path></g></g></g><g id="g-root-tx_provider_mgptj2qod0qx-stroke" data-item-order="0" transform="translate(183, 447)"></g><g id="g-root-chec_1q8uoxqqoo937-stroke" data-item-order="0" transform="translate(495, 435)"><g id="chec_1q8uoxqqoo937-stroke" fill="none" stroke-linecap="round" stroke-linejoin="round" stroke-miterlimit="4" stroke="#484848" stroke-width="2"><g><path d="M 42.57143 15.142858L 47.714287 15.142858C 49.607834 15.142858 51.142857 16.677881 51.142857 18.571428L 51.142857 52.857143C 51.142857 54.750694 49.607834 56.285713 47.714287 56.285713L 20.285715 56.285713C 18.392166 56.285713 16.857143 54.750694 16.857143 52.857143L 16.857143 18.571428C 16.857143 16.677881 18.392166 15.142858 20.285715 15.142858L 25.428572 15.142858M 28.857143 11.714286L 39.142857 11.714286C 39.142857 11.714286 42.57143 11.714286 42.57143 15.142858L 42.57143 16.857143C 42.57143 16.857143 42.57143 20.285715 39.142857 20.285715L 28.857143 20.285715C 28.857143 20.285715 25.428572 20.285715 25.428572 16.857143L 25.428572 15.142858C 25.428572 15.142858 25.428572 11.714286 28.857143 11.714286M 25.428572 39.142857L 32.285713 44.285713L 40.857143 30.571428"></path></g></g></g><g id="g-root-tx_achieves_959b5qqod2bw-stroke" data-item-order="0" transform="translate(243, 147)"></g><g id="g-root-48px_1czw62mqoa8lc-stroke" data-item-order="0" transform="translate(51, 531)"><g id="48px_1czw62mqoa8lc-stroke" fill="none" stroke-linecap="round" stroke-linejoin="round" stroke-miterlimit="4" stroke="#484848" stroke-width="2"><g><path d="M 15.07227 30.1785C 15.07227 24.4817 17.78873 19.69524 23.0107 19.69524C 28.2328 19.69524 30.9492 24.4817 30.9492 30.1785L 30.9492 37.2727C 30.9492 42.9695 28.1054 47.8816 23.0107 47.8816C 17.91609 47.8816 15.07227 42.9695 15.07227 37.2727L 15.07227 30.1785ZM 36.8315 27.5154C 36.8315 22.8951 40.0559 19.69531 44.4376 19.69531C 51.7066 19.69531 54.1859 26.7886 49.4213 33.0984L 37.33 47.4175L 53.9507 47.4175"></path></g></g></g><g id="g-root-tx_developa_mgptj2qod0qw-stroke" data-item-order="0" transform="translate(249, 543)"></g><g id="g-root-1_mah8ziqoa7f0-stroke" data-item-order="0" transform="translate(519, 531)"><g id="1_mah8ziqoa7f0-stroke" fill="none" stroke-linecap="round" stroke-linejoin="round" stroke-miterlimit="4" stroke="#484848" stroke-width="2"><g><path d="M 13 11.008L 55 11.008C 55 11.008 57 11.008 57 13.007999L 57 55.007999C 57 55.007999 57 57.007999 55 57.007999L 13 57.007999C 13 57.007999 11 57.007999 11 55.007999L 11 13.007999C 11 13.007999 11 11.008 13 11.008M 18 49L 18 37C 18 34.790863 19.790861 33 22 33C 24.209139 33 26 34.790863 26 37L 26 49M 18 41.007999L 26 41.007999M 50 37C 50 39.209137 48.209141 41 46 41L 42 41L 42 33L 46 33C 48.209141 33 50 34.790863 50 37ZM 42 49.007999L 42 41.007999M 38 37C 38 39.209137 36.209137 41 34 41L 30 41L 30 33L 34 33C 36.209137 33 38 34.790863 38 37ZM 30 49.007999L 30 41.007999"></path></g></g></g><g id="g-root-48px_v98gceqoponh-stroke" data-item-order="0" transform="translate(147, 147)"><g id="48px_v98gceqoponh-stroke" fill="none" stroke-linecap="round" stroke-linejoin="round" stroke-miterlimit="4" stroke="#484848" stroke-width="2"><g><path d="M 15.07227 30.179C 15.07227 24.4822 17.78873 19.69573 23.0107 19.69573C 28.2328 19.69573 30.9492 24.4822 30.9492 30.179L 30.9492 37.2732C 30.9492 42.97 28.1054 47.8821 23.0107 47.8821C 17.91609 47.8821 15.07227 42.97 15.07227 37.2732L 15.07227 30.179ZM 50.4177 19.66455C 41.5841 19.66455 37.3689 25.3826 37.0372 34.1429L 37.0366 38.3591C 37.0366 43.8898 40.1088 47.444 45.2315 47.8822C 50.0566 48.0693 53.0601 44.2805 53.2764 38.7917C 53.4138 35.3065 51.6448 30.4145 46.2143 29.8714C 41.4554 29.3956 37.7358 32.5583 37.0372 35.9766"></path></g></g></g><g id="g-root-48px_1usf4qmqobls2-stroke" data-item-order="0" transform="translate(27, 627)"><g id="48px_1usf4qmqobls2-stroke" fill="none" stroke-linecap="round" stroke-linejoin="round" stroke-miterlimit="4" stroke="#484848" stroke-width="2"><g><path d="M 37.8418 23.3774L 46.2969 20.1836L 46.2969 47.951M 15.07227 30.1785C 15.07227 24.4817 17.78873 19.69524 23.0107 19.69524C 28.2328 19.69524 30.9492 24.4817 30.9492 30.1785L 30.9492 37.2727C 30.9492 42.9695 28.1054 47.8816 23.0107 47.8816C 17.91609 47.8816 15.07227 42.9695 15.07227 37.2727L 15.07227 30.1785Z"></path></g></g></g><g id="g-root-tx_identify_qwjbniqoczyn-stroke" data-item-order="0" transform="translate(201, 639)"></g><g id="g-root-tx_enhancea_i0wbemqod1j6-stroke" data-item-order="0" transform="translate(213, 351)"></g></g></g></svg>