<?xml version="1.0" encoding="utf-8" standalone="yes"?>
<!DOCTYPE svg PUBLIC "-//W3C//DTD SVG 1.1//EN" "http://www.w3.org/Graphics/SVG/1.1/DTD/svg11.dtd">
<svg width="780" height="612" viewBox="0 0 780 612" style="fill:none;stroke:none;fill-rule:evenodd;clip-rule:evenodd;stroke-linecap:round;stroke-linejoin:round;stroke-miterlimit:1.5;" version="1.1" xmlns="http://www.w3.org/2000/svg" xmlns:xlink="http://www.w3.org/1999/xlink"><style id="fontImports">@import url("https://fonts.googleapis.com/css2?family=Roboto:wght@400;700&amp;display=block");</style><g id="items" style="isolation: isolate"><g id="blend" style="mix-blend-mode:normal"><g id="g-root-0.cu_sy_13ym6lco6go3w-fill" data-item-order="999853844" data-item-id="0.cu_sy_13ym6lco6go3w" data-item-class="Part Indexed_0 Fill Stroke ColorFillBlack ColorStrokeGray" data-item-index="0" data-renderer-id="0" transform="translate(255, 158.3577880859375)"><g id="0.cu_sy_13ym6lco6go3w-fill" stroke="none" fill="#666666"><g><path d="M 166.699 244.285C 165.529 242.803 164.274 241.391 162.941 240.058L 129 206.117L 95.0589 240.059C 93.8827 241.235 92.7673 242.472 91.7178 243.764C 66.0029 235.114 44.1819 217.99 29.5746 195.712L 50.0436 155.539L 10.1103 135.192C 10.037 133.471 10 131.74 10 130C 10 101.9785 19.6045 76.2003 35.7012 55.7778L 79.9467 62.7859L 87.0537 17.9135C 100.3881 12.8012 114.867 10 130 10C 144.245 10 157.91 12.4821 170.587 17.0375L 177.833 62.7859L 224.052 55.4652C 240.297 75.937 250 101.8354 250 130C 250 132.063 249.948 134.114 249.845 136.152L 209.833 156.539L 230.068 196.253C 215.162 218.722 192.891 235.88 166.699 244.285Z"></path></g></g></g><g id="g-root-5.cu_sy_zisogwo6gow5-fill" data-item-order="999853848" data-item-id="5.cu_sy_zisogwo6gow5" data-item-class="Part Indexed Fill Stroke" data-item-index="5" data-renderer-id="0" transform="translate(237.0430908203125, 108.22216796875)"><g id="5.cu_sy_zisogwo6gow5-fill" stroke="none" fill="#dd8433"><g><path d="M 105.412445 65.512619C 107.334228 53.379517 104.62735 40.513245 96.836242 29.789719C 81.254242 8.342926 51.236542 3.588585 29.789734 19.170609C 8.342956 34.752609 3.588592 64.77031 19.170624 86.217102C 26.961578 96.94046 38.361542 103.490738 50.494598 105.41243L 97.903808 112.922104L 105.410736 65.523529C 105.411316 65.519898 105.411865 65.516266 105.412445 65.512619Z"></path></g></g></g><g id="g-root-4.cu_sy_zisogwo6gow6-fill" data-item-order="999853852" data-item-id="4.cu_sy_zisogwo6gow6" data-item-class="Part Indexed Fill Stroke" data-item-index="4" data-renderer-id="0" transform="translate(182.4705810546875, 276.86083984375)"><g id="4.cu_sy_zisogwo6gow6-fill" stroke="none" fill="#17b0e3"><g><path d="M 100.781448 79.804077C 95.204544 90.749664 85.452041 99.567627 72.845779 103.663635C 47.63356 111.855591 20.554199 98.057983 12.362243 72.845764C 4.170303 47.633514 17.967926 20.554169 43.180145 12.362213C 55.786209 8.266266 68.859115 9.667694 79.804489 15.244659L 122.57344 37.035644L 100.786484 79.794342C 100.784775 79.797546 100.783096 79.800812 100.781448 79.804077Z"></path></g></g></g><g id="g-root-3.cu_sy_qn5o80o6gpov-fill" data-item-order="999853856" data-item-id="3.cu_sy_qn5o80o6gpov" data-item-class="Part Indexed Fill Stroke" data-item-index="3" data-renderer-id="0" transform="translate(326, 354.474853515625)"><g id="3.cu_sy_qn5o80o6gpov-fill" stroke="none" fill="#93c131"><g><path d="M 91.940796 43.941101C 100.627289 52.627411 106 64.627594 106 77.882507C 106 104.392212 84.509705 125.882996 58 125.882996C 31.490295 125.882996 10 104.392212 10 77.882507C 10 64.627716 15.372589 52.627716 24.058899 43.941406L 57.999695 10L 91.933105 43.933289C 91.935608 43.935913 91.938202 43.938507 91.940796 43.941101Z"></path></g></g></g><g id="g-root-2.cu_sy_v2z6cgo6gpog-fill" data-item-order="999853860" data-item-id="2.cu_sy_v2z6cgo6gpog" data-item-class="Part Indexed Fill Stroke" data-item-index="2" data-renderer-id="0" transform="translate(454.832763671875, 277.861083984375)"><g id="2.cu_sy_v2z6cgo6gpog-fill" stroke="none" fill="#4682e3"><g><path d="M 52.76828 15.244873C 63.713715 9.667725 76.786835 8.266266 89.392975 12.362244C 114.605194 20.554199 128.40329 47.633697 120.211395 72.845947C 112.01944 98.058166 84.939606 111.855621 59.727387 103.663666C 47.121308 99.567718 37.368866 90.749878 31.791901 79.804504L 10 37.036407L 52.758454 15.249786C 52.761749 15.248199 52.764984 15.246551 52.76828 15.244873Z"></path></g></g></g><g id="g-root-1.cu_sy_hs5528o6go3l-fill" data-item-order="999853864" data-item-id="1.cu_sy_hs5528o6go3l" data-item-class="Part Indexed Indexed_1 Fill Stroke" data-item-index="1" data-renderer-id="0" transform="translate(414.729736328125, 108.22216796875)"><g id="1.cu_sy_hs5528o6go3l-fill" stroke="none" fill="#e3cd09"><g><path d="M 10.594422 65.512619C 8.672638 53.379517 11.379517 40.513245 19.170624 29.789719C 34.752625 8.342926 64.770325 3.588585 86.217102 19.170609C 107.663941 34.752609 112.418274 64.77031 96.836243 86.217102C 89.045288 96.94046 77.645325 103.490738 65.512268 105.41243L 18.103058 112.922104L 10.596131 65.523529C 10.595551 65.519898 10.595002 65.516266 10.594422 65.512619Z"></path></g></g></g><g id="g-root-tx_rewardpo_zqago0o6gnwv-fill" data-item-order="1000000000" data-item-id="tx_rewardpo_zqago0o6gnwv" data-item-class="Label Stroke Indexed" data-item-index="5" data-renderer-id="0" transform="translate(74, 74)"><g id="tx_rewardpo_zqago0o6gnwv-fill" stroke="none" fill="#dd8433"><g><text style="font: bold 20px Roboto, sans-serif; white-space: pre;" font-weight="bold" font-size="20px" font-family="Roboto, sans-serif"><tspan x="22.02" y="33.5" dominant-baseline="ideographic">Reward Points</tspan></text></g></g></g><g id="g-root-tx_incentiv_1qcl0bko6gnwo-fill" data-item-order="1000000000" data-item-id="tx_incentiv_1qcl0bko6gnwo" data-item-class="Label Stroke Indexed ColorFillBlack ColorStrokeBlack" data-item-index="5" data-renderer-id="0" transform="translate(50, 110)"><g id="tx_incentiv_1qcl0bko6gnwo-fill" stroke="none" fill="#484848"><g><text style="font: 15px Roboto, sans-serif; white-space: pre;" font-size="15px" font-family="Roboto, sans-serif"><tspan x="21.28" y="30.5" dominant-baseline="ideographic">Incentives for scanning </tspan><tspan x="41.06" y="48.5" dominant-baseline="ideographic">receipts and making </tspan><tspan x="72.17" y="66.5" dominant-baseline="ideographic">healthy choices</tspan></text></g></g></g><g id="g-root-tx_recommen_1lwri74o6gooy-fill" data-item-order="1000000000" data-item-id="tx_recommen_1lwri74o6gooy" data-item-class="Label Stroke Indexed ColorFillBlack ColorStrokeBlack" data-item-index="3" data-renderer-id="0" transform="translate(297, 530)"><g id="tx_recommen_1lwri74o6gooy-fill" stroke="none" fill="#484848"><g><text style="font: 15px Roboto, sans-serif; white-space: pre;" font-size="15px" font-family="Roboto, sans-serif"><tspan x="11.95" y="30.5" dominant-baseline="ideographic">Recommendations for </tspan><tspan x="29.68" y="48.5" dominant-baseline="ideographic">healthier product </tspan><tspan x="61.11" y="66.5" dominant-baseline="ideographic">options</tspan></text></g></g></g><g id="g-root-tx_acolorco_1d14hy8o6gpho-fill" data-item-order="1000000000" data-item-id="tx_acolorco_1d14hy8o6gpho" data-item-class="Label Stroke Indexed Indexed_1 ColorFillBlack ColorStrokeBlack" data-item-index="1" data-renderer-id="0" transform="translate(530, 110)"><g id="tx_acolorco_1d14hy8o6gpho-fill" stroke="none" fill="#484848"><g><text style="font: 15px Roboto, sans-serif; white-space: pre;" font-size="15px" font-family="Roboto, sans-serif"><tspan x="12" y="30.5" dominant-baseline="ideographic">A color-coded system to </tspan><tspan x="12" y="48.5" dominant-baseline="ideographic">quickly assess product </tspan><tspan x="12" y="66.5" dominant-baseline="ideographic">healthiness</tspan></text></g></g></g><g id="g-root-add_1lw4xy8o6i32d-fill" data-item-order="1000000000" data-item-id="add_1lw4xy8o6i32d" data-item-class="Icon Stroke Indexed InsideFill InsideColorFill" data-item-index="5" data-renderer-id="0" transform="translate(260, 134)"></g><g id="g-root-1_1d14hy8o6dx58-fill" data-item-order="1000000000" data-item-id="1_1d14hy8o6dx58" data-item-class="Icon Stroke Indexed Indexed_1 InsideFill InsideColorFill" data-item-index="1" data-renderer-id="0" transform="translate(441, 134)"></g><g id="g-root-tx_healthra_1463ysgo6gnwh-fill" data-item-order="1000000000" data-item-id="tx_healthra_1463ysgo6gnwh" data-item-class="Label Stroke Indexed Indexed_1" data-item-index="1" data-renderer-id="0" transform="translate(530, 50)"><g id="tx_healthra_1463ysgo6gnwh-fill" stroke="none" fill="#e3cd09"><g><text style="font: bold 20px Roboto, sans-serif; white-space: pre;" font-weight="bold" font-size="20px" font-family="Roboto, sans-serif"><tspan x="12" y="33.5" dominant-baseline="ideographic">Health Rating </tspan><tspan x="12" y="57.5" dominant-baseline="ideographic">System</tspan></text></g></g></g><g id="g-root-1_1urs1cwo6gqa7-fill" data-item-order="1000000000" data-item-id="1_1urs1cwo6gqa7" data-item-class="Icon Stroke InsideFill ColorStrokeGray" data-item-index="none" data-renderer-id="0" transform="translate(327, 230)"></g><g id="g-root-tx_interact_18laztso6gq9y-fill" data-item-order="1000000000" data-item-id="tx_interact_18laztso6gq9y" data-item-class="Label Stroke Indexed" data-item-index="4" data-renderer-id="0" transform="translate(50, 254)"><g id="tx_interact_18laztso6gq9y-fill" stroke="none" fill="#17b0e3"><g><text style="font: bold 20px Roboto, sans-serif; white-space: pre;" font-weight="bold" font-size="20px" font-family="Roboto, sans-serif"><tspan x="20.39" y="33.5" dominant-baseline="ideographic">Interactive </tspan><tspan x="37.22" y="57.5" dominant-baseline="ideographic">Learning</tspan></text></g></g></g><g id="g-root-tx_ingredie_18laztso6gq9x-fill" data-item-order="1000000000" data-item-id="tx_ingredie_18laztso6gq9x" data-item-class="Label Stroke Indexed" data-item-index="2" data-renderer-id="0" transform="translate(590, 254)"><g id="tx_ingredie_18laztso6gq9x-fill" stroke="none" fill="#4682e3"><g><text style="font: bold 20px Roboto, sans-serif; white-space: pre;" font-weight="bold" font-size="20px" font-family="Roboto, sans-serif"><tspan x="12" y="33.5" dominant-baseline="ideographic">Ingredient </tspan><tspan x="12" y="57.5" dominant-baseline="ideographic">Insights</tspan></text></g></g></g><g id="g-root-tx_engaging_1qcl0bko6gnwp-fill" data-item-order="1000000000" data-item-id="tx_engaging_1qcl0bko6gnwp" data-item-class="Label Stroke Indexed ColorFillBlack ColorStrokeBlack" data-item-index="4" data-renderer-id="0" transform="translate(2, 314)"><g id="tx_engaging_1qcl0bko6gnwp-fill" stroke="none" fill="#484848"><g><text style="font: 15px Roboto, sans-serif; white-space: pre;" font-size="15px" font-family="Roboto, sans-serif"><tspan x="29.61" y="30.5" dominant-baseline="ideographic">Engaging users with </tspan><tspan x="21.78" y="48.5" dominant-baseline="ideographic">quick explanations of </tspan><tspan x="89.82" y="66.5" dominant-baseline="ideographic">ingredients</tspan></text></g></g></g><g id="g-root-1_vb3cgwo6kxl9-fill" data-item-order="1000000000" data-item-id="1_vb3cgwo6kxl9" data-item-class="Icon Stroke Indexed InsideFill InsideColorFill" data-item-index="4" data-renderer-id="0" transform="translate(206, 302)"></g><g id="g-root-sear_1qegfkwo69mh3-fill" data-item-order="1000000000" data-item-id="sear_1qegfkwo69mh3" data-item-class="Icon Stroke Indexed InsideFill InsideColorFill" data-item-index="2" data-renderer-id="0" transform="translate(494, 302)"></g><g id="g-root-tx_detailed_1lwri74o6gooz-fill" data-item-order="1000000000" data-item-id="tx_detailed_1lwri74o6gooz" data-item-class="Label Stroke Indexed ColorFillBlack ColorStrokeBlack" data-item-index="2" data-renderer-id="0" transform="translate(590, 314)"><g id="tx_detailed_1lwri74o6gooz-fill" stroke="none" fill="#484848"><g><text style="font: 15px Roboto, sans-serif; white-space: pre;" font-size="15px" font-family="Roboto, sans-serif"><tspan x="12" y="30.5" dominant-baseline="ideographic">Detailed analysis of </tspan><tspan x="12" y="48.5" dominant-baseline="ideographic">ingredients for informed </tspan><tspan x="12" y="66.5" dominant-baseline="ideographic">choices</tspan></text></g></g></g><g id="g-root-appl_1qbyg2oo6nojp-fill" data-item-order="1000000000" data-item-id="appl_1qbyg2oo6nojp" data-item-class="Icon Stroke Indexed InsideFill InsideColorFill" data-item-index="3" data-renderer-id="0" transform="translate(350, 398)"></g><g id="g-root-tx_alternat_1463ysgo6gnwg-fill" data-item-order="1000000000" data-item-id="tx_alternat_1463ysgo6gnwg" data-item-class="Label Stroke Indexed" data-item-index="3" data-renderer-id="0" transform="translate(315, 470)"><g id="tx_alternat_1463ysgo6gnwg-fill" stroke="none" fill="#93c131"><g><text style="font: bold 20px Roboto, sans-serif; white-space: pre;" font-weight="bold" font-size="20px" font-family="Roboto, sans-serif"><tspan x="20.8" y="33.5" dominant-baseline="ideographic">Alternative </tspan><tspan x="13.87" y="57.5" dominant-baseline="ideographic">Suggestions</tspan></text></g></g></g><g id="g-root-tx_features_8wi4tco6gowa-fill" data-item-order="1000000000" data-item-id="tx_features_8wi4tco6gowa" data-item-class="Label Stroke Title ColorFillBlack ColorStrokeBlack" data-item-index="none" data-renderer-id="0" transform="translate(249, 2)"><g id="tx_features_8wi4tco6gowa-fill" stroke="none" fill="#484848"><g><text style="font: bold 20px Roboto, sans-serif; white-space: pre;" font-weight="bold" font-size="20px" font-family="Roboto, sans-serif"><tspan x="12.3" y="33.5" dominant-baseline="ideographic">Features Enhancing OrbitScan</tspan></text></g></g></g><g id="g-root-0.cu_sy_13ym6lco6go3w-stroke" data-item-order="999853844" data-item-id="0.cu_sy_13ym6lco6go3w" data-item-class="Part Indexed_0 Fill Stroke ColorFillBlack ColorStrokeGray" data-item-index="0" data-renderer-id="0" transform="translate(255, 158.3577880859375)"><g id="0.cu_sy_13ym6lco6go3w-stroke" fill="none" stroke-linecap="round" stroke-linejoin="round" stroke-miterlimit="4" stroke="#ffffff" stroke-width="2"><g><path d="M 166.6988 244.2845C 192.8911 235.8805 215.1623 218.7219 230.0683 196.2531M 91.7178 243.7642C 66.0029 235.1144 44.1819 217.9903 29.5746 195.7116M 10.1103 135.1924C 10.037 133.4707 10 131.7397 10 130C 10 101.9785 19.6045 76.2003 35.7012 55.7778M 87.0537 17.9135C 100.3881 12.8012 114.8669 10 130 10C 144.2451 10 157.9105 12.4821 170.5872 17.0375M 224.0516 55.4652C 240.2971 75.937 250 101.8354 250 130C 250 132.0633 249.9479 134.1144 249.845 136.1522"></path></g></g></g><g id="g-root-5.cu_sy_zisogwo6gow5-stroke" data-item-order="999853848" data-item-id="5.cu_sy_zisogwo6gow5" data-item-class="Part Indexed Fill Stroke" data-item-index="5" data-renderer-id="0" transform="translate(237.0430908203125, 108.22216796875)"><g id="5.cu_sy_zisogwo6gow5-stroke" fill="none" stroke-linecap="round" stroke-linejoin="round" stroke-miterlimit="4" stroke="#ffffff" stroke-width="2"><g><path d="M 105.412445 65.512619C 107.334228 53.379517 104.62735 40.513245 96.836242 29.789719C 81.254242 8.342926 51.236542 3.588593 29.789734 19.170609C 8.342956 34.752609 3.588592 64.77031 19.170624 86.217102C 26.961578 96.94046 38.361542 103.490738 50.494598 105.41243L 97.903534 112.921692L 105.410736 65.523529C 105.411316 65.519898 105.411865 65.516266 105.412445 65.512619Z"></path></g></g></g><g id="g-root-4.cu_sy_zisogwo6gow6-stroke" data-item-order="999853852" data-item-id="4.cu_sy_zisogwo6gow6" data-item-class="Part Indexed Fill Stroke" data-item-index="4" data-renderer-id="0" transform="translate(182.4705810546875, 276.86083984375)"><g id="4.cu_sy_zisogwo6gow6-stroke" fill="none" stroke-linecap="round" stroke-linejoin="round" stroke-miterlimit="4" stroke="#ffffff" stroke-width="2"><g><path d="M 100.781448 79.804077C 95.204544 90.749664 85.452041 99.567627 72.845779 103.663635C 47.63356 111.855591 20.554199 98.057983 12.362243 72.845764C 4.170303 47.633514 17.967926 20.554169 43.180145 12.362213C 55.786209 8.266266 68.859115 9.667694 79.804489 15.244659L 122.572952 37.035797L 100.786484 79.794342C 100.784775 79.797546 100.783096 79.800812 100.781448 79.804077Z"></path></g></g></g><g id="g-root-3.cu_sy_qn5o80o6gpov-stroke" data-item-order="999853856" data-item-id="3.cu_sy_qn5o80o6gpov" data-item-class="Part Indexed Fill Stroke" data-item-index="3" data-renderer-id="0" transform="translate(326, 354.474853515625)"><g id="3.cu_sy_qn5o80o6gpov-stroke" fill="none" stroke-linecap="round" stroke-linejoin="round" stroke-miterlimit="4" stroke="#ffffff" stroke-width="2"><g><path d="M 91.940796 43.941101C 100.627289 52.627411 106 64.627594 106 77.882507C 106 104.392212 84.509705 125.882507 58 125.882507C 31.490295 125.882507 10 104.392181 10 77.882507C 10 64.627716 15.372589 52.627716 24.058899 43.941406L 57.999695 10L 91.933105 43.933289C 91.935608 43.935913 91.938202 43.938507 91.940796 43.941101Z"></path></g></g></g><g id="g-root-2.cu_sy_v2z6cgo6gpog-stroke" data-item-order="999853860" data-item-id="2.cu_sy_v2z6cgo6gpog" data-item-class="Part Indexed Fill Stroke" data-item-index="2" data-renderer-id="0" transform="translate(454.832763671875, 277.861083984375)"><g id="2.cu_sy_v2z6cgo6gpog-stroke" fill="none" stroke-linecap="round" stroke-linejoin="round" stroke-miterlimit="4" stroke="#ffffff" stroke-width="2"><g><path d="M 52.76828 15.244873C 63.713715 9.667725 76.786835 8.266266 89.392975 12.362244C 114.605194 20.554199 128.402863 47.633545 120.210907 72.845764C 112.018952 98.058014 84.939606 111.855621 59.727387 103.663666C 47.121308 99.567718 37.368866 90.749878 31.791901 79.804504L 10 37.036407L 52.758454 15.249786C 52.761749 15.248199 52.764984 15.246551 52.76828 15.244873Z"></path></g></g></g><g id="g-root-1.cu_sy_hs5528o6go3l-stroke" data-item-order="999853864" data-item-id="1.cu_sy_hs5528o6go3l" data-item-class="Part Indexed Indexed_1 Fill Stroke" data-item-index="1" data-renderer-id="0" transform="translate(414.729736328125, 108.22216796875)"><g id="1.cu_sy_hs5528o6go3l-stroke" fill="none" stroke-linecap="round" stroke-linejoin="round" stroke-miterlimit="4" stroke="#ffffff" stroke-width="2"><g><path d="M 10.594422 65.512619C 8.672638 53.379517 11.379517 40.513245 19.170624 29.789719C 34.752625 8.342926 64.770325 3.588593 86.217102 19.170609C 107.663941 34.752609 112.418274 64.77031 96.836243 86.217102C 89.045288 96.94046 77.645325 103.490738 65.512268 105.41243L 18.103333 112.921692L 10.596131 65.523529C 10.595551 65.519898 10.595002 65.516266 10.594422 65.512619Z"></path></g></g></g><g id="g-root-tx_rewardpo_zqago0o6gnwv-stroke" data-item-order="1000000000" data-item-id="tx_rewardpo_zqago0o6gnwv" data-item-class="Label Stroke Indexed" data-item-index="5" data-renderer-id="0" transform="translate(74, 74)"></g><g id="g-root-tx_incentiv_1qcl0bko6gnwo-stroke" data-item-order="1000000000" data-item-id="tx_incentiv_1qcl0bko6gnwo" data-item-class="Label Stroke Indexed ColorFillBlack ColorStrokeBlack" data-item-index="5" data-renderer-id="0" transform="translate(50, 110)"></g><g id="g-root-tx_recommen_1lwri74o6gooy-stroke" data-item-order="1000000000" data-item-id="tx_recommen_1lwri74o6gooy" data-item-class="Label Stroke Indexed ColorFillBlack ColorStrokeBlack" data-item-index="3" data-renderer-id="0" transform="translate(297, 530)"></g><g id="g-root-tx_acolorco_1d14hy8o6gpho-stroke" data-item-order="1000000000" data-item-id="tx_acolorco_1d14hy8o6gpho" data-item-class="Label Stroke Indexed Indexed_1 ColorFillBlack ColorStrokeBlack" data-item-index="1" data-renderer-id="0" transform="translate(530, 110)"></g><g id="g-root-add_1lw4xy8o6i32d-stroke" data-item-order="1000000000" data-item-id="add_1lw4xy8o6i32d" data-item-class="Icon Stroke Indexed InsideFill InsideColorFill" data-item-index="5" data-renderer-id="0" transform="translate(260, 134)"><g id="add_1lw4xy8o6i32d-stroke" fill="none" stroke-linecap="round" stroke-linejoin="round" stroke-miterlimit="4" stroke="#ffffff" stroke-width="2"><g><path d="M 43.568001 37.624001L 41.798 39.164001L 46.798 54.183998C 46.935238 54.596989 46.789619 55.051315 46.437881 55.307583C 46.086143 55.56385 45.609051 55.56321 45.257999 55.306L 32.799999 46.164001L 20.332001 55.306C 19.980949 55.56321 19.503857 55.56385 19.152119 55.307583C 18.800381 55.051315 18.654764 54.596989 18.792 54.183998L 23.792 39.164001L 11.85 28.26C 11.531788 27.987877 11.416797 27.546324 11.561853 27.153553C 11.70691 26.760784 12.081301 26.499968 12.5 26.5L 26.799999 26.5L 31.868 13.148C 32.015343 12.759539 32.387535 12.502647 32.803001 12.502647C 33.218468 12.502647 33.590656 12.759539 33.737999 13.148L 34.686001 15.652M 56.5 21.5C 56.5 20.947716 56.052284 20.5 55.5 20.5L 50.5 20.5L 50.5 15.5C 50.5 14.947716 50.052284 14.5 49.5 14.5L 45.5 14.5C 44.947716 14.5 44.5 14.947716 44.5 15.5L 44.5 20.5L 39.5 20.5C 38.947716 20.5 38.5 20.947716 38.5 21.5L 38.5 25.5C 38.5 26.052284 38.947716 26.5 39.5 26.5L 44.5 26.5L 44.5 31.5C 44.5 32.052284 44.947716 32.5 45.5 32.5L 49.5 32.5C 50.052284 32.5 50.5 32.052284 50.5 31.5L 50.5 26.5L 55.5 26.5C 56.052284 26.5 56.5 26.052284 56.5 25.5Z"></path></g></g></g><g id="g-root-1_1d14hy8o6dx58-stroke" data-item-order="1000000000" data-item-id="1_1d14hy8o6dx58" data-item-class="Icon Stroke Indexed Indexed_1 InsideFill InsideColorFill" data-item-index="1" data-renderer-id="0" transform="translate(441, 134)"><g id="1_1d14hy8o6dx58-stroke" fill="none" stroke-linecap="round" stroke-linejoin="round" stroke-miterlimit="4" stroke="#ffffff" stroke-width="2"><g><path d="M 42 47C 42 48.104568 41.104568 49 40 49L 28 49C 26.89543 49 26 48.104568 26 47L 26 15C 26 12.790861 27.790861 11 30 11L 38 11C 40.209137 11 42 12.790861 42 15ZM 31 30C 31 31.656855 32.343147 33 34 33C 35.656853 33 37 31.656855 37 30C 37 28.343147 35.656853 27 34 27C 32.343147 27 31 28.343147 31 30M 31 41C 31 42.656857 32.343147 44 34 44C 35.656853 44 37 42.656857 37 41C 37 39.343147 35.656853 38 34 38C 32.343147 38 31 39.343147 31 41M 31 19C 31 20.656855 32.343147 22 34 22C 35.656853 22 37 20.656855 37 19C 37 17.343145 35.656853 16 34 16C 32.343147 16 31 17.343145 31 19M 34 49L 34 57M 42 16L 48.5 16C 48.699444 15.999306 48.880222 16.117207 48.959999 16.299999C 49.040771 16.489967 49.00153 16.709728 48.859997 16.860001L 42 23M 42 27L 48.5 27C 48.699444 26.999306 48.880222 27.117207 48.959999 27.299999C 49.040771 27.489967 49.00153 27.709728 48.859997 27.859999L 42 34M 42 38L 48.5 38C 48.699444 37.999306 48.880222 38.117207 48.959999 38.299999C 49.040771 38.489967 49.00153 38.709728 48.859997 38.860001L 42 45M 26 16L 19.5 16C 19.300556 15.999306 19.119778 16.117207 19.040001 16.299999C 18.959225 16.489967 18.998466 16.709728 19.139999 16.860001L 26 23M 26 27L 19.5 27C 19.300556 26.999306 19.119778 27.117207 19.040001 27.299999C 18.959225 27.489967 18.998466 27.709728 19.139999 27.859999L 26 34M 26 38L 19.5 38C 19.300556 37.999306 19.119778 38.117207 19.040001 38.299999C 18.959225 38.489967 18.998466 38.709728 19.139999 38.860001L 26 45"></path></g></g></g><g id="g-root-tx_healthra_1463ysgo6gnwh-stroke" data-item-order="1000000000" data-item-id="tx_healthra_1463ysgo6gnwh" data-item-class="Label Stroke Indexed Indexed_1" data-item-index="1" data-renderer-id="0" transform="translate(530, 50)"></g><g id="g-root-1_1urs1cwo6gqa7-stroke" data-item-order="1000000000" data-item-id="1_1urs1cwo6gqa7" data-item-class="Icon Stroke InsideFill ColorStrokeGray" data-item-index="none" data-renderer-id="0" transform="translate(327, 230)"><g id="1_1urs1cwo6gqa7-stroke" fill="none" stroke-linecap="round" stroke-linejoin="round" stroke-miterlimit="4" stroke="#ffffff" stroke-width="2"><g><path d="M 92.643997 96.800003C 92.263489 98.664139 90.622574 100.002289 88.720001 100L 27.280001 100C 25.377422 100.002289 23.736515 98.664139 23.355999 96.800003L 16 60L 100 60ZM 16 48L 100 48C 100 48 104 48 104 52L 104 56C 104 56 104 60 100 60L 16 60C 16 60 12 60 12 56L 12 52C 12 52 12 48 16 48M 24 40L 48 16M 92 40L 68 16M 64 68L 64 88M 80 68L 80 88M 52 68L 52 88M 36 68L 36 88"></path></g></g></g><g id="g-root-tx_interact_18laztso6gq9y-stroke" data-item-order="1000000000" data-item-id="tx_interact_18laztso6gq9y" data-item-class="Label Stroke Indexed" data-item-index="4" data-renderer-id="0" transform="translate(50, 254)"></g><g id="g-root-tx_ingredie_18laztso6gq9x-stroke" data-item-order="1000000000" data-item-id="tx_ingredie_18laztso6gq9x" data-item-class="Label Stroke Indexed" data-item-index="2" data-renderer-id="0" transform="translate(590, 254)"></g><g id="g-root-tx_engaging_1qcl0bko6gnwp-stroke" data-item-order="1000000000" data-item-id="tx_engaging_1qcl0bko6gnwp" data-item-class="Label Stroke Indexed ColorFillBlack ColorStrokeBlack" data-item-index="4" data-renderer-id="0" transform="translate(2, 314)"></g><g id="g-root-1_vb3cgwo6kxl9-stroke" data-item-order="1000000000" data-item-id="1_vb3cgwo6kxl9" data-item-class="Icon Stroke Indexed InsideFill InsideColorFill" data-item-index="4" data-renderer-id="0" transform="translate(206, 302)"><g id="1_vb3cgwo6kxl9-stroke" fill="none" stroke-linecap="round" stroke-linejoin="round" stroke-miterlimit="4" stroke="#ffffff" stroke-width="2"><g><path d="M 50 55L 47.32 47C 49.403286 46.832813 51.006699 45.089973 51 43C 54.313709 43 57 40.313709 57 37L 57 34C 56.992168 31.078262 54.880886 28.586948 52 28.1C 52.02219 24.208597 48.891327 21.033009 45 21C 45 16.581722 41.418278 13 37 13L 31 13C 26.581722 13 23 16.581722 23 21C 19.134007 21 16 24.134007 16 28C 13.238577 27.966864 10.973137 30.178577 10.940001 32.940002C 10.906863 35.701424 13.118576 37.966866 15.88 38L 26 38C 26 40.761425 28.238577 43 31 43L 40 43L 44 55M 26 38C 26 35.238579 28.238577 33 31 33M 37 33C 37 30.238577 39.238579 28 42 28C 44.761425 28 47 30.238577 47 33M 38 19C 38 21.761425 35.761425 24 33 24L 30 24C 27.238577 24 25 26.238577 25 29M 23 21C 25.351282 20.996225 27.546459 22.17651 28.84 24.139999M 52 35C 52 36.656853 50.656857 38 49 38"></path></g></g></g><g id="g-root-sear_1qegfkwo69mh3-stroke" data-item-order="1000000000" data-item-id="sear_1qegfkwo69mh3" data-item-class="Icon Stroke Indexed InsideFill InsideColorFill" data-item-index="2" data-renderer-id="0" transform="translate(494, 302)"><g id="sear_1qegfkwo69mh3-stroke" fill="none" stroke-linecap="round" stroke-linejoin="round" stroke-miterlimit="4" stroke="#ffffff" stroke-width="2"><g><path d="M 11.714286 30.297144C 11.712329 40.561554 20.03273 48.883545 30.297144 48.883545C 40.561554 48.883545 48.881958 40.561554 48.880001 30.297144C 48.881958 20.03273 40.561554 11.710742 30.297144 11.710742C 20.03273 11.710742 11.712329 20.03273 11.714286 30.297144M 56.285713 56.285713L 43.428574 43.428574"></path></g></g></g><g id="g-root-tx_detailed_1lwri74o6gooz-stroke" data-item-order="1000000000" data-item-id="tx_detailed_1lwri74o6gooz" data-item-class="Label Stroke Indexed ColorFillBlack ColorStrokeBlack" data-item-index="2" data-renderer-id="0" transform="translate(590, 314)"></g><g id="g-root-appl_1qbyg2oo6nojp-stroke" data-item-order="1000000000" data-item-id="appl_1qbyg2oo6nojp" data-item-class="Icon Stroke Indexed InsideFill InsideColorFill" data-item-index="3" data-renderer-id="0" transform="translate(350, 398)"><g id="appl_1qbyg2oo6nojp-stroke" fill="none" stroke-linecap="round" stroke-linejoin="round" stroke-miterlimit="4" stroke="#ffffff" stroke-width="2"><g><path d="M 34 55C 37 55 35 57 41 57C 47 57 53 45 53 37C 53 29 48 23 42 23C 36 23 36 25 34 25C 32 25 32 23 26 23C 20 23 15 29 15 37C 15 45 21 57 27 57C 33 57 31 55 34 55ZM 34 25L 34 21C 33.993408 18.793596 32.206406 17.00659 30 17L 26 17M 39.256001 19.836C 43.230129 19.276863 46.353825 16.153984 46.914001 12.18C 46.960098 11.857754 46.851749 11.532614 46.621567 11.302432C 46.391388 11.07225 46.066246 10.963903 45.743999 11.01C 41.77002 11.570174 38.647137 14.693871 38.087997 18.667999C 38.041 18.989904 38.148838 19.31509 38.378876 19.545124C 38.60891 19.77516 38.934093 19.882999 39.255997 19.835999Z"></path></g></g></g><g id="g-root-tx_alternat_1463ysgo6gnwg-stroke" data-item-order="1000000000" data-item-id="tx_alternat_1463ysgo6gnwg" data-item-class="Label Stroke Indexed" data-item-index="3" data-renderer-id="0" transform="translate(315, 470)"></g><g id="g-root-tx_features_8wi4tco6gowa-stroke" data-item-order="1000000000" data-item-id="tx_features_8wi4tco6gowa" data-item-class="Label Stroke Title ColorFillBlack ColorStrokeBlack" data-item-index="none" data-renderer-id="0" transform="translate(249, 2)"></g></g></g></svg>