<?xml version="1.0" encoding="utf-8" standalone="yes"?>
<!DOCTYPE svg PUBLIC "-//W3C//DTD SVG 1.1//EN" "http://www.w3.org/Graphics/SVG/1.1/DTD/svg11.dtd">
<svg width="888" height="349" viewBox="0 0 888 349" style="fill:none;stroke:none;fill-rule:evenodd;clip-rule:evenodd;stroke-linecap:round;stroke-linejoin:round;stroke-miterlimit:1.5;" version="1.1" xmlns="http://www.w3.org/2000/svg" xmlns:xlink="http://www.w3.org/1999/xlink"><style id="fontImports">@import url("https://fonts.googleapis.com/css2?family=Roboto:wght@400;700&amp;display=block");</style><g id="items" style="isolation: isolate"><g id="blend" style="mix-blend-mode:normal"><g id="g-root-ro_1cuw6q69rfugy-fill" data-item-order="999976600" data-item-id="ro_1cuw6q69rfugy" data-item-class="Shape Stroke Fill" data-item-index="none" data-renderer-id="0" transform="translate(350, 15)"><g id="ro_1cuw6q69rfugy-fill" stroke="none" fill="#f0f0f0"><g><path d="M 34 10L 142 10C 142 10 166 10 166 34L 166 136C 166 136 166 160 142 160L 34 160C 34 160 10 160 10 136L 10 34C 10 34 10 10 34 10"></path></g></g></g><g id="g-root-ro_18n6xvy9r61hr-fill" data-item-order="999986392" data-item-id="ro_18n6xvy9r61hr" data-item-class="Shape Stroke Fill" data-item-index="none" data-renderer-id="0" transform="translate(50, 3)"><g id="ro_18n6xvy9r61hr-fill" stroke="none" fill="#e6efff"><g><path d="M 22 10L 250 10C 250 10 262 10 262 22L 262 52C 262 52 262 64 250 64L 22 64C 22 64 10 64 10 52L 10 22C 10 22 10 10 22 10"></path></g></g></g><g id="g-root-ro_mah5hq9r4lqg-fill" data-item-order="999988336" data-item-id="ro_mah5hq9r4lqg" data-item-class="Shape Stroke Fill" data-item-index="none" data-renderer-id="0" transform="translate(554, 3)"><g id="ro_mah5hq9r4lqg-fill" stroke="none" fill="#e9fbf3"><g><path d="M 22 10L 214 10C 214 10 226 10 226 22L 226 52C 226 52 226 64 214 64L 22 64C 22 64 10 64 10 52L 10 22C 10 22 10 10 22 10"></path></g></g></g><g id="g-root-ro_v98j669quqyq-fill" data-item-order="999989632" data-item-id="ro_v98j669quqyq" data-item-class="Shape Stroke Fill" data-item-index="none" data-renderer-id="0" transform="translate(332, 201)"><g id="ro_v98j669quqyq-fill" stroke="none" fill="#ffe7e6"><g><path d="M 22 10L 190 10C 190 10 202 10 202 22L 202 52C 202 52 202 64 190 64L 22 64C 22 64 10 64 10 52L 10 22C 10 22 10 10 22 10"></path></g></g></g><g id="g-root-rate_mah5hq9r4lqf-fill" data-item-order="1000000000" data-item-id="rate_mah5hq9r4lqf" data-item-class="Icon Stroke" data-item-index="none" data-renderer-id="0" transform="translate(566, 15)"></g><g id="g-root-cu_147zwum9r5z4b-fill" data-item-order="1000000000" data-item-id="cu_147zwum9r5z4b" data-item-class="Curve Stroke ColorStrokeGray" data-item-index="none" data-renderer-id="0" transform="translate(302, 30)"></g><g id="g-root-cu_zs6eq69r5zwm-fill" data-item-order="1000000000" data-item-id="cu_zs6eq69r5zwm" data-item-class="Curve Stroke ColorStrokeGray" data-item-index="none" data-renderer-id="0" transform="translate(506, 30)"></g><g id="g-root-tx_healthco_qqanm69r4ky6-fill" data-item-order="1000000000" data-item-id="tx_healthco_qqanm69r4ky6" data-item-class="Label Stroke" data-item-index="none" data-renderer-id="0" transform="translate(602, 18)"><g id="tx_healthco_qqanm69r4ky6-fill" stroke="none" fill="#3bc482"><g><text style="font: 20px Roboto, sans-serif; white-space: pre;" font-size="20px" font-family="Roboto, sans-serif"><tspan x="14.14" y="33.5" dominant-baseline="ideographic">Health Concerns</tspan></text></g></g></g><g id="g-root-supp_1cuw6q69rfugx-fill" data-item-order="1000000000" data-item-id="supp_1cuw6q69rfugx" data-item-class="Icon Stroke" data-item-index="none" data-renderer-id="0" transform="translate(404, 39)"></g><g id="g-root-tx_complexi_8z0n4e9r4nbf-fill" data-item-order="1000000000" data-item-id="tx_complexi_8z0n4e9r4nbf" data-item-class="Label Stroke" data-item-index="none" data-renderer-id="0" transform="translate(26, 69)"><g id="tx_complexi_8z0n4e9r4nbf-fill" stroke="none" fill="#484848"><g><text style="font: 20px Roboto, sans-serif; white-space: pre;" font-size="20px" font-family="Roboto, sans-serif"><tspan x="13.81" y="33.5" dominant-baseline="ideographic">Complex Ingredient Lists</tspan></text></g></g></g><g id="g-root-cu_mgpwcu9r61hq-fill" data-item-order="1000000000" data-item-id="cu_mgpwcu9r61hq" data-item-class="Curve Stroke ColorStrokeGray" data-item-index="none" data-renderer-id="0" transform="translate(260, 57)"></g><g id="g-root-cu_qwjeha9r61hd-fill" data-item-order="1000000000" data-item-id="cu_qwjeha9r61hd" data-item-class="Curve Stroke ColorStrokeGray" data-item-index="none" data-renderer-id="0" transform="translate(260, 57)"></g><g id="g-root-cu_qwjeha9r61hf-fill" data-item-order="1000000000" data-item-id="cu_qwjeha9r61hf" data-item-class="Curve Stroke ColorStrokeGray" data-item-index="none" data-renderer-id="0" transform="translate(260, 57)"></g><g id="g-root-cu_hrj9xq9r7dot-fill" data-item-order="1000000000" data-item-id="cu_hrj9xq9r7dot" data-item-class="Curve Stroke ColorStrokeGray" data-item-index="none" data-renderer-id="0" transform="translate(578, 57)"></g><g id="g-root-cu_m7cs269r7dog-fill" data-item-order="1000000000" data-item-id="cu_m7cs269r7dog" data-item-class="Curve Stroke ColorStrokeGray" data-item-index="none" data-renderer-id="0" transform="translate(578, 57)"></g><g id="g-root-cu_m7cs269r7doi-fill" data-item-order="1000000000" data-item-id="cu_m7cs269r7doi" data-item-class="Curve Stroke ColorStrokeGray" data-item-index="none" data-renderer-id="0" transform="translate(578, 57)"></g><g id="g-root-tx_childsfo_1upanta9r4lji-fill" data-item-order="1000000000" data-item-id="tx_childsfo_1upanta9r4lji" data-item-class="Label Stroke" data-item-index="none" data-renderer-id="0" transform="translate(602, 69)"><g id="tx_childsfo_1upanta9r4lji-fill" stroke="none" fill="#484848"><g><text style="font: 20px Roboto, sans-serif; white-space: pre;" font-size="20px" font-family="Roboto, sans-serif"><tspan x="14.12" y="33.5" dominant-baseline="ideographic">Child's Food Sensitivities</tspan></text></g></g></g><g id="g-root-tx_unfamili_4jtm329r4kxw-fill" data-item-order="1000000000" data-item-id="tx_unfamili_4jtm329r4kxw" data-item-class="Label Stroke" data-item-index="none" data-renderer-id="0" transform="translate(2, 105)"><g id="tx_unfamili_4jtm329r4kxw-fill" stroke="none" fill="#484848"><g><text style="font: 20px Roboto, sans-serif; white-space: pre;" font-size="20px" font-family="Roboto, sans-serif"><tspan x="16.5" y="33.5" dominant-baseline="ideographic">Unfamiliar Scientific Terms</tspan></text></g></g></g><g id="g-root-tx_consumer_1hapoum9rftoo-fill" data-item-order="1000000000" data-item-id="tx_consumer_1hapoum9rftoo" data-item-class="Label Stroke" data-item-index="none" data-renderer-id="0" transform="translate(374, 93)"><g id="tx_consumer_1hapoum9rftoo-fill" stroke="none" fill="#484848"><g><text style="font: 20px Roboto, sans-serif; white-space: pre;" font-size="20px" font-family="Roboto, sans-serif"><tspan x="17.35" y="33.5" dominant-baseline="ideographic">Consumer </tspan><tspan x="14" y="57.5" dominant-baseline="ideographic">Challenges</tspan></text></g></g></g><g id="g-root-tx_desirefo_1q9h5ou9r4mbr-fill" data-item-order="1000000000" data-item-id="tx_desirefo_1q9h5ou9r4mbr" data-item-class="Label Stroke" data-item-index="none" data-renderer-id="0" transform="translate(602, 105)"><g id="tx_desirefo_1q9h5ou9r4mbr-fill" stroke="none" fill="#484848"><g><text style="font: 20px Roboto, sans-serif; white-space: pre;" font-size="20px" font-family="Roboto, sans-serif"><tspan x="12.35" y="33.5" dominant-baseline="ideographic">Desire for Healthy Choices</tspan></text></g></g></g><g id="g-root-tx_conflict_1upanta9r4ljh-fill" data-item-order="1000000000" data-item-id="tx_conflict_1upanta9r4ljh" data-item-class="Label Stroke" data-item-index="none" data-renderer-id="0" transform="translate(14, 141)"><g id="tx_conflict_1upanta9r4ljh-fill" stroke="none" fill="#484848"><g><text style="font: 20px Roboto, sans-serif; white-space: pre;" font-size="20px" font-family="Roboto, sans-serif"><tspan x="17.37" y="33.5" dominant-baseline="ideographic">Conflicting Health Claims</tspan></text></g></g></g><g id="g-root-tx_avoiding_1q9h5ou9r4mbs-fill" data-item-order="1000000000" data-item-id="tx_avoiding_1q9h5ou9r4mbs" data-item-class="Label Stroke" data-item-index="none" data-renderer-id="0" transform="translate(602, 141)"><g id="tx_avoiding_1q9h5ou9r4mbs-fill" stroke="none" fill="#484848"><g><text style="font: 20px Roboto, sans-serif; white-space: pre;" font-size="20px" font-family="Roboto, sans-serif"><tspan x="12.8" y="33.5" dominant-baseline="ideographic">Avoiding Harmful Ingredients</tspan></text></g></g></g><g id="g-root-cu_147zwum9r5z48-fill" data-item-order="1000000000" data-item-id="cu_147zwum9r5z48" data-item-class="Curve Stroke ColorStrokeGray" data-item-index="none" data-renderer-id="0" transform="translate(428, 165)"></g><g id="g-root-tx_inadequa_hunnda9r4miq-fill" data-item-order="1000000000" data-item-id="tx_inadequa_hunnda9r4miq" data-item-class="Label Stroke" data-item-index="none" data-renderer-id="0" transform="translate(380, 303)"><g id="tx_inadequa_hunnda9r4miq-fill" stroke="none" fill="#484848"><g><text style="font: 20px Roboto, sans-serif; white-space: pre;" font-size="20px" font-family="Roboto, sans-serif"><tspan x="16.9" y="33.5" dominant-baseline="ideographic">Inadequate Product Research</tspan></text></g></g></g><g id="g-root-stre_1hity4u9r60p2-fill" data-item-order="1000000000" data-item-id="stre_1hity4u9r60p2" data-item-class="Icon Stroke" data-item-index="none" data-renderer-id="0" transform="translate(260, 15)"></g><g id="g-root-coun_zofk7i9qutc9-fill" data-item-order="1000000000" data-item-id="coun_zofk7i9qutc9" data-item-class="Icon Stroke" data-item-index="none" data-renderer-id="0" transform="translate(344, 213)"></g><g id="g-root-tx_timepres_18k2kge9qusjk-fill" data-item-order="1000000000" data-item-id="tx_timepres_18k2kge9qusjk" data-item-class="Label Stroke" data-item-index="none" data-renderer-id="0" transform="translate(380, 216)"><g id="tx_timepres_18k2kge9qusjk-fill" stroke="none" fill="#e15e5a"><g><text style="font: 20px Roboto, sans-serif; white-space: pre;" font-size="20px" font-family="Roboto, sans-serif"><tspan x="11.75" y="33.5" dominant-baseline="ideographic">Time Pressure</tspan></text></g></g></g><g id="g-root-cu_zs6eq69r5zwp-fill" data-item-order="1000000000" data-item-id="cu_zs6eq69r5zwp" data-item-class="Curve Stroke ColorStrokeGray" data-item-index="none" data-renderer-id="0" transform="translate(356, 255)"></g><g id="g-root-cu_vccwlq9r60p0-fill" data-item-order="1000000000" data-item-id="cu_vccwlq9r60p0" data-item-class="Curve Stroke ColorStrokeGray" data-item-index="none" data-renderer-id="0" transform="translate(356, 255)"></g><g id="g-root-tx_limiteds_hunnda9r4mip-fill" data-item-order="1000000000" data-item-id="tx_limiteds_hunnda9r4mip" data-item-class="Label Stroke" data-item-index="none" data-renderer-id="0" transform="translate(380, 267)"><g id="tx_limiteds_hunnda9r4mip-fill" stroke="none" fill="#484848"><g><text style="font: 20px Roboto, sans-serif; white-space: pre;" font-size="20px" font-family="Roboto, sans-serif"><tspan x="15.66" y="33.5" dominant-baseline="ideographic">Limited Shopping Time</tspan></text></g></g></g><g id="g-root-tx_informat_1lyng9a9r5zwt-fill" data-item-order="1000000000" data-item-id="tx_informat_1lyng9a9r5zwt" data-item-class="Label Stroke" data-item-index="none" data-renderer-id="0" transform="translate(62, 18)"><g id="tx_informat_1lyng9a9r5zwt-fill" stroke="none" fill="#4682e3"><g><text style="font: 20px Roboto, sans-serif; white-space: pre;" font-size="20px" font-family="Roboto, sans-serif"><tspan x="12.06" y="33.5" dominant-baseline="ideographic">Information Overload</tspan></text></g></g></g><g id="g-root-ro_1cuw6q69rfugy-stroke" data-item-order="999976600" data-item-id="ro_1cuw6q69rfugy" data-item-class="Shape Stroke Fill" data-item-index="none" data-renderer-id="0" transform="translate(350, 15)"><g id="ro_1cuw6q69rfugy-stroke" fill="none" stroke-linecap="round" stroke-linejoin="round" stroke-miterlimit="4" stroke="#484848" stroke-width="2"><g><path d="M 34 10L 142 10C 142 10 166 10 166 34L 166 136C 166 136 166 160 142 160L 34 160C 34 160 10 160 10 136L 10 34C 10 34 10 10 34 10"></path></g></g></g><g id="g-root-ro_18n6xvy9r61hr-stroke" data-item-order="999986392" data-item-id="ro_18n6xvy9r61hr" data-item-class="Shape Stroke Fill" data-item-index="none" data-renderer-id="0" transform="translate(50, 3)"><g id="ro_18n6xvy9r61hr-stroke" fill="none" stroke-linecap="round" stroke-linejoin="round" stroke-miterlimit="4" stroke="#4682e3" stroke-width="2"><g><path d="M 22 10L 250 10C 250 10 262 10 262 22L 262 52C 262 52 262 64 250 64L 22 64C 22 64 10 64 10 52L 10 22C 10 22 10 10 22 10"></path></g></g></g><g id="g-root-ro_mah5hq9r4lqg-stroke" data-item-order="999988336" data-item-id="ro_mah5hq9r4lqg" data-item-class="Shape Stroke Fill" data-item-index="none" data-renderer-id="0" transform="translate(554, 3)"><g id="ro_mah5hq9r4lqg-stroke" fill="none" stroke-linecap="round" stroke-linejoin="round" stroke-miterlimit="4" stroke="#3bc482" stroke-width="2"><g><path d="M 22 10L 214 10C 214 10 226 10 226 22L 226 52C 226 52 226 64 214 64L 22 64C 22 64 10 64 10 52L 10 22C 10 22 10 10 22 10"></path></g></g></g><g id="g-root-ro_v98j669quqyq-stroke" data-item-order="999989632" data-item-id="ro_v98j669quqyq" data-item-class="Shape Stroke Fill" data-item-index="none" data-renderer-id="0" transform="translate(332, 201)"><g id="ro_v98j669quqyq-stroke" fill="none" stroke-linecap="round" stroke-linejoin="round" stroke-miterlimit="4" stroke="#e15e5a" stroke-width="2"><g><path d="M 22 10L 190 10C 190 10 202 10 202 22L 202 52C 202 52 202 64 190 64L 22 64C 22 64 10 64 10 52L 10 22C 10 22 10 10 22 10"></path></g></g></g><g id="g-root-rate_mah5hq9r4lqf-stroke" data-item-order="1000000000" data-item-id="rate_mah5hq9r4lqf" data-item-class="Icon Stroke" data-item-index="none" data-renderer-id="0" transform="translate(566, 15)"><g id="rate_mah5hq9r4lqf-stroke" fill="none" stroke-linecap="round" stroke-linejoin="round" stroke-miterlimit="4" stroke="#3bc482" stroke-width="2"><g><path d="M 11.242857 19.235714C 12.335714 13.964286 18.828571 10 25 17.007143C 33.80714 6.914286 43.214283 19.428572 36.828571 25.878571L 25 36.785713L 18.078571 30.357141M 11.071428 25L 16.428572 25L 19.642857 20.714285L 23.928572 28.214285L 27.142857 23.928572L 30.357141 23.928572"></path></g></g></g><g id="g-root-cu_147zwum9r5z4b-stroke" data-item-order="1000000000" data-item-id="cu_147zwum9r5z4b" data-item-class="Curve Stroke ColorStrokeGray" data-item-index="none" data-renderer-id="0" transform="translate(302, 30)"><g id="cu_147zwum9r5z4b-stroke" fill="none" stroke-linecap="round" stroke-linejoin="round" stroke-miterlimit="4" stroke="#888888" stroke-width="2" stroke-dasharray="5.0, 7.0"><g><path d="M 58 45L 55 45L 54.9 45C 50.422131 44.972593 45.63978 43.214375 41.299999 40C 38.67988 38.118536 36.018569 33.561496 33.999999 27.499999C 31.98143 21.438501 29.320119 16.881461 26.699999 15C 22.360218 11.785625 17.577867 10.027408 13.1 10L 13 10L 10 10"></path></g></g></g><g id="g-root-cu_zs6eq69r5zwm-stroke" data-item-order="1000000000" data-item-id="cu_zs6eq69r5zwm" data-item-class="Curve Stroke ColorStrokeGray" data-item-index="none" data-renderer-id="0" transform="translate(506, 30)"><g id="cu_zs6eq69r5zwm-stroke" fill="none" stroke-linecap="round" stroke-linejoin="round" stroke-miterlimit="4" stroke="#888888" stroke-width="2" stroke-dasharray="5.0, 7.0"><g><path d="M 10 45L 13 45L 13.1 45C 17.577866 44.972592 22.360217 43.214375 26.699999 40C 29.320119 38.118536 31.98143 33.561497 33.999999 27.499999C 36.018569 21.438502 38.67988 16.881462 41.299999 15C 45.63978 11.785625 50.422131 10.027407 54.899998 9.999999L 55 10L 58 10"></path></g></g></g><g id="g-root-tx_healthco_qqanm69r4ky6-stroke" data-item-order="1000000000" data-item-id="tx_healthco_qqanm69r4ky6" data-item-class="Label Stroke" data-item-index="none" data-renderer-id="0" transform="translate(602, 18)"></g><g id="g-root-supp_1cuw6q69rfugx-stroke" data-item-order="1000000000" data-item-id="supp_1cuw6q69rfugx" data-item-class="Icon Stroke" data-item-index="none" data-renderer-id="0" transform="translate(404, 39)"><g id="supp_1cuw6q69rfugx-stroke" fill="none" stroke-linecap="round" stroke-linejoin="round" stroke-miterlimit="4" stroke="#484848" stroke-width="2"><g><path d="M 43.720001 29.114C 43.719509 31.79845 45.89555 33.974888 48.580002 33.974888C 51.26445 33.974888 53.440491 31.79845 53.439999 29.114C 53.440491 26.42955 51.26445 24.253113 48.580002 24.253113C 45.89555 24.253113 43.719509 26.42955 43.720001 29.114M 57 43.695999C 56.396698 39.510277 52.809975 36.403454 48.580997 36.403454C 44.352024 36.403454 40.765297 39.510277 40.161999 43.695999ZM 11 27.818001L 20.6 35.587997C 20.91452 35.850201 21.371479 35.850201 21.685999 35.587997L 31.285999 27.818001M 29.452 26.799999L 30.375999 26.799999C 30.912743 26.831184 31.324142 27.288988 31.298 27.826L 31.298 40.139999C 31.324142 40.677013 30.912743 41.134819 30.375999 41.166L 11.922 41.166C 11.381969 41.134857 10.969296 40.672058 11 40.132L 11 27.818001C 10.978368 27.284039 11.388512 26.83119 11.922 26.799999L 29.452 26.799999ZM 46.425999 20.048C 43.998642 15.496334 39.414902 12.499486 34.271805 12.101587C 29.128712 11.70369 24.138571 13.95985 21.040001 18.084M 40.134003 19.237999L 46.428001 20.048M 47.316002 14.719999L 46.428001 20.048M 20.674 47.952C 23.101362 52.503666 27.685101 55.500515 32.828194 55.898415C 37.971291 56.29631 42.96143 54.04015 46.060001 49.916M 26.968 48.762001L 20.674 47.952M 19.785999 53.279999L 20.674 47.952"></path></g></g></g><g id="g-root-tx_complexi_8z0n4e9r4nbf-stroke" data-item-order="1000000000" data-item-id="tx_complexi_8z0n4e9r4nbf" data-item-class="Label Stroke" data-item-index="none" data-renderer-id="0" transform="translate(26, 69)"></g><g id="g-root-cu_mgpwcu9r61hq-stroke" data-item-order="1000000000" data-item-id="cu_mgpwcu9r61hq" data-item-class="Curve Stroke ColorStrokeGray" data-item-index="none" data-renderer-id="0" transform="translate(260, 57)"><g id="cu_mgpwcu9r61hq-stroke" fill="none" stroke-linecap="round" stroke-linejoin="round" stroke-miterlimit="4" stroke="#888888" stroke-width="2" stroke-dasharray="5.0, 7.0"><g><path d="M 28 10L 28 22L 28 34L 19 34L 10 34"></path></g></g></g><g id="g-root-cu_qwjeha9r61hd-stroke" data-item-order="1000000000" data-item-id="cu_qwjeha9r61hd" data-item-class="Curve Stroke ColorStrokeGray" data-item-index="none" data-renderer-id="0" transform="translate(260, 57)"><g id="cu_qwjeha9r61hd-stroke" fill="none" stroke-linecap="round" stroke-linejoin="round" stroke-miterlimit="4" stroke="#888888" stroke-width="2" stroke-dasharray="5.0, 7.0"><g><path d="M 28 10L 28 40L 28 70L 19 70L 10 70"></path></g></g></g><g id="g-root-cu_qwjeha9r61hf-stroke" data-item-order="1000000000" data-item-id="cu_qwjeha9r61hf" data-item-class="Curve Stroke ColorStrokeGray" data-item-index="none" data-renderer-id="0" transform="translate(260, 57)"><g id="cu_qwjeha9r61hf-stroke" fill="none" stroke-linecap="round" stroke-linejoin="round" stroke-miterlimit="4" stroke="#888888" stroke-width="2" stroke-dasharray="5.0, 7.0"><g><path d="M 28 10L 28 22L 28 94C 28.000002 100.627415 22.627419 105.999998 16.000002 105.999998L 15.9 106L 10 106"></path></g></g></g><g id="g-root-cu_hrj9xq9r7dot-stroke" data-item-order="1000000000" data-item-id="cu_hrj9xq9r7dot" data-item-class="Curve Stroke ColorStrokeGray" data-item-index="none" data-renderer-id="0" transform="translate(578, 57)"><g id="cu_hrj9xq9r7dot-stroke" fill="none" stroke-linecap="round" stroke-linejoin="round" stroke-miterlimit="4" stroke="#888888" stroke-width="2" stroke-dasharray="5.0, 7.0"><g><path d="M 10 10L 10 22L 10 34L 19 34L 28 34"></path></g></g></g><g id="g-root-cu_m7cs269r7dog-stroke" data-item-order="1000000000" data-item-id="cu_m7cs269r7dog" data-item-class="Curve Stroke ColorStrokeGray" data-item-index="none" data-renderer-id="0" transform="translate(578, 57)"><g id="cu_m7cs269r7dog-stroke" fill="none" stroke-linecap="round" stroke-linejoin="round" stroke-miterlimit="4" stroke="#888888" stroke-width="2" stroke-dasharray="5.0, 7.0"><g><path d="M 10 10L 10 40L 10 70L 19 70L 28 70"></path></g></g></g><g id="g-root-cu_m7cs269r7doi-stroke" data-item-order="1000000000" data-item-id="cu_m7cs269r7doi" data-item-class="Curve Stroke ColorStrokeGray" data-item-index="none" data-renderer-id="0" transform="translate(578, 57)"><g id="cu_m7cs269r7doi-stroke" fill="none" stroke-linecap="round" stroke-linejoin="round" stroke-miterlimit="4" stroke="#888888" stroke-width="2" stroke-dasharray="5.0, 7.0"><g><path d="M 10 10L 10 22L 10 94C 10.000004 100.627423 15.372587 106.000006 22.000005 106.000005L 22.1 106L 28 106"></path></g></g></g><g id="g-root-tx_childsfo_1upanta9r4lji-stroke" data-item-order="1000000000" data-item-id="tx_childsfo_1upanta9r4lji" data-item-class="Label Stroke" data-item-index="none" data-renderer-id="0" transform="translate(602, 69)"></g><g id="g-root-tx_unfamili_4jtm329r4kxw-stroke" data-item-order="1000000000" data-item-id="tx_unfamili_4jtm329r4kxw" data-item-class="Label Stroke" data-item-index="none" data-renderer-id="0" transform="translate(2, 105)"></g><g id="g-root-tx_consumer_1hapoum9rftoo-stroke" data-item-order="1000000000" data-item-id="tx_consumer_1hapoum9rftoo" data-item-class="Label Stroke" data-item-index="none" data-renderer-id="0" transform="translate(374, 93)"></g><g id="g-root-tx_desirefo_1q9h5ou9r4mbr-stroke" data-item-order="1000000000" data-item-id="tx_desirefo_1q9h5ou9r4mbr" data-item-class="Label Stroke" data-item-index="none" data-renderer-id="0" transform="translate(602, 105)"></g><g id="g-root-tx_conflict_1upanta9r4ljh-stroke" data-item-order="1000000000" data-item-id="tx_conflict_1upanta9r4ljh" data-item-class="Label Stroke" data-item-index="none" data-renderer-id="0" transform="translate(14, 141)"></g><g id="g-root-tx_avoiding_1q9h5ou9r4mbs-stroke" data-item-order="1000000000" data-item-id="tx_avoiding_1q9h5ou9r4mbs" data-item-class="Label Stroke" data-item-index="none" data-renderer-id="0" transform="translate(602, 141)"></g><g id="g-root-cu_147zwum9r5z48-stroke" data-item-order="1000000000" data-item-id="cu_147zwum9r5z48" data-item-class="Curve Stroke ColorStrokeGray" data-item-index="none" data-renderer-id="0" transform="translate(428, 165)"><g id="cu_147zwum9r5z48-stroke" fill="none" stroke-linecap="round" stroke-linejoin="round" stroke-miterlimit="4" stroke="#888888" stroke-width="2" stroke-dasharray="5.0, 7.0"><g><path d="M 10 10L 10 28L 10 46"></path></g></g></g><g id="g-root-tx_inadequa_hunnda9r4miq-stroke" data-item-order="1000000000" data-item-id="tx_inadequa_hunnda9r4miq" data-item-class="Label Stroke" data-item-index="none" data-renderer-id="0" transform="translate(380, 303)"></g><g id="g-root-stre_1hity4u9r60p2-stroke" data-item-order="1000000000" data-item-id="stre_1hity4u9r60p2" data-item-class="Icon Stroke" data-item-index="none" data-renderer-id="0" transform="translate(260, 15)"><g id="stre_1hity4u9r60p2-stroke" fill="none" stroke-linecap="round" stroke-linejoin="round" stroke-miterlimit="4" stroke="#4682e3" stroke-width="2"><g><path d="M 35 11.25L 32.5 13.75L 33.75 15.625L 31.25 17.5M 15 11.25L 17.5 13.75L 16.25 15.625L 18.75 17.5M 25 10.625L 23.75 12.5L 25 13.75M 15.625 39.375C 15.625001 34.542511 19.542509 30.625002 24.375002 30.625002C 29.207493 30.625002 33.125 34.542511 33.125 39.375004ZM 30.75 28.875C 30.051311 27.727335 29.703697 26.400316 29.75 25.057501L 29.75 23.5C 29.835196 21.526205 28.830721 19.664768 27.134151 18.652454C 25.437584 17.640139 23.322418 17.640139 21.625851 18.652454C 19.929281 19.664768 18.924807 21.526205 19.01 23.500002L 19.01 25.061249C 19.052563 26.403807 18.701481 27.72949 18 28.875M 19 24.375C 21.063871 24.373137 23.025196 23.475033 24.375 21.91375C 25.724802 23.475033 27.686129 24.373137 29.75 24.375M 29.108749 24.35125C 28.992445 26.881098 26.90752 28.872374 24.375 28.872374C 21.84248 28.872374 19.757555 26.881098 19.641251 24.35125M 28.504999 31.66L 24.375 36.25L 20.245001 31.66"></path></g></g></g><g id="g-root-coun_zofk7i9qutc9-stroke" data-item-order="1000000000" data-item-id="coun_zofk7i9qutc9" data-item-class="Icon Stroke" data-item-index="none" data-renderer-id="0" transform="translate(344, 213)"><g id="coun_zofk7i9qutc9-stroke" fill="none" stroke-linecap="round" stroke-linejoin="round" stroke-miterlimit="4" stroke="#e15e5a" stroke-width="2"><g><path d="M 25.00625 10.625C 31.659536 10.627845 37.44149 15.195983 38.983627 21.668079C 40.525764 28.140177 37.425064 34.824825 31.487951 37.827644C 25.550838 40.830463 18.328907 39.366695 14.029557 34.289116C 9.730206 29.211538 9.477019 21.847111 13.4175 16.48625M 14.83875 11.80625C 16.251381 11.806251 17.396481 12.951536 17.39625 14.364167C 17.396019 15.776798 16.250547 16.921711 14.837916 16.921249C 13.425285 16.92079 12.28056 15.775131 12.28125 14.3625C 12.28194 12.95052 13.42677 11.80625 14.83875 11.80625M 23.75 30L 23.75 23.125C 23.75 21.744287 22.630713 20.625 21.25 20.625C 19.869287 20.625 18.75 21.744287 18.75 23.125L 18.75 30M 18.75 26.25L 23.75 26.25M 31.875 27.5C 31.875 28.880713 30.755713 30 29.375 30L 27.5 30L 27.5 20.625L 29.375 20.625C 30.755713 20.625 31.875 21.744287 31.875 23.125Z"></path></g></g></g><g id="g-root-tx_timepres_18k2kge9qusjk-stroke" data-item-order="1000000000" data-item-id="tx_timepres_18k2kge9qusjk" data-item-class="Label Stroke" data-item-index="none" data-renderer-id="0" transform="translate(380, 216)"></g><g id="g-root-cu_zs6eq69r5zwp-stroke" data-item-order="1000000000" data-item-id="cu_zs6eq69r5zwp" data-item-class="Curve Stroke ColorStrokeGray" data-item-index="none" data-renderer-id="0" transform="translate(356, 255)"><g id="cu_zs6eq69r5zwp-stroke" fill="none" stroke-linecap="round" stroke-linejoin="round" stroke-miterlimit="4" stroke="#888888" stroke-width="2" stroke-dasharray="5.0, 7.0"><g><path d="M 10 10L 10 22L 10 34L 19 34L 28 34"></path></g></g></g><g id="g-root-cu_vccwlq9r60p0-stroke" data-item-order="1000000000" data-item-id="cu_vccwlq9r60p0" data-item-class="Curve Stroke ColorStrokeGray" data-item-index="none" data-renderer-id="0" transform="translate(356, 255)"><g id="cu_vccwlq9r60p0-stroke" fill="none" stroke-linecap="round" stroke-linejoin="round" stroke-miterlimit="4" stroke="#888888" stroke-width="2" stroke-dasharray="5.0, 7.0"><g><path d="M 10 10L 10 17.5L 10 58C 10.000002 64.627417 15.372585 70 22.000002 69.999999L 22.1 70L 28 70"></path></g></g></g><g id="g-root-tx_limiteds_hunnda9r4mip-stroke" data-item-order="1000000000" data-item-id="tx_limiteds_hunnda9r4mip" data-item-class="Label Stroke" data-item-index="none" data-renderer-id="0" transform="translate(380, 267)"></g><g id="g-root-tx_informat_1lyng9a9r5zwt-stroke" data-item-order="1000000000" data-item-id="tx_informat_1lyng9a9r5zwt" data-item-class="Label Stroke" data-item-index="none" data-renderer-id="0" transform="translate(62, 18)"></g></g></g></svg>