<?xml version="1.0" encoding="utf-8" standalone="yes"?>
<!DOCTYPE svg PUBLIC "-//W3C//DTD SVG 1.1//EN" "http://www.w3.org/Graphics/SVG/1.1/DTD/svg11.dtd">
<svg width="792" height="445" viewBox="0 0 792 445" style="fill:none;stroke:none;fill-rule:evenodd;clip-rule:evenodd;stroke-linecap:round;stroke-linejoin:round;stroke-miterlimit:1.5;" version="1.1" xmlns="http://www.w3.org/2000/svg" xmlns:xlink="http://www.w3.org/1999/xlink"><style id="fontImports"></style><g id="items" style="isolation: isolate"><g id="blend" style="mix-blend-mode:normal"><g id="g-root-4.cu_sy_4iku8abysyrl-fill" data-item-order="999928520" data-item-id="4.cu_sy_4iku8abysyrl" data-item-class="Part Indexed Fill Stroke ColorStrokeBlack" data-item-index="4" data-renderer-id="0" transform="translate(444.16845703125, 272.3671875)"></g><g id="g-root-3.cu_sy_1uood1mbysw7e-fill" data-item-order="999928524" data-item-id="3.cu_sy_1uood1mbysw7e" data-item-class="Part Indexed Fill Stroke ColorStrokeBlack" data-item-index="3" data-renderer-id="0" transform="translate(391.72265625, 212.005859375)"></g><g id="g-root-2.cu_sy_1uood1mbysw7f-fill" data-item-order="999928528" data-item-id="2.cu_sy_1uood1mbysw7f" data-item-class="Part Indexed Fill Stroke ColorStrokeBlack" data-item-index="2" data-renderer-id="0" transform="translate(254.361328125, 212)"></g><g id="g-root-1.cu_sy_1q8uux6byswzo-fill" data-item-order="999928532" data-item-id="1.cu_sy_1q8uux6byswzo" data-item-class="Part Indexed Indexed_1 Fill Stroke ColorStrokeBlack" data-item-index="1" data-renderer-id="0" transform="translate(194, 272.2236328125)"></g><g id="g-root-tx_research_1hi7nd6bz9r7v-fill" data-item-order="1000000000" data-item-id="tx_research_1hi7nd6bz9r7v" data-item-class="Label Stroke Title ColorFillBlack ColorStrokeBlack" data-item-index="none" data-renderer-id="0" transform="translate(284, 2)"><g id="tx_research_1hi7nd6bz9r7v-fill" stroke="none" fill="#484848"><g><text style="font: bold 25px Arial, Helvetica, sans-serif; white-space: pre;" font-weight="bold" font-size="25px" font-family="Arial, Helvetica, sans-serif"><tspan x="15.41" y="42" dominant-baseline="ideographic">Research Phase</tspan></text></g></g></g><g id="g-root-tx_targetau_1qd86iybz9tkx-fill" data-item-order="1000000000" data-item-id="tx_targetau_1qd86iybz9tkx" data-item-class="Label Stroke Indexed ColorStrokeBlack" data-item-index="2" data-renderer-id="0" transform="translate(182, 86)"><g id="tx_targetau_1qd86iybz9tkx-fill" stroke="none" fill="#484848"><g><text style="font: bold 20px Arial, Helvetica, sans-serif; white-space: pre;" font-weight="bold" font-size="20px" font-family="Arial, Helvetica, sans-serif"><tspan x="16.76" y="33" dominant-baseline="ideographic">Target Audience</tspan></text></g></g></g><g id="g-root-tx_userpers_1ut1onebz9sso-fill" data-item-order="1000000000" data-item-id="tx_userpers_1ut1onebz9sso" data-item-class="Label Stroke Indexed ColorStrokeBlack" data-item-index="3" data-renderer-id="0" transform="translate(434.076171875, 86)"><g id="tx_userpers_1ut1onebz9sso-fill" stroke="none" fill="#484848"><g><text style="font: bold 20px Arial, Helvetica, sans-serif; white-space: pre;" font-weight="bold" font-size="20px" font-family="Arial, Helvetica, sans-serif"><tspan x="11.96" y="33" dominant-baseline="ideographic">User Personas</tspan></text></g></g></g><g id="g-root-tx_thespeci_7r4sqbz9s7h-fill" data-item-order="1000000000" data-item-id="tx_thespeci_7r4sqbz9s7h" data-item-class="Label Stroke Indexed ColorFillBlack ColorStrokeBlack" data-item-index="2" data-renderer-id="0" transform="translate(188, 122)"><g id="tx_thespeci_7r4sqbz9s7h-fill" stroke="none" fill="#484848"><g><text style="font: 15px Arial, Helvetica, sans-serif; white-space: pre;" font-size="15px" font-family="Arial, Helvetica, sans-serif"><tspan x="16.29" y="30" dominant-baseline="ideographic">The specific group of </tspan><tspan x="16.3" y="48" dominant-baseline="ideographic">users the research is </tspan><tspan x="55.07" y="66" dominant-baseline="ideographic">aimed at.</tspan></text></g></g></g><g id="g-root-tx_detailed_93e51mbz9res-fill" data-item-order="1000000000" data-item-id="tx_detailed_93e51mbz9res" data-item-class="Label Stroke Indexed ColorFillBlack ColorStrokeBlack" data-item-index="3" data-renderer-id="0" transform="translate(428, 122)"><g id="tx_detailed_93e51mbz9res-fill" stroke="none" fill="#484848"><g><text style="font: 15px Arial, Helvetica, sans-serif; white-space: pre;" font-size="15px" font-family="Arial, Helvetica, sans-serif"><tspan x="32.13" y="30" dominant-baseline="ideographic">Detailed profiles </tspan><tspan x="15.17" y="48" dominant-baseline="ideographic">representing different </tspan><tspan x="49.23" y="66" dominant-baseline="ideographic">user types.</tspan></text></g></g></g><g id="g-root-tx_research_1qd86iybz9tky-fill" data-item-order="1000000000" data-item-id="tx_research_1qd86iybz9tky" data-item-class="Label Stroke Indexed Indexed_1 ColorStrokeBlack" data-item-index="1" data-renderer-id="0" transform="translate(32, 242)"><g id="tx_research_1qd86iybz9tky-fill" stroke="none" fill="#484848"><g><text style="font: bold 20px Arial, Helvetica, sans-serif; white-space: pre;" font-weight="bold" font-size="20px" font-family="Arial, Helvetica, sans-serif"><tspan x="16.19" y="33" dominant-baseline="ideographic">Research </tspan><tspan x="20.11" y="57" dominant-baseline="ideographic">Methods</tspan></text></g></g></g><g id="g-root-2_v3mfpmbz4554-fill" data-item-order="1000000000" data-item-id="2_v3mfpmbz4554" data-item-class="Icon Stroke Indexed InsideFill InsideColorFill ColorStrokeBlack" data-item-index="2" data-renderer-id="0" transform="translate(311, 254)"></g><g id="g-root-1_1hgc83ubz6z2k-fill" data-item-order="1000000000" data-item-id="1_1hgc83ubz6z2k" data-item-class="Icon Stroke Indexed InsideFill InsideColorFill ColorStrokeBlack" data-item-index="3" data-renderer-id="0" transform="translate(413, 254)"></g><g id="g-root-tx_keyfindi_1ut1onebz9ssn-fill" data-item-order="1000000000" data-item-id="tx_keyfindi_1ut1onebz9ssn" data-item-class="Label Stroke Indexed ColorStrokeBlack" data-item-index="4" data-renderer-id="0" transform="translate(620, 266)"><g id="tx_keyfindi_1ut1onebz9ssn-fill" stroke="none" fill="#484848"><g><text style="font: bold 20px Arial, Helvetica, sans-serif; white-space: pre;" font-weight="bold" font-size="20px" font-family="Arial, Helvetica, sans-serif"><tspan x="13.21" y="33" dominant-baseline="ideographic">Key Findings</tspan></text></g></g></g><g id="g-root-tx_methodsl_7r4sqbz9s7i-fill" data-item-order="1000000000" data-item-id="tx_methodsl_7r4sqbz9s7i" data-item-class="Label Stroke Indexed Indexed_1 ColorFillBlack ColorStrokeBlack" data-item-index="1" data-renderer-id="0" transform="translate(2, 302)"><g id="tx_methodsl_7r4sqbz9s7i-fill" stroke="none" fill="#484848"><g><text style="font: 15px Arial, Helvetica, sans-serif; white-space: pre;" font-size="15px" font-family="Arial, Helvetica, sans-serif"><tspan x="21.89" y="30" dominant-baseline="ideographic">Methods like surveys </tspan><tspan x="17.29" y="48" dominant-baseline="ideographic">and interviews used to </tspan><tspan x="51.89" y="66" dominant-baseline="ideographic">gather data.</tspan></text></g></g></g><g id="g-root-tx_signific_dil62ybz9tsb-fill" data-item-order="1000000000" data-item-id="tx_signific_dil62ybz9tsb" data-item-class="Label Stroke Indexed ColorFillBlack ColorStrokeBlack" data-item-index="4" data-renderer-id="0" transform="translate(602, 302)"><g id="tx_signific_dil62ybz9tsb-fill" stroke="none" fill="#484848"><g><text style="font: 15px Arial, Helvetica, sans-serif; white-space: pre;" font-size="15px" font-family="Arial, Helvetica, sans-serif"><tspan x="15.68" y="30" dominant-baseline="ideographic">Significant insights and </tspan><tspan x="13.61" y="48" dominant-baseline="ideographic">conclusions drawn from </tspan><tspan x="48.62" y="66" dominant-baseline="ideographic">the research.</tspan></text></g></g></g><g id="g-root-team_1uo1vyibyzzt9-fill" data-item-order="1000000000" data-item-id="team_1uo1vyibyzzt9" data-item-class="Icon Stroke Indexed Indexed_1 InsideFill InsideColorFill ColorStrokeBlack" data-item-index="1" data-renderer-id="0" transform="translate(236, 332)"></g><g id="g-root-1_dil62ybz9tsa-fill" data-item-order="1000000000" data-item-id="1_dil62ybz9tsa" data-item-class="Icon Stroke Indexed InsideFill InsideColorFill ColorStrokeBlack" data-item-index="4" data-renderer-id="0" transform="translate(488, 332)"></g><g id="g-root-view_1lpwzd6byx4p4-fill" data-item-order="1000000000" data-item-id="view_1lpwzd6byx4p4" data-item-class="Icon Stroke Title ColorStrokeBlack" data-item-index="none" data-renderer-id="0" transform="translate(350, 350)"></g><g id="g-root-4.cu_sy_4iku8abysyrl-stroke" data-item-order="999928520" data-item-id="4.cu_sy_4iku8abysyrl" data-item-class="Part Indexed Fill Stroke ColorStrokeBlack" data-item-index="4" data-renderer-id="0" transform="translate(444.16845703125, 272.3671875)"><g id="4.cu_sy_4iku8abysyrl-stroke" fill="none" stroke-linecap="butt" stroke-linejoin="miter" stroke-miterlimit="4" stroke="#484848" stroke-width="1"><g><path d="M 28.4966 135.818401L 143.6613 135.877701C 142.2492 87.2093 122.7257 43.0818 91.5959 10L 10 91.512001C 20.4126 103.606801 27.1545 118.952001 28.4966 135.818401Z"></path></g></g></g><g id="g-root-3.cu_sy_1uood1mbysw7e-stroke" data-item-order="999928524" data-item-id="3.cu_sy_1uood1mbysw7e" data-item-class="Part Indexed Fill Stroke ColorStrokeBlack" data-item-index="3" data-renderer-id="0" transform="translate(391.72265625, 212.005859375)"><g id="3.cu_sy_1uood1mbysw7e-stroke" fill="none" stroke-linecap="butt" stroke-linejoin="miter" stroke-miterlimit="4" stroke="#484848" stroke-width="1"><g><path d="M 54.2876 143.7073L 135.8836 62.1953C 102.8306 31.0287 58.7202 11.4613 10.0593 10L 10 125.1652C 26.8633 126.5242 42.2024 133.2815 54.2876 143.7073Z"></path></g></g></g><g id="g-root-2.cu_sy_1uood1mbysw7f-stroke" data-item-order="999928528" data-item-id="2.cu_sy_1uood1mbysw7f" data-item-class="Part Indexed Fill Stroke ColorStrokeBlack" data-item-index="2" data-renderer-id="0" transform="translate(254.361328125, 212)"><g id="2.cu_sy_1uood1mbysw7f-stroke" fill="none" stroke-linecap="butt" stroke-linejoin="miter" stroke-miterlimit="4" stroke="#484848" stroke-width="1"><g><path d="M 91.0519 143.2008C 103.3025 132.8468 118.8096 126.2255 135.8185 125.0916L 135.8777 10C 87.2093 11.4122 43.0818 30.9356 10 62.0655L 91.0519 143.2008Z"></path></g></g></g><g id="g-root-1.cu_sy_1q8uux6byswzo-stroke" data-item-order="999928532" data-item-id="1.cu_sy_1q8uux6byswzo" data-item-class="Part Indexed Indexed_1 Fill Stroke ColorStrokeBlack" data-item-index="1" data-renderer-id="0" transform="translate(194, 272.2236328125)"><g id="1.cu_sy_1q8uux6byswzo-stroke" fill="none" stroke-linecap="butt" stroke-linejoin="miter" stroke-miterlimit="4" stroke="#484848" stroke-width="1"><g><path d="M 62.1951 10C 31.0286 43.0529 11.4613 87.1633 10 135.8241L 124.1653 135.8829C 125.5445 118.7701 132.4829 103.2269 143.1729 91.0611L 62.1951 10Z"></path></g></g></g><g id="g-root-tx_research_1hi7nd6bz9r7v-stroke" data-item-order="1000000000" data-item-id="tx_research_1hi7nd6bz9r7v" data-item-class="Label Stroke Title ColorFillBlack ColorStrokeBlack" data-item-index="none" data-renderer-id="0" transform="translate(284, 2)"></g><g id="g-root-tx_targetau_1qd86iybz9tkx-stroke" data-item-order="1000000000" data-item-id="tx_targetau_1qd86iybz9tkx" data-item-class="Label Stroke Indexed ColorStrokeBlack" data-item-index="2" data-renderer-id="0" transform="translate(182, 86)"></g><g id="g-root-tx_userpers_1ut1onebz9sso-stroke" data-item-order="1000000000" data-item-id="tx_userpers_1ut1onebz9sso" data-item-class="Label Stroke Indexed ColorStrokeBlack" data-item-index="3" data-renderer-id="0" transform="translate(434.076171875, 86)"></g><g id="g-root-tx_thespeci_7r4sqbz9s7h-stroke" data-item-order="1000000000" data-item-id="tx_thespeci_7r4sqbz9s7h" data-item-class="Label Stroke Indexed ColorFillBlack ColorStrokeBlack" data-item-index="2" data-renderer-id="0" transform="translate(188, 122)"></g><g id="g-root-tx_detailed_93e51mbz9res-stroke" data-item-order="1000000000" data-item-id="tx_detailed_93e51mbz9res" data-item-class="Label Stroke Indexed ColorFillBlack ColorStrokeBlack" data-item-index="3" data-renderer-id="0" transform="translate(428, 122)"></g><g id="g-root-tx_research_1qd86iybz9tky-stroke" data-item-order="1000000000" data-item-id="tx_research_1qd86iybz9tky" data-item-class="Label Stroke Indexed Indexed_1 ColorStrokeBlack" data-item-index="1" data-renderer-id="0" transform="translate(32, 242)"></g><g id="g-root-2_v3mfpmbz4554-stroke" data-item-order="1000000000" data-item-id="2_v3mfpmbz4554" data-item-class="Icon Stroke Indexed InsideFill InsideColorFill ColorStrokeBlack" data-item-index="2" data-renderer-id="0" transform="translate(311, 254)"><g id="2_v3mfpmbz4554-stroke" fill="none" stroke-linecap="butt" stroke-linejoin="miter" stroke-miterlimit="4" stroke="#484848" stroke-width="1"><g><path d="M 34 18.848L 34 11M 34 57L 34 49.152M 18.848 34L 11 34M 57 34L 49.152 34M 14.964001 34C 14.964001 44.493412 23.470589 53 33.964001 53C 44.457409 53 52.964001 44.493412 52.964001 34C 52.964001 23.50659 44.457409 15 33.964001 15C 23.470589 15 14.964001 23.50659 14.964001 34M 32 41L 32 30C 32 27.790861 30.209139 26 28 26C 25.790861 26 24 27.790861 24 30L 24 41M 24 35L 32 35M 45 37C 45 39.209137 43.209141 41 41 41L 38 41L 38 26L 41 26C 43.209141 26 45 27.790861 45 30Z"></path></g></g></g><g id="g-root-1_1hgc83ubz6z2k-stroke" data-item-order="1000000000" data-item-id="1_1hgc83ubz6z2k" data-item-class="Icon Stroke Indexed InsideFill InsideColorFill ColorStrokeBlack" data-item-index="3" data-renderer-id="0" transform="translate(413, 254)"><g id="1_1hgc83ubz6z2k-stroke" fill="none" stroke-linecap="butt" stroke-linejoin="miter" stroke-miterlimit="4" stroke="#484848" stroke-width="1"><g><path d="M 55 57C 53.019978 53.95364 49.633297 52.115681 46 52.115681C 42.366707 52.115681 38.980026 53.95364 37 57.000004M 31 57C 29.019974 53.95364 25.633293 52.115681 22 52.115681C 18.366707 52.115681 14.980026 53.95364 13 57.000004M 43 32C 41.019974 28.95364 37.633293 27.115681 34 27.115681C 30.366707 27.115681 26.980028 28.95364 25 32M 28.497999 14.2C 30.532549 16.308092 33.33625 17.499159 36.265999 17.5C 37.736374 17.500805 39.191429 17.201355 40.542 16.619999M 27.6 17.5C 27.6 21.089851 30.510151 24 34.099998 24C 37.68985 24 40.599998 21.089851 40.599998 17.5C 40.599998 13.91015 37.68985 11 34.099998 11C 30.510151 11 27.6 13.91015 27.6 17.5ZM 16.498001 39.200001C 19.618252 42.433754 24.414831 43.39753 28.542 41.619999M 15.6 42.5C 15.6 46.089851 18.510151 49 22.1 49C 25.689852 49 28.6 46.089851 28.6 42.5C 28.6 38.910149 25.689852 36 22.1 36C 18.510151 36 15.6 38.910149 15.6 42.5ZM 40.498001 39.200001C 43.618252 42.433754 48.414829 43.39753 52.542 41.619999M 39.599998 42.5C 39.600002 46.089851 42.510151 49 46.100002 49C 49.689854 49 52.600002 46.089851 52.600002 42.5C 52.600002 38.910149 49.689854 36 46.100002 36C 42.510151 36 39.600002 38.910149 39.600002 42.5Z"></path></g></g></g><g id="g-root-tx_keyfindi_1ut1onebz9ssn-stroke" data-item-order="1000000000" data-item-id="tx_keyfindi_1ut1onebz9ssn" data-item-class="Label Stroke Indexed ColorStrokeBlack" data-item-index="4" data-renderer-id="0" transform="translate(620, 266)"></g><g id="g-root-tx_methodsl_7r4sqbz9s7i-stroke" data-item-order="1000000000" data-item-id="tx_methodsl_7r4sqbz9s7i" data-item-class="Label Stroke Indexed Indexed_1 ColorFillBlack ColorStrokeBlack" data-item-index="1" data-renderer-id="0" transform="translate(2, 302)"></g><g id="g-root-tx_signific_dil62ybz9tsb-stroke" data-item-order="1000000000" data-item-id="tx_signific_dil62ybz9tsb" data-item-class="Label Stroke Indexed ColorFillBlack ColorStrokeBlack" data-item-index="4" data-renderer-id="0" transform="translate(602, 302)"></g><g id="g-root-team_1uo1vyibyzzt9-stroke" data-item-order="1000000000" data-item-id="team_1uo1vyibyzzt9" data-item-class="Icon Stroke Indexed Indexed_1 InsideFill InsideColorFill ColorStrokeBlack" data-item-index="1" data-renderer-id="0" transform="translate(236, 332)"><g id="team_1uo1vyibyzzt9-stroke" fill="none" stroke-linecap="butt" stroke-linejoin="miter" stroke-miterlimit="4" stroke="#484848" stroke-width="1"><g><path d="M 48.372002 16.044001C 52.291336 19.179867 55.076473 23.512459 56.301998 28.379999M 28.893999 11.574C 33.791008 10.457128 38.919052 10.974849 43.493999 13.048M 13.27 24.034C 15.446266 19.510654 19.041515 15.822699 23.507999 13.532M 13.298 44.02C 11.111809 39.501293 10.462845 34.391754 11.45 29.469999M 28.954 56.439999C 24.056644 55.338619 19.65406 52.665321 16.417999 48.827999M 48.419998 51.917999C 44.510925 55.068394 39.678398 56.853199 34.66 57M 57 33.870003C 57.028275 38.890961 55.412731 43.783249 52.400002 47.799999M 37.400002 44.102001C 37.327347 39.271091 33.390457 35.392963 28.559 35.392963C 23.727547 35.392963 19.790653 39.271091 19.718 44.102001ZM 22.950001 27.525999C 22.950001 30.577927 25.424076 33.052002 28.476 33.052002C 31.527925 33.052002 34.001999 30.577927 34.001999 27.526001C 34.001999 24.474075 31.527925 22 28.476 22C 25.424076 22 22.950001 24.474075 22.950001 27.526001ZM 47.290001 36.625999C 44.258553 34.714645 40.373756 34.81966 37.450001 36.891998M 36.947998 27.525999C 36.948002 30.577927 39.422073 33.052002 42.474003 33.052002C 45.525925 33.052002 48 30.577927 48 27.526001C 48 24.474075 45.525925 22 42.474003 22C 39.422073 22 36.948002 24.474075 36.948002 27.526001Z"></path></g></g></g><g id="g-root-1_dil62ybz9tsa-stroke" data-item-order="1000000000" data-item-id="1_dil62ybz9tsa" data-item-class="Icon Stroke Indexed InsideFill InsideColorFill ColorStrokeBlack" data-item-index="4" data-renderer-id="0" transform="translate(488, 332)"><g id="1_dil62ybz9tsa-stroke" fill="none" stroke-linecap="butt" stroke-linejoin="miter" stroke-miterlimit="4" stroke="#484848" stroke-width="1"><g><path d="M 40 44.478001L 40 49.91C 40 52.762001 37.599998 53.91 34 53.91C 30.4 53.91 28 52.762001 28 49.91L 28 44.478001M 36 44.91L 36 32.91C 36 31.805431 36.895432 30.91 38 30.91C 39.104568 30.91 40 31.805431 40 32.91C 40 34.014572 39.104568 34.91 38 34.91L 30 34.91C 28.89543 34.91 28 34.014572 28 32.91C 28 31.805431 28.89543 30.91 30 30.91C 30.538679 30.881451 31.064144 31.082979 31.445583 31.464418C 31.827023 31.845856 32.028549 32.371323 32 32.91L 32 44.91M 39 44.91C 43.904827 42.96553 47.091576 38.185402 47 32.91C 46.872986 25.783569 41.126427 20.03701 34 19.91C 26.873571 20.03701 21.12701 25.783569 21 32.91C 20.908424 38.185402 24.095175 42.96553 29 44.91ZM 28 48.91L 40 48.91M 34 11.09L 34 14.91M 34 53.91L 34 56.91M 12 30.91L 16.582001 30.91M 17.181999 16.09L 21 19.91M 56 30.91L 51.417999 30.91M 50.818001 16.09L 47 19.91"></path></g></g></g><g id="g-root-view_1lpwzd6byx4p4-stroke" data-item-order="1000000000" data-item-id="view_1lpwzd6byx4p4" data-item-class="Icon Stroke Title ColorStrokeBlack" data-item-index="none" data-renderer-id="0" transform="translate(350, 350)"><g id="view_1lpwzd6byx4p4-stroke" fill="none" stroke-linecap="butt" stroke-linejoin="miter" stroke-miterlimit="4" stroke="#484848" stroke-width="1"><g><path d="M 47.5 61.086998C 47.5 68.590889 53.583107 74.673996 61.086998 74.673996C 68.590889 74.673996 74.673996 68.590889 74.673996 61.086998C 74.673996 53.583107 68.590889 47.5 61.086998 47.5C 53.583107 47.5 47.5 53.583107 47.5 61.086998ZM 80.5 80.5L 70.756004 70.756004M 42.046001 39.076C 45.604649 39.473099 49.195465 38.694458 52.27 36.859001C 52.63232 36.6432 52.882919 36.28054 52.956635 35.865311C 53.03035 35.450089 52.919895 35.023327 52.653999 34.695999C 51.43 33.252998 50.577999 31.339001 50.202999 25.795C 49.486 15.22 42.355 11.5 36.225998 11.5C 30.097 11.5 22.966 15.22 22.252001 25.795C 21.877001 31.336 21.025 33.252998 19.801001 34.695999C 19.535101 35.023327 19.424648 35.450089 19.498363 35.865311C 19.572079 36.28054 19.822678 36.6432 20.184999 36.858997C 23.257072 38.692314 26.844336 39.470867 30.4 39.075996M 48.954998 45.126999C 47.271999 44.473 45.424 43.792 43.446999 43.060001C 42.610855 42.74897 42.053482 41.95409 42.046001 41.062L 42.046001 37.135002C 42.042526 36.565105 42.280067 36.020287 42.699997 35.634998C 44.261616 34.362999 45.103828 32.408676 44.955997 30.400002L 44.956001 24.591999C 41.535652 24.003756 38.438854 22.210592 36.225998 19.536999C 34.014771 22.211006 30.918726 24.004349 27.498999 24.591999L 27.499001 30.400002C 27.354183 32.405594 28.196098 34.355881 29.755001 35.625999C 30.174931 36.011288 30.412472 36.556107 30.408998 37.125999L 30.409 41.053001C 30.401518 41.945091 29.844147 42.739975 29.008001 43.051003C 21.031 46.006001 15.169001 48.109001 13.651 51.151001C 12.355112 53.751865 11.62217 56.596741 11.5 59.5L 41.5 59.5"></path></g></g></g></g></g></svg>